<?xml version="1.0" encoding="utf-8"?>
<!-- Generator: Adobe Illustrator 25.3.0, SVG Export Plug-In . SVG Version: 6.00 Build 0)  -->
<svg version="1.1" id="Capa_1" xmlns="http://www.w3.org/2000/svg" xmlns:xlink="http://www.w3.org/1999/xlink" x="0px" y="0px"
	 viewBox="0 0 369 247" style="enable-background:new 0 0 369 247;" xml:space="preserve">
<style type="text/css">
	.st0{fill:#FFF7E9;}
	.st1{fill:none;stroke:#EFE4D3;stroke-width:0.75;stroke-miterlimit:10;}
	.st2{fill:#EFE4D3;}
</style>
<g>
	<g>
		<g>
			<path class="st0" d="M349.58,238.24H18.34c-5.73,0-10.38-4.65-10.38-10.38V18.62c0-5.73,4.65-10.38,10.38-10.38h331.24
				c5.73,0,10.38,4.65,10.38,10.38v209.24C359.96,233.6,355.31,238.24,349.58,238.24z"/>
		</g>
	</g>
	<g>
		<path class="st1" d="M183.96,32.5H38.63c-4.79,0-8.67,3.88-8.67,8.67v72.14v25.57v70.14c0,4.79,3.88,8.67,8.67,8.67h145.33"/>
		<path class="st2" d="M25.94,22.56l0.92,2.83c0.1,0.32,0.4,0.54,0.74,0.54h2.97c0.75,0,1.06,0.96,0.46,1.4l-2.41,1.75
			c-0.27,0.2-0.39,0.55-0.28,0.87l0.92,2.83c0.23,0.71-0.59,1.31-1.19,0.87l-2.41-1.75c-0.27-0.2-0.64-0.2-0.91,0l-2.41,1.75
			c-0.61,0.44-1.43-0.15-1.19-0.87l0.92-2.83c0.1-0.32-0.01-0.67-0.28-0.87l-2.41-1.75c-0.61-0.44-0.3-1.4,0.46-1.4h2.97
			c0.34,0,0.63-0.22,0.74-0.54l0.92-2.83C24.7,21.84,25.71,21.84,25.94,22.56z"/>
		<path class="st2" d="M346.1,22.56l-0.92,2.83c-0.1,0.32-0.4,0.54-0.74,0.54h-2.97c-0.75,0-1.06,0.96-0.46,1.4l2.41,1.75
			c0.27,0.2,0.39,0.55,0.28,0.87l-0.92,2.83c-0.23,0.71,0.59,1.31,1.19,0.87l2.41-1.75c0.27-0.2,0.64-0.2,0.91,0l2.41,1.75
			c0.61,0.44,1.43-0.15,1.19-0.87l-0.92-2.83c-0.1-0.32,0.01-0.67,0.28-0.87l2.41-1.75c0.61-0.44,0.3-1.4-0.46-1.4h-2.97
			c-0.34,0-0.63-0.22-0.74-0.54l-0.92-2.83C347.34,21.84,346.33,21.84,346.1,22.56z"/>
		<path class="st1" d="M177.08,26.39h148.95c4.19,10.57,12.55,19.04,23.05,23.37v19.42v63.85v67.42
			c-10.5,4.33-18.86,12.8-23.05,23.37H177.08"/>
		<path class="st2" d="M25.94,227.64l0.92-2.83c0.1-0.32,0.4-0.54,0.74-0.54h2.97c0.75,0,1.06-0.96,0.46-1.4l-2.41-1.75
			c-0.27-0.2-0.39-0.55-0.28-0.87l0.92-2.83c0.23-0.71-0.59-1.31-1.19-0.87l-2.41,1.75c-0.27,0.2-0.64,0.2-0.91,0l-2.41-1.75
			c-0.61-0.44-1.43,0.15-1.19,0.87l0.92,2.83c0.1,0.32-0.01,0.67-0.28,0.87l-2.41,1.75c-0.61,0.44-0.3,1.4,0.46,1.4h2.97
			c0.34,0,0.63,0.22,0.74,0.54l0.92,2.83C24.7,228.35,25.71,228.35,25.94,227.64z"/>
		<path class="st1" d="M183.96,223.81H46.01c-4.19-10.57-12.55-19.04-23.05-23.37v-67.42V69.17V49.76
			c10.5-4.33,18.86-12.8,23.05-23.37h137.95"/>
		<path class="st1" d="M177.08,217.69h156.33c4.79,0,8.67-3.88,8.67-8.67v-70.14v-25.57V41.17c0-4.79-3.88-8.67-8.67-8.67H177.08"/>
		<path class="st2" d="M346.1,227.64l-0.92-2.83c-0.1-0.32-0.4-0.54-0.74-0.54h-2.97c-0.75,0-1.06-0.96-0.46-1.4l2.41-1.75
			c0.27-0.2,0.39-0.55,0.28-0.87l-0.92-2.83c-0.23-0.71,0.59-1.31,1.19-0.87l2.41,1.75c0.27,0.2,0.64,0.2,0.91,0l2.41-1.75
			c0.61-0.44,1.43,0.15,1.19,0.87l-0.92,2.83c-0.1,0.32,0.01,0.67,0.28,0.87l2.41,1.75c0.61,0.44,0.3,1.4-0.46,1.4h-2.97
			c-0.34,0-0.63,0.22-0.74,0.54l-0.92,2.83C347.34,228.35,346.33,228.35,346.1,227.64z"/>
	</g>
</g>
</svg>
