<?xml version="1.0" encoding="utf-8"?>
<!-- Generator: Adobe Illustrator 25.3.0, SVG Export Plug-In . SVG Version: 6.00 Build 0)  -->
<svg version="1.1" id="Capa_2" xmlns="http://www.w3.org/2000/svg" xmlns:xlink="http://www.w3.org/1999/xlink" x="0px" y="0px"
	 viewBox="0 0 527.2 118.5" style="enable-background:new 0 0 527.2 118.5;" xml:space="preserve">
<style type="text/css">
	.st0{fill:#C1110C;}
	.st1{fill:#D31818;}
	.st2{fill:#002653;}
	.st3{fill:url(#SVGID_1_);}
	.st4{fill:#FF9C09;}
	.st5{fill:#D87B00;}
	.st6{fill:#FFF7E9;stroke:#FFF7E9;stroke-width:0.1634;stroke-miterlimit:10;}
	.st7{fill:#EFE4D3;}
	.st8{fill:none;stroke:#FFFFFF;stroke-width:4;stroke-miterlimit:10;}
	.st9{fill:#FDFDFD;}
	.st10{fill:#FEFEFE;}
	.st11{fill:#FBFBFB;}
	.st12{fill:#FAFAFA;}
	.st13{fill:#F3F3F3;}
	.st14{fill:#F9F9F9;}
	.st15{fill:#F5F5F5;}
	.st16{fill:none;stroke:#FFFFFF;stroke-width:3;stroke-miterlimit:10;}
	.st17{fill:#FFFFFF;stroke:#FFFFFF;stroke-width:3;stroke-miterlimit:10;}
	.st18{fill:#521B93;}
	.st19{fill:#FFB612;}
	.st20{fill:#FFDA1E;}
	.st21{fill:#BD5200;}
	.st22{fill:#9E320A;}
	.st23{fill:#ED3E1F;}
	.st24{fill:#D84905;}
	.st25{fill:url(#SVGID_6_);}
	.st26{fill:#F67205;}
	.st27{fill:url(#SVGID_7_);}
	.st28{fill:#F69D05;}
	.st29{fill:url(#SVGID_8_);}
	.st30{opacity:0.7;fill:url(#SVGID_9_);enable-background:new    ;}
	.st31{fill:url(#SVGID_10_);}
	.st32{opacity:0.7;fill:url(#SVGID_11_);enable-background:new    ;}
	.st33{fill:url(#SVGID_12_);}
	.st34{fill:#BA3E05;}
	.st35{opacity:0.5;fill:url(#SVGID_13_);enable-background:new    ;}
	.st36{opacity:0.4;fill:url(#SVGID_14_);enable-background:new    ;}
	.st37{opacity:0.4;fill:url(#SVGID_15_);enable-background:new    ;}
	.st38{fill:#F87D05;}
	.st39{fill:#FFB803;}
	.st40{fill:#F87E05;}
	.st41{fill:#FEB903;}
	.st42{fill:none;stroke:#BA3E05;stroke-width:0.337;stroke-miterlimit:10;}
	.st43{fill:#F87F05;}
	.st44{fill:none;stroke:#BA3E05;stroke-width:0.2808;stroke-miterlimit:10;}
	.st45{fill:none;stroke:#BA3E05;stroke-width:9.660358e-02;stroke-miterlimit:10;}
	.st46{fill:none;stroke:#F87D05;stroke-width:0.1327;stroke-miterlimit:10;}
	.st47{fill:#C16408;}
	.st48{fill:none;stroke:#BA3E05;stroke-width:0.3055;stroke-linecap:round;stroke-miterlimit:10;}
	.st49{fill:none;stroke:#BA3E05;stroke-width:0.3055;stroke-miterlimit:10;}
	.st50{fill:url(#SVGID_16_);}
	.st51{fill:url(#SVGID_17_);}
	.st52{fill:url(#SVGID_18_);}
	.st53{opacity:0.7;fill:url(#SVGID_19_);enable-background:new    ;}
	.st54{fill:url(#SVGID_20_);}
	.st55{opacity:0.7;fill:url(#SVGID_21_);enable-background:new    ;}
	.st56{fill:url(#SVGID_22_);}
	.st57{opacity:0.5;fill:url(#SVGID_23_);enable-background:new    ;}
	.st58{opacity:0.4;fill:url(#SVGID_24_);enable-background:new    ;}
	.st59{opacity:0.4;fill:url(#SVGID_25_);enable-background:new    ;}
	.st60{fill:url(#SVGID_26_);}
	.st61{fill:url(#SVGID_27_);}
	.st62{fill:url(#SVGID_28_);}
	.st63{opacity:0.7;fill:url(#SVGID_29_);enable-background:new    ;}
	.st64{fill:url(#SVGID_30_);}
	.st65{opacity:0.7;fill:url(#SVGID_31_);enable-background:new    ;}
	.st66{fill:url(#SVGID_32_);}
	.st67{opacity:0.5;fill:url(#SVGID_33_);enable-background:new    ;}
	.st68{opacity:0.4;fill:url(#SVGID_34_);enable-background:new    ;}
	.st69{opacity:0.4;fill:url(#SVGID_35_);enable-background:new    ;}
	.st70{fill:#290D56;}
	.st71{fill:#7138C1;}
	.st72{fill:#521A93;}
	.st73{fill:#C97700;}
	.st74{fill:#F7B04B;}
	.st75{fill:#FF9C00;}
	.st76{fill:#03596B;}
	.st77{fill:url(#SVGID_40_);}
	.st78{fill:url(#SVGID_41_);}
	.st79{fill:#FF923B;}
	.st80{fill:#BA896C;}
	.st81{fill:#EF943F;}
	.st82{fill:#EFA25D;}
	.st83{fill:#E68C2E;}
	.st84{fill:#EFAB16;}
	.st85{fill:#FFC00E;}
	.st86{fill:#FFCE0F;}
	.st87{fill:#FFB10D;}
	.st88{fill:#FFC60E;}
	.st89{fill:#FFCE15;}
	.st90{fill:#CA7300;}
	.st91{fill:#FFEC29;}
	.st92{fill:#EFB90D;}
	.st93{fill:#BD6000;}
	.st94{fill:#E47104;}
	.st95{fill:#E48409;}
	.st96{fill:#B55300;}
	.st97{fill:#CA6200;}
	.st98{fill:#EF9E07;}
	.st99{fill:#FFBB10;}
	.st100{fill:#FFFFFF;}
	.st101{fill:none;stroke:#CCCCCC;stroke-width:2.7123;stroke-miterlimit:10;}
	.st102{fill:none;stroke:#7138C1;stroke-width:3.5152;stroke-miterlimit:10;}
	.st103{fill:#3A0762;}
	.st104{fill:url(#SVGID_42_);}
	.st105{fill:url(#SVGID_43_);}
	.st106{fill:#191919;}
	.st107{fill:#121212;}
	.st108{fill:#EAA37D;}
	.st109{fill:#D98F5F;}
	.st110{fill:#3A3A3A;}
	.st111{fill:none;stroke:#191919;stroke-width:0.5917;stroke-miterlimit:10;}
	.st112{fill:none;stroke:#191919;stroke-width:0.2295;stroke-miterlimit:10;}
	.st113{fill:#1D1D1B;}
	.st114{fill:#D5D9E2;}
	.st115{fill:none;stroke:#191919;stroke-width:0.5831;stroke-miterlimit:10;}
	.st116{fill:none;stroke:#121212;stroke-width:0.5831;stroke-miterlimit:10;}
	.st117{fill:#C2272C;}
	.st118{fill:url(#SVGID_44_);}
	.st119{fill:url(#SVGID_45_);}
	.st120{fill:url(#SVGID_46_);}
	.st121{fill:url(#SVGID_47_);}
	.st122{fill:url(#SVGID_48_);}
	.st123{opacity:0.7;fill:url(#SVGID_49_);enable-background:new    ;}
	.st124{fill:url(#SVGID_50_);}
	.st125{opacity:0.7;fill:url(#SVGID_51_);enable-background:new    ;}
	.st126{fill:url(#SVGID_52_);}
	.st127{opacity:0.5;fill:url(#SVGID_53_);enable-background:new    ;}
	.st128{opacity:0.4;fill:url(#SVGID_54_);enable-background:new    ;}
	.st129{opacity:0.4;fill:url(#SVGID_55_);enable-background:new    ;}
	.st130{fill:none;stroke:#BA3E05;stroke-width:0.2707;stroke-miterlimit:10;}
	.st131{fill:none;stroke:#BA3E05;stroke-width:0.2256;stroke-miterlimit:10;}
	.st132{fill:none;stroke:#BA3E05;stroke-width:7.760166e-02;stroke-miterlimit:10;}
	.st133{fill:none;stroke:#F87D05;stroke-width:0.1066;stroke-miterlimit:10;}
	.st134{fill:none;stroke:#BA3E05;stroke-width:0.2454;stroke-linecap:round;stroke-miterlimit:10;}
	.st135{fill:none;stroke:#BA3E05;stroke-width:0.2454;stroke-miterlimit:10;}
	.st136{fill:#8C0E0E;}
	.st137{clip-path:url(#SVGID_57_);fill:#8C0E0E;}
	.st138{fill:#7C1111;}
	.st139{fill:url(#SVGID_58_);}
	.st140{fill:url(#SVGID_59_);}
	.st141{fill:#A86000;}
	.st142{clip-path:url(#SVGID_61_);fill:#3A0762;}
	.st143{fill:url(#SVGID_62_);}
	.st144{fill:url(#SVGID_63_);}
	.st145{fill:url(#SVGID_64_);}
	.st146{fill:url(#SVGID_65_);}
	.st147{opacity:0.7;fill:url(#SVGID_66_);enable-background:new    ;}
	.st148{fill:url(#SVGID_67_);}
	.st149{opacity:0.7;fill:url(#SVGID_68_);enable-background:new    ;}
	.st150{fill:url(#SVGID_69_);}
	.st151{opacity:0.5;fill:url(#SVGID_70_);enable-background:new    ;}
	.st152{opacity:0.4;fill:url(#SVGID_71_);enable-background:new    ;}
	.st153{opacity:0.4;fill:url(#SVGID_72_);enable-background:new    ;}
	.st154{fill:none;stroke:#BA3E05;stroke-width:0.6491;stroke-miterlimit:10;}
	.st155{fill:none;stroke:#BA3E05;stroke-width:0.5409;stroke-miterlimit:10;}
	.st156{fill:none;stroke:#BA3E05;stroke-width:0.1861;stroke-miterlimit:10;}
	.st157{fill:none;stroke:#F87D05;stroke-width:0.2555;stroke-miterlimit:10;}
	.st158{fill:none;stroke:#BA3E05;stroke-width:0.5885;stroke-linecap:round;stroke-miterlimit:10;}
	.st159{fill:none;stroke:#BA3E05;stroke-width:0.5885;stroke-miterlimit:10;}
	.st160{fill:url(#SVGID_73_);}
	.st161{fill:url(#SVGID_74_);}
	.st162{fill:url(#SVGID_75_);}
	.st163{opacity:0.7;fill:url(#SVGID_76_);enable-background:new    ;}
	.st164{fill:url(#SVGID_77_);}
	.st165{opacity:0.7;fill:url(#SVGID_78_);enable-background:new    ;}
	.st166{fill:url(#SVGID_79_);}
	.st167{opacity:0.5;fill:url(#SVGID_80_);enable-background:new    ;}
	.st168{opacity:0.4;fill:url(#SVGID_81_);enable-background:new    ;}
	.st169{opacity:0.4;fill:url(#SVGID_82_);enable-background:new    ;}
	.st170{fill:none;stroke:#BA3E05;stroke-width:0.5191;stroke-miterlimit:10;}
	.st171{fill:none;stroke:#BA3E05;stroke-width:0.4326;stroke-miterlimit:10;}
	.st172{fill:none;stroke:#BA3E05;stroke-width:0.1488;stroke-miterlimit:10;}
	.st173{fill:none;stroke:#F87D05;stroke-width:0.2043;stroke-miterlimit:10;}
	.st174{fill:none;stroke:#BA3E05;stroke-width:0.4706;stroke-linecap:round;stroke-miterlimit:10;}
	.st175{fill:none;stroke:#BA3E05;stroke-width:0.4706;stroke-miterlimit:10;}
	.st176{fill:url(#SVGID_83_);}
	.st177{fill:url(#SVGID_84_);}
	.st178{fill:url(#SVGID_85_);}
	.st179{opacity:0.7;fill:url(#SVGID_86_);enable-background:new    ;}
	.st180{fill:url(#SVGID_87_);}
	.st181{opacity:0.7;fill:url(#SVGID_88_);enable-background:new    ;}
	.st182{fill:url(#SVGID_89_);}
	.st183{opacity:0.5;fill:url(#SVGID_90_);enable-background:new    ;}
	.st184{opacity:0.4;fill:url(#SVGID_91_);enable-background:new    ;}
	.st185{opacity:0.4;fill:url(#SVGID_92_);enable-background:new    ;}
</style>
<g>
	<linearGradient id="SVGID_1_" gradientUnits="userSpaceOnUse" x1="259.5839" y1="137.1081" x2="269.9396" y2="-5.2835">
		<stop  offset="0.1369" style="stop-color:#3A0762"/>
		<stop  offset="0.4429" style="stop-color:#46107A"/>
		<stop  offset="0.7698" style="stop-color:#4F178C"/>
		<stop  offset="1" style="stop-color:#521A93"/>
	</linearGradient>
	<path class="st3" d="M519.2,3.9H80.4C73.9,1.4,66.7,0,59.2,0C26.5,0,0,26.5,0,59.2c0,32.7,26.5,59.2,59.2,59.2
		c7.5,0,14.6-1.4,21.2-3.9h438.8c4.4,0,8-3.6,8-8V11.9C527.2,7.5,523.6,3.9,519.2,3.9z"/>
	<g>
		
			<image style="overflow:visible;opacity:0.2;" width="115" height="115" xlink:href="1823BAC3.png"  transform="matrix(1 0 0 1 1.8557 1.6104)">
		</image>
		<g>
			<linearGradient id="SVGID_3_" gradientUnits="userSpaceOnUse" x1="91.3954" y1="2.0295" x2="35.7714" y2="101.4426">
				<stop  offset="0.1369" style="stop-color:#3A0762"/>
				<stop  offset="0.4429" style="stop-color:#46107A"/>
				<stop  offset="0.7698" style="stop-color:#4F178C"/>
				<stop  offset="1" style="stop-color:#521A93"/>
			</linearGradient>
			<circle style="fill:url(#SVGID_3_);" cx="59.3" cy="59.4" r="50.5"/>
		</g>
	</g>
	<path class="st100" d="M504,14.2H103.2c11.7,11.4,19,27.4,19,45.1s-7.3,33.6-19,45.1H504c5.7,0,10.4-4.6,10.4-10.4V24.5
		C514.4,18.8,509.8,14.2,504,14.2z"/>
	<path class="st101" d="M504,14.2H103.2c11.7,11.4,19,27.4,19,45.1s-7.3,33.6-19,45.1H504c5.7,0,10.4-4.6,10.4-10.4V24.5
		C514.4,18.8,509.8,14.2,504,14.2z"/>
	<g>
		<circle class="st102" cx="59.3" cy="59.4" r="49.3"/>
	</g>
	<path class="st103" d="M59.3,7.6C30.7,7.6,7.6,30.8,7.6,59.4s23.2,51.7,51.7,51.7s51.7-23.2,51.7-51.7S87.9,7.6,59.3,7.6z
		 M59.3,108.3c-27,0-48.9-21.9-48.9-48.9s21.9-48.9,48.9-48.9s48.9,21.9,48.9,48.9S86.3,108.3,59.3,108.3z"/>
	<g>
		<g>
			<path class="st106" d="M26.2,42.4c3.5-4.7,8.5-8.3,15.3-6c0,0-8.2,1.1-10,8.2C31.5,44.6,26.2,51.5,26.2,42.4L26.2,42.4z"/>
			<path class="st106" d="M31.5,44.6c1.8-7.1,10-8.2,10-8.2c-6.7-2.3-11.8,1.3-15.3,6c0,0-4,4-4.1-4.8c0.4-0.7,0.8-1.5,1.2-2.2
				c7.1-11.6,18.7-5.6,20-3c1.4,4.1-1.6,9.3-1.6,9.3c-2.8-0.1-4.6,1.6-5.8,3.8C36,45.5,32.4,51.1,31.5,44.6L31.5,44.6z"/>
			<path class="st107" d="M31.5,44.6c-0.3,1.2-0.4,2.7-0.3,4.3c-1.4,2.3-2.9,6.6-2.2,14.1c0,0-5.3-4.4-3.1-20.1
				c0.1-0.2,0.2-0.3,0.3-0.5C26.2,51.5,31.5,44.6,31.5,44.6L31.5,44.6z"/>
			<path class="st107" d="M34.1,57.1c0,0.2-0.3,0.3-0.3,0.1c-1.6-3.3-2.3-6-2.6-8.3c-0.2-1.6,0-3.1,0.3-4.3c0.9,6.6,4.6,1,4.6,0.9
				C34.1,49.4,34,55,34.1,57.1L34.1,57.1z"/>
			<path class="st107" d="M26.2,42.4c-0.1,0.2-0.2,0.3-0.3,0.5c-3.4,4.8-5.3,10.4-5.8,12.2c-0.1,0.2-0.3,0.2-0.3,0
				c-0.6-1.9-2.1-8.6,2.4-17.5C22.2,46.4,26.2,42.4,26.2,42.4z"/>
			<path class="st107" d="M22.5,37.8c-1.8,3.5-3,7.3-3.2,11.3c-0.1,2,0.1,4,0.6,5.8l0,0c0-0.1-0.1-0.1-0.2,0
				c1.4-4.4,3.4-8.6,6.1-12.3c0.1,1,0,2,0,2.9c0,1.5,0,3.6,0,5.2c0,0.4,0.1,1.5,0.1,1.9c0.1,0.6,0.1,1.3,0.2,1.9l0.2,1.3
				c0.4,2.5,1.1,5.1,2.7,7.1L28.9,63v0c-0.1-1.2-0.2-2.4-0.2-3.6c0-3.7,0.5-7.6,2.5-10.7c0.3,2.4,1.2,4.8,2.2,7
				c0.2,0.5,0.4,0.9,0.7,1.4l0,0l0,0c0,0,0,0,0,0c0,0,0,0,0,0c-0.1-0.2-0.4-0.1-0.4,0.1l0-0.1c-0.2-5.2,0.7-16.5,8.1-15.5
				c0,0-0.1,0.1-0.1,0c0.6-1.5,1-3,1.3-4.6c0.1-0.8,0.2-1.5,0.1-2.3c0-0.7-0.1-1.5-0.4-2.2l0,0.1c-0.5-0.8-1.4-1.3-2.2-1.8
				c-5.4-2.9-11.5-2-15.4,2.9C24.1,35,23.3,36.4,22.5,37.8L22.5,37.8z M21.7,37.3c2-4.1,4.9-7.9,9.5-9.1c4.1-1.1,8.6,0,11.8,2.7
				c0.4,0.3,0.7,0.7,0.9,1.1c1.1,3.2-0.2,7.1-2.2,9.8c-6.2,0.5-7.1,9-7.3,13.9c0,0.5,0,1,0,1.4c0,0.6-0.8,0.8-1.1,0.3
				c-0.7-1.6-1.3-3.3-1.8-5c-0.3-1.2-0.5-2.4-0.5-3.6l0.2,0c-1.3,2-1.9,4.4-2.2,6.8c-0.3,2.4-0.2,4.8,0,7.2l0,0.2L28.9,63
				c-0.7-0.5-1.2-1.3-1.7-2.1c-1.8-3.1-2.4-6.7-2.5-10.3c0-2.6,0.3-5.3,1-7.8v0l0.2,0.1c-2.4,3.6-4.2,7.6-5.5,11.7l-0.1,0.5
				c0,0.1-0.1,0.2-0.2,0.2c-0.2,0.2-0.6,0-0.7-0.3c-1-3.2-1-6.7-0.4-10.1C19.6,42.3,20.5,39.8,21.7,37.3L21.7,37.3z"/>
			<path class="st107" d="M41.5,36.3c-6.4-1.7-13.2,1.1-16.6,7.1c0,0,0.7-0.6,1-0.5c0.4,0.2,0.3,1.4,0.3,1.4
				c0.6-1.3,1.8-3.5,2.8-4.6c3.2-3.2,8.1-4,12.4-3.2L41.5,36.3L41.5,36.3z"/>
			<path class="st107" d="M37.6,38c-3.6,2-7.4,5.3-7.1,9.8l1.3-0.1c-0.1-0.5-0.1-0.9-0.1-1.4c0.2-2.5,1.8-4.6,3.6-6.2
				c0.7-0.7,1.5-1.3,2.4-1.9L37.6,38z"/>
			<path class="st108" d="M34.1,58.2c-1.1-10.4,4.1-16.8,7.5-19.7c0.3,0.9,0.5,1.5,0.5,1.5c4-2.3,15.5,0.1,26.4,10.2
				C72,53.4,76,55.6,79.8,57c0,0,0.7,8.4-1.8,13.9c-0.2,0.5,0.2,1.2,0.8,1.1c1.5-0.2,3.9-1,6-3.4c0.2-0.3,0.4-0.5,0.7-0.8
				c0.3-0.5,0.6-1,0.9-1.5c0,0,0,0,0,0c0.1-0.1,0.1-0.2,0.2-0.3c2.6-3.6,5.8-4.5,8.1-3.4c2.3,1.1,3.6,4.2,2.4,8.3
				c-4.2,12.4-11.2,9.6-11.2,9.6s-6.9,11.3-19,16.1c-16.2,6.5-33.7-1.6-34.8-14.1C30.2,72.8,35.8,73.4,34.1,58.2L34.1,58.2z"/>
			<path class="st106" d="M46.4,22.4c9.8-2,37.6,1.5,45.9,14c1.8,2.7,3.2,5.4,4.1,8c0,0,0.7,4-4.6,3.3c-5.4-0.7-6.4-2-6.4-2
				S84.6,47.9,81,46c0,0-1,1.3-3.9,0.6c0,0-6.9,1.1-7.6,4.4c-0.3-0.3-0.7-0.6-1-0.9C57.6,40,46.1,37.6,42.1,39.9
				c0,0-0.2-0.6-0.5-1.5C40.5,34.5,38.4,24,46.4,22.4L46.4,22.4z"/>
			<path class="st107" d="M77.2,46.7c1,0.2,1.8,0.2,2.4,0.1c0.3-0.1,0.4-0.4,0.2-0.7c-1.8-2.5-3.6-5-5.1-7.6l0.2-0.1
				c1.1,0.9,2.1,1.9,3,2.9c1.6,1.7,3.2,3.5,4.7,5.3c0.1,0.1,0.2,0.1,0.3,0.1c0.8,0.1,1.4,0,1.8-0.2c0.2-0.1,0.3-0.4,0.1-0.6
				c-3.8-4.5-7.5-9-11-13.7l0.1-0.1c1.5,1.5,2.9,3.1,4.3,4.7c2.8,3.1,5.6,6.3,8.4,9.5c0,0,0,0,0,0c0.1,0.1,0.3,0.2,0.4,0.3
				c1,0.4,2.5,0.8,4.8,1.1c2.9,0.4,4-0.6,4.4-1.6c0.2-0.4,0.7-0.3,0.8,0c1.8,5.4,2,9.8,1.8,11.6c0,0.3-0.3,0.4-0.5,0.4
				c-0.7-0.2-2.2-0.7-3.7-1.9c-0.4-0.3-0.8,0.1-0.6,0.5c0.4,0.9,0.8,1.9,0.9,2.7c0,0.2-0.2,0.5-0.4,0.5h0c-1.2,0-4.7-0.1-9-1.1
				c-1.8-0.4-3.6-0.9-5.6-1.7c-3.4-1.3-6.9-3.1-10.1-5.8c-0.1-0.1-0.2-0.3-0.1-0.5c1-2.8,6.7-3.9,7.5-4.1
				C77.1,46.7,77.1,46.7,77.2,46.7L77.2,46.7z"/>
			<path class="st107" d="M42.2,39.9c-1.2-4.5-2.7-13,1.7-16c1.6-1,3.5-1,5.4-1.2c3.8-0.2,7.7,0.1,11.6,0.5
				c10.2,1.3,24.5,4.6,30.7,13.5c4.5,6.1,7.1,13.8,6.6,21.4l0.7-0.6h0h0c-0.8-0.1-1.6-0.4-2.3-0.7c-2.9-1.4-5.2-3.9-7.2-6.3
				l-0.2,0.1c2.1,3.2,4.7,6.4,8.3,7.9c0.4,0.1,0.9,0.3,1.3,0.3l0.6,0c0.1-0.4,0.1-1,0.2-1.4c0.3-3.7-0.3-7.5-1.3-11.1
				c-1.5-5-4.2-9.8-7.7-13.5c-7.2-7.1-19.6-10-29.4-11.1c-4.9-0.5-9.9-0.7-14.8,0.1c-1,0.2-2,0.6-2.9,1.2c-3.4,2.5-3.3,7.4-2.8,11.2
				c0.3,1.9,0.8,3.9,1.4,5.7L42.2,39.9L42.2,39.9z"/>
			<path class="st109" d="M45.5,97.3c0,0,36.7-4.4,32.4-22.3c-2.5-10.6,0.2-17.6,1.9-18c1.7-0.4-1.9,4.2,2.4,6.6
				c4.3,2.4,2.6,5,2.6,5s-3.4,8.6,1,11.9C80.5,88.8,66.9,102.9,45.5,97.3L45.5,97.3z"/>
			<path class="st107" d="M40.9,28.1c2.7-3.5,7.1-4.5,11.1-3c2.6,0.9,5,2.5,7,4.3c1.3,1.1,2.6,2.4,3.8,3.6
				c3.6,3.9,7.3,7.7,11.1,11.5c4.1,4,8.1,8,12.7,11.4c1.8,1.2,3.6,2.4,5.6,3.2c0.7,0.2,1.4,0.5,2.1,0.5l0-0.2
				c-0.7-0.3-1.3-0.6-1.9-1c-1.8-1.1-3.4-2.4-5-3.8c-4.3-3.6-8.4-7.4-12.5-11.4c-3.4-3.4-7.1-7.1-10.5-10.5
				c-3.5-3.6-7.4-7.1-12.3-8.5c-2.8-0.8-6-0.7-8.5,0.9c-1.2,0.8-2.3,1.8-3.1,3L40.9,28.1L40.9,28.1z"/>
			<path class="st110" d="M69.1,42.5c-2.3-1.9-3.9-3.8-3.5-4.3c0.4-0.5,2.6,0.7,4.9,2.6c2.3,1.9,3.9,3.8,3.5,4.3
				C73.6,45.6,71.4,44.4,69.1,42.5z"/>
			<path class="st110" d="M80.3,35.3c0.4-0.3,1.6,0.6,3,2.1c0.2,0.3,0.7,0.1,0.8-0.2c0-0.2,0.1-0.4,0.3-0.5c0.6-0.5,2.1,0.4,3.2,1.9
				c1.1,1.5,1.5,3.2,0.9,3.6c-0.2,0.2-0.5,0.2-0.9,0c-0.4-0.1-0.7,0.2-0.5,0.6c0.5,1,0.6,1.8,0.3,2c-0.6,0.4-2.6-1.4-4.5-4
				C80.9,38.2,79.8,35.7,80.3,35.3L80.3,35.3z"/>
			<path class="st110" d="M70.1,36.9c0.2-0.3,1.2,0.1,2.4,0.9c0.3,0.2,0.8-0.1,0.6-0.5c-0.1-0.3-0.2-0.5,0-0.6
				c0.4-0.5,2.8,0.7,5.3,2.8c2.5,2.1,4.2,4.2,3.8,4.7c-0.3,0.3-1.2,0-2.4-0.7c-0.3-0.2-0.7,0.2-0.6,0.5c0.1,0.2,0.1,0.4,0,0.5
				c-0.4,0.5-2.7-0.9-5.2-2.9C71.4,39.5,69.7,37.4,70.1,36.9L70.1,36.9z"/>
			<path class="st106" d="M85.7,62.9c-4.5,2.1-5.6-0.4-5.8-2.3c0-2.1-0.1-3.6-0.1-3.6c1.9,0.7,3.8,1.3,5.6,1.7c4.3,1,7.8,1.1,9,1.1
				c0.3,1.8,0.2,2.9,0.2,2.9c-0.1,0-0.2-0.1-0.3-0.1l0.3-0.4C94.6,62.1,92.5,59.8,85.7,62.9L85.7,62.9z"/>
			<path class="st107" d="M86.6,66.1c-0.1,0.1-0.1,0.2-0.2,0.3c0,0,0,0,0,0c-0.3,0.5-0.6,1-0.9,1.5c-0.2,0.3-0.4,0.6-0.7,0.8
				c-2.1,2.4-4.5,3.1-6,3.4c-0.6,0.1-1.1-0.5-0.8-1.1c1.5-3.2,1.8-7.4,1.9-10.3c0.2,1.9,1.3,4.3,5.8,2.3c6.8-3.1,8.9-0.8,8.9-0.8
				l-0.3,0.4C92.2,61.6,89.1,62.6,86.6,66.1L86.6,66.1z"/>
			<path class="st107" d="M92.5,54.2c0.6,1.4,1.2,2.8,1.5,4.2c0.1,0.3,0.2,0.9,0.1,1.1l0.7-0.6c-7-0.2-13.9-2-20.1-5.3
				c-2.3-1.3-4.4-2.8-6.4-4.5c-0.6-0.6-1.4-1.3-2-1.8c-5.2-4.3-12.9-8.1-19.6-8.4c-1.2,0-2.4,0.1-3.6,0.4l0.1,0.2
				c1.1-0.2,2.3-0.3,3.5-0.2c6.5,0.7,13.9,4.7,18.7,9c0.4,0.3,0.9,0.9,1.3,1.2c2.1,2.1,4.6,4,7.2,5.5c6.5,3.7,14.1,5.6,21.6,5.4
				l0.1-0.6c0-0.8-0.2-1.2-0.4-1.8c-0.2-0.5-0.5-0.9-0.8-1.4c-0.5-0.9-1.1-1.7-1.7-2.5L92.5,54.2L92.5,54.2z"/>
			<path class="st107" d="M94.1,59.8c0.2,0.9,0.4,1.9,0.4,2.8c0,0,0,0,0,0l0.2-0.1c-2.4-1.2-5.1,0.1-6.8,1.8c-0.5,0.5-1,1.1-1.4,1.6
				c-0.4,0.5-0.8,1.2-1.1,1.8l-0.5,0.6c-1.1,1.3-2.5,2.4-4.1,3c-0.7,0.2-1.4,0.5-2.1,0.5c-0.4,0-0.6-0.4-0.5-0.8
				c0.3-0.7,0.6-1.4,0.8-2.1c1.1-3.9,1.3-7.9,1.1-11.9L80,57.2l0,0l-0.4-0.5l0,0L79.5,57c0.3,3.9,0.1,8-1,11.8
				c-0.2,0.7-0.5,1.4-0.8,2.1c-0.3,0.6,0.2,1.4,0.9,1.4c1.3-0.1,2.5-0.6,3.6-1.2c1.3-0.8,2.4-1.9,3.3-3.1c0.3-0.6,0.7-1.2,1.1-1.8
				c0.9-1.2,2-2.3,3.3-3.1c1.4-0.8,3.2-1.1,4.7-0.3c0.2-1,0.1-2.1,0-3.1L94.1,59.8L94.1,59.8z"/>
			<path class="st109" d="M85.9,69.7c0,0.1,0,0.2,0.1,0.1c0.9-0.3,3.9-1.2,4,2.6c0.1,2.7-2.3,3.8-3.6,4.3c-0.1,0-0.1,0.2,0,0.2
				c1.2,0,3.3,0.2,3.6,0.8c0,0.1,0.2,0.1,0.2,0.1c0.9-0.5,4.7-3,4.2-9.8C94.2,63.9,88.7,64.9,85.9,69.7L85.9,69.7z"/>
			<path class="st107" d="M94.5,63.2C94.5,63.2,94.4,63.2,94.5,63.2C94.4,63.2,94.4,63.2,94.5,63.2L94.5,63.2z"/>
			<path class="st107" d="M35.3,46.1c1.1-2.5,2.9-4.6,4.8-6.6l1.3-1.3l0.3,0.3c-1.2,1.2-2.6,2.6-3.6,4c-0.3,0.4-0.6,0.9-0.9,1.3
				c-0.3,0.6-0.7,1.1-1,1.7c-0.1,0.3-0.3,0.5-0.4,0.8l-0.3,0.8c-1.2,3.3-1.1,6.8-1,10.3c-0.3,0.1-0.5,0.2-0.8,0.3
				C33.7,53.8,33.7,49.8,35.3,46.1L35.3,46.1z"/>
			<path class="st107" d="M34.9,62.7c0,0.2,0,0.3,0,0.5c0,1.8-0.1,3.7-0.4,5.5c-0.4,2.4-1.5,4.6-1.9,6.9c-0.7,3.4-0.5,7.1,0.7,10.3
				c5.5,14.1,24.8,14.9,36.6,8.8c6.3-3.3,11.8-8.3,15.8-14.1l0-0.1l0.1,0c4,0.5,6.1-1.7,8.5-4.6c2.4-2.9,4.3-10.7,0.2-12.7
				c0,0,0,0,0,0l-0.1,0c0,0,0,0,0,0c-0.1,0-0.4-0.1-0.4-0.1c-0.9-0.3-1.9-0.3-2.8-0.1c-3.3,0.8-5.4,4.5-6.7,7.4l-0.2-0.1
				c0.3-1.2,0.7-2.3,1.2-3.4c1.4-2.8,3.9-5.4,7.3-5.2l0.5,0l0.5,0.1c0.1,0,0.2,0,0.2,0c0.2,0,0.5,0.1,0.7,0.2
				c0.6,0.3,1.1,0.6,1.5,1.1c2.6,2.9,1.6,8,0,11.2c-0.5,1-1.2,1.9-2,2.7c-2.1,2.3-4.5,4.2-7.8,3.7c-0.2,0-0.5-0.1-0.7-0.1
				c0,0,0,0,0-0.1l-0.1,0c0,0,0,0,0.1,0c-0.6,1-1.2,2-1.9,3c-2.8,3.9-6.3,7.4-10.3,10.1c-3.5,2.4-7.5,4.2-11.7,5
				c-8.9,1.8-19.3,0.6-25.8-6.3c-4.4-4.6-5.9-11.1-4.5-17.3c0.5-2.4,1.6-4.5,2-6.9c0.2-1.1,0.3-2.3,0.4-3.5c0-0.8,0-1.6,0-2.5
				C34.3,62.5,34.6,62.6,34.9,62.7L34.9,62.7z"/>
			<path class="st107" d="M85.8,80.6C85.8,80.6,85.8,80.7,85.8,80.6c-0.1,0.1-0.1,0.1-0.1,0L85.8,80.6L85.8,80.6z"/>
			<path class="st106" d="M34.9,62.1C34.6,62,34.3,62,34,61.9c0-1.2-0.1-2.4-0.1-3.5c0.3-0.1,0.5-0.2,0.8-0.3
				C34.7,59.4,34.8,60.8,34.9,62.1L34.9,62.1z"/>
			<path class="st107" d="M33.9,58.1c0-0.1,0-0.2,0-0.3c0.3-0.1,0.5-0.2,0.8-0.3c0,0.1,0,0.2,0,0.3C34.4,57.9,34.1,58,33.9,58.1
				L33.9,58.1z"/>
			<path class="st107" d="M34,62.2c0.3,0.1,0.6,0.1,0.9,0.2c0,0.1,0,0.2,0,0.3c-0.3-0.1-0.6-0.1-0.9-0.2C34,62.4,34,62.3,34,62.2
				L34,62.2z"/>
			<path class="st107" d="M34.9,62.1c0,0.1,0,0.2,0,0.3c-0.3-0.1-0.6-0.1-0.9-0.2c0-0.1,0-0.2,0-0.3C34.3,62,34.6,62,34.9,62.1
				L34.9,62.1z"/>
			<path class="st107" d="M33.9,58.4c0-0.1,0-0.2,0-0.3c0.3-0.1,0.5-0.2,0.8-0.3c0,0.1,0,0.2,0,0.3C34.4,58.1,34.1,58.2,33.9,58.4z"
				/>
			<path class="st106" d="M57.5,44.5c-1.7-3.5-3.7-6.8-6.2-9.2c-0.7-0.6-1.5-1.2-2.3-1.6c-0.9-0.4-1.7-0.7-2.7-1
				c-0.3-0.1-0.6-0.2-0.9-0.2c1.6-0.9,4.1-0.5,5.8-0.2c1.5,0.3,3,0.7,4.4,1.3c1.6,0.7,3.1,1.6,4.5,2.8c3.4,2.9,6.4,6.9,9,11.2
				c0.3,2.1,0.2,4.5-2.6,3.3c-2.8-2.3-5.7-4.5-8.8-6.3C57.6,44.6,57.5,44.6,57.5,44.5z"/>
			<path class="st106" d="M41,39.6C41,39.5,40.9,39.5,41,39.6C41,39.5,41,39.5,41,39.6C41,39.5,41,39.5,41,39.6
				C41,39.5,41,39.5,41,39.6L41,39.6z"/>
			<path class="st106" d="M41,39.5C41,39.5,41,39.5,41,39.5C41,39.5,41.1,39.5,41,39.5C41.1,39.5,41,39.5,41,39.5L41,39.5z"/>
			<path class="st106" d="M41.4,34.3c-0.7,1.4-0.5,3.1-0.4,4.6c0,0.2,0,0.4,0,0.6c0,0,0.1,0,0.1,0c4-1.5,12.6,6.1,14.6,7.1
				c1.2,0.6,1.3-0.3,1.2-1.1c-0.1-0.2-0.2-0.5-0.3-0.7c-0.2-0.3-0.3-0.6-0.5-0.9c-1.5-3.1-3.3-5.9-5.4-7.9c-1-0.9-2.1-1.6-3.4-2.1
				c-0.8-0.3-1.7-0.6-2.7-0.7c-0.3,0-0.6-0.1-0.9-0.1C42.9,33,42,33.3,41.4,34.3L41.4,34.3z M43.8,38.9C43.8,39,43.8,39,43.8,38.9
				L43.8,38.9C43.8,38.9,43.8,38.9,43.8,38.9z"/>
			<path class="st106" d="M43.7,38.9C43.8,38.9,43.8,38.9,43.7,38.9c0.1,0,0.1,0.1,0.1,0.1L43.7,38.9z"/>
			<path class="st107" d="M55.7,46.6c1.2,0.6,1.3-0.3,1.2-1.1c1.9,4.2,3.4,8.8,4.5,12.7c-2.8-5-6.1-9.7-10.4-13.5
				c-1.9-1.7-4.1-3.2-6.4-4.2c-1.1-0.5-2.3-0.9-3.5-1C45.1,38,53.7,45.6,55.7,46.6L55.7,46.6z"/>
			<path class="st107" d="M69,47.7c2.2,3.7,4,7.6,5.4,11.2c-2.5-2.8-5.2-5.5-8-8C69.2,52.1,69.4,49.8,69,47.7z"/>
			<path class="st106" d="M41,39.6C41,39.6,41,39.6,41,39.6C41,39.5,41,39.5,41,39.6C41,39.6,41,39.6,41,39.6L41,39.6z"/>
			<path class="st107" d="M40.8,39.6C40.8,39.6,40.8,39.6,40.8,39.6C40.8,39.7,40.8,39.7,40.8,39.6l0.1,0.1c3.7,0.5,7.1,2.8,9.9,5.3
				c4.7,4.3,8.2,9.7,11.1,15.3c0.2,0.4,0.8,0.3,0.8-0.2c-0.1-0.3-0.2-0.9-0.3-1.2c-1.1-4.1-2.4-8.8-4.4-13.2c0-0.1,0-0.1-0.1-0.2
				c0.7,0.5,1.4,0.9,2.1,1.4c5.8,4.1,11,9.3,15.3,15c0.6,0.7,1.6,0.1,1.3-0.7c-0.7-2-1.4-4.1-2.2-6.1c-1.2-3-2.7-6.2-4.5-9.2
				c-3.4-5.8-7.9-11.1-13.9-13.5c-1.5-0.5-3.1-0.9-4.7-1.1c-1.3-0.2-2.6-0.3-4-0.2c-1.3,0.1-2.4,0.6-3.1,1.4c-1.8,0-3.4,0.7-3.6,2.9
				C40.4,36.8,40.7,38.2,40.8,39.6L40.8,39.6z M57.6,44.6c0,0-0.1-0.1-0.1-0.1c-1.7-3.5-3.7-6.8-6.2-9.2c-0.7-0.6-1.5-1.2-2.3-1.6
				c-0.9-0.4-1.7-0.7-2.7-1c-0.3-0.1-0.6-0.2-0.9-0.2c1.6-0.9,4.1-0.5,5.8-0.2c1.5,0.3,3,0.7,4.4,1.3c1.6,0.7,3.1,1.6,4.5,2.8
				c3.4,2.9,6.4,6.9,9,11.2c2.2,3.7,4,7.6,5.4,11.2c-2.5-2.8-5.2-5.5-8-8C63.7,48.6,60.7,46.5,57.6,44.6z M41.4,34.3
				c0.5-0.9,1.4-1.2,2.4-1.2c0.3,0,0.6,0,0.9,0.1c1,0.1,1.9,0.5,2.7,0.7c1.3,0.4,2.4,1.2,3.4,2.1c2.1,2,3.9,4.8,5.4,7.9
				c0.2,0.3,0.3,0.6,0.5,0.9c0.1,0.2,0.2,0.5,0.3,0.7c1.9,4.2,3.4,8.8,4.5,12.7c-2.8-5-6.1-9.7-10.4-13.5c-1.9-1.7-4.1-3.2-6.4-4.2
				c-1.1-0.5-2.3-0.9-3.5-1c0,0-0.1,0-0.1,0c0,0,0,0,0,0.1c0,0,0,0,0,0c0,0-0.1-0.1-0.1-0.1c0,0,0.1,0,0.1,0c0-0.2,0-0.4,0-0.6
				C40.9,37.4,40.7,35.6,41.4,34.3z"/>
			<path class="st110" d="M55.1,37.1c0.4-0.3,1.4,0.5,2.6,1.9c0.2,0.2,0.6,0.1,0.7-0.2c0-0.2,0.1-0.4,0.3-0.5
				c0.6-0.4,1.8,0.3,2.8,1.7c1,1.3,1.3,2.8,0.8,3.2c-0.2,0.1-0.5,0.1-0.8,0c-0.3-0.1-0.6,0.2-0.5,0.5c0.4,0.9,0.5,1.6,0.3,1.7
				c-0.5,0.4-2.3-1.2-4-3.5C55.6,39.7,54.6,37.5,55.1,37.1L55.1,37.1z"/>
			<path class="st71" d="M26.1,42.6c3.5-4.7,8.6-8.4,15.3-6.1c0,0-8.3,1.1-10,8.2C31.3,44.8,26,51.8,26.1,42.6L26.1,42.6z"/>
			<path class="st106" d="M31.3,44.8c1.8-7.2,10-8.2,10-8.2c-6.8-2.3-11.8,1.3-15.3,6.1c0,0-4.1,4-4.1-4.9c0.4-0.7,0.8-1.5,1.2-2.2
				c7.1-11.7,18.8-5.6,20.1-3c1.4,4.1-1.6,9.4-1.6,9.4c-2.8-0.1-4.6,1.6-5.8,3.9C35.9,45.7,32.3,51.3,31.3,44.8L31.3,44.8z"/>
			<path class="st70" d="M31.3,44.8c-0.3,1.3-0.4,2.7-0.3,4.3c-1.5,2.3-2.9,6.6-2.2,14.1c0,0-5.3-4.4-3.2-20.2
				c0.1-0.2,0.2-0.3,0.3-0.5C26,51.8,31.3,44.8,31.3,44.8L31.3,44.8z"/>
			<path class="st107" d="M34,57.4c0,0.2-0.3,0.3-0.3,0.1c-1.6-3.3-2.3-6-2.6-8.4c-0.2-1.7,0-3.1,0.3-4.3c1,6.6,4.6,1,4.6,1
				C34,49.6,33.9,55.3,34,57.4L34,57.4z"/>
			<path class="st107" d="M26.1,42.6c-0.1,0.2-0.2,0.3-0.3,0.5c-3.4,4.8-5.3,10.5-5.8,12.2c-0.1,0.2-0.3,0.2-0.3,0
				c-0.6-1.9-2.1-8.7,2.4-17.5C22,46.6,26.1,42.6,26.1,42.6z"/>
			<path class="st107" d="M22.4,37.9c-1.8,3.5-3.1,7.4-3.2,11.3c-0.1,2,0.1,4,0.6,5.9l0,0c0-0.1-0.1-0.1-0.2,0
				c1.4-4.4,3.4-8.7,6.2-12.4c0.1,1,0,2,0,2.9c0,1.5,0,3.7,0,5.2c0,0.4,0.1,1.5,0.1,1.9c0.1,0.6,0.1,1.3,0.2,1.9l0.2,1.3
				c0.4,2.5,1.1,5.1,2.7,7.1l-0.2,0.1v0c-0.1-1.2-0.2-2.4-0.2-3.6c0-3.7,0.5-7.6,2.5-10.8c0.3,2.4,1.2,4.8,2.2,7
				c0.2,0.5,0.4,0.9,0.7,1.4l0,0l0,0c0,0,0,0,0,0c0,0,0,0,0,0c-0.1-0.2-0.4-0.1-0.4,0.1l0-0.1c-0.2-5.3,0.7-16.5,8.1-15.5
				c0,0-0.1,0.1-0.1,0c0.6-1.5,1-3,1.3-4.6c0.1-0.8,0.2-1.5,0.1-2.3c0-0.7-0.1-1.5-0.4-2.2l0,0.1c-0.5-0.8-1.4-1.3-2.2-1.8
				c-5.4-3-11.6-2-15.5,2.9C24,35.1,23.1,36.5,22.4,37.9L22.4,37.9z M21.6,37.5c2-4.1,4.9-7.9,9.6-9.2c4.1-1.1,8.7,0,11.9,2.7
				c0.4,0.3,0.7,0.7,0.9,1.1c1.1,3.2-0.2,7.1-2.2,9.8c-6.3,0.5-7.1,9.1-7.4,14c0,0.5,0,1,0,1.5c0,0.6-0.8,0.8-1.1,0.3
				c-0.7-1.6-1.4-3.3-1.8-5c-0.3-1.2-0.5-2.4-0.6-3.6l0.2,0c-1.3,2.1-1.9,4.4-2.2,6.8c-0.3,2.4-0.2,4.8,0,7.2l0,0.2l-0.2-0.1
				c-0.7-0.5-1.3-1.3-1.7-2.1c-1.8-3.1-2.4-6.8-2.5-10.3c0-2.7,0.3-5.3,1-7.9v0l0.2,0.1c-2.5,3.6-4.2,7.6-5.5,11.7l-0.1,0.5
				c0,0.1-0.1,0.2-0.2,0.2c-0.3,0.2-0.6,0-0.7-0.3c-1-3.3-1-6.8-0.4-10.1C19.4,42.5,20.3,39.9,21.6,37.5L21.6,37.5z"/>
			<path class="st107" d="M41.4,36.4c-6.5-1.7-13.3,1.1-16.7,7.1c0,0,0.7-0.6,1-0.5c0.4,0.2,0.3,1.4,0.3,1.4
				c0.6-1.3,1.8-3.6,2.8-4.6c3.2-3.2,8.1-4.1,12.5-3.2L41.4,36.4L41.4,36.4z"/>
			<path class="st107" d="M37.5,38.2c-3.6,2-7.4,5.4-7.1,9.8l1.3-0.1c-0.1-0.5-0.1-0.9-0.1-1.4c0.2-2.5,1.8-4.6,3.6-6.2
				c0.7-0.7,1.5-1.3,2.4-1.9L37.5,38.2z"/>
			<path class="st108" d="M34,58.4c-1.1-10.5,4.1-16.9,7.5-19.8c0.3,0.9,0.5,1.5,0.5,1.5c4-2.3,15.6,0.1,26.5,10.3
				c3.5,3.3,7.6,5.5,11.4,6.9c0,0,0.7,8.4-1.8,14c-0.2,0.5,0.2,1.2,0.8,1.1c1.5-0.2,3.9-1,6-3.4c0.2-0.3,0.4-0.5,0.7-0.8
				c0.3-0.5,0.6-1.1,0.9-1.5c0,0,0,0,0,0c0.1-0.1,0.1-0.2,0.2-0.3c2.7-3.7,5.9-4.5,8.1-3.4c2.3,1.1,3.6,4.2,2.4,8.4
				c-4.2,12.4-11.3,9.6-11.3,9.6s-6.9,11.3-19,16.2c-16.3,6.5-33.8-1.6-35-14.1C30.1,73.1,35.7,73.7,34,58.4L34,58.4z"/>
			<path class="st106" d="M46.3,22.5c9.9-2,37.8,1.5,46.1,14.1c1.8,2.7,3.2,5.4,4.2,8c0,0,0.7,4-4.7,3.3c-5.4-0.7-6.5-2-6.5-2
				s-0.7,2.2-4.4,0.4c0,0-1,1.3-3.9,0.6c0,0-6.9,1.1-7.7,4.4c-0.3-0.3-0.7-0.6-1-0.9C57.6,40.2,46,37.8,42,40.1c0,0-0.2-0.6-0.5-1.5
				C40.5,34.6,38.3,24.1,46.3,22.5L46.3,22.5z"/>
			<path class="st107" d="M77.3,46.9c1,0.2,1.8,0.2,2.4,0.1c0.3-0.1,0.4-0.4,0.2-0.7c-1.9-2.5-3.6-5-5.2-7.7l0.2-0.1
				c1.1,0.9,2.1,1.9,3.1,3c1.7,1.7,3.2,3.5,4.8,5.3c0.1,0.1,0.2,0.1,0.3,0.1c0.8,0.1,1.4,0,1.8-0.2c0.2-0.1,0.3-0.4,0.1-0.7
				c-3.8-4.5-7.5-9-11.1-13.7l0.1-0.1c1.5,1.5,2.9,3.1,4.3,4.7c2.9,3.2,5.7,6.4,8.4,9.6c0,0,0,0,0,0c0.1,0.1,0.3,0.2,0.4,0.3
				c1,0.4,2.5,0.8,4.8,1.1c2.9,0.4,4.1-0.6,4.5-1.6c0.2-0.4,0.7-0.3,0.8,0c1.8,5.4,2,9.9,1.8,11.7c0,0.3-0.3,0.4-0.6,0.4
				c-0.7-0.2-2.2-0.7-3.7-2c-0.4-0.3-0.8,0.1-0.7,0.5c0.4,0.9,0.8,1.9,0.9,2.7c0,0.2-0.2,0.5-0.4,0.5h0c-1.2,0-4.7-0.1-9-1.1
				c-1.8-0.4-3.7-0.9-5.6-1.7c-3.4-1.3-6.9-3.1-10.2-5.8c-0.1-0.1-0.2-0.3-0.1-0.5c1-2.9,6.7-3.9,7.5-4.1
				C77.2,46.9,77.2,46.9,77.3,46.9L77.3,46.9z"/>
			<path class="st107" d="M42.1,40.1C40.9,35.6,39.5,27,43.9,24c1.6-1,3.6-1,5.4-1.2c3.9-0.2,7.8,0.1,11.6,0.5
				c10.3,1.3,24.6,4.6,30.8,13.5c4.5,6.1,7.1,13.8,6.6,21.5l0.7-0.6h0h0c-0.8-0.1-1.6-0.4-2.3-0.7c-2.9-1.4-5.2-3.9-7.2-6.4
				l-0.2,0.1c2.1,3.2,4.7,6.4,8.4,7.9c0.4,0.1,0.9,0.3,1.3,0.3l0.6,0c0.1-0.4,0.1-1,0.2-1.4c0.3-3.8-0.3-7.5-1.3-11.1
				c-1.5-5-4.2-9.8-7.8-13.6C83.4,25.8,70.8,22.9,61,21.9c-4.9-0.5-9.9-0.7-14.8,0.1c-1,0.2-2.1,0.6-2.9,1.2
				c-3.5,2.6-3.3,7.5-2.8,11.3c0.3,2,0.8,3.9,1.4,5.7L42.1,40.1L42.1,40.1z"/>
			<path class="st109" d="M45.4,97.8c0,0,36.9-4.4,32.6-22.4c-2.5-10.6,0.2-17.7,1.9-18.1c1.7-0.4-1.9,4.2,2.4,6.7
				c4.4,2.4,2.6,5,2.6,5s-3.5,8.7,1,12C80.6,89.2,66.9,103.3,45.4,97.8L45.4,97.8z"/>
			<path class="st107" d="M40.8,28.2c2.7-3.5,7.1-4.5,11.2-3.1c2.6,0.9,5,2.5,7.1,4.3c1.3,1.1,2.6,2.4,3.8,3.6
				c3.6,3.9,7.4,7.8,11.1,11.5c4.1,4,8.1,8.1,12.8,11.4c1.8,1.2,3.6,2.4,5.7,3.2c0.7,0.2,1.4,0.5,2.1,0.5l0-0.2
				c-0.7-0.3-1.3-0.6-1.9-1c-1.8-1.1-3.4-2.4-5-3.8c-4.3-3.7-8.5-7.5-12.5-11.4C71.7,40,68,36.3,64.6,32.8
				c-3.5-3.6-7.4-7.1-12.4-8.6c-2.8-0.8-6-0.7-8.5,0.9c-1.2,0.8-2.3,1.8-3.1,3L40.8,28.2L40.8,28.2z"/>
			<path class="st110" d="M69.1,42.7c-2.3-1.9-3.9-3.9-3.5-4.3c0.4-0.5,2.6,0.7,4.9,2.7c2.3,1.9,3.9,3.9,3.5,4.3
				S71.5,44.6,69.1,42.7z"/>
			<path class="st110" d="M80.4,35.5c0.4-0.3,1.6,0.6,3,2.1c0.2,0.3,0.7,0.1,0.8-0.2c0-0.2,0.1-0.4,0.3-0.5c0.7-0.5,2.1,0.4,3.2,1.9
				c1.1,1.5,1.5,3.2,0.9,3.6c-0.2,0.2-0.5,0.2-0.9,0c-0.4-0.1-0.7,0.3-0.5,0.6c0.5,1,0.6,1.8,0.3,2c-0.6,0.4-2.6-1.4-4.5-4
				C81,38.4,79.9,35.9,80.4,35.5L80.4,35.5z"/>
			<path class="st110" d="M70.1,37.1c0.2-0.3,1.2,0.1,2.4,0.9c0.3,0.2,0.8-0.1,0.6-0.5c-0.1-0.3-0.2-0.5,0-0.7
				c0.4-0.5,2.8,0.7,5.4,2.8s4.2,4.2,3.8,4.7c-0.3,0.3-1.2,0-2.4-0.7c-0.3-0.2-0.7,0.2-0.6,0.5c0.1,0.2,0.1,0.4,0,0.5
				c-0.4,0.5-2.7-0.9-5.3-3C71.5,39.6,69.7,37.6,70.1,37.1L70.1,37.1z"/>
			<path class="st106" d="M85.8,63.2c-4.5,2.1-5.6-0.4-5.9-2.3c0-2.1-0.1-3.6-0.1-3.6c2,0.7,3.9,1.3,5.6,1.7c4.4,1,7.8,1.1,9,1.1
				c0.3,1.8,0.2,2.9,0.2,2.9c-0.1,0-0.2-0.1-0.3-0.1l0.3-0.4C94.8,62.4,92.7,60.1,85.8,63.2L85.8,63.2z"/>
			<path class="st107" d="M86.7,66.4c-0.1,0.1-0.1,0.2-0.2,0.3c0,0,0,0,0,0c-0.3,0.5-0.6,1-0.9,1.5c-0.2,0.3-0.4,0.6-0.7,0.8
				c-2.1,2.4-4.5,3.2-6,3.4c-0.6,0.1-1.1-0.5-0.8-1.1c1.5-3.3,1.9-7.4,1.9-10.4c0.2,1.9,1.3,4.4,5.9,2.3c6.8-3.1,9-0.8,9-0.8
				l-0.3,0.4C92.3,61.9,89.2,62.8,86.7,66.4L86.7,66.4z"/>
			<path class="st107" d="M92.6,54.5c0.6,1.4,1.2,2.8,1.5,4.2c0.1,0.3,0.2,0.9,0.1,1.2l0.8-0.6c-7-0.2-14-2-20.2-5.3
				c-2.3-1.3-4.5-2.8-6.4-4.5c-0.6-0.6-1.4-1.3-2-1.8c-5.2-4.3-12.9-8.1-19.7-8.4c-1.2,0-2.4,0.1-3.6,0.4l0.1,0.2
				c1.2-0.2,2.3-0.3,3.5-0.2c6.5,0.7,14,4.7,18.8,9c0.4,0.3,0.9,0.9,1.3,1.2c2.2,2.2,4.6,4,7.3,5.5c6.5,3.7,14.2,5.6,21.7,5.4
				l0.1-0.6c0-0.8-0.2-1.2-0.4-1.8c-0.2-0.5-0.5-0.9-0.8-1.4c-0.5-0.9-1.1-1.7-1.8-2.5L92.6,54.5L92.6,54.5z"/>
			<path class="st107" d="M94.3,60.1c0.2,0.9,0.4,1.9,0.4,2.8c0,0,0,0,0,0l0.2-0.1c-2.4-1.2-5.1,0.1-6.9,1.8c-0.5,0.5-1,1.1-1.4,1.6
				c-0.4,0.5-0.8,1.2-1.1,1.8L85,68.6c-1.1,1.3-2.5,2.4-4.1,3c-0.7,0.3-1.4,0.5-2.1,0.5c-0.4,0-0.6-0.4-0.5-0.8
				c0.3-0.7,0.6-1.4,0.8-2.1c1.1-3.9,1.3-8,1.1-12l-0.1,0.3l0,0L79.7,57l0,0l-0.1,0.3c0.3,3.9,0.1,8-1,11.8
				c-0.2,0.7-0.5,1.4-0.8,2.1c-0.3,0.6,0.2,1.4,0.9,1.4c1.3-0.1,2.5-0.6,3.6-1.3c1.3-0.8,2.4-1.9,3.3-3.1c0.3-0.6,0.7-1.2,1.1-1.8
				c0.9-1.2,2-2.4,3.3-3.1c1.4-0.8,3.3-1.1,4.8-0.3c0.2-1,0.1-2.1,0-3.1L94.3,60.1L94.3,60.1z"/>
			<path class="st109" d="M86,70c0,0.1,0,0.2,0.1,0.1c0.9-0.3,4-1.2,4,2.6c0.1,2.7-2.4,3.8-3.6,4.3c-0.1,0-0.1,0.2,0,0.2
				c1.2,0,3.3,0.2,3.6,0.8c0,0.1,0.2,0.1,0.2,0.1c0.9-0.5,4.8-3,4.2-9.8C94.3,64.2,88.8,65.2,86,70L86,70z"/>
			<path class="st107" d="M94.6,63.5C94.6,63.5,94.6,63.5,94.6,63.5C94.6,63.4,94.6,63.4,94.6,63.5L94.6,63.5z"/>
			<path class="st107" d="M35.2,46.3c1.1-2.5,2.9-4.7,4.9-6.6l1.3-1.3l0.3,0.3c-1.2,1.2-2.6,2.6-3.6,4c-0.3,0.4-0.6,0.9-0.9,1.3
				c-0.3,0.6-0.7,1.1-1,1.7c-0.1,0.3-0.3,0.5-0.4,0.8l-0.3,0.8c-1.2,3.3-1.1,6.8-1,10.4c-0.3,0.1-0.5,0.2-0.8,0.3
				C33.6,54,33.6,50,35.2,46.3L35.2,46.3z"/>
			<path class="st107" d="M34.8,62.9c0,0.2,0,0.3,0,0.5c0,1.8-0.1,3.7-0.4,5.5c-0.4,2.4-1.5,4.6-1.9,7c-0.7,3.4-0.5,7.1,0.7,10.4
				c5.5,14.1,24.9,15,36.7,8.8c6.4-3.3,11.8-8.3,15.8-14.2l0-0.1l0.1,0c4,0.5,6.2-1.8,8.5-4.6c2.4-2.9,4.3-10.7,0.2-12.8
				c0,0,0,0,0,0l-0.1,0c0,0,0,0,0,0c-0.1,0-0.4-0.1-0.4-0.1c-0.9-0.3-1.9-0.3-2.8-0.1c-3.3,0.8-5.4,4.5-6.7,7.5l-0.2-0.1
				c0.3-1.2,0.7-2.3,1.2-3.4c1.4-2.8,4-5.5,7.4-5.2l0.5,0l0.5,0.1c0.1,0,0.2,0,0.2,0c0.2,0,0.5,0.1,0.7,0.2c0.6,0.3,1.1,0.6,1.5,1.1
				c2.6,2.9,1.6,8,0,11.2c-0.5,1-1.2,1.9-2,2.7c-2.1,2.3-4.5,4.2-7.8,3.8c-0.2,0-0.5-0.1-0.7-0.1c0,0,0,0,0-0.1l-0.1,0
				c0,0,0,0,0.1,0c-0.6,1-1.2,2-1.9,3c-2.8,4-6.3,7.4-10.4,10.2c-3.6,2.4-7.6,4.2-11.8,5.1C53,101.2,42.5,100,36,93
				c-4.4-4.6-5.9-11.2-4.5-17.3c0.5-2.4,1.6-4.6,2-6.9c0.2-1.1,0.3-2.4,0.4-3.5c0-0.8,0-1.6,0-2.5C34.2,62.8,34.5,62.9,34.8,62.9
				L34.8,62.9z"/>
			<path class="st107" d="M86,81C86,81,85.9,81,86,81c-0.1,0.1-0.1,0.1-0.1,0L86,81L86,81z"/>
			<path class="st106" d="M34.8,62.4c-0.3-0.1-0.6-0.1-0.9-0.2c0-1.2-0.1-2.4-0.1-3.6c0.3-0.1,0.5-0.2,0.8-0.3
				C34.6,59.7,34.7,61,34.8,62.4L34.8,62.4z"/>
			<path class="st107" d="M33.7,58.4c0-0.1,0-0.2,0-0.3c0.3-0.1,0.5-0.2,0.8-0.3c0,0.1,0,0.2,0,0.3C34.3,58.1,34,58.2,33.7,58.4
				L33.7,58.4z"/>
			<path class="st107" d="M33.9,62.5c0.3,0.1,0.6,0.1,0.9,0.2c0,0.1,0,0.2,0,0.3c-0.3-0.1-0.6-0.1-0.9-0.2
				C33.9,62.7,33.9,62.6,33.9,62.5L33.9,62.5z"/>
			<path class="st107" d="M34.8,62.4c0,0.1,0,0.2,0,0.3c-0.3-0.1-0.6-0.1-0.9-0.2c0-0.1,0-0.2,0-0.3C34.2,62.3,34.5,62.3,34.8,62.4
				L34.8,62.4z"/>
			<path class="st107" d="M33.8,58.6c0-0.1,0-0.2,0-0.3c0.3-0.1,0.5-0.2,0.8-0.3c0,0.1,0,0.2,0,0.3C34.3,58.4,34,58.5,33.8,58.6z"/>
			<path class="st70" d="M57.5,44.7c-1.7-3.5-3.7-6.8-6.3-9.2c-0.7-0.6-1.5-1.2-2.3-1.6c-0.9-0.4-1.8-0.7-2.7-1
				c-0.3-0.1-0.6-0.2-0.9-0.2c1.6-0.9,4.1-0.5,5.9-0.2c1.5,0.3,3,0.7,4.4,1.3c1.6,0.7,3.2,1.7,4.5,2.8c3.4,2.9,6.4,6.9,9,11.3
				c0.3,2.1,0.2,4.5-2.6,3.3c-2.8-2.4-5.7-4.5-8.9-6.4C57.6,44.8,57.5,44.8,57.5,44.7z"/>
			<path class="st106" d="M40.9,39.7C40.9,39.7,40.8,39.7,40.9,39.7C40.9,39.7,40.9,39.7,40.9,39.7C40.9,39.7,40.9,39.7,40.9,39.7
				C40.9,39.7,40.9,39.7,40.9,39.7L40.9,39.7z"/>
			<path class="st106" d="M40.9,39.7C40.9,39.7,40.9,39.7,40.9,39.7C41,39.7,41,39.7,40.9,39.7C41,39.7,41,39.7,40.9,39.7L40.9,39.7
				z"/>
			<path class="st106" d="M41.4,34.4c-0.8,1.4-0.5,3.1-0.4,4.6c0,0.2,0,0.4,0,0.6c0,0,0.1,0,0.1,0c4.1-1.5,12.7,6.1,14.7,7.1
				c1.2,0.6,1.3-0.3,1.3-1.1c-0.1-0.2-0.2-0.5-0.3-0.7c-0.2-0.3-0.3-0.6-0.5-1c-1.6-3.1-3.4-5.9-5.4-7.9c-1-0.9-2.1-1.7-3.4-2.1
				c-0.8-0.3-1.7-0.6-2.7-0.7c-0.3,0-0.6-0.1-0.9-0.1C42.8,33.2,41.9,33.5,41.4,34.4L41.4,34.4z M43.8,39.1
				C43.8,39.2,43.8,39.2,43.8,39.1L43.8,39.1C43.7,39.1,43.7,39.1,43.8,39.1z"/>
			<path class="st106" d="M43.7,39.1C43.7,39.1,43.7,39.1,43.7,39.1c0.1,0,0.1,0.1,0.1,0.1L43.7,39.1z"/>
			<path class="st107" d="M55.7,46.8c1.2,0.6,1.3-0.3,1.3-1.1c1.9,4.2,3.4,8.9,4.5,12.7c-2.8-5-6.1-9.7-10.4-13.5
				c-1.9-1.7-4.1-3.2-6.5-4.2c-1.1-0.5-2.3-0.9-3.5-1C45.1,38.1,53.7,45.8,55.7,46.8L55.7,46.8z"/>
			<path class="st70" d="M69.1,47.9c2.2,3.7,4,7.6,5.5,11.3c-2.5-2.9-5.2-5.5-8.1-8C69.3,52.4,69.4,50,69.1,47.9z"/>
			<path class="st106" d="M40.9,39.8C40.9,39.8,40.9,39.8,40.9,39.8C40.9,39.7,40.9,39.7,40.9,39.8C40.9,39.7,40.9,39.8,40.9,39.8
				L40.9,39.8z"/>
			<path class="st107" d="M40.7,39.8C40.7,39.8,40.7,39.8,40.7,39.8C40.7,39.8,40.7,39.9,40.7,39.8l0.1,0.1c3.8,0.5,7.1,2.9,9.9,5.3
				c4.7,4.3,8.2,9.7,11.1,15.4c0.2,0.4,0.8,0.3,0.8-0.2c-0.1-0.3-0.2-0.9-0.3-1.2c-1.1-4.1-2.5-8.8-4.4-13.3c0-0.1,0-0.1-0.1-0.2
				c0.7,0.5,1.4,0.9,2.1,1.4c5.9,4.2,11,9.3,15.4,15c0.6,0.7,1.7,0.1,1.3-0.7c-0.7-2.1-1.4-4.1-2.2-6.1c-1.2-3-2.7-6.2-4.5-9.3
				c-3.4-5.8-8-11.2-14-13.6c-1.5-0.5-3.1-0.9-4.7-1.1c-1.3-0.2-2.6-0.3-4-0.2c-1.3,0.1-2.4,0.6-3.2,1.4c-1.8,0-3.4,0.7-3.7,3
				C40.3,37,40.7,38.4,40.7,39.8L40.7,39.8z M57.6,44.8c0,0-0.1-0.1-0.1-0.1c-1.7-3.5-3.7-6.8-6.3-9.2c-0.7-0.6-1.5-1.2-2.3-1.6
				c-0.9-0.4-1.7-0.7-2.7-1c-0.3-0.1-0.6-0.2-0.9-0.2c1.6-0.9,4.1-0.5,5.9-0.2c1.5,0.3,3,0.7,4.4,1.3c1.6,0.7,3.2,1.7,4.5,2.8
				c3.4,2.9,6.5,6.9,9,11.3c2.2,3.7,4,7.6,5.5,11.3c-2.5-2.9-5.2-5.5-8.1-8C63.7,48.8,60.7,46.7,57.6,44.8z M41.4,34.4
				c0.6-0.9,1.4-1.2,2.4-1.3c0.3,0,0.6,0,0.9,0.1c1,0.1,1.9,0.5,2.7,0.7c1.3,0.4,2.4,1.2,3.4,2.1c2.1,2,3.9,4.8,5.4,7.9
				c0.2,0.3,0.3,0.6,0.5,1c0.1,0.2,0.2,0.5,0.3,0.7c1.9,4.2,3.4,8.9,4.5,12.7c-2.8-5-6.1-9.7-10.4-13.5c-1.9-1.7-4.1-3.2-6.5-4.2
				c-1.1-0.5-2.3-0.9-3.5-1c0,0-0.1,0-0.1,0c0,0,0,0,0,0.1c0,0,0,0,0,0c0,0-0.1-0.1-0.1-0.1c0,0,0.1,0,0.1,0c0-0.2,0-0.4,0-0.6
				C40.8,37.5,40.6,35.8,41.4,34.4z"/>
			<path class="st71" d="M55.1,37.3c0.4-0.3,1.4,0.5,2.6,1.9c0.2,0.2,0.6,0.1,0.7-0.2c0-0.2,0.1-0.4,0.3-0.5
				c0.6-0.4,1.8,0.3,2.8,1.7c1,1.4,1.3,2.8,0.8,3.2c-0.2,0.1-0.5,0.1-0.8,0c-0.3-0.1-0.6,0.2-0.5,0.5c0.4,0.9,0.5,1.6,0.3,1.7
				c-0.5,0.4-2.3-1.2-4-3.6C55.6,39.9,54.6,37.7,55.1,37.3L55.1,37.3z"/>
			<g>
				<path class="st100" d="M46.5,63.7l-0.2-0.1c-3.1-1.3-6.6-1.3-9.7,0.1l0,0c-1.4,0.6-2.1,2.1-1.8,3.5c0.5,2.4,2,5.7,6.4,5.9
					c4.9,0.2,6.6-3.2,7.2-5.8C48.7,65.9,47.9,64.3,46.5,63.7z"/>
				<circle class="st113" cx="41" cy="67.7" r="2.7"/>
				<path class="st114" d="M41.2,73.2c4.9,0.2,6.6-3.2,7.2-5.8c0.4-1.5-0.4-3-1.9-3.6l-0.2-0.1C46.3,63.7,47.6,71.8,41.2,73.2z"/>
				<path class="st115" d="M46.5,63.7l-0.2-0.1c-3.1-1.3-6.6-1.3-9.7,0.1l0,0c-1.4,0.6-2.1,2.1-1.8,3.5c0.5,2.4,2,5.7,6.4,5.9
					c4.9,0.2,6.6-3.2,7.2-5.8C48.7,65.9,47.9,64.3,46.5,63.7z"/>
				<circle class="st107" cx="41" cy="67.7" r="1.8"/>
				<circle class="st100" cx="41.8" cy="66.1" r="1.4"/>
			</g>
			<g>
				<path class="st106" d="M74.9,61.1c0,0-0.9-6.5-8-7.8c-5.7-1.1-12.7-2.6-10.8,4.6C56.5,59.6,68,59,74.9,61.1L74.9,61.1z"/>
				<path class="st116" d="M74.9,61.1c0,0-0.9-6.5-8-7.8c-5.7-1.1-12.7-2.6-10.8,4.6C56.5,59.6,68,59,74.9,61.1L74.9,61.1z"/>
				<path class="st106" d="M36.7,52.9c0.5-0.1,1-0.1,1.5-0.1l0.6,0c3.4-0.1,7.3-0.2,8.5,1.6c0.6,0.8,0.5,2.1-0.2,3.8
					c-0.3,0.6-3.6,0.4-6.5,0.1c-1.8-0.1-3.9-0.3-5.9-0.3c-0.3-1.3-0.6-2.6-1-3.9C34.6,53.5,35.6,53.1,36.7,52.9L36.7,52.9z"/>
				<path class="st116" d="M36.7,52.9c0.5-0.1,1-0.1,1.5-0.1l0.6,0c3.4-0.1,7.3-0.2,8.5,1.6c0.6,0.8,0.5,2.1-0.2,3.8
					c-0.3,0.6-3.6,0.4-6.5,0.1c-1.8-0.1-3.9-0.3-5.9-0.3c-0.3-1.3-0.6-2.6-1-3.9C34.6,53.5,35.6,53.1,36.7,52.9L36.7,52.9z"/>
			</g>
			<g>
				<path class="st107" d="M55.8,81c0.2-0.1,5-1.6,6.1,3c1.1,4.7-3.9,9.2-11.7,8.5s-9.8-4.4-9.3-10c0,0-0.3-2.3,3.6-1.2
					C48.5,82.4,52.4,83,55.8,81z"/>
				<path class="st100" d="M44.6,81.3c3.9,1.1,7.8,1.7,11.3-0.2c0.2-0.1,4.7-1.6,6,2.6c-3.1,0.7-7.5,2.7-13.8,1.3
					c-3.9-0.9-6.1-2.5-6.5-3.6C42,81,42.9,80.8,44.6,81.3z"/>
				<path class="st117" d="M61.2,88.3c-1.7,2.8-5.7,4.8-11,4.3c-0.4,0-0.9-0.1-1.3-0.2C51.5,88.2,57.9,88,61.2,88.3z"/>
			</g>
			<path class="st116" d="M55.8,81c0.2-0.1,5-1.6,6.1,3c1.1,4.7-3.9,9.2-11.7,8.5s-9.8-4.4-9.3-10c0,0-0.3-2.3,3.6-1.2
				C48.5,82.4,52.4,83,55.8,81z"/>
			<path class="st107" d="M56.1,69c0,0,9.6-2.8,14.4,1c0,0,0.1,0.1,0,0c0,0-2.5-4.6-11.8-2.2C58.7,67.8,58,67.3,56.1,69z"/>
			<path class="st107" d="M57.9,68.3l-1.7,0.7c2.6-4.4,7.8-2.6,7.8-2.6s-4,0-5.3,1.9L57.9,68.3z"/>
		</g>
	</g>
</g>
</svg>
