<?xml version="1.0" encoding="utf-8"?>
<!-- Generator: Adobe Illustrator 25.3.0, SVG Export Plug-In . SVG Version: 6.00 Build 0)  -->
<svg version="1.1" id="Capa_2" xmlns="http://www.w3.org/2000/svg" xmlns:xlink="http://www.w3.org/1999/xlink" x="0px" y="0px"
	 viewBox="0 0 527.2 118.5" style="enable-background:new 0 0 527.2 118.5;" xml:space="preserve">
<style type="text/css">
	.st0{fill:#C1110C;}
	.st1{fill:#D31818;}
	.st2{fill:#002653;}
	.st3{fill:url(#SVGID_1_);}
	.st4{fill:#FF9C09;}
	.st5{fill:#D87B00;}
	.st6{fill:#FFF7E9;stroke:#FFF7E9;stroke-width:0.1634;stroke-miterlimit:10;}
	.st7{fill:#EFE4D3;}
	.st8{fill:none;stroke:#FFFFFF;stroke-width:4;stroke-miterlimit:10;}
	.st9{fill:#FDFDFD;}
	.st10{fill:#FEFEFE;}
	.st11{fill:#FBFBFB;}
	.st12{fill:#FAFAFA;}
	.st13{fill:#F3F3F3;}
	.st14{fill:#F9F9F9;}
	.st15{fill:#F5F5F5;}
	.st16{fill:none;stroke:#FFFFFF;stroke-width:3;stroke-miterlimit:10;}
	.st17{fill:#FFFFFF;stroke:#FFFFFF;stroke-width:3;stroke-miterlimit:10;}
	.st18{fill:#521B93;}
	.st19{fill:#FFB612;}
	.st20{fill:#FFDA1E;}
	.st21{fill:#BD5200;}
	.st22{fill:#9E320A;}
	.st23{fill:#ED3E1F;}
	.st24{fill:#D84905;}
	.st25{fill:url(#SVGID_6_);}
	.st26{fill:#F67205;}
	.st27{fill:url(#SVGID_7_);}
	.st28{fill:#F69D05;}
	.st29{fill:url(#SVGID_8_);}
	.st30{opacity:0.7;fill:url(#SVGID_9_);enable-background:new    ;}
	.st31{fill:url(#SVGID_10_);}
	.st32{opacity:0.7;fill:url(#SVGID_11_);enable-background:new    ;}
	.st33{fill:url(#SVGID_12_);}
	.st34{fill:#BA3E05;}
	.st35{opacity:0.5;fill:url(#SVGID_13_);enable-background:new    ;}
	.st36{opacity:0.4;fill:url(#SVGID_14_);enable-background:new    ;}
	.st37{opacity:0.4;fill:url(#SVGID_15_);enable-background:new    ;}
	.st38{fill:#F87D05;}
	.st39{fill:#FFB803;}
	.st40{fill:#F87E05;}
	.st41{fill:#FEB903;}
	.st42{fill:none;stroke:#BA3E05;stroke-width:0.337;stroke-miterlimit:10;}
	.st43{fill:#F87F05;}
	.st44{fill:none;stroke:#BA3E05;stroke-width:0.2808;stroke-miterlimit:10;}
	.st45{fill:none;stroke:#BA3E05;stroke-width:9.660358e-02;stroke-miterlimit:10;}
	.st46{fill:none;stroke:#F87D05;stroke-width:0.1327;stroke-miterlimit:10;}
	.st47{fill:#C16408;}
	.st48{fill:none;stroke:#BA3E05;stroke-width:0.3055;stroke-linecap:round;stroke-miterlimit:10;}
	.st49{fill:none;stroke:#BA3E05;stroke-width:0.3055;stroke-miterlimit:10;}
	.st50{fill:url(#SVGID_16_);}
	.st51{fill:url(#SVGID_17_);}
	.st52{fill:url(#SVGID_18_);}
	.st53{opacity:0.7;fill:url(#SVGID_19_);enable-background:new    ;}
	.st54{fill:url(#SVGID_20_);}
	.st55{opacity:0.7;fill:url(#SVGID_21_);enable-background:new    ;}
	.st56{fill:url(#SVGID_22_);}
	.st57{opacity:0.5;fill:url(#SVGID_23_);enable-background:new    ;}
	.st58{opacity:0.4;fill:url(#SVGID_24_);enable-background:new    ;}
	.st59{opacity:0.4;fill:url(#SVGID_25_);enable-background:new    ;}
	.st60{fill:url(#SVGID_26_);}
	.st61{fill:url(#SVGID_27_);}
	.st62{fill:url(#SVGID_28_);}
	.st63{opacity:0.7;fill:url(#SVGID_29_);enable-background:new    ;}
	.st64{fill:url(#SVGID_30_);}
	.st65{opacity:0.7;fill:url(#SVGID_31_);enable-background:new    ;}
	.st66{fill:url(#SVGID_32_);}
	.st67{opacity:0.5;fill:url(#SVGID_33_);enable-background:new    ;}
	.st68{opacity:0.4;fill:url(#SVGID_34_);enable-background:new    ;}
	.st69{opacity:0.4;fill:url(#SVGID_35_);enable-background:new    ;}
	.st70{fill:#290D56;}
	.st71{fill:#7138C1;}
	.st72{fill:#521A93;}
	.st73{fill:#C97700;}
	.st74{fill:#F7B04B;}
	.st75{fill:#FF9C00;}
	.st76{fill:#03596B;}
	.st77{fill:url(#SVGID_40_);}
	.st78{fill:url(#SVGID_41_);}
	.st79{fill:#FF923B;}
	.st80{fill:#BA896C;}
	.st81{fill:#EF943F;}
	.st82{fill:#EFA25D;}
	.st83{fill:#E68C2E;}
	.st84{fill:#EFAB16;}
	.st85{fill:#FFC00E;}
	.st86{fill:#FFCE0F;}
	.st87{fill:#FFB10D;}
	.st88{fill:#FFC60E;}
	.st89{fill:#FFCE15;}
	.st90{fill:#CA7300;}
	.st91{fill:#FFEC29;}
	.st92{fill:#EFB90D;}
	.st93{fill:#BD6000;}
	.st94{fill:#E47104;}
	.st95{fill:#E48409;}
	.st96{fill:#B55300;}
	.st97{fill:#CA6200;}
	.st98{fill:#EF9E07;}
	.st99{fill:#FFBB10;}
	.st100{fill:#FFFFFF;}
	.st101{fill:none;stroke:#CCCCCC;stroke-width:2.7123;stroke-miterlimit:10;}
	.st102{fill:none;stroke:#7138C1;stroke-width:3.5152;stroke-miterlimit:10;}
	.st103{fill:#3A0762;}
	.st104{fill:url(#SVGID_42_);}
	.st105{fill:url(#SVGID_43_);}
	.st106{fill:#191919;}
	.st107{fill:#121212;}
	.st108{fill:#EAA37D;}
	.st109{fill:#D98F5F;}
	.st110{fill:#3A3A3A;}
	.st111{fill:none;stroke:#191919;stroke-width:0.5917;stroke-miterlimit:10;}
	.st112{fill:none;stroke:#191919;stroke-width:0.2295;stroke-miterlimit:10;}
	.st113{fill:#1D1D1B;}
	.st114{fill:#D5D9E2;}
	.st115{fill:none;stroke:#191919;stroke-width:0.5831;stroke-miterlimit:10;}
	.st116{fill:none;stroke:#121212;stroke-width:0.5831;stroke-miterlimit:10;}
	.st117{fill:#C2272C;}
	.st118{fill:url(#SVGID_44_);}
	.st119{fill:url(#SVGID_45_);}
	.st120{fill:url(#SVGID_46_);}
	.st121{fill:url(#SVGID_47_);}
	.st122{fill:url(#SVGID_48_);}
	.st123{opacity:0.7;fill:url(#SVGID_49_);enable-background:new    ;}
	.st124{fill:url(#SVGID_50_);}
	.st125{opacity:0.7;fill:url(#SVGID_51_);enable-background:new    ;}
	.st126{fill:url(#SVGID_52_);}
	.st127{opacity:0.5;fill:url(#SVGID_53_);enable-background:new    ;}
	.st128{opacity:0.4;fill:url(#SVGID_54_);enable-background:new    ;}
	.st129{opacity:0.4;fill:url(#SVGID_55_);enable-background:new    ;}
	.st130{fill:none;stroke:#BA3E05;stroke-width:0.2707;stroke-miterlimit:10;}
	.st131{fill:none;stroke:#BA3E05;stroke-width:0.2256;stroke-miterlimit:10;}
	.st132{fill:none;stroke:#BA3E05;stroke-width:7.760166e-02;stroke-miterlimit:10;}
	.st133{fill:none;stroke:#F87D05;stroke-width:0.1066;stroke-miterlimit:10;}
	.st134{fill:none;stroke:#BA3E05;stroke-width:0.2454;stroke-linecap:round;stroke-miterlimit:10;}
	.st135{fill:none;stroke:#BA3E05;stroke-width:0.2454;stroke-miterlimit:10;}
	.st136{fill:#8C0E0E;}
	.st137{clip-path:url(#SVGID_57_);fill:#8C0E0E;}
	.st138{fill:#7C1111;}
	.st139{fill:url(#SVGID_58_);}
	.st140{fill:url(#SVGID_59_);}
	.st141{fill:#A86000;}
	.st142{clip-path:url(#SVGID_61_);fill:#3A0762;}
	.st143{fill:url(#SVGID_62_);}
	.st144{fill:url(#SVGID_63_);}
	.st145{fill:url(#SVGID_64_);}
	.st146{fill:url(#SVGID_65_);}
	.st147{opacity:0.7;fill:url(#SVGID_66_);enable-background:new    ;}
	.st148{fill:url(#SVGID_67_);}
	.st149{opacity:0.7;fill:url(#SVGID_68_);enable-background:new    ;}
	.st150{fill:url(#SVGID_69_);}
	.st151{opacity:0.5;fill:url(#SVGID_70_);enable-background:new    ;}
	.st152{opacity:0.4;fill:url(#SVGID_71_);enable-background:new    ;}
	.st153{opacity:0.4;fill:url(#SVGID_72_);enable-background:new    ;}
	.st154{fill:none;stroke:#BA3E05;stroke-width:0.6491;stroke-miterlimit:10;}
	.st155{fill:none;stroke:#BA3E05;stroke-width:0.5409;stroke-miterlimit:10;}
	.st156{fill:none;stroke:#BA3E05;stroke-width:0.1861;stroke-miterlimit:10;}
	.st157{fill:none;stroke:#F87D05;stroke-width:0.2555;stroke-miterlimit:10;}
	.st158{fill:none;stroke:#BA3E05;stroke-width:0.5885;stroke-linecap:round;stroke-miterlimit:10;}
	.st159{fill:none;stroke:#BA3E05;stroke-width:0.5885;stroke-miterlimit:10;}
	.st160{fill:url(#SVGID_73_);}
	.st161{fill:url(#SVGID_74_);}
	.st162{fill:url(#SVGID_75_);}
	.st163{opacity:0.7;fill:url(#SVGID_76_);enable-background:new    ;}
	.st164{fill:url(#SVGID_77_);}
	.st165{opacity:0.7;fill:url(#SVGID_78_);enable-background:new    ;}
	.st166{fill:url(#SVGID_79_);}
	.st167{opacity:0.5;fill:url(#SVGID_80_);enable-background:new    ;}
	.st168{opacity:0.4;fill:url(#SVGID_81_);enable-background:new    ;}
	.st169{opacity:0.4;fill:url(#SVGID_82_);enable-background:new    ;}
	.st170{fill:none;stroke:#BA3E05;stroke-width:0.5191;stroke-miterlimit:10;}
	.st171{fill:none;stroke:#BA3E05;stroke-width:0.4326;stroke-miterlimit:10;}
	.st172{fill:none;stroke:#BA3E05;stroke-width:0.1488;stroke-miterlimit:10;}
	.st173{fill:none;stroke:#F87D05;stroke-width:0.2043;stroke-miterlimit:10;}
	.st174{fill:none;stroke:#BA3E05;stroke-width:0.4706;stroke-linecap:round;stroke-miterlimit:10;}
	.st175{fill:none;stroke:#BA3E05;stroke-width:0.4706;stroke-miterlimit:10;}
	.st176{fill:url(#SVGID_83_);}
	.st177{fill:url(#SVGID_84_);}
	.st178{fill:url(#SVGID_85_);}
	.st179{opacity:0.7;fill:url(#SVGID_86_);enable-background:new    ;}
	.st180{fill:url(#SVGID_87_);}
	.st181{opacity:0.7;fill:url(#SVGID_88_);enable-background:new    ;}
	.st182{fill:url(#SVGID_89_);}
	.st183{opacity:0.5;fill:url(#SVGID_90_);enable-background:new    ;}
	.st184{opacity:0.4;fill:url(#SVGID_91_);enable-background:new    ;}
	.st185{opacity:0.4;fill:url(#SVGID_92_);enable-background:new    ;}
</style>
<linearGradient id="SVGID_1_" gradientUnits="userSpaceOnUse" x1="259.5839" y1="137.1081" x2="269.9396" y2="-5.2835">
	<stop  offset="0.1369" style="stop-color:#3A0762"/>
	<stop  offset="0.4429" style="stop-color:#46107A"/>
	<stop  offset="0.7698" style="stop-color:#4F178C"/>
	<stop  offset="1" style="stop-color:#521A93"/>
</linearGradient>
<path class="st3" d="M519.2,3.9H80.4C73.9,1.4,66.7,0,59.2,0C26.5,0,0,26.5,0,59.2c0,32.7,26.5,59.2,59.2,59.2
	c7.5,0,14.6-1.4,21.2-3.9h438.8c4.4,0,8-3.6,8-8V11.9C527.2,7.5,523.6,3.9,519.2,3.9z"/>
<g>
	
		<image style="overflow:visible;opacity:0.2;" width="115" height="115" xlink:href="5E156678.png"  transform="matrix(1 0 0 1 2.0443 1.6104)">
	</image>
	<g>
		<linearGradient id="SVGID_3_" gradientUnits="userSpaceOnUse" x1="91.3954" y1="2.0295" x2="35.7714" y2="101.4426">
			<stop  offset="0.1369" style="stop-color:#3A0762"/>
			<stop  offset="0.4429" style="stop-color:#46107A"/>
			<stop  offset="0.7698" style="stop-color:#4F178C"/>
			<stop  offset="1" style="stop-color:#521A93"/>
		</linearGradient>
		<circle style="fill:url(#SVGID_3_);" cx="59.3" cy="59.4" r="50.5"/>
	</g>
</g>
<g>
	<path class="st79" d="M48.5,82.4c0.1,0,0.1,0,0.2-0.1C48.7,82.4,48.6,82.4,48.5,82.4L48.5,82.4z"/>
	<path class="st19" d="M87.2,37.3v29c0,15-16.6,25.9-23.8,29.8c-1.2,0.7-2.7,1.1-4.1,1.1c-1.4,0-2.8-0.4-4.1-1.1
		c-2.4-1.3-5.9-3.5-9.5-6.3c-7-5.5-14.2-13.6-14.2-23.5v-29c0-4.8,3.8-8.8,8.5-8.8h38.6C83.3,28.6,87.2,32.5,87.2,37.3z"/>
	<path class="st4" d="M59.6,97.2c0.2,0,0.4,0,0.6,0c-1.1-0.1-2.2-0.5-3.2-1c-2.7-1.5-6.7-3.9-10.6-7.2c1.3-1.9,2.4-4,3.5-6.2
		c3.6,2.9,7.1,5,8.7,5.9c0.1,0.1,0.3,0.1,0.5,0.2c0,0,0,0,0,0c0.1,0,0.2,0,0.3,0c0.1,0,0.2,0,0.4,0c0,0,0.1,0,0.1,0
		c0.1,0,0.3,0.1,0.4,0.1c0.3,0,0.6-0.1,0.8-0.2c3.7-2.1,19.1-11.3,19.1-22.5V38.7c0-1-0.8-1.7-1.7-1.7H59.1c0.2-3.7,0.2-6.7,0.2-8.4
		h19.3c4.7,0,8.5,3.9,8.5,8.8v29c0,6.8-3.5,12.8-7.9,17.7c-1.2,1.3-2.5,2.5-3.8,3.7c-4.4,3.9-9.1,6.8-12.1,8.5
		C62.2,96.8,60.9,97.1,59.6,97.2z M69.5,35.4l4-3.2v-1.9l1.9-1.8h-3.7h-1.1l-0.5,1l0.5,2.8L69.5,35.4z"/>
	<path class="st80" d="M36,79.7c-2.1-3-3.6-6.4-4.2-10c0,0,0,0,0,0C32.4,73.3,33.9,76.6,36,79.7L36,79.7z M31.5,40L31.5,40l0-2.6
		c0-3,1.4-5.6,3.6-7.2c-2.2,1.6-3.6,4.2-3.6,7.2L31.5,40z"/>
	<path class="st81" d="M59.3,97.2c-1.4,0-2.8-0.4-4.1-1.1c-3-1.7-7.7-4.6-12.1-8.5v0c0.9,0.8,1.7,1.5,2.6,2.2c3.6,2.8,7.1,5,9.5,6.3
		C56.5,96.8,57.9,97.2,59.3,97.2L59.3,97.2z M39.4,83.9c-0.6-0.6-1.1-1.3-1.7-1.9v0C38.2,82.7,38.8,83.3,39.4,83.9L39.4,83.9z"/>
	<path class="st82" d="M37.7,82c-0.6-0.8-1.2-1.5-1.7-2.3v0C36.5,80.5,37.1,81.2,37.7,82L37.7,82z"/>
	<path class="st83" d="M59.3,97.2L59.3,97.2c0.1,0,0.2,0,0.3,0C59.5,97.2,59.4,97.2,59.3,97.2z"/>
	<path class="st84" d="M43.1,87.6c-1.3-1.1-2.6-2.4-3.8-3.7v0C40.6,85.2,41.8,86.5,43.1,87.6L43.1,87.6z"/>
	<path class="st85" d="M31.8,69.7C31.8,69.7,31.8,69.7,31.8,69.7C31.8,69.7,31.8,69.7,31.8,69.7z M31.7,69.2
		C31.7,69.1,31.7,69.1,31.7,69.2c-0.1-0.9-0.2-1.9-0.2-2.9v-3.2c0,0,0,0,0,0v3.2C31.5,67.3,31.6,68.2,31.7,69.2z"/>
	<path class="st86" d="M31.8,69.7C31.8,69.7,31.8,69.7,31.8,69.7c0-0.2-0.1-0.3-0.1-0.5c0,0,0,0,0,0C31.7,69.3,31.7,69.5,31.8,69.7z
		"/>
	<path class="st87" d="M31.5,63.1C31.5,63.1,31.5,63.1,31.5,63.1l0-0.8c0,0,0,0,0,0V63.1z"/>
	<path class="st85" d="M31.5,61.8C31.5,61.8,31.5,61.8,31.5,61.8l0-7.2c0,0,0,0,0,0V61.8z"/>
	<path class="st88" d="M31.5,62.3L31.5,62.3L31.5,62.3C31.5,62.3,31.5,62.3,31.5,62.3L31.5,62.3z"/>
	<path class="st86" d="M31.5,62.3C31.5,62.3,31.5,62.3,31.5,62.3l0-0.5c0,0,0,0,0,0V62.3z"/>
	<path class="st87" d="M31.5,54.6C31.5,54.6,31.5,54.6,31.5,54.6l0-1.2c0,0,0,0,0,0V54.6z"/>
	<path class="st85" d="M31.5,52.7C31.5,52.7,31.5,52.7,31.5,52.7l0-12.8h0V52.7z"/>
	<path class="st88" d="M31.5,53.4C31.5,53.4,31.5,53.4,31.5,53.4C31.5,53.4,31.5,53.4,31.5,53.4L31.5,53.4"/>
	<path class="st86" d="M31.5,53.4C31.5,53.4,31.5,53.4,31.5,53.4l0-0.7c0,0,0,0,0,0V53.4z"/>
	<path class="st20" d="M45.7,89.8c-0.9-0.7-1.7-1.4-2.6-2.2c-1.3-1.1-2.6-2.4-3.8-3.7c-0.6-0.6-1.1-1.3-1.7-1.9
		c-0.6-0.8-1.2-1.5-1.7-2.3c-2.1-3-3.6-6.4-4.2-10c0-0.2-0.1-0.3-0.1-0.5c-0.1-0.9-0.2-1.9-0.2-2.9v-3.2v-0.8v0v-0.5v-7.2v-1.1v0
		v-0.7V40v-2.6c0-3,1.4-5.6,3.6-7.2c1.4-1,3.1-1.6,4.9-1.6h1.7c-4.7,0-8.5,3.9-8.5,8.8v29c0,5.5,2.3,10.5,5.5,14.8l-0.1,0.1l0.1-0.1
		c2.2,2.9,4.9,5.6,7.6,7.8C46.2,89.2,45.9,89.5,45.7,89.8z"/>
	<path class="st89" d="M59.3,97.2c-1.4,0-2.8-0.4-4.1-1.1c-2.4-1.3-5.9-3.5-9.5-6.3c0.2-0.3,0.4-0.6,0.6-0.9c4,3.3,8,5.7,10.6,7.2
		c1,0.6,2.1,0.9,3.2,1c-0.2,0-0.4,0-0.6,0C59.5,97.2,59.4,97.2,59.3,97.2z"/>
	<path class="st90" d="M75.3,28.6l-1.9,1.8v1.9l-4,3.2l1.9-3.1L71,29.5l0.7-1H75.3z"/>
	<path class="st90" d="M44.3,72.7l-2.9,3.4l-0.7,2.4l-2.1,2.7l3.6-2.8l0.7-1.7l1.5-1.3L44.3,72.7z"/>
	<path class="st20" d="M38.7,81.1C38.7,81.1,38.7,81.1,38.7,81.1l1.5-2.8l0.5-2.5l1.3-1.6c0.1,0.2,0.3,0.5,0.5,0.7l-1,1.2l-0.7,2.4
		L38.7,81.1z"/>
	<path class="st91" d="M38.7,81.2L38.7,81.2C38.7,81.1,38.7,81.1,38.7,81.2L38.7,81.2z"/>
	<path class="st92" d="M38.7,81.2L38.7,81.2l2.1-2.7L38.7,81.2z"/>
	<path class="st89" d="M69.5,35.4l1.1-3.1l-0.5-2.8l0.5-1h1.1l-0.7,1l0.3,2.8L69.5,35.4z"/>
	<path class="st89" d="M60.2,88.8c-0.1,0-0.3,0-0.4-0.1c0.1,0,0.3-0.1,0.4-0.1c3.7-2.1,19.1-11.3,19.1-22.5V38.7
		c0-1-0.8-1.7-1.7-1.7H59.1h19.3c0.9,0,1.7,0.8,1.7,1.7v27.4c0,11.1-15.4,20.4-19.1,22.5C60.7,88.7,60.5,88.8,60.2,88.8z"/>
	<path class="st90" d="M79.3,38.7v27.4c0,11.1-15.4,20.4-19.1,22.5c-0.5,0.3-1.1,0.3-1.6,0c-1.5-0.9-5.1-2.9-8.7-5.9
		c-5.1-4.2-10.5-10.1-10.5-16.6V38.7c0-1,0.8-1.7,1.7-1.7h36.5C78.5,37,79.3,37.8,79.3,38.7z"/>
	<path class="st93" d="M59,88.7c-0.2,0-0.3-0.1-0.5-0.2c-1.5-0.9-5.1-2.9-8.7-5.9l0,0c3.6,2.9,7.1,5,8.7,5.9
		C58.7,88.6,58.8,88.7,59,88.7z"/>
	<path class="st93" d="M59.7,88.7c0.2,0,0.3-0.1,0.5-0.2c0.4-0.2,0.9-0.5,1.4-0.8c-2.5-1.5-6.8-4.3-10.5-7.9
		c1.4-3.4,2.6-7.1,3.6-10.8l4.2-2.2c0.2-0.1,0.3-0.1,0.5-0.1c0.2,0,0.4,0,0.5,0.1l6.5,3.4c0.2,0.1,0.3,0.1,0.5,0.1
		c0.6,0,1.2-0.6,1.1-1.3l-1.2-7.2c-0.1-0.4,0.1-0.7,0.3-1l5.3-5.1c0.7-0.6,0.3-1.7-0.6-1.9l-7.3-1.1h0c-0.4-0.1-0.7-0.3-0.8-0.6
		l-3.3-6.6c-0.2-0.4-0.6-0.6-1-0.6c-0.3,0-0.5,0.1-0.7,0.3c0.3-3,0.4-5.8,0.6-8.3h18.4c0.9,0,1.7,0.8,1.7,1.7v27.4
		c0,11.1-15.4,20.4-19.1,22.5C60,88.6,59.9,88.7,59.7,88.7C59.7,88.7,59.7,88.7,59.7,88.7z"/>
	<path class="st94" d="M59.3,88.8c0.1,0,0.2,0,0.4,0C59.6,88.8,59.4,88.8,59.3,88.8z"/>
	<path class="st95" d="M39.7,37.7c0.3-0.4,0.8-0.7,1.3-0.7h4.5c0,0-0.1,0-0.1,0h-3.5h-0.9C40.5,37,40,37.2,39.7,37.7z"/>
	<path class="st96" d="M49.8,82.7c-5.1-4.2-10.5-10.1-10.5-16.6V38.7c0-0.4,0.1-0.8,0.3-1.1c0.3-0.4,0.8-0.7,1.4-0.7h0.9h3.5
		c-0.9,0.1-1.6,0.8-1.6,1.7v27.4c0,5.2,3.3,9.9,7.2,13.7C50.7,80.8,50.3,81.8,49.8,82.7z"/>
	<path class="st96" d="M59.3,88.8c-0.1,0-0.2,0-0.3,0c-0.2,0-0.3-0.1-0.5-0.2c-1.5-0.9-5.1-2.9-8.7-5.9c0.4-0.9,0.9-1.9,1.3-2.8
		c3.7,3.6,7.9,6.4,10.5,7.9c-0.6,0.3-1.1,0.6-1.4,0.8c-0.1,0.1-0.3,0.1-0.5,0.2C59.6,88.8,59.4,88.8,59.3,88.8z"/>
	<path class="st19" d="M60.3,45.6l3.3,6.6c0.2,0.3,0.5,0.5,0.8,0.6l7.3,1.1c0.9,0.1,1.3,1.2,0.6,1.9L67,60.9c-0.3,0.3-0.4,0.6-0.3,1
		l1.2,7.2c0.2,0.9-0.8,1.6-1.6,1.2l-6.5-3.4c-0.3-0.2-0.7-0.2-1,0l-6.5,3.4c-0.8,0.4-1.7-0.3-1.6-1.2l1.2-7.2c0.1-0.4-0.1-0.7-0.3-1
		l-5.3-5.1c-0.7-0.6-0.3-1.7,0.6-1.9l7.3-1.1c0.4-0.1,0.7-0.3,0.8-0.6l3.3-6.6C58.7,44.8,59.9,44.8,60.3,45.6z"/>
	<path class="st92" d="M51.8,70.4c0.1,0,0.2,0,0.4-0.1C52,70.3,51.9,70.4,51.8,70.4z"/>
	<path class="st20" d="M51.8,70.4c-0.6,0-1.2-0.6-1.1-1.3l1.2-7.2c0-0.1,0-0.1,0-0.2c0-0.3-0.1-0.6-0.3-0.8l-5.3-5.1
		c-0.4-0.4-0.4-1-0.1-1.4c0.2-0.2,0.4-0.4,0.7-0.5l7.3-1.1c0,0,0,0,0,0c0.2,0,0.4-0.1,0.6-0.3c0.1-0.1,0.2-0.2,0.2-0.3l3.3-6.6
		c0.2-0.4,0.6-0.6,1-0.6c0.2,0,0.4,0,0.6,0.1c-0.2,0.1-0.3,0.3-0.4,0.5l-3.3,6.6c-0.2,0.3-0.5,0.5-0.8,0.6l-7.3,1.1
		c-0.9,0.1-1.3,1.2-0.6,1.9l5.3,5.1c0.3,0.3,0.4,0.6,0.3,1l-1.2,7.2c0,0.2,0,0.5,0.1,0.7l-0.4,0.6C51.6,70.3,51.7,70.4,51.8,70.4
		c0.1,0,0.2,0,0.4-0.1C52,70.3,51.9,70.4,51.8,70.4z"/>
	<path class="st21" d="M66.8,70.4L66.8,70.4c0.6,0,1.2-0.6,1.1-1.3l-1.2-7.2c-0.1-0.4,0.1-0.7,0.3-1l5.3-5.1
		c0.7-0.6,0.3-1.7-0.6-1.9l-7.3-1.1h0l7.3,1.1c0.9,0.1,1.3,1.2,0.6,1.9L67,60.9c-0.3,0.3-0.4,0.6-0.3,1l1.2,7.2
		C68.1,69.8,67.5,70.4,66.8,70.4z"/>
	<path class="st97" d="M52.2,70.3c0,0,0.1,0,0.1-0.1c0,0,0,0,0,0c0,0,0,0,0,0l2.4-1.2l-2.3,1.2C52.3,70.3,52.2,70.3,52.2,70.3z"/>
	<path class="st21" d="M54.7,69l4.1-2.2c0.2-0.1,0.3-0.1,0.5-0.1c-0.2,0-0.3,0-0.5,0.1L54.7,69z"/>
	<path class="st4" d="M66.8,70.4c-0.2,0-0.3,0-0.5-0.1l-6.5-3.4c-0.2-0.1-0.3-0.1-0.5-0.1h0c-0.2,0-0.4,0-0.5,0.1L54.7,69l-2.4,1.2
		l0.1,0c-0.2-0.1-0.3-0.3-0.4-0.5l12.5-16.9l7.3,1.1c0.9,0.1,1.3,1.2,0.6,1.9L67,60.9c-0.3,0.3-0.4,0.6-0.3,1l1.2,7.2
		C68.1,69.8,67.5,70.4,66.8,70.4z"/>
	<path class="st98" d="M52.2,70.3c0,0,0.1,0,0.1-0.1C52.2,70.3,52.2,70.3,52.2,70.3C52.2,70.3,52.2,70.3,52.2,70.3z"/>
	<path class="st99" d="M51.8,70.4c-0.1,0-0.2,0-0.3,0l0.4-0.6c0.1,0.2,0.3,0.4,0.4,0.5l-0.1,0c0,0,0,0,0,0c0,0,0,0,0,0
		c0,0-0.1,0-0.1,0.1C52,70.3,51.9,70.4,51.8,70.4z"/>
	<path class="st20" d="M54.1,56.2c-0.7,0-1.3-0.2-1.4-0.7c-0.2-0.6,0.6-1.3,1.7-1.6c0.3-0.1,0.6-0.1,0.9-0.1c0.7,0,1.3,0.2,1.4,0.7
		c0.2,0.6-0.6,1.3-1.7,1.6C54.7,56.2,54.4,56.2,54.1,56.2z"/>
</g>
<path class="st100" d="M504,14.2H103.2c11.7,11.4,19,27.4,19,45.1s-7.3,33.6-19,45.1H504c5.7,0,10.4-4.6,10.4-10.4V24.5
	C514.4,18.8,509.8,14.2,504,14.2z"/>
<path class="st101" d="M504,14.2H103.2c11.7,11.4,19,27.4,19,45.1s-7.3,33.6-19,45.1H504c5.7,0,10.4-4.6,10.4-10.4V24.5
	C514.4,18.8,509.8,14.2,504,14.2z"/>
<g>
	<circle class="st102" cx="59.3" cy="59.4" r="49.3"/>
</g>
<path class="st103" d="M59.3,7.6C30.7,7.6,7.6,30.8,7.6,59.4s23.2,51.7,51.7,51.7s51.7-23.2,51.7-51.7S87.9,7.6,59.3,7.6z
	 M59.3,108.3c-27,0-48.9-21.9-48.9-48.9s21.9-48.9,48.9-48.9s48.9,21.9,48.9,48.9S86.3,108.3,59.3,108.3z"/>
</svg>
