<?xml version="1.0" encoding="utf-8"?>
<!-- Generator: Adobe Illustrator 25.3.0, SVG Export Plug-In . SVG Version: 6.00 Build 0)  -->
<svg version="1.1" id="Capa_2_1_" xmlns="http://www.w3.org/2000/svg" xmlns:xlink="http://www.w3.org/1999/xlink" x="0px" y="0px"
	 viewBox="0 0 115.5 118.5" style="enable-background:new 0 0 115.5 118.5;" xml:space="preserve">
<style type="text/css">
	.st0{fill:url(#SVGID_1_);}
	.st1{fill:#FFFFFF;}
	.st2{fill:none;stroke:#CCCCCC;stroke-width:2.7123;stroke-miterlimit:10;}
	.st3{fill:url(#SVGID_2_);}
	.st4{fill:#FF923B;}
	.st5{fill:#FFB612;}
	.st6{fill:#FF9C09;}
	.st7{fill:#BA896C;}
	.st8{fill:#EF943F;}
	.st9{fill:#EFA25D;}
	.st10{fill:#E68C2E;}
	.st11{fill:#EFAB16;}
	.st12{fill:#FFC00E;}
	.st13{fill:#FFCE0F;}
	.st14{fill:#FFB10D;}
	.st15{fill:#FFC60E;}
	.st16{fill:#FFDA1E;}
	.st17{fill:#FFCE15;}
	.st18{fill:#CA7300;}
	.st19{fill:#FFEC29;}
	.st20{fill:#EFB90D;}
	.st21{fill:#BD6000;}
	.st22{fill:#E47104;}
	.st23{fill:#E48409;}
	.st24{fill:#B55300;}
	.st25{fill:#BD5200;}
	.st26{fill:#CA6200;}
	.st27{fill:#EF9E07;}
	.st28{fill:#FFBB10;}
	.st29{fill:none;stroke:#7138C1;stroke-width:3.5152;stroke-miterlimit:10;}
	.st30{fill:#3A0762;}
</style>
<g>
	<g>
		
			<linearGradient id="SVGID_1_" gradientUnits="userSpaceOnUse" x1="91.399" y1="882.0315" x2="35.775" y2="981.4446" gradientTransform="matrix(1 0 0 1 0 -880)">
			<stop  offset="0.1369" style="stop-color:#3A0762"/>
			<stop  offset="0.4429" style="stop-color:#46107A"/>
			<stop  offset="0.7698" style="stop-color:#4F178C"/>
			<stop  offset="1" style="stop-color:#521A93"/>
		</linearGradient>
		<circle class="st0" cx="59.3" cy="59.4" r="50.5"/>
	</g>
</g>
<g>
	<path class="st4" d="M48.5,82.4c0.1,0,0.1,0,0.2-0.1C48.7,82.4,48.6,82.4,48.5,82.4L48.5,82.4z"/>
	<path class="st5" d="M87.2,37.3v29c0,15-16.6,25.9-23.8,29.8c-1.2,0.7-2.7,1.1-4.1,1.1c-1.4,0-2.8-0.4-4.1-1.1
		c-2.4-1.3-5.9-3.5-9.5-6.3c-7-5.5-14.2-13.6-14.2-23.5v-29c0-4.8,3.8-8.8,8.5-8.8h38.6C83.3,28.6,87.2,32.5,87.2,37.3z"/>
	<path class="st6" d="M59.6,97.2c0.2,0,0.4,0,0.6,0c-1.1-0.1-2.2-0.5-3.2-1c-2.7-1.5-6.7-3.9-10.6-7.2c1.3-1.9,2.4-4,3.5-6.2
		c3.6,2.9,7.1,5,8.7,5.9c0.1,0.1,0.3,0.1,0.5,0.2l0,0c0.1,0,0.2,0,0.3,0s0.2,0,0.4,0h0.1c0.1,0,0.3,0.1,0.4,0.1
		c0.3,0,0.6-0.1,0.8-0.2c3.7-2.1,19.1-11.3,19.1-22.5V38.7c0-1-0.8-1.7-1.7-1.7H59.1c0.2-3.7,0.2-6.7,0.2-8.4h19.3
		c4.7,0,8.5,3.9,8.5,8.8v29c0,6.8-3.5,12.8-7.9,17.7c-1.2,1.3-2.5,2.5-3.8,3.7c-4.4,3.9-9.1,6.8-12.1,8.5
		C62.2,96.8,60.9,97.1,59.6,97.2z M69.5,35.4l4-3.2v-1.9l1.9-1.8h-3.7h-1.1l-0.5,1l0.5,2.8L69.5,35.4z"/>
	<path class="st7" d="M36,79.7c-2.1-3-3.6-6.4-4.2-10l0,0C32.4,73.3,33.9,76.6,36,79.7L36,79.7z M31.5,40L31.5,40v-2.6
		c0-3,1.4-5.6,3.6-7.2c-2.2,1.6-3.6,4.2-3.6,7.2L31.5,40z"/>
	<path class="st8" d="M59.3,97.2c-1.4,0-2.8-0.4-4.1-1.1c-3-1.7-7.7-4.6-12.1-8.5l0,0c0.9,0.8,1.7,1.5,2.6,2.2
		c3.6,2.8,7.1,5,9.5,6.3C56.5,96.8,57.9,97.2,59.3,97.2L59.3,97.2z M39.4,83.9c-0.6-0.6-1.1-1.3-1.7-1.9l0,0
		C38.2,82.7,38.8,83.3,39.4,83.9L39.4,83.9z"/>
	<path class="st9" d="M37.7,82c-0.6-0.8-1.2-1.5-1.7-2.3l0,0C36.5,80.5,37.1,81.2,37.7,82L37.7,82z"/>
	<path class="st11" d="M43.1,87.6c-1.3-1.1-2.6-2.4-3.8-3.7l0,0C40.6,85.2,41.8,86.5,43.1,87.6L43.1,87.6z"/>
	<path class="st12" d="M31.8,69.7L31.8,69.7L31.8,69.7z M31.7,69.2C31.7,69.1,31.7,69.1,31.7,69.2c-0.1-0.9-0.2-1.9-0.2-2.9v-3.2
		l0,0v3.2C31.5,67.3,31.6,68.2,31.7,69.2z"/>
	<path class="st13" d="M31.8,69.7L31.8,69.7c0-0.2-0.1-0.3-0.1-0.5l0,0C31.7,69.3,31.7,69.5,31.8,69.7z"/>
	<path class="st16" d="M45.7,89.8c-0.9-0.7-1.7-1.4-2.6-2.2c-1.3-1.1-2.6-2.4-3.8-3.7c-0.6-0.6-1.1-1.3-1.7-1.9
		c-0.6-0.8-1.2-1.5-1.7-2.3c-2.1-3-3.6-6.4-4.2-10c0-0.2-0.1-0.3-0.1-0.5c-0.1-0.9-0.2-1.9-0.2-2.9v-3.2v-0.8l0,0v-0.5v-7.2v-1.1
		l0,0v-0.7V40v-2.6c0-3,1.4-5.6,3.6-7.2c1.4-1,3.1-1.6,4.9-1.6h1.7c-4.7,0-8.5,3.9-8.5,8.8v29c0,5.5,2.3,10.5,5.5,14.8l-0.1,0.1
		l0.1-0.1c2.2,2.9,4.9,5.6,7.6,7.8C46.2,89.2,45.9,89.5,45.7,89.8z"/>
	<path class="st17" d="M59.3,97.2c-1.4,0-2.8-0.4-4.1-1.1c-2.4-1.3-5.9-3.5-9.5-6.3c0.2-0.3,0.4-0.6,0.6-0.9c4,3.3,8,5.7,10.6,7.2
		c1,0.6,2.1,0.9,3.2,1c-0.2,0-0.4,0-0.6,0C59.5,97.2,59.4,97.2,59.3,97.2z"/>
	<path class="st18" d="M75.3,28.6l-1.9,1.8v1.9l-4,3.2l1.9-3.1L71,29.5l0.7-1h3.6C75.3,28.5,75.3,28.6,75.3,28.6z"/>
	<path class="st18" d="M44.3,72.7l-2.9,3.4l-0.7,2.4l-2.1,2.7l3.6-2.8l0.7-1.7l1.5-1.3L44.3,72.7z"/>
	<path class="st16" d="M38.7,81.1L38.7,81.1l1.5-2.8l0.5-2.5l1.3-1.6c0.1,0.2,0.3,0.5,0.5,0.7l-1,1.2l-0.7,2.4L38.7,81.1z"/>
	<path class="st20" d="M38.7,81.2L38.7,81.2l2.1-2.7L38.7,81.2z"/>
	<path class="st17" d="M69.5,35.4l1.1-3.1l-0.5-2.8l0.5-1h1.1l-0.7,1l0.3,2.8L69.5,35.4z"/>
	<path class="st17" d="M60.2,88.8c-0.1,0-0.3,0-0.4-0.1c0.1,0,0.3-0.1,0.4-0.1c3.7-2.1,19.1-11.3,19.1-22.5V38.7
		c0-1-0.8-1.7-1.7-1.7H59.1h19.3c0.9,0,1.7,0.8,1.7,1.7v27.4c0,11.1-15.4,20.4-19.1,22.5C60.7,88.7,60.5,88.8,60.2,88.8z"/>
	<path class="st18" d="M79.3,38.7v27.4c0,11.1-15.4,20.4-19.1,22.5c-0.5,0.3-1.1,0.3-1.6,0c-1.5-0.9-5.1-2.9-8.7-5.9
		c-5.1-4.2-10.5-10.1-10.5-16.6V38.7c0-1,0.8-1.7,1.7-1.7h36.5C78.5,37,79.3,37.8,79.3,38.7z"/>
	<path class="st21" d="M59,88.7c-0.2,0-0.3-0.1-0.5-0.2c-1.5-0.9-5.1-2.9-8.7-5.9l0,0c3.6,2.9,7.1,5,8.7,5.9
		C58.7,88.6,58.8,88.7,59,88.7z"/>
	<path class="st21" d="M59.7,88.7c0.2,0,0.3-0.1,0.5-0.2c0.4-0.2,0.9-0.5,1.4-0.8c-2.5-1.5-6.8-4.3-10.5-7.9
		c1.4-3.4,2.6-7.1,3.6-10.8l4.2-2.2c0.2-0.1,0.3-0.1,0.5-0.1s0.4,0,0.5,0.1l6.5,3.4c0.2,0.1,0.3,0.1,0.5,0.1c0.6,0,1.2-0.6,1.1-1.3
		l-1.2-7.2c-0.1-0.4,0.1-0.7,0.3-1l5.3-5.1c0.7-0.6,0.3-1.7-0.6-1.9l-7.3-1.1l0,0c-0.4-0.1-0.7-0.3-0.8-0.6l-3.3-6.6
		c-0.2-0.4-0.6-0.6-1-0.6c-0.3,0-0.5,0.1-0.7,0.3c0.3-3,0.4-5.8,0.6-8.3h18.4c0.9,0,1.7,0.8,1.7,1.7V66c0,11.1-15.4,20.4-19.1,22.5
		C60,88.6,59.9,88.7,59.7,88.7L59.7,88.7z"/>
	<path class="st23" d="M39.7,37.7C40,37.3,40.5,37,41,37h4.5h-0.1h-3.5H41C40.5,37,40,37.2,39.7,37.7z"/>
	<path class="st24" d="M49.8,82.7c-5.1-4.2-10.5-10.1-10.5-16.6V38.7c0-0.4,0.1-0.8,0.3-1.1c0.3-0.4,0.8-0.7,1.4-0.7h0.9h3.5
		c-0.9,0.1-1.6,0.8-1.6,1.7V66c0,5.2,3.3,9.9,7.2,13.7C50.7,80.8,50.3,81.8,49.8,82.7z"/>
	<path class="st24" d="M59.3,88.8c-0.1,0-0.2,0-0.3,0c-0.2,0-0.3-0.1-0.5-0.2c-1.5-0.9-5.1-2.9-8.7-5.9c0.4-0.9,0.9-1.9,1.3-2.8
		c3.7,3.6,7.9,6.4,10.5,7.9c-0.6,0.3-1.1,0.6-1.4,0.8c-0.1,0.1-0.3,0.1-0.5,0.2C59.6,88.8,59.4,88.8,59.3,88.8z"/>
	<path class="st5" d="M60.3,45.6l3.3,6.6c0.2,0.3,0.5,0.5,0.8,0.6l7.3,1.1c0.9,0.1,1.3,1.2,0.6,1.9L67,60.9c-0.3,0.3-0.4,0.6-0.3,1
		l1.2,7.2c0.2,0.9-0.8,1.6-1.6,1.2l-6.5-3.4c-0.3-0.2-0.7-0.2-1,0l-6.5,3.4c-0.8,0.4-1.7-0.3-1.6-1.2l1.2-7.2c0.1-0.4-0.1-0.7-0.3-1
		l-5.3-5.1c-0.7-0.6-0.3-1.7,0.6-1.9l7.3-1.1c0.4-0.1,0.7-0.3,0.8-0.6l3.3-6.6C58.7,44.8,59.9,44.8,60.3,45.6z"/>
	<path class="st20" d="M51.8,70.4c0.1,0,0.2,0,0.4-0.1C52,70.3,51.9,70.4,51.8,70.4z"/>
	<path class="st16" d="M51.8,70.4c-0.6,0-1.2-0.6-1.1-1.3l1.2-7.2c0-0.1,0-0.1,0-0.2c0-0.3-0.1-0.6-0.3-0.8l-5.3-5.1
		c-0.4-0.4-0.4-1-0.1-1.4c0.2-0.2,0.4-0.4,0.7-0.5l7.3-1.1l0,0c0.2,0,0.4-0.1,0.6-0.3c0.1-0.1,0.2-0.2,0.2-0.3l3.3-6.6
		c0.2-0.4,0.6-0.6,1-0.6c0.2,0,0.4,0,0.6,0.1c-0.2,0.1-0.3,0.3-0.4,0.5l-3.3,6.6c-0.2,0.3-0.5,0.5-0.8,0.6l-7.3,1.1
		c-0.9,0.1-1.3,1.2-0.6,1.9l5.3,5.1c0.3,0.3,0.4,0.6,0.3,1l-1.2,7.2c0,0.2,0,0.5,0.1,0.7l-0.4,0.6C51.6,70.3,51.7,70.4,51.8,70.4
		s0.2,0,0.4-0.1C52,70.3,51.9,70.4,51.8,70.4z"/>
	<path class="st25" d="M66.8,70.4L66.8,70.4c0.6,0,1.2-0.6,1.1-1.3l-1.2-7.2c-0.1-0.4,0.1-0.7,0.3-1l5.3-5.1
		c0.7-0.6,0.3-1.7-0.6-1.9l-7.3-1.1l0,0l7.3,1.1c0.9,0.1,1.3,1.2,0.6,1.9L67,60.9c-0.3,0.3-0.4,0.6-0.3,1l1.2,7.2
		C68.1,69.8,67.5,70.4,66.8,70.4z"/>
	<path class="st26" d="M52.2,70.3C52.2,70.3,52.3,70.3,52.2,70.3L52.2,70.3L52.2,70.3l2.5-1.3l-2.3,1.2
		C52.3,70.3,52.2,70.3,52.2,70.3z"/>
	<path class="st25" d="M54.7,69l4.1-2.2c0.2-0.1,0.3-0.1,0.5-0.1c-0.2,0-0.3,0-0.5,0.1L54.7,69z"/>
	<path class="st6" d="M66.8,70.4c-0.2,0-0.3,0-0.5-0.1l-6.5-3.4c-0.2-0.1-0.3-0.1-0.5-0.1l0,0c-0.2,0-0.4,0-0.5,0.1L54.7,69
		l-2.4,1.2h0.1c-0.2-0.1-0.3-0.3-0.4-0.5l12.5-16.9l7.3,1.1c0.9,0.1,1.3,1.2,0.6,1.9L67,60.9c-0.3,0.3-0.4,0.6-0.3,1l1.2,7.2
		C68.1,69.8,67.5,70.4,66.8,70.4z"/>
	<path class="st28" d="M51.8,70.4c-0.1,0-0.2,0-0.3,0l0.4-0.6c0.1,0.2,0.3,0.4,0.4,0.5h-0.1l0,0l0,0c0,0-0.1,0-0.1,0.1
		C52,70.3,51.9,70.4,51.8,70.4z"/>
	<path class="st16" d="M54.1,56.2c-0.7,0-1.3-0.2-1.4-0.7c-0.2-0.6,0.6-1.3,1.7-1.6c0.3-0.1,0.6-0.1,0.9-0.1c0.7,0,1.3,0.2,1.4,0.7
		c0.2,0.6-0.6,1.3-1.7,1.6C54.7,56.2,54.4,56.2,54.1,56.2z"/>
</g>
<g>
	<circle class="st29" cx="59.3" cy="59.4" r="49.3"/>
</g>
<path class="st30" d="M59.3,7.6C30.7,7.6,7.6,30.8,7.6,59.4s23.2,51.7,51.7,51.7S111,87.9,111,59.4S87.9,7.6,59.3,7.6z M59.3,108.3
	c-27,0-48.9-21.9-48.9-48.9s21.9-48.9,48.9-48.9s48.9,21.9,48.9,48.9S86.3,108.3,59.3,108.3z"/>
</svg>
