<?xml version="1.0" encoding="utf-8"?>
<!-- Generator: Adobe Illustrator 25.3.0, SVG Export Plug-In . SVG Version: 6.00 Build 0)  -->
<svg version="1.1" id="Capa_1" xmlns="http://www.w3.org/2000/svg" xmlns:xlink="http://www.w3.org/1999/xlink" x="0px" y="0px"
	 viewBox="0 0 512 512" style="enable-background:new 0 0 512 512;" xml:space="preserve">
<style type="text/css">
	.st0{fill:#521A93;}
	.st1{fill:#FF9C00;}
	.st2{fill:#FFFFFF;}
</style>
<g>
	<g>
		<path class="st0" d="M195.5,409.8c-0.2-11.2,9.1-20.5,20.3-20.5c10.4,0,19.3,9,19.7,19.7c0.4,10.9-9.1,20.5-20.3,20.4
			C204.6,429.3,195.7,420.4,195.5,409.8z M215.1,419.7c5.8,0.1,10.5-4.4,10.7-10c0.1-5.6-3.9-9.9-9.5-10.1c-6.3-0.2-10.8,3.6-11,9.5
			C205,415,209.2,419.6,215.1,419.7z"/>
		<path class="st0" d="M216.3,90.3c-7.4,0-14.7,0.3-22.1-0.2c-0.5,0-0.9-0.2-1.4-0.3c-3.5-1.4-3.8-6.4-0.5-8.1
			c0.5-0.2,0.9-0.4,1.4-0.4c14.9-0.4,29.9-0.4,44.8,0.1c0.4,0,0.9,0.2,1.3,0.4c3.2,1.7,2.9,6.6-0.4,8c-0.4,0.2-0.8,0.3-1.1,0.3
			c-7.3,0.5-14.7,0.2-22.1,0.2C216.3,90.3,216.3,90.3,216.3,90.3z"/>
		<path class="st1" d="M311.8,245.5H277c-1.5,0-2.6-1.2-2.6-2.6l0,0c0-1.5,1.2-2.6,2.6-2.6h34.8c1.5,0,2.6,1.2,2.6,2.6l0,0
			C314.4,244.3,313.3,245.5,311.8,245.5z"/>
		<path class="st1" d="M334.5,245.4h-14.2c-1.5,0-2.6-1.2-2.6-2.6l0,0c0-1.5,1.2-2.6,2.6-2.6h14.2c1.5,0,2.6,1.2,2.6,2.6l0,0
			C337.1,244.2,335.9,245.4,334.5,245.4z"/>
		<g>
			<path class="st0" d="M336.9,267.1c1.7,0,3.1,1.4,3.1,3.1c-0.1,45.6-0.1,91.8-0.1,137.4c0,24.4-14.6,39-39,38.9
				c-56.6-0.1-113.2-0.1-169.7,0c-23.7,0-38.9-15-38.9-38.5c0-101,0-202.1-0.1-303.1c0-13.9,3.5-26.3,16-33.6
				c5.5-3.2,12.4-5.4,18.7-5.4c59.9-0.4,119.8-0.4,179.7-0.3c17.8,0,32.7,14.2,33.5,32.2c0.3,7.3,0.2,14.7,0.1,22.6
				c0,0.8-0.7,1.5-1.5,1.5l-3.2,0c-0.8,0-1.5-0.7-1.5-1.5c0-7.3,0.1-16.3-0.1-22.8c-0.4-15.8-13.3-25.8-28.9-25.8
				c-59.2-0.1-118.4,0-177.6-0.1c-11.4,0-22.1,5.4-26.4,15.2c-2.2,4.9-2.2,13.9-2.2,19.5c-0.2,68.9-0.2,137.9-0.2,206.8
				c0,32.1-0.3,65.1,0.2,97.2c0.3,18.9,13.5,30.3,31.8,30.3c57,0,114.1-0.1,171.1-0.1c18.3,0,32-10.9,32-29.3c0-46.6,0-68.1,0-114.7
				l0,0c0-0.4,0-18.8,0-26.2C333.8,268.5,335.2,267.1,336.9,267.1L336.9,267.1z"/>
			<path class="st0" d="M419.5,151.2c-0.1-5.3-2.4-11.2-5.3-15.7c-4.1-6.3-11.2-8-18.6-8h-1.3c-17.7,0.1-35.4,0-54.1,0c0,0,0,0,0,0
				h-63c-3.6,0-7.2,0.8-10.3,2.4c-7.5,4-11.3,11.6-11.4,22.7c-0.1,28.3-0.2,56.6-0.1,84.9c0,13.9,5.7,21.7,17.4,23.9h119.5
				c2.1,0,4.2,0,6.4,0c13-0.2,21.2-8.8,21.2-21.8C419.8,210.1,420,180.7,419.5,151.2z M276.6,133.4c39.2-0.2,83.8-0.1,123,0.2
				c8.9,0.1,13.2,7.8,14,17.8c-48.5,0-102.1,0-150.2,0C263,141.9,267.7,133.4,276.6,133.4z M413.5,239.7
				c-0.1,8.4-4.5,15.6-12.8,15.6c-39.7,0.2-84.9,0.3-124.6,0.2c-8.2,0-13.8-7.4-14-14.9c-0.4-18-0.1-46.4-0.1-64.8
				c48.9,0,102.5,0,151.6,0c0,8.3,0,26.6,0,34.6C413.6,220.2,413.7,229.9,413.5,239.7z"/>
			<path class="st0" d="M307.4,96.3c-56.8,0.3-113.6,0.3-170.4,0.3c-4.3,0-8.6,0.3-12.8-0.1c-6.4-0.7-8.2,2-8.2,8.1
				c0.2,30.7,0.1,61.3,0.1,92c-0.1,58.7,0,117.4-0.3,176.1c0,6.7,1.8,9.2,8.8,9.2c60.4-0.3,120.7-0.4,181.1-0.5
				c10.5,0,10.5,0,10.5-10.6c0-33.5-0.1-67-0.1-100.4c0-1.8-1.5-3.3-3.3-3.3h-0.3c-1.8,0-3.3,1.5-3.3,3.3v100.9
				c0,1.8-1.5,3.3-3.3,3.3H126.7c-1.8,0-3.3-1.5-3.3-3.3V106.7c0-1.8,1.5-3.3,3.3-3.3h179.3c1.8,0,3.3,1.5,3.3,3.3v11.9
				c0,1.8,1.5,3.3,3.3,3.3l0,0c1.8,0,3.3-1.5,3.3-3.4c-0.1-4.5-0.1-8.9,0.2-13.2C316.7,98.4,314.2,96.3,307.4,96.3z"/>
		</g>
	</g>
	<g>
		<g>
			<path class="st1" d="M209.4,254.2l-1.2,3l-1.2,3l-1.2,2.9l-1.2,2.9l3.7,1.1l3.7,1.1l3.7,1.1l3.7,1.1l1.2-3l1.2-3l1.2-2.9l1.2-2.9
				l-3.7-1.1l-3.7-1.1l-3.7-1.1L209.4,254.2 M224.8,284.7l-8.8-2.6l-8.8-2.5l-8.7-2.5l-8.8-2.5l3.5-8.6l3.5-8.7l3.5-8.7l3.6-8.8
				l6.2,1.8l6.2,1.8l6.3,1.8l6.3,1.8l2.4-5.9l2.4-5.8l2.4-5.8l2.4-5.8l2.5,0.7l2.5,0.7l2.5,0.7l2.5,0.7l-5.8,14.5l-5.9,14.5
				l-5.9,14.6L224.8,284.7z"/>
		</g>
		<g>
			<g>
				<path class="st0" d="M220.3,225.8l1.2-3l1.2-3l1.2-2.9l1.2-2.9l-3.7-1.1l-3.7-1.1l-3.7-1.1l-3.7-1.1l-1.2,3l-1.2,3l-1.2,2.9
					l-1.2,2.9l3.7,1.1l3.7,1.1l3.7,1.1L220.3,225.8 M204.9,195.3l8.8,2.6l8.8,2.5l8.7,2.5l8.8,2.5l-3.5,8.6l-3.5,8.7l-3.5,8.7
					l-3.6,8.8l-6.2-1.8l-6.2-1.8l-6.3-1.8l-6.3-1.8l-2.4,5.9l-2.4,5.8l-2.4,5.8l-2.4,5.8l-2.5-0.7l-2.5-0.7l-2.5-0.7l-2.5-0.7
					l5.8-14.5l5.9-14.5L199,210L204.9,195.3z"/>
			</g>
		</g>
	</g>
</g>
</svg>
