<?xml version="1.0" encoding="utf-8"?>
<!-- Generator: Adobe Illustrator 25.3.0, SVG Export Plug-In . SVG Version: 6.00 Build 0)  -->
<svg version="1.1" id="Capa_1" xmlns="http://www.w3.org/2000/svg" xmlns:xlink="http://www.w3.org/1999/xlink" x="0px" y="0px"
	 viewBox="0 0 512 512" style="enable-background:new 0 0 512 512;" xml:space="preserve">
<style type="text/css">
	.st0{fill:#521A93;}
	.st1{fill:#FF9C00;}
	.st2{fill:#FFFFFF;}
</style>
<path class="st0" d="M58.5,280.7h-0.2c-22.9,0-41.6,18.6-41.6,41.6s18.6,41.6,41.6,41.6h0.2c3.9,0,7-3.1,7-7v-69.1
	C65.5,283.9,62.4,280.7,58.5,280.7L58.5,280.7z"/>
<path class="st0" d="M389.6,280.7h-0.2c-3.9,0-7,3.1-7,7v69.1c0,3.9,3.1,7,7,7h0.2c22.9,0,41.6-18.6,41.6-41.6
	C431.2,299.4,412.6,280.7,389.6,280.7L389.6,280.7z"/>
<path class="st0" d="M157.8,295.7c6.2,0,11.2,5,11.2,11.2c0,6.2-5,11.2-11.2,11.2s-11.2-5-11.2-11.2
	C146.6,300.8,151.6,295.7,157.8,295.7 M157.8,288.7c-10,0-18.2,8.2-18.2,18.2s8.2,18.2,18.2,18.2S176,317,176,307
	S167.8,288.7,157.8,288.7L157.8,288.7z"/>
<path class="st0" d="M286,295.7c6.2,0,11.2,5,11.2,11.2c0,6.2-5,11.2-11.2,11.2s-11.2-5-11.2-11.2
	C274.8,300.8,279.8,295.7,286,295.7 M286,288.7c-10,0-18.2,8.2-18.2,18.2s8.2,18.2,18.2,18.2s18.2-8.2,18.2-18.2
	S296.1,288.7,286,288.7L286,288.7z"/>
<path class="st0" d="M257.1,339.3c0,14-14.9,25.3-33.3,25.3s-33.3-11.3-33.3-25.3H257.1 M257.1,332.3h-66.5c-3.9,0-7,3.1-7,7
	c0,9,4.4,17.3,12.5,23.5c7.5,5.7,17.4,8.8,27.8,8.8s20.3-3.1,27.8-8.8c8.1-6.1,12.5-14.5,12.5-23.5
	C264.1,335.4,260.9,332.3,257.1,332.3L257.1,332.3z M257.1,346.3L257.1,346.3L257.1,346.3L257.1,346.3z"/>
<path class="st1" d="M240.4,151c11.8,0,21.3,9.6,21.3,21.3v0h-79.1v0c0-11.8,9.6-21.3,21.3-21.3H240.4 M240.4,144H204
	c-15.6,0-28.3,12.7-28.3,28.3c0,3.9,3.1,7,7,7l79.1,0c1.9,0,3.6-0.7,4.9-2.1s2.1-3.1,2.1-4.9C268.8,156.7,256,144,240.4,144
	L240.4,144z"/>
<g>
	<path class="st0" d="M371.6,247.2c6.7,14.6,10.4,30.9,10.4,48.1v59.5c0,37.7-30.6,68.3-68.3,68.3H133.9
		c-37.7,0-68.3-30.6-68.3-68.3v-59.5c0-64,51.9-115.9,115.9-115.9h84.5c1,0,1.9,0,2.9,0c-0.4-2.3-0.7-4.7-0.9-7c-0.7,0-1.3,0-2,0
		h-84.5c-32.8,0-63.7,12.8-86.9,36c-23.2,23.2-36,54.1-36,86.9v59.5c0,41.5,33.8,75.3,75.3,75.3h179.8c41.5,0,75.3-33.8,75.3-75.3
		v-59.5c0-16.8-3.4-33.1-9.7-48.1H371.6z"/>
</g>
<path class="st1" d="M329.8,153.2c6.3,0,11.4,5.1,11.4,11.4c0,6.3-5.1,11.4-11.4,11.4s-11.4-5.1-11.4-11.4
	C318.4,158.3,323.5,153.2,329.8,153.2 M329.8,146.2c-10.1,0-18.4,8.3-18.4,18.4s8.3,18.4,18.4,18.4s18.4-8.3,18.4-18.4
	S340,146.2,329.8,146.2L329.8,146.2z"/>
<path class="st0" d="M374.8,153.2c6.3,0,11.4,5.1,11.4,11.4c0,6.3-5.1,11.4-11.4,11.4c-6.3,0-11.4-5.1-11.4-11.4
	C363.4,158.3,368.5,153.2,374.8,153.2 M374.8,146.2c-10.1,0-18.4,8.3-18.4,18.4s8.3,18.4,18.4,18.4c10.1,0,18.4-8.3,18.4-18.4
	S384.9,146.2,374.8,146.2L374.8,146.2z"/>
<path class="st1" d="M421.8,153.2c6.3,0,11.4,5.1,11.4,11.4c0,6.3-5.1,11.4-11.4,11.4c-6.3,0-11.4-5.1-11.4-11.4
	C410.4,158.3,415.5,153.2,421.8,153.2 M421.8,146.2c-10.1,0-18.4,8.3-18.4,18.4s8.3,18.4,18.4,18.4s18.4-8.3,18.4-18.4
	S432,146.2,421.8,146.2L421.8,146.2z"/>
<g>
	<path class="st0" d="M331.9,267c5.8,7.9,9.3,17.7,9.3,28.4v45.6c0,26.5-21.5,47.9-47.9,47.9H154.3c-26.5,0-47.9-21.5-47.9-47.9
		v-45.6c0-26.5,21.5-47.9,47.9-47.9h138.9c3.5,0,6.9,0.4,10.2,1.1l1.7-6.8c-3.8-0.9-7.8-1.3-11.9-1.3H154.3
		c-30.3,0-54.9,24.6-54.9,54.9v45.6c0,30.3,24.6,54.9,54.9,54.9h138.9c30.3,0,54.9-24.6,54.9-54.9v-45.6c0-11.8-3.8-22.8-10.2-31.8
		L331.9,267z"/>
</g>
<path class="st0" d="M406.5,88.9c41.2,0,74.7,33.4,74.7,74.7v2c0,41.2-33.4,74.7-74.7,74.7h-41.3l-60.9,34.4l10.6-42.9
	c-23.8-12.5-40.1-37.4-40.1-66.2v-2c0-41.2,33.4-74.7,74.7-74.7H406.5 M406.5,81.9h-57c-45,0-81.7,36.6-81.7,81.7v2
	c0,28.6,14.8,54.8,39,69.6l-9.3,37.7c-0.7,2.7,0.3,5.6,2.6,7.3c1.2,0.9,2.7,1.4,4.2,1.4c1.2,0,2.4-0.3,3.4-0.9l59.3-33.5h39.4
	c45,0,81.7-36.6,81.7-81.7v-2C488.1,118.5,451.5,81.9,406.5,81.9L406.5,81.9z"/>
</svg>
