<?xml version="1.0" encoding="utf-8"?>
<!-- Generator: Adobe Illustrator 25.3.0, SVG Export Plug-In . SVG Version: 6.00 Build 0)  -->
<svg version="1.1" id="Capa_1" xmlns="http://www.w3.org/2000/svg" xmlns:xlink="http://www.w3.org/1999/xlink" x="0px" y="0px"
	 viewBox="0 0 512 512" style="enable-background:new 0 0 512 512;" xml:space="preserve">
<style type="text/css">
	.st0{fill:#521A93;}
	.st1{fill:#FF9C00;}
	.st2{fill:#FFFFFF;}
</style>
<g>
	<g>
		<path class="st0" d="M388.8,262.7c17.2,0,31.2,13.9,31.2,31.2S406,325,388.8,325c-17.2,0-31.2-13.9-31.2-31.2
			S371.6,262.7,388.8,262.7 M388.8,255.7c-21,0-38.2,17.1-38.2,38.2s17.1,38.2,38.2,38.2s38.2-17.1,38.2-38.2
			S409.8,255.7,388.8,255.7L388.8,255.7z"/>
	</g>
	<g>
		<path class="st0" d="M410.7,215.6h-58.1V98.1c0.3-2.1-0.4-4.3-1.9-5.8l-5.9-6L313,53.5c-1.2-1.2-2.8-2-4.5-2.1
			c-0.4-0.1-0.7-0.1-1.1-0.1c-0.3,0-0.6,0-1,0.1h-89.7c-0.3,0-0.6-0.1-1-0.1c-1.8,0-3.5,0.7-4.8,1.9l-5,4.8l-36.3,34.1
			c-1.4,1.3-2.2,3.1-2.2,5c-0.1,0.6-0.1,1.2,0,1.8v116.6h-66.2c-17.6,0-32,14.3-32,32v150.2c0,17.6,14.3,32,32,32h135.3
			c-0.2,0.7-0.3,1.4-0.5,2.1c-0.1,0.3-0.1,0.5-0.1,0.8c-0.1,1-0.6,10.4,7.5,18.3c6.3,6.1,12.6,12.4,18.7,18.6
			c5.3,5.4,10.8,10.9,16.4,16.3c8.5,8.3,18.8,12.6,29.7,12.6c2.3,0,4.6-0.2,6.8-0.6c18.2-3,31.9-6.1,44.4-10
			c16.9-5.3,28.1-18.6,32.3-38.4c0.3-1.4,0.6-2.8,0.9-4.1c0.1-0.6,0.3-1.3,0.4-1.9c0.5-2.1-0.1-7.9-0.9-13.7h18.5
			c17.6,0,32-14.3,32-32V247.6C442.7,229.9,428.4,215.6,410.7,215.6z M307.3,58.4l38.3,38.9L307.3,98V58.4z M215.8,58.4V98h-41.4
			L215.8,58.4z M174.4,105h41.4c3.9,0,7-3.1,7-7V58.4h77.6V98c0,1.9,0.8,3.7,2.1,5c1.3,1.3,3.1,2,4.9,2c0.1,0,0.1,0,0.2,0l38.2-0.8
			v111.4H174.4V105z M386.5,441.9c-0.4,2-1,4-1.4,6.1c-3.3,16-11.8,28.3-27.6,33.3c-14.1,4.4-28.9,7.4-43.5,9.8
			c-1.9,0.3-3.8,0.5-5.7,0.5c-9.3,0-17.8-3.8-24.9-10.7c-11.8-11.5-23.2-23.4-35.1-34.8c-6-5.9-5.5-12.8-5.5-12.8
			c2.3-11.6,7.7-17.1,17-17.1c2.6,0,5.6,0.4,8.9,1.3c-0.2-3.3-0.3-6.3-0.6-9.4c-1.8-17.9-3.8-35.9-5.5-53.8
			c-0.9-9.6,5.3-18.2,14.2-19.7c1-0.2,2-0.3,3-0.3c8.2,0,15.5,5.7,17.2,14.4c1.1,5.4,0.9,11.1,1.6,16.6c0.3,2.7,1.1,5.3,1.7,8.1
			c1.7-0.5,2.5-0.5,2.9-0.9c4.2-4,8.7-6.3,13.5-6.3c2.8,0,5.8,0.8,9,2.5c0.2,0.1,0.4,0.1,0.6,0.1c1.2,0,3.2-1.1,4.3-1.9
			c3.7-2.7,6.5-4,9.4-4c2.6,0,5.3,1,8.9,3.1c1.1,0.6,2.6,1,4,1c0.5,0,0.9-0.1,1.3-0.2c2.8-0.8,5.4-1.1,7.7-1.1
			c8.3,0,13.2,5,15.1,15.7c2.4,13.6,4.7,27.2,7,40.8C384.3,422.1,386.9,439.9,386.5,441.9z M435.7,397.7c0,13.8-11.2,25-25,25h-19.5
			c-0.1-0.6-0.2-1.1-0.2-1.7c0,0,0-0.1,0-0.1l-1.2-7.2c-1.9-11-3.8-22.4-5.8-33.6c-3.1-17.6-13.6-21.3-21.8-21.3
			c-2.8,0-5.8,0.4-9.2,1.3c-0.2,0-0.5-0.1-0.6-0.2c-3.5-1.9-7.7-3.9-12.2-3.9c-5.3,0-9.6,2.6-13.4,5.4c-0.1,0-0.1,0.1-0.2,0.1
			c-3.3-1.4-6.6-2.1-9.8-2.1c-3.9,0-7.8,1.1-11.6,3.2c-0.1-1.3-0.2-2.7-0.3-4.1c-0.2-3.6-0.4-7.3-1.2-11c-2.3-11.7-12.1-20-23.9-20
			c-1.4,0-2.8,0.1-4.2,0.4c-12.4,2.1-21.1,14-19.9,27.1c1.1,10.9,2.2,21.9,3.3,32.6c0.7,7.1,1.5,14.2,2.2,21.3c0,0.2,0,0.4,0.1,0.6
			c-0.5,0-1,0-1.5,0c-6.5,0-11.9,2.1-16,6.2c-2,2-3.6,4.4-4.9,7.3c-0.1,0-0.2,0-0.4,0H101.3c-13.8,0-25-11.2-25-25V247.6
			c0-13.8,11.2-25,25-25h72.3c0.3,0,0.5,0.1,0.8,0.1h171.3c0.3,0,0.6,0,0.8-0.1h64.2c13.8,0,25,11.2,25,25V397.7z"/>
		<path class="st0" d="M130.2,342.6h43.4c13.5,0,24.4-11,24.4-24.4v-3c0.3-0.5,0.4-1,0.4-1.6v-19.7c0-0.6-0.2-1.1-0.4-1.6v-1.9
			c0-13.5-11-24.4-24.4-24.4H163h-22.3h-10.5c-13.5,0-24.4,11-24.4,24.4v27.8C105.7,331.6,116.7,342.6,130.2,342.6z M168.8,271.8
			L168.8,271.8l4.7,0c10.3,0,18.6,8.3,18.6,18.6v0.4h-23.3V271.8z M168.8,297h23.3v13.4h-23.3V297z M168.8,336.7v-20h23.3v1.4
			c0,10.3-8.3,18.6-18.6,18.6L168.8,336.7L168.8,336.7z M134.8,310.5H112V297h22.8V310.5z M140.7,271.8H163v64.9h-22.3V271.8z
			 M111.6,290.4c0-10.3,8.3-18.6,18.6-18.6h4.7v0v19h-23.3V290.4z M111.6,316.7h23.3v20.1v0h-4.7c-10.3,0-18.6-8.3-18.6-18.6V316.7z
			"/>
		<path class="st1" d="M201.5,388.6h-86.7c-2.5,0-4.6,1.6-4.6,3.7v0.2c0,2,2,3.7,4.6,3.7h86.7c2.5,0,4.6-1.6,4.6-3.7v-0.2
			C206,390.3,204,388.6,201.5,388.6z"/>
		<path class="st1" d="M113.4,377.2h29.2c2.2,0,3.9-1.4,3.9-3.1v0c0-1.7-1.7-3.1-3.9-3.1h-29.2c-2.2,0-3.9,1.4-3.9,3.1v0
			C109.5,375.8,111.3,377.2,113.4,377.2z"/>
		<path class="st1" d="M202.1,370.9H173c-2.2,0-3.9,1.4-3.9,3.1v0c0,1.7,1.7,3.1,3.9,3.1h29.2c2.2,0,3.9-1.4,3.9-3.1v0
			C206,372.3,204.3,370.9,202.1,370.9z"/>
		<path class="st0" d="M312.1,135.3h-98.9c-1.4,0-2.5,1.1-2.5,2.5v1.3c0,1.4,1.1,2.5,2.5,2.5h98.9c1.4,0,2.5-1.1,2.5-2.5v-1.3
			C314.7,136.4,313.5,135.3,312.1,135.3z"/>
		<path class="st0" d="M312.1,165.5h-98.9c-1.4,0-2.5,1.1-2.5,2.5v1.3c0,1.4,1.1,2.5,2.5,2.5h98.9c1.4,0,2.5-1.1,2.5-2.5V168
			C314.7,166.6,313.5,165.5,312.1,165.5z"/>
		<path class="st0" d="M312.1,190.1h-98.9c-1.4,0-2.5,1.1-2.5,2.5v1.3c0,1.4,1.1,2.5,2.5,2.5h98.9c1.4,0,2.5-1.1,2.5-2.5v-1.3
			C314.7,191.3,313.5,190.1,312.1,190.1z"/>
	</g>
</g>
<g>
	<path class="st1" d="M339.2,255.7c-21,0-38.2,17.1-38.2,38.2s17.1,38.2,38.2,38.2s38.2-17.1,38.2-38.2S360.2,255.7,339.2,255.7
		L339.2,255.7z"/>
</g>
<g>
	<g>
		<g>
			<path class="st2" d="M344.8,293.2l0.8-2.1l0.8-2l0.8-2l0.8-2l-2.6-0.7l-2.5-0.7l-2.5-0.7l-2.5-0.7l-0.8,2.1l-0.8,2l-0.8,2l-0.8,2
				l2.6,0.7l2.5,0.7l2.5,0.7L344.8,293.2 M334.2,272.1l6.1,1.8l6.1,1.8l6,1.7l6.1,1.8l-2.4,6l-2.4,6l-2.4,6l-2.5,6l-4.3-1.2
				l-4.3-1.2l-4.3-1.2l-4.4-1.3l-1.7,4.1l-1.6,4l-1.6,4l-1.6,4l-1.8-0.5l-1.7-0.5l-1.7-0.5l-1.7-0.5l4-10l4.1-10l4.1-10.1
				L334.2,272.1z"/>
		</g>
	</g>
</g>
</svg>
