<svg version="1.2" xmlns="http://www.w3.org/2000/svg" viewBox="0 0 877 249" width="877" height="249"><style>.a{fill:#290d56}.b{fill:#7138c1}.c{fill:#521a93}.d{fill:#c97700}.e{fill:#f7b04b}.f{fill:#ff9c00}.g{fill:#03596b}</style><path fill-rule="evenodd" class="a" d="m103.4 136.9l-23.5-12.5 0.3-8.8 0.2-8.5 0.3-8.4 0.2-8.4 23.6 12.3-0.3 8.4-0.2 8.5-0.3 8.6-0.3 8.8"/><path fill-rule="evenodd" class="b" d="m63.9 139.6h0.1 0.1 0.1l6-0.4 6.2-0.3 6.1-0.4 6.2-0.5 3.6-0.2 3.8-0.3 3.7-0.2 3.6-0.4-23.5-12.5-3.7 0.3-3.7 0.2-3.7 0.3-3.7 0.2-6.1 0.5-6.1 0.4-6 0.3-6.1 0.4h-0.2-0.1l21.4 12.7z"/><path fill-rule="evenodd" class="a" d="m31.1 242.2l-23.3-12.9 1.2-41.6 1.2-41.8 1.2-41.8 1.1-42 23.4 12.3-1.2 42.1-1.2 42-1.2 41.9-1.2 41.8"/><path fill-rule="evenodd" class="b" d="m35.9 74.4l-23.4-12.3 24.5-1.6 24.4-1.6 24.4-1.7 24.5-1.6 23.6 12.2-24.5 1.6-24.5 1.7-24.5 1.7-24.5 1.6"/><path fill-rule="evenodd" class="b" d="m219.2 196.2l-23.9-12.6 8.6-0.7 8.5-0.6 8.4-0.6 8.6-0.6 23.9 12.6-8.5 0.6-8.5 0.6-8.5 0.7-8.6 0.6"/><path fill-rule="evenodd" class="a" d="m155.2 233l-23.6-12.8 0.2-7.8 0.2-7.9 0.3-8.1 0.2-8.2 23.7 12.7-0.2 8.2-0.3 8.1-0.2 7.9-0.3 7.9"/><path fill-rule="evenodd" class="b" d="m156.2 200.9l-23.7-12.7 8.4-0.6 8.3-0.6 8.5-0.6 8.5-0.6 23.8 12.6-8.6 0.7-8.4 0.6-8.4 0.6-8.4 0.6"/><path fill-rule="evenodd" class="a" d="m190 198.4l-23.8-12.6 0.8-25.4 0.7-25.4 0.8-25.4 0.8-25.6 23.8 12.3-0.8 25.7-0.8 25.5-0.8 25.4-0.7 25.5"/><path fill-rule="evenodd" class="a" d="m159.3 98.7l-23.8-12.4 0.3-8.2 0.3-8.1 0.2-8.1 0.2-8.2 23.8 12.2-0.3 8.2-0.2 8.1-0.3 8.2-0.2 8.3"/><path fill-rule="evenodd" class="c" d="m257.5 59.3l-0.2 8-0.3 8-0.2 8.1-0.3 8.3-8.5 0.6-8.5 0.6-8.5 0.6-8.6 0.6-0.8 25.6-0.8 25.5-0.8 25.4-0.8 25.6 8.6-0.6 8.5-0.7 8.5-0.6 8.5-0.6-0.2 8.2-0.3 8-0.2 8-0.3 8-24.1 1.8-24.2 1.8-24.3 1.8-24.5 1.8 0.3-7.9 0.2-8 0.3-8.1 0.2-8.2 8.4-0.6 8.4-0.6 8.4-0.6 8.6-0.7 0.7-25.5 0.8-25.4 0.8-25.5 0.8-25.7-8.3 0.6-8.5 0.6-8.5 0.6-8.5 0.6 0.2-8.3 0.3-8.2 0.2-8.1 0.3-8.2 24.4-1.7 24.3-1.6 24.2-1.7z"/><path fill-rule="evenodd" class="b" d="m160.3 65.9l-23.8-12.2 24.3-1.7 24.3-1.6 24.2-1.6 24.2-1.6 24 12.1-24.3 1.6-24.2 1.7-24.3 1.6z"/><path class="a" d="m350.2 218.7l-24.3-12.7q-0.4-0.2-0.7-0.5-0.4-0.4-0.7-0.8-0.4-0.4-0.7-0.8-0.3-0.5-0.5-0.9-3.7-7.3-7.4-14.7-3.6-7.3-7.3-14.7-3.6-7.4-7.3-14.7-3.7-7.4-7.3-14.8-0.4-0.7-0.7-1.4l-0.7-1.3-0.8-1.4-0.7-1.4 24.1 12.4 0.8 1.5 0.7 1.3q0.4 0.7 0.7 1.4 0.4 0.7 0.7 1.3 3.7 7.5 7.4 14.9l7.3 14.7q3.7 7.4 7.4 14.8 3.7 7.4 7.4 14.7 0.2 0.5 0.5 0.9 0.3 0.5 0.6 0.9 0.3 0.4 0.7 0.7 0.4 0.3 0.8 0.6"/><path class="a" d="m309.3 120.4l-24.2-12.3 1.4-1.8 1-1.4 0.9-1.2q0.4-0.6 0.8-1.1l9.7-14.6 9.7-14.5q4.9-7.3 9.7-14.6 4.8-7.3 9.6-14.6l0.3-0.4q0.1-0.2 0.2-0.4 0.2-0.2 0.3-0.4l0.3-0.4 24.3 12.1-0.3 0.4-0.3 0.4-0.3 0.4-0.2 0.4q-4.9 7.3-9.7 14.7-4.8 7.3-9.7 14.6-4.8 7.3-9.7 14.6l-9.7 14.6q-0.4 0.6-0.8 1.1-0.4 0.6-0.9 1.2l-1.1 1.5q-0.5 0.7-1.3 1.7"/><path fill-rule="evenodd" class="b" d="m283.6 57.6l-24-12.1 7-0.5 6.9-0.4 6.8-0.5 7-0.5 24.2 12.1-7 0.5-6.9 0.5-6.9 0.4-7 0.5"/><path fill-rule="evenodd" class="a" d="m278.2 224.2l-24-12.8 1.3-41.4 1.3-41.4 1.4-41.5 1.4-41.6 24 12.1z"/><path class="c" d="m358.3 52.2l2.4-0.1 2.2-0.1 2.3-0.2 2.2-0.1 3.1-0.2 3.1-0.3 3.2-0.2 3.3-0.2-0.7 1.2-0.6 1.1q-0.3 0.6-0.5 1-0.3 0.5-0.6 0.9-5.5 8.4-11 16.8l-11.1 16.7q-5.5 8.4-11.1 16.8-5.5 8.3-11.1 16.7-0.8 1.1-1.4 2.4-0.4 1.1-0.6 2.3-0.1 1.1 0.2 2.2 0.4 1.3 1 2.5 5 10.1 10 20.2 5 10 9.9 20.1 5 10.1 10 20.2l9.8 20.2q0.3 0.6 0.6 1.1 0.3 0.6 0.5 1.3 0.3 0.6 0.6 1.3l0.7 1.5-3.1 0.3-3.1 0.2-3 0.3-3 0.2-2.9 0.2-2.9 0.1-2.8 0.2c-1 0-2 0.1-2.9 0.1q-0.5 0-0.9-0.3-0.6-0.3-1-0.8-0.5-0.5-0.9-1-0.4-0.6-0.7-1.2-3.7-7.3-7.3-14.7-3.7-7.4-7.4-14.8l-7.4-14.7q-3.6-7.5-7.3-14.9-0.4-0.6-0.7-1.3-0.4-0.7-0.7-1.4l-0.8-1.3-0.7-1.5q-1.8 2-3.4 4.2-1.4 2-2.4 4.3-1 2.3-1.4 4.7-0.5 2.7-0.5 5.4c0 3.8 0 7.7-0.1 11.5-0.1 3.9-0.2 7.7-0.4 11.6q-0.2 5.8-0.4 11.6-0.3 5.8-0.5 11.6v1.5l-0.1 1.5v1.6l-0.1 1.7-7 0.5-6.9 0.5-6.9 0.5-6.9 0.5 1.4-41.5 1.3-41.5 1.4-41.6 1.3-42 7-0.4 6.9-0.5 6.9-0.5 7-0.4-0.6 15.9-0.5 15.9-0.5 16.3-0.6 16.6c0.5-0.7 1-1.3 1.4-1.8l1-1.5q0.5-0.6 0.9-1.2 0.4-0.5 0.8-1.1l9.7-14.6q4.9-7.3 9.8-14.6 4.8-7.3 9.7-14.6 4.8-7.3 9.6-14.7 0.6-0.9 1.3-1.7 0.6-0.8 1.4-1.3 0.7-0.5 1.6-0.8 0.9-0.4 1.9-0.4z"/><path class="b" d="m355.7 38.7l-3.3 0.2-3.1 0.3-3.2 0.2-3.1 0.2-2.2 0.2-2.2 0.1-2.2 0.1-2.4 0.1-0.6 0.1q-0.3 0-0.6 0.1-0.3 0.1-0.6 0.1-0.3 0.1-0.5 0.3l-0.3 0.1-0.2 0.1-0.2 0.1-0.2 0.2c-0.6 0.4-1.8 1.5-1.8 1.5l24.3 12.1c0.8-0.9 1.5-1.4 1.7-1.5l0.1-0.1 0.1-0.1 0.3-0.1 0.2-0.2 0.2-0.1 0.6-0.2 0.6-0.1c0.2-0.1 0.3-0.1 0.6-0.2h0.6l2.4-0.1 2.3-0.1 2.2-0.2 2.2-0.1 3.1-0.2 3.1-0.3 3.2-0.2 3.3-0.2z"/><path fill-rule="evenodd" class="d" d="m714.6 192.5l-25.2-12.4 0.6-16.1 0.7-16.2 0.6-16.3 0.7-16.4 25.2 12.1-0.7 16.5-0.6 16.4-0.7 16.2-0.6 16.2"/><path fill-rule="evenodd" class="d" d="m718.1 94.1l-25.2-12.1 0.3-8.3 0.3-8.3 0.3-8.2 0.4-8.4 25.2 11.9-0.3 8.4-0.3 8.4-0.4 8.2-0.3 8.4"/><path fill-rule="evenodd" class="e" d="m678.3 96.8l-25.1-12 9.9-0.7 9.9-0.7 9.9-0.7 10-0.7 25.2 12.1-10 0.7-9.9 0.7-9.9 0.7-10 0.6"/><path fill-rule="evenodd" class="d" d="m647.1 197.4l-25-12.5 1.5-40.8 1.6-40.9 1.5-41 1.6-41.1 25.1 11.9-1.6 41.2-1.6 41.1-1.5 41.1-1.6 41"/><path fill-rule="evenodd" class="e" d="m653.4 33l-25.1-11.9 23.7-1.6 23.6-1.6 23.6-1.6 23.6-1.6 25.4 11.9-23.7 1.6-23.7 1.6-23.7 1.6-23.7 1.6"/><path class="f" d="m653.4 33l23.8-1.6 23.6-1.6 23.7-1.6 23.7-1.6-1.7 41.1-1.6 41-1.6 40.9-1.6 41-6.8 0.5-6.7 0.5-6.7 0.5-6.9 0.5 0.6-16.2 0.7-16.3 0.6-16.3 0.6-16.5-10.1 0.7-10.1 0.7-10 0.7-10.1 0.7-0.6 16.3-0.6 16.3-0.6 16.3-0.7 16.4-6.8 0.5-6.8 0.5-6.8 0.5-6.8 0.5 1.6-41 1.6-41.1 1.6-41.1zm64.7 61.1l0.3-8.3 0.3-8.3 0.4-8.3 0.3-8.4-10.1 0.7-10 0.7-9.9 0.7-9.8 0.6-0.4 8.5-0.3 8.3-0.3 8.3-0.3 8.3 9.9-0.7 9.9-0.7 10-0.7z"/><path class="e" d="m554.2 171.8l-24.8-12.4q0.4 0.2 0.9 0.2 0.5 0 1.1 0h1.3l1.8-0.2 14-0.9 14-1 14.1-1 14-0.9 1.2-0.1 1.4-0.1 1.3-0.1 1.5-0.2 25 12.4-1.5 0.1-1.4 0.1-1.3 0.1-1.3 0.1-14 1-14.1 1-14 1-14.1 0.9-1.8 0.2c-0.5 0-0.9 0-1.3 0q-0.6 0-1.1 0-0.5-0.1-0.9-0.2"/><path fill-rule="evenodd" class="d" d="m524.3 206.2l-24.7-12.5 1.5-41 1.4-41 1.5-41.2 1.5-41.5 24.8 12.1-1.5 41.5-1.5 41.3-1.5 41.2-1.5 41.1"/><path fill-rule="evenodd" class="e" d="m530.3 41.1l-24.8-12 6.7-0.5 6.8-0.4 6.8-0.5 7-0.4 24.8 11.9-7 0.5-6.9 0.4-6.7 0.5-6.7 0.4"/><path class="f" d="m557.6 39.2l-0.1 1.8-0.1 1.7v1.8l-0.1 1.7-1.1 29.8q-0.5 14.8-1.1 29.7l-1.1 29.7q-0.5 14.8-1.1 29.6c0 1.8-0.1 3.2 0 4.3q-0.1 1.2 0.6 2.1 0.8 0.7 1.9 0.7 1.9 0 3.8-0.2l14.1-0.9 14.1-1 14-1 14.1-1 1.3-0.1 1.3-0.1 1.4-0.1 1.4-0.1-0.3 8-0.3 7.9-0.3 7.9-0.3 8-23.7 1.7-23.9 1.7-23.9 1.8-24 1.8 1.5-41.1 1.5-41.2 1.5-41.5 1.5-41.5 6.8-0.5 6.7-0.4 6.8-0.5z"/><path fill-rule="evenodd" class="d" d="m471.9 110.8l-24.5-12.2 0.2-8.5 0.3-8.4 0.3-8.4 0.3-8.3 24.6 12.1-0.3 8.4-0.3 8.4-0.3 8.4-0.3 8.5"/><path fill-rule="evenodd" class="e" d="m431.6 113.7l-24.5-12.3 10.2-0.7 10.1-0.7 10-0.7 10-0.7 24.5 12.2-9.9 0.7-10.1 0.7-10.1 0.7-10.2 0.8"/><path fill-rule="evenodd" class="d" d="m400.5 215l-24.4-12.6 1.4-41 1.4-41.2 1.5-41.5 1.4-41.6 24.4 12.1"/><path fill-rule="evenodd" class="e" d="m406.2 49.2l-24.4-12 24-1.7 24-1.6 23.9-1.6 23.9-1.6 24.8 12-24.1 1.6-24 1.6-24 1.7-24.1 1.6"/><path class="f" d="m406.2 49.2l24.1-1.6 24.1-1.7 23.9-1.6 24.1-1.6-0.9 24.6-0.9 24.6-0.9 24.8-0.9 24.9-16.9 1.2-17 1.2-17.1 1.2-17.3 1.3-0.6 16.8-0.6 16.6-0.6 16.5-0.6 16.6-6.9 0.5-6.9 0.5-6.9 0.5-6.9 0.5 1.4-41.2 1.4-41.3 1.5-41.5zm65.7 61.6l0.3-8.5 0.3-8.5 0.3-8.3 0.3-8.4-10.1 0.7-10.1 0.7-10 0.7-10.1 0.7-0.3 8.6-0.3 8.4-0.3 8.4-0.3 8.3 10.2-0.7 10.1-0.7 10-0.7z"/><path fill-rule="evenodd" class="e" d="m842.9 20.4l-25.6-11.8 6.8-0.5 6.7-0.4 6.6-0.4 6.8-0.5 25.6 11.7-6.7 0.5-6.7 0.5-6.7 0.4-6.8 0.5"/><path fill-rule="evenodd" class="d" d="m771.7 122.8l-25.3-12.1 0.9-24.5 1-24.4 0.9-24.3 1-24.5 25.4 11.9-0.9 24.5-1 24.4-1 24.5-0.9 24.5"/><path fill-rule="evenodd" class="e" d="m775.6 24.9l-25.4-11.8 6.7-0.5 6.7-0.4 6.7-0.5 6.8-0.4 25.5 11.8-6.8 0.4-6.8 0.5-6.7 0.4-6.7 0.5"/><path fill-rule="evenodd" class="d" d="m804.9 120.5l-2.3 65.7-25.4-12.3 1.3-67 26.4 13.6"/><path class="g" d="m814.5 71.3l25.6 12c0.6-1.2 0.5-3.3 0.5-3.3l2.3-59.6-25.6-11.8z"/><path class="g" d="m813.9 72.4c0 0 0.6-0.6 0.7-3.2l26 10.8c0 0 0.3 2.5-1.1 4.5-1.5 1.9-0.2 0.2-0.2 0.2z"/><path fill-rule="evenodd" class="d" d="m817.3 8.6l25.6 11.8-2.4 66.3-26.6-14.3z"/><path fill-rule="evenodd" class="e" d="m813.9 72.4l-29.8 1 15.9 15.5 40.5-2.2z"/><path class="f" d="m863 19l-6.6 0.5-6.7 0.4-6.8 0.5c0 0.5-1.4 38.4-2.4 66.3l-40.2 2 0.3-9.5 0.7-23.3 0.7-16.4 0.6-16.4-6.9 0.4-6.7 0.4-6.7 0.5-6.7 0.4v0.1l-1 24.4-1 24.5-0.9 24.4-1 24.6h2.6 1.3l1.3-0.1 3.4-0.2 3.3-0.2 3.4-0.2 3.3-0.3 2.5-0.1v-0.4l12.2-0.8q-0.3 4.5-0.5 8.9c-0.2 4.2-0.4 18.3-0.5 22.4q-0.3 6.3-0.5 12.5-0.3 6.2-0.5 12.5l-0.1 2.3-0.1 2.3-0.1 2.4-0.1 2.4 7-0.5 6.8-0.5 6.7-0.5 6.8-0.5 0.7-16.3 0.6-16.3 0.7-16.3 0.7-16.6 8.4-0.6 8.4-0.6 8.2-0.6 8.2-0.5 1.1-24.6 0.3-6.4 0.7-18.1 1-24.4 0.9-24.4z"/><path class="c" d="m108.7 69.4l-24.5 1.6-24.5 1.7-24.5 1.6-1.2 42.3-1.2 42-1.2 41.9-1.2 41.8 6.9-0.5 6.9-0.5 6.8-0.5 7.1-0.5 2-67.7 70.1-4.6 0.7-25.3 0.8-25.1 0.8-25 0.7-24.9zm-5.2 41.6l-0.2 8.4-0.3 8.6-0.3 8.9-3.7 0.2-3.7 0.3-3.7 0.3-3.6 0.2-6.2 0.4-6.1 0.4-6.1 0.4-6 0.4-2.4 0.1v-2.2c0-2.6 0.2-5.6 0.3-8.2q0.1-3.9 0.2-7.8 0.1-4 0.2-7.9 0.1-4 0.3-8.1l10.5-0.7 10.3-0.7 10.4-0.7 10.4-0.7z"/></svg>