<?xml version="1.0" encoding="utf-8"?>
<!-- Generator: Adobe Illustrator 25.3.0, SVG Export Plug-In . SVG Version: 6.00 Build 0)  -->
<svg version="1.1" id="Capa_1" xmlns="http://www.w3.org/2000/svg" xmlns:xlink="http://www.w3.org/1999/xlink" x="0px" y="0px"
	 viewBox="0 0 500 500" style="enable-background:new 0 0 500 500;" xml:space="preserve">
<style type="text/css">
	.st0{fill:#7C0E0E;}
	.st1{fill:#03596B;}
	.st2{fill:#036E84;}
	.st3{fill:#9B1212;}
	.st4{fill:#0495B3;}
	.st5{fill:#8F2622;}
	.st6{fill:#C1110C;}
</style>
<g>
	<polyline class="st0" points="271.69,196.21 245.08,166.71 249.95,154.5 254.68,142.63 259.32,130.99 263.94,119.39 290.64,148.74 
		286.01,160.36 281.33,172.05 276.59,183.95 271.69,196.21 	"/>
	<polyline class="st1" points="228.51,305.68 256.68,335.37 251.92,347.13 247.21,358.73 242.54,370.27 237.86,381.8 209.61,352.27 
		214.3,340.7 219,329.12 223.72,317.48 228.51,305.68 	"/>
	<polyline class="st2" points="286.38,322.33 314.39,352.01 299.76,347.78 285.29,343.62 270.94,339.49 256.68,335.37 
		228.51,305.68 242.81,309.8 257.21,313.95 271.72,318.12 286.38,322.33 	"/>
	<polyline class="st3" points="215.05,179.58 188.59,150.13 188.72,150.18 188.85,150.23 189.09,150.32 197.75,152.91 
		206.44,155.48 215.15,158.02 223.9,160.54 229.17,162.07 234.46,163.58 239.78,165.11 245.11,166.64 271.71,196.14 266.37,194.6 
		261.05,193.08 255.75,191.56 250.46,190.04 241.69,187.51 232.94,184.96 224.23,182.39 215.54,179.79 215.29,179.7 215.17,179.66 
		215.04,179.61 	"/>
	<g>
		<path class="st4" d="M228.51,305.68l-4.79,11.79L219,329.12l-4.7,11.58l-4.69,11.57l14.54,4.2l14.4,4.17l14.41,4.16l14.53,4.2
			l4.81-11.89l4.71-11.65l4.69-11.55l4.68-11.57l-14.66-4.22l-14.51-4.16l-14.39-4.15L228.51,305.68 M289.04,425.56l-34.61-10.04
			l-34.48-10.01l-34.39-9.96l-34.48-10.01l13.82-34.01l13.82-34.03l13.89-34.17l13.98-34.43l24.3,6.97l24.42,7l24.6,7.05l24.86,7.13
			l9.41-23.23l9.3-22.98l9.26-22.87l9.3-22.92l10,2.85l9.89,2.8l9.84,2.81l9.95,2.82l-22.97,56.97l-23.13,57.14l-23.22,57.38
			L289.04,425.56z"/>
	</g>
	<g>
		<g>
			<g>
				<g>
					<g>
						<polyline class="st5" points="214.85,179.38 188.4,149.91 214.85,179.38 214.78,179.36 214.71,179.33 						"/>
					</g>
				</g>
			</g>
		</g>
	</g>
	<g>
		<path class="st6" d="M271.69,196.21l4.9-12.26l4.74-11.9l4.68-11.69l4.64-11.62l-14.92-4.31l-14.84-4.3l-14.88-4.3l-15.07-4.35
			c-1.49,3.74-2.96,7.43-4.43,11.1c-1.47,3.66-2.92,7.31-4.36,10.95c-1.43,3.63-2.85,7.25-4.27,10.86c-1.42,3.6-2.81,7.2-4.18,10.82
			c-0.13,0.4-0.17,0.82-0.1,1.23c0.07,0.5,0.2,0.99,0.38,1.46c0.18,0.45,0.41,0.87,0.7,1.27c0.2,0.32,0.48,0.55,0.83,0.69l8.69,2.6
			l8.72,2.57l8.74,2.55l8.78,2.53l5.29,1.52l5.3,1.52l5.32,1.53L271.69,196.21 M209.12,74.25l35.15,10.19l35.11,10.18l35.13,10.19
			l35.2,10.21l-13.78,34.47l-13.79,34.53l-13.89,34.75l-14,35.05l-2.01-0.56l-2.01-0.58l-2.01-0.58l-2.02-0.57l-5.76-1.66
			l-5.77-1.63l-5.76-1.64l-5.76-1.64l-5.32-1.51l-5.32-1.51l-5.32-1.51l-5.33-1.52l-9.97-2.87l-9.94-2.91l-9.94-2.94l-9.93-3
			c-1.48-0.47-3-0.72-4.55-0.74c-1.18-0.01-2.28,0.3-3.29,0.91c-1.03,0.69-1.87,1.58-2.5,2.66c-0.85,1.43-1.55,2.93-2.11,4.5
			c-2.37,6.26-4.81,12.5-7.27,18.79c-2.46,6.28-4.92,12.46-7.43,18.73c-2.52,6.26-4.99,12.45-7.5,18.71l-7.51,18.7
			c-0.26,0.7-0.52,1.42-0.87,2.1c-0.36,0.68-0.62,1.41-0.96,2.12c-0.33,0.71-0.66,1.44-0.99,2.18c-0.33,0.74-0.68,1.48-1.04,2.26
			l-9.89-2.81l-9.8-2.78l-9.83-2.79l-9.96-2.84l23.04-57.89l23.08-58l23.13-58.16L209.12,74.25z"/>
	</g>
	<polyline class="st3" points="209.12,74.25 182.63,45.09 217.69,55.28 252.69,65.45 287.71,75.61 322.82,85.79 349.71,115 
		314.5,104.81 279.37,94.62 244.26,84.44 209.12,74.25 	"/>
	<polyline class="st2" points="289,425.55 317.04,454.9 282.56,444.89 248.17,434.88 213.87,424.91 179.52,414.93 151.08,385.53 
		185.56,395.54 219.95,405.51 254.43,415.52 289.04,425.56 	"/>
	<polyline class="st1" points="381.76,196.35 409.41,226.44 386.47,283.19 363.45,340.17 340.3,397.44 317.06,454.97 289.02,425.62 
		312.35,367.83 335.56,310.45 358.73,253.29 381.76,196.35 	"/>
	<polyline class="st0" points="116.65,306.67 90.59,276.71 113.52,218.99 136.49,161.18 159.54,103.22 182.65,45.03 209.14,74.2 
		185.91,132.56 162.78,190.72 139.7,248.72 116.67,306.61 	"/>
</g>
</svg>
