<?xml version="1.0" encoding="utf-8"?>
<!-- Generator: Adobe Illustrator 25.3.0, SVG Export Plug-In . SVG Version: 6.00 Build 0)  -->
<svg version="1.1" id="Capa_2" xmlns="http://www.w3.org/2000/svg" xmlns:xlink="http://www.w3.org/1999/xlink" x="0px" y="0px"
	 viewBox="0 0 378.92 265.49" style="enable-background:new 0 0 378.92 265.49;" xml:space="preserve">
<style type="text/css">
	.st0{fill:url(#SVGID_1_);}
	.st1{opacity:0.27;clip-path:url(#SVGID_3_);fill:#D3C7B8;}
	.st2{fill:none;stroke:#EFE4D3;stroke-width:0.3974;stroke-miterlimit:10;}
	.st3{fill:#EFE4D3;}
</style>
<g>
	<g>
		<g>
			<linearGradient id="SVGID_1_" gradientUnits="userSpaceOnUse" x1="16.1669" y1="132.7429" x2="368.1668" y2="132.7429">
				<stop  offset="0" style="stop-color:#D4B28B"/>
				<stop  offset="0.011" style="stop-color:#D8B893"/>
				<stop  offset="0.0544" style="stop-color:#E4CBAE"/>
				<stop  offset="0.1044" style="stop-color:#EEDCC4"/>
				<stop  offset="0.1628" style="stop-color:#F6E8D5"/>
				<stop  offset="0.235" style="stop-color:#FBF1E0"/>
				<stop  offset="0.3362" style="stop-color:#FEF6E7"/>
				<stop  offset="0.6173" style="stop-color:#FFF7E9"/>
				<stop  offset="0.7821" style="stop-color:#FEF6E7"/>
				<stop  offset="0.8415" style="stop-color:#FBF1E0"/>
				<stop  offset="0.8839" style="stop-color:#F6E8D5"/>
				<stop  offset="0.9181" style="stop-color:#EEDCC4"/>
				<stop  offset="0.9474" style="stop-color:#E4CBAE"/>
				<stop  offset="0.9733" style="stop-color:#D7B892"/>
				<stop  offset="0.9962" style="stop-color:#C9A073"/>
				<stop  offset="1" style="stop-color:#C69C6D"/>
			</linearGradient>
			<path class="st0" d="M357.79,247.74H26.55c-5.73,0-10.38-4.65-10.38-10.38V28.12c0-5.73,4.65-10.38,10.38-10.38h331.24
				c5.73,0,10.38,4.65,10.38,10.38v209.24C368.17,243.1,363.52,247.74,357.79,247.74z"/>
		</g>
		<g>
			<defs>
				<path id="SVGID_2_" d="M357.79,247.74H26.55c-5.73,0-10.38-4.65-10.38-10.38V28.12c0-5.73,4.65-10.38,10.38-10.38h331.24
					c5.73,0,10.38,4.65,10.38,10.38v209.24C368.17,243.1,363.52,247.74,357.79,247.74z"/>
			</defs>
			<clipPath id="SVGID_3_">
				<use xlink:href="#SVGID_2_"  style="overflow:visible;"/>
			</clipPath>
			<path class="st1" d="M-24.6,102.65c0,0,204.8-97.09,398.82,67.46l36.52-63.74L402.13,3.92c0,0-435.1-23.15-442.04-21.59
				s5.46,121.37,5.46,121.37L-24.6,102.65z"/>
		</g>
	</g>
	<g>
		<path class="st2" d="M110.67,29.82H33.67c-2.54,0-4.59,2.06-4.59,4.59v41.2v118.71v37.17c0,2.54,2.06,4.59,4.59,4.59h77.01"/>
		<path class="st3" d="M356.32,24.55l-0.49,1.5c-0.05,0.17-0.21,0.29-0.39,0.29h-1.57c-0.4,0-0.56,0.51-0.24,0.74l1.28,0.93
			c0.14,0.11,0.21,0.29,0.15,0.46l-0.49,1.5c-0.12,0.38,0.31,0.69,0.63,0.46l1.28-0.93c0.14-0.11,0.34-0.11,0.48,0l1.28,0.93
			c0.32,0.23,0.76-0.08,0.63-0.46l-0.49-1.5c-0.05-0.17,0.01-0.36,0.15-0.46l1.28-0.93c0.32-0.23,0.16-0.74-0.24-0.74h-1.57
			c-0.18,0-0.33-0.12-0.39-0.29l-0.49-1.5C356.98,24.17,356.44,24.17,356.32,24.55z"/>
		<path class="st2" d="M107.03,26.58h238.66c2.22,5.6,6.65,10.09,12.21,12.38v10.29v141.97v35.72c-5.56,2.29-9.99,6.78-12.21,12.38
			H107.03"/>
		<path class="st3" d="M26.94,241.36l0.49-1.5c0.05-0.17,0.21-0.29,0.39-0.29h1.57c0.4,0,0.56-0.51,0.24-0.74l-1.28-0.93
			c-0.14-0.11-0.21-0.29-0.15-0.46l0.49-1.5c0.12-0.38-0.31-0.69-0.63-0.46l-1.28,0.93c-0.14,0.11-0.34,0.11-0.48,0l-1.28-0.93
			c-0.32-0.23-0.76,0.08-0.63,0.46l0.49,1.5c0.05,0.17-0.01,0.36-0.15,0.46l-1.28,0.93c-0.32,0.23-0.16,0.74,0.24,0.74h1.57
			c0.18,0,0.33,0.12,0.39,0.29l0.49,1.5C26.29,241.74,26.82,241.74,26.94,241.36z"/>
		<path class="st3" d="M26.94,27.78l0.49-1.5c0.05-0.17,0.21-0.29,0.39-0.29h1.57c0.4,0,0.56-0.51,0.24-0.74l-1.28-0.93
			c-0.14-0.11-0.21-0.29-0.15-0.46l0.49-1.5c0.12-0.38-0.31-0.69-0.63-0.46l-1.28,0.93c-0.14,0.11-0.34,0.11-0.48,0l-1.28-0.93
			c-0.32-0.23-0.76,0.08-0.63,0.46l0.49,1.5c0.05,0.17-0.01,0.36-0.15,0.46l-1.28,0.93C23.14,25.49,23.31,26,23.71,26h1.57
			c0.18,0,0.33,0.12,0.39,0.29l0.49,1.5C26.29,28.16,26.82,28.16,26.94,27.78z"/>
		<path class="st2" d="M110.67,239.33h-73.1c-2.22-5.6-6.65-10.09-12.21-12.38v-35.72V49.25V38.97c5.56-2.29,9.99-6.78,12.21-12.38
			h73.1"/>
		<path class="st2" d="M107.03,236.09h242.57c2.54,0,4.59-2.06,4.59-4.59v-37.17V75.62v-41.2c0-2.54-2.06-4.59-4.59-4.59H107.03"/>
		<path class="st3" d="M356.32,241.36l-0.49-1.5c-0.05-0.17-0.21-0.29-0.39-0.29h-1.57c-0.4,0-0.56-0.51-0.24-0.74l1.28-0.93
			c0.14-0.11,0.21-0.29,0.15-0.46l-0.49-1.5c-0.12-0.38,0.31-0.69,0.63-0.46l1.28,0.93c0.14,0.11,0.34,0.11,0.48,0l1.28-0.93
			c0.32-0.23,0.76,0.08,0.63,0.46l-0.49,1.5c-0.05,0.17,0.01,0.36,0.15,0.46l1.28,0.93c0.32,0.23,0.16,0.74-0.24,0.74h-1.57
			c-0.18,0-0.33,0.12-0.39,0.29l-0.49,1.5C356.98,241.74,356.44,241.74,356.32,241.36z"/>
	</g>
</g>
</svg>
