<?xml version="1.0" encoding="utf-8"?>
<!-- Generator: Adobe Illustrator 25.3.0, SVG Export Plug-In . SVG Version: 6.00 Build 0)  -->
<svg version="1.1" id="Capa_2_1_" xmlns="http://www.w3.org/2000/svg" xmlns:xlink="http://www.w3.org/1999/xlink" x="0px" y="0px"
	 viewBox="0 0 145.7 44.7" style="enable-background:new 0 0 145.7 44.7;" xml:space="preserve">
<style type="text/css">
	.st0{opacity:0.6;}
	.st1{fill:#BA3E05;}
	.st2{fill:#FF9D00;}
	.st3{fill:url(#SVGID_1_);}
	.st4{fill:url(#SVGID_2_);}
	.st5{fill:url(#SVGID_3_);}
	.st6{fill:url(#SVGID_4_);}
	.st7{fill:url(#SVGID_5_);}
	.st8{fill:url(#SVGID_6_);}
	.st9{fill:url(#SVGID_7_);}
	.st10{fill:url(#SVGID_8_);}
	.st11{fill:url(#SVGID_9_);}
</style>
<g>
	<g class="st0">
		
			<image style="overflow:visible;enable-background:new    ;" width="371" height="153" xlink:href="F4341999.png"  transform="matrix(0.4477 0 0 0.4477 -7.9779 -8.466)">
		</image>
	</g>
	<g>
		
			<image style="overflow:visible;opacity:0.4;enable-background:new    ;" width="318" height="98" xlink:href="F434199B.png"  transform="matrix(0.4459 0 0 0.4459 7.314216e-03 0)">
		</image>
		<g>
			<g>
				<path class="st1" d="M13.3,31.8c-0.2,0-0.4,0-0.5-0.1c-2-0.8-3.1-1.2-5.1-2c-0.6-0.2-1-0.8-0.9-1.5c0.3-3.9,0.5-5.9,0.8-9.9
					c0-0.3,0.1-0.6,0.3-0.8l-0.1-0.1c-0.7-0.8-1.1-1.8-1.1-2.8c0-1.1,0.4-2,1.2-2.8c0.7-0.6,1.6-1,2.6-1c0.1,0,0.2,0,0.4,0
					c1.1,0.1,2.1,0.6,2.8,1.4c0.7,0.8,1.1,1.8,1.1,2.9c0,1.2-0.4,2.2-1.2,2.9l0,0c0.2,0.2,0.3,0.5,0.4,0.9c0.3,4.5,0.5,6.7,0.8,11.3
					c0,0.5-0.2,1-0.6,1.3C13.9,31.7,13.6,31.8,13.3,31.8z"/>
				<path class="st1" d="M10.6,12.3c0.1,0,0.2,0,0.2,0c0.7,0.1,1.4,0.3,1.8,0.9c0.5,0.5,0.7,1.2,0.7,1.9s-0.3,1.3-0.7,1.8
					c-0.4,0.3-0.8,0.5-1.3,0.5c-0.2,0-0.3,0-0.5,0c-0.8-0.1-1.4-0.5-1.9-1s-0.7-1.1-0.7-1.8s0.2-1.2,0.7-1.7
					C9.4,12.5,9.9,12.3,10.6,12.3 M9.1,18.4c1.4,0.3,2,0.4,3.4,0.7c0.3,4.5,0.5,6.7,0.8,11.3c-2-0.8-3-1.2-5-2
					C8.6,24.4,8.7,22.4,9.1,18.4 M10.6,9.4L10.6,9.4C9.2,9.4,8,9.9,7,10.7c-1.1,1-1.7,2.3-1.7,3.9c0,1.1,0.3,2.2,1,3.1
					c0,0.2-0.1,0.3-0.1,0.5c-0.3,4.1-0.5,6.1-0.8,10c-0.1,1.3,0.6,2.5,1.8,3c2,0.8,3.1,1.3,5.1,2c0.3,0.1,0.7,0.2,1,0.2
					c0.6,0,1.2-0.2,1.8-0.6c0.8-0.6,1.3-1.6,1.2-2.6c-0.3-4.7-0.5-6.9-0.8-11.3c0-0.2,0-0.3-0.1-0.5c0.6-0.9,1-2,1-3.1
					c0-1.5-0.5-2.8-1.5-3.9c-1-1.1-2.3-1.8-3.8-1.9C10.9,9.4,10.7,9.4,10.6,9.4L10.6,9.4z"/>
			</g>
			<g>
				<path class="st1" d="M25.3,31.4c-0.9,0-1.7-0.1-2.6-0.3c-1.9-0.5-3.6-1.4-5.1-2.8c-1.5-1.3-2.6-2.9-3.4-4.7
					c-0.8-1.8-1.2-3.7-1.2-5.7c0-2.1,0.5-3.8,1.4-5.5c0.9-1.6,2.2-2.9,3.8-3.9S21.7,7,23.6,7c1.8,0,3.4,0.4,4.8,1.2s2.6,2,3.5,3.6
					c0.3,0.5,0.3,1.2-0.2,1.7c-1.2,1.4-1.8,2.1-3,3.4c-0.3,0.3-0.7,0.5-1.1,0.5h-0.1c-0.5,0-0.9-0.3-1.1-0.7c-1-1.6-2-1.9-2.7-1.9
					c-0.1,0-0.1,0-0.2,0c-0.8,0-1.4,0.3-2,0.9c-0.6,0.7-0.9,1.6-0.9,2.9c0,0.9,0.1,1.6,0.4,2.4c0.3,0.7,0.7,1.3,1.2,1.8
					c0.5,0.4,1,0.7,1.6,0.8c0.2,0,0.4,0.1,0.6,0.1h0.1l0.1-4.6c0-0.4,0.2-0.8,0.5-1.1c0.3-0.2,0.6-0.4,1-0.4c0.1,0,0.1,0,0.2,0
					c1.6,0.2,2.4,0.3,4,0.4c0.8,0.1,1.3,0.7,1.3,1.5l-0.2,9.1c0,0.4-0.2,0.9-0.6,1.1c-1.1,0.9-2.4,1.4-3.9,1.7
					C26.4,31.3,25.8,31.4,25.3,31.4z"/>
				<path class="st1" d="M23.5,8.4c1.5,0,2.9,0.3,4,1c1.2,0.7,2.2,1.7,2.9,3c-1.2,1.4-1.8,2.1-3,3.4c-1.1-1.7-2.4-2.5-3.9-2.6
					c-0.1,0-0.2,0-0.3,0c-1.2,0-2.3,0.5-3.1,1.3c-0.9,1-1.3,2.2-1.3,3.9c0,1.1,0.2,2,0.5,3c0.4,0.9,0.9,1.7,1.6,2.3
					c0.7,0.6,1.5,1,2.3,1.2c0.3,0.1,0.6,0.1,0.9,0.1c0.5,0,1.1-0.1,1.6-0.3c0-2.3,0.1-3.5,0.1-5.8c1.6,0.2,2.4,0.3,4,0.4
					c-0.1,3.6-0.1,5.5-0.2,9.1c-0.9,0.7-2,1.2-3.2,1.4c-0.5,0.1-0.9,0.1-1.4,0.1c-0.7,0-1.5-0.1-2.2-0.3c-1.7-0.4-3.2-1.3-4.5-2.5
					s-2.3-2.6-3.1-4.2c-0.7-1.6-1.1-3.3-1.1-5.1s0.4-3.4,1.2-4.8c0.8-1.4,1.9-2.5,3.2-3.3C20.2,8.8,21.8,8.4,23.5,8.4 M23.5,5.4
					c-2.2,0-4.3,0.6-6.2,1.7C15.5,8.2,14,9.7,13,11.5c-1,1.8-1.5,3.9-1.6,6.2c0,2.2,0.4,4.3,1.4,6.4c0.9,2,2.2,3.7,3.8,5.2
					c1.7,1.6,3.6,2.6,5.7,3.2c1,0.3,2,0.4,2.9,0.4c0.6,0,1.2,0,1.8-0.1c1.7-0.3,3.2-0.9,4.5-2c0.7-0.5,1.1-1.4,1.1-2.3l0.2-9.1
					c0-1.3-0.9-2.5-2.1-2.9c0.6-0.7,1.1-1.3,1.9-2.2c0.8-1,0.9-2.3,0.3-3.4c-1-1.8-2.4-3.1-4-4.1C27.4,5.9,25.5,5.4,23.5,5.4
					L23.5,5.4z M23,21.4c-0.3-0.3-0.5-0.7-0.7-1.1c-0.2-0.5-0.3-1.1-0.3-1.8c0-1.4,0.4-1.8,0.6-2s0.4-0.4,0.9-0.4h0.1
					c0.1,0,0.4,0,0.8,0.3c-0.1,0.1-0.2,0.1-0.3,0.2c-0.6,0.5-1,1.3-1,2.2v2.4L23,21.4L23,21.4z"/>
			</g>
			<g>
				<path class="st1" d="M49,35.3c-0.1,0-0.1,0-0.2,0c-1.9-0.2-2.9-0.3-4.8-0.6c-0.6-0.1-1.1-0.5-1.2-1.1c-0.4-1.6-0.6-2.5-1-3.9
					c-1.7-0.2-2.9-0.4-4.6-0.6c-0.3,1-0.6,1.8-1,3.1c-0.2,0.6-0.8,1-1.4,1c-0.1,0-0.2,0-0.3,0c-1.9-0.3-2.8-0.5-4.7-0.9
					c-0.4-0.1-0.8-0.4-1-0.7c-0.2-0.4-0.2-0.8-0.1-1.2c2.5-6.9,4.9-14.1,7.5-21.9c0.2-0.6,0.8-1,1.4-1h4.5c0.7,0,1.2,0.4,1.4,1.1
					c2.4,8.4,4.7,17,6.8,25c0.1,0.5,0,1-0.3,1.3C49.8,35.1,49.4,35.3,49,35.3z M39.8,21.5c0-0.2-0.1-0.4-0.1-0.5
					c-0.1,0.2-0.1,0.3-0.2,0.5C39.6,21.5,39.7,21.5,39.8,21.5z"/>
				<path class="st1" d="M37.7,8.8c1.8,0,2.7,0,4.5,0c2.3,8.3,4.6,16.7,6.8,25c-1.9-0.2-2.9-0.3-4.8-0.6c-0.5-2-0.7-2.9-1.2-4.9
					c-2.7-0.3-4.1-0.5-6.8-0.9c-0.5,1.7-0.8,2.6-1.3,4.3c-1.9-0.3-2.8-0.5-4.6-0.9C32.8,23.5,35.3,16.2,37.7,8.8 M41.7,23.2
					c-0.8-3.2-1.2-4.7-2-7.8c-0.9,3-1.3,4.5-2.2,7.4C39.3,23,40.1,23.1,41.7,23.2 M37.7,5.9c-1.3,0-2.4,0.8-2.8,2
					c-2.5,7.8-5,15-7.5,21.9c-0.3,0.8-0.2,1.7,0.2,2.4c0.4,0.7,1.1,1.3,2,1.4c1.9,0.4,2.8,0.6,4.7,0.9c0.2,0,0.4,0.1,0.5,0.1
					c1.3,0,2.4-0.8,2.8-2.1c0.2-0.7,0.4-1.3,0.6-1.9c0.8,0.1,1.6,0.2,2.4,0.3c0.2,0.9,0.4,1.7,0.7,2.9c0.3,1.2,1.3,2.1,2.5,2.2
					c1.9,0.3,2.9,0.4,4.9,0.6c0.1,0,0.2,0,0.3,0c0.9,0,1.7-0.4,2.2-1c0.6-0.7,0.9-1.7,0.6-2.7c-2.2-8-4.5-16.6-6.8-25
					c-0.4-1.3-1.5-2.1-2.8-2.1L37.7,5.9L37.7,5.9L37.7,5.9z"/>
			</g>
			<g>
				<path class="st1" d="M65.2,36.4c-1.5,0-2.3-0.1-3.8-0.1c-0.5,0-1-0.3-1.2-0.8c0,0-3.6-7.2-4.4-8.6l-0.1,7.5
					c0,0.4-0.2,0.8-0.5,1.1c-0.3,0.2-0.6,0.4-1,0.4h-0.1c-1.8-0.2-2.8-0.2-4.6-0.4c-0.8-0.1-1.3-0.7-1.3-1.5l0.3-25.1
					c0-0.8,0.7-1.5,1.5-1.5h3.7c0.6,0,1.1,0.3,1.3,0.8c1.5,2.8,2.9,5.6,4.3,8.4V8.9c0-0.8,0.7-1.5,1.5-1.5h4.5c0.4,0,0.8,0.2,1,0.4
					c0.3,0.3,0.4,0.7,0.4,1l-0.1,26.1c0,0.4-0.2,0.8-0.4,1.1C66,36.3,65.7,36.4,65.2,36.4C65.3,36.4,65.3,36.4,65.2,36.4z"/>
				<path class="st1" d="M50,8.9c1.5,0,2.3,0,3.8,0c2.4,4.6,4.7,9.2,7,13.8c0-4.6,0.1-9.2,0.1-13.8c1.8,0,2.7,0,4.5,0
					c0,8.7-0.1,17.4-0.1,26.1c-1.5,0-2.3-0.1-3.8-0.1c-2.4-4.7-4.7-9.4-7.1-14c0,4.5-0.1,9.1-0.1,13.6c-1.8-0.2-2.7-0.2-4.5-0.4
					C49.8,25.6,49.9,17.2,50,8.9 M50,5.9c-1.6,0-2.9,1.3-2.9,2.9L46.9,23l-0.1,10.9c0,1.5,1.1,2.8,2.6,3c1.8,0.2,2.8,0.3,4.6,0.4
					c0.1,0,0.2,0,0.2,0c0.7,0,1.4-0.3,2-0.8c0.6-0.6,1-1.3,1-2.2v-1.4l1.6,3.2c0.5,0.9,1.4,1.6,2.5,1.6c1.5,0.1,2.3,0.1,3.9,0.1h0.1
					c0.8,0,1.5-0.3,2.1-0.8c0.6-0.6,0.9-1.3,0.9-2.1v-13v-13c0-0.8-0.3-1.5-0.9-2.1s-1.3-0.9-2.1-0.9h-4.5l0,0c-1.6,0-2.9,1.3-3,2.9
					v1.6c-0.5-1-1-2-1.5-3s-1.5-1.6-2.6-1.6L50,5.9L50,5.9L50,5.9z"/>
			</g>
			<g>
				<path class="st1" d="M70.7,36.5c-1.9,0-2.9,0-4.8-0.1c-0.5,0-0.9-0.2-1.2-0.6c-0.3-0.4-0.4-0.8-0.2-1.3
					c2.3-8.1,4.6-16.6,7.2-26.1c0.2-0.6,0.8-1.1,1.4-1.1h4.5c0.7,0,1.2,0.4,1.4,1.1c2.5,9.1,5,17.5,7.3,25.6
					c0.1,0.4,0.1,0.9-0.2,1.3c-0.3,0.4-0.7,0.6-1.1,0.6c-1.9,0.1-2.9,0.2-4.8,0.3c0,0,0,0-0.1,0c-0.7,0-1.3-0.4-1.4-1.1
					c-0.4-1.6-0.7-2.5-1-3.9c-1.7,0.1-2.9,0.1-4.6,0.1c-0.3,1.4-0.6,2.3-1,4C72,36.1,71.4,36.5,70.7,36.5z M75.3,23
					c0.1,0,0.3,0,0.4,0c-0.1-0.3-0.1-0.5-0.2-0.8C75.4,22.5,75.3,22.7,75.3,23z"/>
				<path class="st1" d="M77.7,8.9c2.4,8.6,4.8,17.1,7.4,25.6c-1.9,0.1-2.9,0.2-4.8,0.3c-0.5-2-0.8-3-1.3-5
					c-2.8,0.1-4.1,0.1-6.9,0.1c-0.5,2-0.8,3.1-1.3,5.1c-1.9,0-2.8,0-4.7-0.1c2.4-8.7,4.8-17.4,7.2-26.1C75,8.9,75.9,8.9,77.7,8.9
					 M73.4,24.5c1.7,0,2.5,0,4.2-0.1c-0.9-3.3-1.3-5-2.1-8.3C74.6,19.5,74.2,21.2,73.4,24.5 M77.7,5.9L77.7,5.9h-4.5
					c-1.3,0-2.5,0.9-2.8,2.2c-2.6,9.5-4.9,18-7.2,26.1c-0.2,0.9-0.1,1.8,0.5,2.6c0.5,0.7,1.4,1.2,2.3,1.2c1.9,0,2.9,0.1,4.8,0.1
					c1.4,0,2.5-0.9,2.9-2.2c0.3-1.2,0.5-2,0.7-2.9c0.8,0,1.5,0,2.3,0c0.2,0.8,0.4,1.6,0.7,2.7c0.3,1.3,1.5,2.2,2.9,2.2h0.1
					c1.9-0.1,2.9-0.2,4.9-0.3c0.9-0.1,1.7-0.5,2.2-1.3c0.5-0.7,0.7-1.7,0.4-2.5c-2.4-8.1-4.8-16.5-7.3-25.6
					C80.2,6.8,79,5.9,77.7,5.9L77.7,5.9z"/>
			</g>
			<g>
				<path class="st1" d="M90.5,36c-1.1,0-2.2-0.2-3.3-0.5c-1.5-0.5-2.7-1.2-3.7-2.2c-0.4-0.4-0.5-0.9-0.4-1.4l1.5-5.4
					c0.1-0.5,0.5-0.9,1-1c0.1,0,0.3-0.1,0.4-0.1c0.4,0,0.7,0.1,1,0.4c0.6,0.6,1.3,1,2.1,1.3c0.6,0.2,1.2,0.4,1.8,0.4
					c0.1,0,0.2,0,0.4,0c1.3-0.1,1.3-0.5,1.3-0.8c0-0.2,0-0.3,0-0.3c-0.2-0.1-0.8-0.4-2.1-0.8c-1.3-0.4-2.5-0.8-3.4-1.3
					c-1.1-0.6-2-1.5-2.7-2.8c-0.7-1.2-1.1-2.9-1.1-4.9c0-1.8,0.3-3.4,0.9-4.8c0.6-1.5,1.6-2.7,2.9-3.6c1.3-0.9,2.9-1.3,4.8-1.3
					c1.2,0,2.4,0.2,3.6,0.6c1.2,0.4,2.3,1,3.2,1.8c0.4,0.4,0.6,0.9,0.5,1.5c-0.5,2-0.8,3.1-1.3,5.2c-0.1,0.5-0.5,0.9-0.9,1
					c-0.2,0.1-0.3,0.1-0.5,0.1c-0.3,0-0.6-0.1-0.9-0.3c-1.3-1-2.4-1.5-3.5-1.5H92c-0.6,0-0.9,0.1-0.9,0.2c-0.1,0.1-0.2,0.3-0.2,0.6
					c0,0.2,0,0.2,0.1,0.3c0.2,0.1,0.8,0.4,2,0.8c1.3,0.4,2.5,0.8,3.3,1.2c1,0.5,2,1.4,2.7,2.5c0.8,1.2,1.2,2.7,1.2,4.7
					c0,1.6-0.3,3.2-0.9,4.6c-0.6,1.5-1.6,2.7-2.8,3.7c-1.3,1-2.9,1.7-4.7,1.9C91.3,36,90.9,36,90.5,36z"/>
				<path class="st1" d="M91.8,8.4c1.1,0,2.1,0.2,3.1,0.5c1,0.4,1.9,0.9,2.7,1.6c-0.5,2-0.8,3.1-1.3,5.2c-1.5-1.2-3-1.8-4.4-1.8
					h-0.1c-0.9,0-1.6,0.2-2,0.7c-0.4,0.4-0.6,1-0.6,1.7s0.3,1.2,0.8,1.5s1.3,0.6,2.4,0.9c1.2,0.3,2.3,0.7,3.1,1.1
					c0.8,0.4,1.5,1.1,2.1,2s0.9,2.2,0.9,3.9c0,1.5-0.2,2.8-0.8,4c-0.5,1.2-1.3,2.3-2.4,3.1c-1.1,0.8-2.4,1.4-3.9,1.5
					c-0.3,0-0.7,0.1-1,0.1c-1,0-1.9-0.1-2.8-0.4c-1.2-0.4-2.3-1-3.1-1.8c0.6-2.2,0.9-3.3,1.5-5.4c0.7,0.7,1.6,1.3,2.6,1.7
					c0.8,0.3,1.6,0.5,2.4,0.5c0.2,0,0.3,0,0.5,0c1.8-0.2,2.6-0.9,2.6-2.3c0-0.7-0.3-1.2-0.8-1.5s-1.3-0.6-2.4-0.9
					c-1.2-0.3-2.3-0.7-3.1-1.1C87,22.8,86.3,22,85.7,21c-0.6-1-0.9-2.4-0.9-4.2c0-1.6,0.2-3,0.8-4.2c0.5-1.3,1.3-2.3,2.4-3
					C89,8.7,90.3,8.4,91.8,8.4 M91.8,5.4c-2.2,0-4,0.5-5.6,1.6c-1.5,1.1-2.7,2.5-3.4,4.3c-0.7,1.6-1,3.4-1,5.4
					c0,2.3,0.4,4.2,1.3,5.7c0.4,0.7,0.9,1.4,1.4,1.9c-0.6,0.4-1.1,1-1.3,1.8l-1.1,4.2l-0.3,1.2c-0.3,1,0,2.1,0.7,2.8
					c1.1,1.2,2.6,2,4.3,2.6c1.2,0.4,2.5,0.6,3.7,0.6c0.4,0,0.9,0,1.4-0.1c2.1-0.2,3.9-1,5.5-2.2c1.5-1.2,2.6-2.6,3.3-4.3
					c0.7-1.6,1-3.4,1-5.2c0-2.3-0.5-4.1-1.4-5.5c-0.6-0.9-1.2-1.6-2-2.2c0.5-0.4,0.9-1,1.1-1.6c0.5-2.1,0.8-3.1,1.3-5.1
					c0.3-1.1-0.1-2.2-0.9-3c-1.1-0.9-2.3-1.6-3.7-2.1C94.6,5.7,93.2,5.4,91.8,5.4L91.8,5.4z"/>
			</g>
			<g>
				<path class="st1" d="M103.7,33.8c-0.3,0-0.7-0.1-0.9-0.3c-0.3-0.3-0.5-0.7-0.5-1.1L102,15.6c-1.1,0-2,0.1-3.5,0.1c0,0,0,0-0.1,0
					c-0.4,0-0.7-0.1-1-0.4c-0.3-0.3-0.5-0.7-0.5-1l-0.1-5.4c0-0.4,0.1-0.8,0.4-1.1c0.3-0.3,0.7-0.4,1-0.4c4.8,0,9.6,0,14.4-0.1l0,0
					c0.8,0,1.5,0.6,1.5,1.4l0.1,4.8c0,0.8-0.6,1.5-1.4,1.5c-1.4,0.1-2.4,0.1-3.5,0.2l0.3,16.1c0,0.7-0.5,1.3-1.2,1.5
					c-1.8,0.4-2.8,0.5-4.6,0.8C103.9,33.7,103.8,33.8,103.7,33.8z"/>
				<path class="st1" d="M112.8,8.8c0,1.9,0,2.9,0.1,4.8c-2,0.1-3,0.2-4.9,0.2c0.1,5.8,0.2,11.7,0.3,17.5c-1.8,0.4-2.7,0.5-4.6,0.8
					c-0.1-6.1-0.2-12.1-0.3-18.2c-2,0.1-3,0.1-5,0.2c0-2.2,0-3.3-0.1-5.4C103.2,8.8,108,8.8,112.8,8.8 M112.8,5.9L112.8,5.9
					c-4.8,0-9.6,0-14.5,0.1c-0.8,0-1.5,0.3-2.1,0.9c-0.6,0.6-0.9,1.3-0.8,2.1v1.1l0.1,4.3c0,0.8,0.3,1.5,0.9,2.1
					c0.5,0.5,1.3,0.8,2,0.8h0.1c0.8,0,1.4,0,2-0.1v1.5l0.2,13.6c0,0.9,0.4,1.7,1.1,2.2c0.5,0.4,1.2,0.7,1.9,0.7c0.2,0,0.3,0,0.5,0
					c1.8-0.3,2.8-0.5,4.6-0.8c1.4-0.3,2.4-1.5,2.4-2.9l-0.1-8.2l-0.1-6.5c0.6,0,1.3-0.1,2.1-0.1c1.6-0.1,2.8-1.4,2.8-3v-2.4V8.9
					C115.7,7.1,114.4,5.9,112.8,5.9L112.8,5.9z"/>
			</g>
			<g>
				<path class="st1" d="M114.3,31.7c-0.3,0-0.6-0.1-0.9-0.3c-0.3-0.3-0.6-0.7-0.6-1.1l-0.4-21.4c0-0.4,0.1-0.8,0.4-1.1
					c0.3-0.3,0.7-0.4,1-0.4c4.2,0,8.4,0,12.6-0.1l0,0c0.8,0,1.5,0.7,1.5,1.5v4c0,0.8-0.6,1.4-1.4,1.5c-2.7,0.2-4.3,0.3-6.7,0.4v0.4
					c1.9-0.2,3.2-0.3,5.5-0.6c0.1,0,0.1,0,0.2,0c0.4,0,0.7,0.1,1,0.4c0.3,0.3,0.5,0.7,0.5,1.1v3.9c0,0.7-0.5,1.3-1.2,1.5
					c-2.4,0.4-3.8,0.7-5.9,1v0.7c2.3-0.5,3.9-0.8,6.5-1.4c0.1,0,0.2,0,0.3,0c0.3,0,0.6,0.1,0.9,0.3c0.4,0.3,0.6,0.7,0.6,1.1v4
					c0,0.7-0.4,1.2-1,1.4c-4.2,1.3-8.5,2.4-12.9,3.4C114.5,31.6,114.4,31.7,114.3,31.7z"/>
				<path class="st1" d="M126.6,8.7c0,1.6,0,2.4,0,4c-3.2,0.2-4.9,0.3-8.1,0.5c0,1.4,0,2.1,0.1,3.4c2.9-0.3,4.3-0.4,7.1-0.8
					c0,1.6,0,2.3,0,3.9c-2.8,0.5-4.2,0.7-7.1,1.2c0,1.5,0,2.2,0.1,3.7c3.3-0.7,5-1,8.3-1.8c0,1.6,0,2.4,0,4
					c-4.2,1.3-8.5,2.4-12.8,3.4c-0.1-7.1-0.2-14.3-0.4-21.4C118.1,8.8,122.4,8.8,126.6,8.7 M126.6,5.8L126.6,5.8
					c-4.2,0-8.4,0-12.7,0.1c-0.8,0-1.5,0.3-2.1,0.9c-0.6,0.6-0.9,1.3-0.8,2.1l0.2,10l0.2,11.3c0,0.9,0.4,1.7,1.1,2.3
					c0.5,0.4,1.2,0.6,1.8,0.6c0.2,0,0.4,0,0.6-0.1c4.4-1,8.7-2.1,13-3.4c1.3-0.4,2.1-1.5,2.1-2.9V26v-3.3c0-0.9-0.4-1.7-1.1-2.3
					c-0.1-0.1-0.1-0.1-0.2-0.2c0-0.2,0.1-0.4,0.1-0.6V19v-3.3c0-0.3-0.1-0.6-0.1-0.9c0.7-0.5,1.1-1.4,1.1-2.3v-1.2V8.5
					C129.5,7.1,128.2,5.8,126.6,5.8L126.6,5.8z"/>
			</g>
			<g>
				<path class="st1" d="M129.9,27.5c-0.7,0-1.3-0.2-1.9-0.6s-1.3-1.3-1.3-2.8c0-1.1,0.3-2.1,1-3c0.1-0.1,0.1-0.2,0.2-0.2
					c-0.2-0.2-0.4-0.6-0.4-0.9l-0.9-11.1c0-0.4,0.1-0.8,0.4-1.1c0.3-0.3,0.7-0.5,1.1-0.5h5.2c0.4,0,0.8,0.2,1.1,0.5
					c0.3,0.3,0.4,0.7,0.4,1.1c-0.4,4.1-0.5,6.2-0.9,10.4c0,0.3-0.1,0.6-0.3,0.8c0.6,0.5,1.2,1.3,1.2,2.6c0,1-0.3,1.9-1,2.8
					s-1.5,1.5-2.5,1.8C130.8,27.4,130.3,27.5,129.9,27.5z"/>
				<path class="st1" d="M133.3,8.7c-0.3,4.1-0.5,6.2-0.9,10.4c-1.4,0.3-2,0.4-3.4,0.7c-0.4-4.4-0.6-6.6-0.9-11.1
					C130.2,8.7,131.2,8.7,133.3,8.7 M131.5,20.7c0.4,0,0.8,0.1,1.1,0.3c0.5,0.3,0.7,0.8,0.7,1.5s-0.2,1.3-0.7,1.9s-1.1,1.1-1.8,1.3
					c-0.3,0.1-0.6,0.1-0.8,0.1c-0.4,0-0.7-0.1-1-0.3c-0.5-0.4-0.7-0.9-0.7-1.7c0-0.8,0.2-1.4,0.7-2s1.1-1,1.8-1.1
					C131,20.8,131.2,20.7,131.5,20.7 M133.3,5.7L133.3,5.7c-2.1,0-3.1,0-5.2,0c-0.8,0-1.6,0.4-2.2,1s-0.8,1.4-0.8,2.2l0.3,3.8
					L126,20c0,0.2,0.1,0.4,0.1,0.6c-0.6,1-1,2.1-1,3.4c0,1.7,0.7,3.1,1.9,4c0.8,0.6,1.8,0.9,2.8,0.9c0.6,0,1.2-0.1,1.8-0.3
					c1.3-0.4,2.4-1.2,3.2-2.3c0.9-1.2,1.3-2.4,1.3-3.7c0-1.1-0.3-2.1-0.9-2.9c0-0.1,0-0.2,0-0.3c0.3-4.3,0.5-6.3,0.9-10.4
					c0.1-0.8-0.2-1.6-0.8-2.3C134.9,6.1,134.1,5.7,133.3,5.7L133.3,5.7z M133.3,11.6L133.3,11.6L133.3,11.6L133.3,11.6z"/>
			</g>
		</g>
	</g>
	<g>
		<g>
			<path class="st2" d="M12.7,13.2c0.5,0.5,0.7,1.2,0.7,1.9s-0.3,1.3-0.7,1.8c-0.5,0.4-1.1,0.6-1.9,0.4c-0.8-0.1-1.4-0.5-1.9-1
				s-0.7-1.1-0.7-1.8s0.3-1.2,0.8-1.6s1.1-0.6,1.9-0.6C11.6,12.4,12.2,12.7,12.7,13.2z M13.3,30.4c-2-0.8-3-1.2-5-2
				c0.3-3.9,0.5-5.9,0.8-10c1.4,0.3,2,0.4,3.4,0.7C12.8,23.5,13,25.8,13.3,30.4z"/>
			<path class="st2" d="M26,18.9c1.6,0.2,2.4,0.3,4,0.4c-0.1,3.6-0.1,5.5-0.2,9.1c-0.9,0.7-2,1.2-3.2,1.4c-1.2,0.2-2.4,0.1-3.6-0.2
				c-1.7-0.4-3.2-1.3-4.5-2.5s-2.3-2.6-3.1-4.2c-0.7-1.6-1.1-3.3-1.1-5.1s0.4-3.4,1.2-4.8c0.8-1.4,1.9-2.5,3.2-3.3
				c1.4-0.8,2.9-1.3,4.6-1.3c1.5,0,2.9,0.3,4,1s2.2,1.7,2.9,3c-1.2,1.4-1.8,2.1-3,3.4c-1.1-1.7-2.4-2.5-3.9-2.6
				c-1.4-0.1-2.5,0.4-3.4,1.3c-0.9,1-1.3,2.2-1.3,3.9c0,1.1,0.2,2,0.5,3c0.4,0.9,0.9,1.7,1.6,2.3c0.7,0.6,1.5,1,2.3,1.2
				c0.9,0.2,1.7,0.1,2.5-0.2C25.9,22.3,25.9,21.2,26,18.9z"/>
			<path class="st2" d="M43,28.4c-2.7-0.3-4.1-0.5-6.8-0.9c-0.5,1.7-0.8,2.6-1.3,4.3c-1.9-0.3-2.8-0.5-4.6-0.9
				c3-8.2,4.5-12.7,7.5-22c1.8,0,2.7,0,4.5,0c2.7,9.6,4.1,14.7,6.8,25c-1.9-0.2-2.9-0.3-4.8-0.6C43.7,31.3,43.5,30.3,43,28.4z
				 M41.7,23.2c-0.8-3.2-1.2-4.7-2-7.8c-0.9,3-1.3,4.5-2.2,7.4C39.3,23,40.1,23.1,41.7,23.2z"/>
			<path class="st2" d="M65.4,8.9c0,10.4-0.1,15.6-0.1,26.1c-1.5,0-2.3-0.1-3.8-0.1c-2.9-5.7-4.3-8.5-7.1-14
				c-0.1,5.4-0.1,8.1-0.1,13.6c-1.8-0.2-2.7-0.2-4.5-0.4c0.1-10,0.2-15,0.3-25.1c1.5,0,2.3,0,3.8,0c2.8,5.4,4.2,8.2,7,13.8
				c0-5.5,0-8.3,0.1-13.8C62.7,8.9,63.6,8.9,65.4,8.9z"/>
			<path class="st2" d="M78.9,29.8c-2.8,0.1-4.1,0.1-6.9,0.1c-0.5,2-0.8,3.1-1.3,5.1c-1.9,0-2.8,0-4.7-0.1
				c2.9-10.4,4.4-15.6,7.2-26.1c1.8,0,2.7,0,4.5,0c2.9,10.4,4.4,15.6,7.4,25.6c-1.9,0.1-2.9,0.2-4.8,0.3
				C79.7,32.8,79.5,31.8,78.9,29.8z M77.6,24.4c-0.9-3.3-1.3-5-2.1-8.3c-0.8,3.3-1.2,5-2.1,8.4C75,24.5,75.9,24.5,77.6,24.4z"/>
			<path class="st2" d="M87.7,34.1c-1.2-0.4-2.3-1-3.1-1.8c0.6-2.2,0.9-3.3,1.5-5.4c0.7,0.7,1.6,1.3,2.6,1.7s1.9,0.5,2.8,0.5
				c1.8-0.2,2.6-0.9,2.6-2.3c0-0.7-0.3-1.2-0.8-1.5s-1.3-0.6-2.4-0.9c-1.2-0.3-2.3-0.7-3.1-1.1c-0.8-0.4-1.5-1.2-2.1-2.2
				c-0.6-1-0.9-2.4-0.9-4.2c0-1.6,0.2-3,0.8-4.2c0.5-1.3,1.3-2.3,2.4-3s2.4-1.1,3.9-1.1C93,8.6,94,8.8,95,9.1c1,0.4,1.9,0.9,2.7,1.6
				c-0.5,2-0.8,3.1-1.3,5.2c-1.6-1.2-3.1-1.8-4.5-1.8c-0.9,0-1.6,0.2-2,0.7s-0.6,1-0.6,1.7s0.3,1.2,0.8,1.5s1.3,0.6,2.4,0.9
				c1.2,0.3,2.3,0.7,3.1,1.1c0.8,0.4,1.5,1.1,2.1,2c0.6,0.9,0.9,2.2,0.9,3.9c0,1.5-0.2,2.8-0.8,4c-0.5,1.2-1.3,2.3-2.4,3.1
				c-1.1,0.8-2.4,1.4-3.9,1.5C90.2,34.6,88.9,34.5,87.7,34.1z"/>
			<path class="st2" d="M103.4,14.1c-2,0.1-3,0.1-5,0.2c0-2.2,0-3.3-0.1-5.4c5.8,0,8.7,0,14.4-0.1c0,1.9,0,2.9,0.1,4.8
				c-2,0.1-3,0.2-4.9,0.2c0.1,7,0.2,10.5,0.3,17.5c-1.8,0.4-2.7,0.5-4.6,0.8C103.6,25,103.5,21.4,103.4,14.1z"/>
			<path class="st2" d="M127,22.9c0,1.6,0,2.4,0,4c-5.1,1.5-7.6,2.2-12.8,3.4c-0.1-8.6-0.2-12.8-0.4-21.4c5.1,0,7.6,0,12.6-0.1
				c0,1.6,0,2.4,0,4c-3.2,0.2-4.9,0.3-8.1,0.5c0,1.4,0,2.1,0.1,3.4c2.9-0.3,4.3-0.4,7.1-0.8c0,1.6,0,2.3,0,3.9
				c-2.8,0.5-4.2,0.7-7.1,1.2c0,1.5,0,2.2,0.1,3.7C122,24,123.7,23.6,127,22.9z"/>
			<path class="st2" d="M128.9,25.7c-0.5-0.4-0.7-0.9-0.7-1.7c0-0.8,0.2-1.4,0.7-2s1.1-1,1.8-1.1c0.8-0.2,1.4-0.1,1.8,0.2
				c0.5,0.3,0.7,0.8,0.7,1.5s-0.2,1.3-0.7,1.9s-1.1,1.1-1.8,1.3C130,26.1,129.4,26.1,128.9,25.7z M128.1,8.7c2.1,0,3.1,0,5.2,0
				c-0.4,4.1-0.5,6.2-0.9,10.4c-1.4,0.3-2,0.4-3.4,0.7C128.7,15.5,128.5,13.2,128.1,8.7z"/>
		</g>
	</g>
	<g>
		<g>
			
				<linearGradient id="SVGID_1_" gradientUnits="userSpaceOnUse" x1="10.8" y1="-0.1631" x2="10.8" y2="-35.7439" gradientTransform="matrix(1 0 0 -1 0 4.5742)">
				<stop  offset="0" style="stop-color:#FFAF02"/>
				<stop  offset="1" style="stop-color:#F56D05"/>
			</linearGradient>
			<path class="st3" d="M12.7,13.2c0.5,0.5,0.7,1.2,0.7,1.9s-0.3,1.3-0.7,1.8c-0.5,0.4-1.1,0.6-1.9,0.4c-0.8-0.1-1.4-0.5-1.9-1
				s-0.7-1.1-0.7-1.8s0.2-1.2,0.7-1.7c0.5-0.4,1.1-0.6,1.9-0.6C11.6,12.4,12.2,12.7,12.7,13.2z M13.3,30.4c-2-0.8-3-1.2-5-2
				c0.3-3.9,0.5-5.9,0.8-10c1.4,0.3,2,0.4,3.4,0.7C12.8,23.5,13,25.8,13.3,30.4z"/>
			
				<linearGradient id="SVGID_2_" gradientUnits="userSpaceOnUse" x1="22.25" y1="-0.1631" x2="22.25" y2="-35.7439" gradientTransform="matrix(1 0 0 -1 0 4.5742)">
				<stop  offset="0" style="stop-color:#FFAF02"/>
				<stop  offset="1" style="stop-color:#F56D05"/>
			</linearGradient>
			<path class="st4" d="M26,18.9c1.6,0.2,2.4,0.3,4,0.4c-0.1,3.6-0.1,5.5-0.2,9.1c-0.9,0.7-2,1.2-3.2,1.4c-1.2,0.2-2.4,0.1-3.6-0.2
				c-1.7-0.4-3.2-1.3-4.5-2.5s-2.3-2.6-3.1-4.2c-0.7-1.6-1.1-3.3-1.1-5.1s0.4-3.4,1.2-4.8c0.8-1.4,1.9-2.5,3.2-3.3
				c1.4-0.8,2.9-1.3,4.6-1.3c1.5,0,2.9,0.3,4,1c1.2,0.7,2.2,1.7,2.9,3c-1.2,1.4-1.8,2.1-3,3.4c-1.1-1.7-2.4-2.5-3.9-2.6
				c-1.4-0.1-2.5,0.4-3.4,1.3c-0.9,1-1.3,2.2-1.3,3.9c0,1.1,0.2,2,0.5,3c0.4,0.9,0.9,1.7,1.6,2.3c0.7,0.6,1.5,1,2.3,1.2
				c0.9,0.2,1.7,0.1,2.5-0.2C25.9,22.3,25.9,21.2,26,18.9z"/>
			
				<linearGradient id="SVGID_3_" gradientUnits="userSpaceOnUse" x1="39.7" y1="-0.1631" x2="39.7" y2="-35.7439" gradientTransform="matrix(1 0 0 -1 0 4.5742)">
				<stop  offset="0" style="stop-color:#FFAF02"/>
				<stop  offset="1" style="stop-color:#F56D05"/>
			</linearGradient>
			<path class="st5" d="M43,28.4c-2.7-0.3-4.1-0.5-6.8-0.9c-0.5,1.7-0.8,2.6-1.3,4.3c-1.9-0.3-2.8-0.5-4.6-0.9
				c2.6-7.3,5.1-14.6,7.5-22c1.8,0,2.7,0,4.5,0c2.3,8.3,4.6,16.7,6.8,25c-1.9-0.2-2.9-0.3-4.8-0.6C43.7,31.3,43.5,30.3,43,28.4z
				 M41.7,23.2c-0.8-3.2-1.2-4.7-2-7.8c-0.9,3-1.3,4.5-2.2,7.4C39.3,23,40.1,23.1,41.7,23.2z"/>
			
				<linearGradient id="SVGID_4_" gradientUnits="userSpaceOnUse" x1="57.6" y1="-0.1631" x2="57.6" y2="-35.7439" gradientTransform="matrix(1 0 0 -1 0 4.5742)">
				<stop  offset="0" style="stop-color:#FFAF02"/>
				<stop  offset="1" style="stop-color:#F56D05"/>
			</linearGradient>
			<path class="st6" d="M65.4,8.9c0,8.7-0.1,17.4-0.1,26.1c-1.5,0-2.3-0.1-3.8-0.1c-2.4-4.7-4.7-9.4-7.1-14c0,4.5-0.1,9.1-0.1,13.6
				c-1.8-0.2-2.7-0.2-4.5-0.4C49.9,25.7,50,17.4,50.1,9c1.5,0,2.3,0,3.8,0c2.4,4.6,4.7,9.2,7,13.8c0-4.6,0.1-9.2,0.1-13.8
				C62.7,8.9,63.6,8.9,65.4,8.9z"/>
			
				<linearGradient id="SVGID_5_" gradientUnits="userSpaceOnUse" x1="75.55" y1="-0.1631" x2="75.55" y2="-35.7439" gradientTransform="matrix(1 0 0 -1 0 4.5742)">
				<stop  offset="0" style="stop-color:#FFAF02"/>
				<stop  offset="1" style="stop-color:#F56D05"/>
			</linearGradient>
			<path class="st7" d="M78.9,29.8c-2.8,0.1-4.1,0.1-6.9,0.1c-0.5,2-0.8,3.1-1.3,5.1c-1.9,0-2.8,0-4.7-0.1
				c2.4-8.7,4.8-17.4,7.2-26.1c1.8,0,2.7,0,4.5,0c2.4,8.6,4.8,17.1,7.4,25.6c-1.9,0.1-2.9,0.2-4.8,0.3
				C79.7,32.8,79.5,31.8,78.9,29.8z M77.6,24.4c-0.9-3.3-1.3-5-2.1-8.3c-0.8,3.3-1.2,5-2.1,8.4C75,24.5,75.9,24.5,77.6,24.4z"/>
			
				<linearGradient id="SVGID_6_" gradientUnits="userSpaceOnUse" x1="91.6" y1="-0.1631" x2="91.6" y2="-35.7439" gradientTransform="matrix(1 0 0 -1 0 4.5742)">
				<stop  offset="0" style="stop-color:#FFAF02"/>
				<stop  offset="1" style="stop-color:#F56D05"/>
			</linearGradient>
			<path class="st8" d="M87.7,34.1c-1.2-0.4-2.3-1-3.1-1.8c0.6-2.2,0.9-3.3,1.5-5.4c0.7,0.7,1.6,1.3,2.6,1.7c1,0.4,1.9,0.5,2.8,0.5
				c1.8-0.2,2.6-0.9,2.6-2.3c0-0.7-0.3-1.2-0.8-1.5s-1.3-0.6-2.4-0.9c-1.2-0.3-2.3-0.7-3.1-1.1c-0.8-0.4-1.5-1.2-2.1-2.2
				c-0.6-1-0.9-2.4-0.9-4.2c0-1.6,0.2-3,0.8-4.2c0.5-1.3,1.3-2.3,2.4-3s2.4-1.1,3.9-1.1C93,8.6,94,8.8,95,9.1c1,0.4,1.9,0.9,2.7,1.6
				c-0.5,2-0.8,3.1-1.3,5.2c-1.6-1.2-3.1-1.8-4.5-1.8c-0.9,0-1.6,0.2-2,0.7c-0.4,0.4-0.6,1-0.6,1.7s0.3,1.2,0.8,1.5s1.3,0.6,2.4,0.9
				c1.2,0.3,2.3,0.7,3.1,1.1c0.8,0.4,1.5,1.1,2.1,2c0.6,0.9,0.9,2.2,0.9,3.9c0,1.5-0.2,2.8-0.8,4c-0.5,1.2-1.3,2.3-2.4,3.1
				c-1.1,0.8-2.4,1.4-3.9,1.5C90.2,34.6,88.9,34.5,87.7,34.1z"/>
			
				<linearGradient id="SVGID_7_" gradientUnits="userSpaceOnUse" x1="105.55" y1="-0.1631" x2="105.55" y2="-35.7439" gradientTransform="matrix(1 0 0 -1 0 4.5742)">
				<stop  offset="0" style="stop-color:#FFAF02"/>
				<stop  offset="1" style="stop-color:#F56D05"/>
			</linearGradient>
			<path class="st9" d="M103.4,14.1c-2,0.1-3,0.1-5,0.2c0-2.2,0-3.3-0.1-5.4c4.8,0,9.6,0,14.4-0.1c0,1.9,0,2.9,0.1,4.8
				c-2,0.1-3,0.2-4.9,0.2c0.1,5.8,0.2,11.7,0.3,17.5c-1.8,0.4-2.7,0.5-4.6,0.8C103.6,26.2,103.5,20.2,103.4,14.1z"/>
			
				<linearGradient id="SVGID_8_" gradientUnits="userSpaceOnUse" x1="120.4" y1="-0.1631" x2="120.4" y2="-35.7439" gradientTransform="matrix(1 0 0 -1 0 4.5742)">
				<stop  offset="0" style="stop-color:#FFAF02"/>
				<stop  offset="1" style="stop-color:#F56D05"/>
			</linearGradient>
			<path class="st10" d="M127,22.9c0,1.6,0,2.4,0,4c-4.2,1.3-8.5,2.4-12.8,3.4c-0.1-7.1-0.2-14.3-0.4-21.4c4.2,0,8.4,0,12.6-0.1
				c0,1.6,0,2.4,0,4c-3.2,0.2-4.9,0.3-8.1,0.5c0,1.4,0,2.1,0.1,3.4c2.9-0.3,4.3-0.4,7.1-0.8c0,1.6,0,2.3,0,3.9
				c-2.8,0.5-4.2,0.7-7.1,1.2c0,1.5,0,2.2,0.1,3.7C122,24,123.7,23.6,127,22.9z"/>
			
				<linearGradient id="SVGID_9_" gradientUnits="userSpaceOnUse" x1="130.7" y1="-0.1631" x2="130.7" y2="-35.7439" gradientTransform="matrix(1 0 0 -1 0 4.5742)">
				<stop  offset="0" style="stop-color:#FFAF02"/>
				<stop  offset="1" style="stop-color:#F56D05"/>
			</linearGradient>
			<path class="st11" d="M128.9,25.7c-0.5-0.4-0.7-0.9-0.7-1.7c0-0.8,0.2-1.4,0.7-2s1.1-1,1.8-1.1c0.8-0.2,1.4-0.1,1.8,0.2
				c0.5,0.3,0.7,0.8,0.7,1.5s-0.2,1.3-0.7,1.9s-1.1,1.1-1.8,1.3C130,26.1,129.4,26.1,128.9,25.7z M128.1,8.7c2.1,0,3.1,0,5.2,0
				c-0.3,4.1-0.5,6.2-0.9,10.4c-1.4,0.3-2,0.4-3.4,0.7C128.7,15.5,128.5,13.2,128.1,8.7z"/>
		</g>
	</g>
</g>
</svg>
