<?xml version="1.0" encoding="utf-8"?>
<!-- Generator: Adobe Illustrator 25.3.0, SVG Export Plug-In . SVG Version: 6.00 Build 0)  -->
<svg version="1.1" id="Capa_1" xmlns="http://www.w3.org/2000/svg" xmlns:xlink="http://www.w3.org/1999/xlink" x="0px" y="0px"
	 viewBox="0 0 171.42 40.41" style="enable-background:new 0 0 171.42 40.41;" xml:space="preserve">
<style type="text/css">
	.st0{fill:#EA250A;}
	.st1{fill:#CC1D0A;}
	.st2{fill:#D85A6B;}
	.st3{fill:#FFB612;}
	.st4{fill:#FFBB10;}
	.st5{fill:#FFDA1E;}
	.st6{fill:#B55300;}
	.st7{fill:#BD6000;}
	.st8{fill:#AA4500;}
	.st9{fill:#CA6200;}
	.st10{fill:#FF9C09;}
	.st11{fill:#FF923B;}
	.st12{fill:#FF8C04;}
	.st13{fill:#FFC511;}
	.st14{fill:#FF8201;}
	.st15{fill:#FF9C02;}
	.st16{fill:#FF6400;}
	.st17{fill:#FF8D01;}
	.st18{fill:#1B0F1A;}
	.st19{fill:#00550B;}
	.st20{fill:#FFA808;}
	.st21{fill:#BA896C;}
	.st22{fill:#B2B734;}
	.st23{fill:#BA8625;}
	.st24{fill:#B2A917;}
	.st25{fill:#EF943F;}
	.st26{fill:#EFA25D;}
	.st27{fill:#E68C2E;}
	.st28{fill:#EFAB16;}
	.st29{fill:#FFC00E;}
	.st30{fill:#FFCE0F;}
	.st31{fill:#FFB10D;}
	.st32{fill:#FFC60E;}
	.st33{fill:#FFCE15;}
	.st34{fill:#005F16;}
	.st35{fill:#CA7300;}
	.st36{fill:#FFEC29;}
	.st37{fill:#EFB90D;}
	.st38{fill:#E47104;}
	.st39{fill:#E48409;}
	.st40{fill:#A94500;}
	.st41{fill:#BD5200;}
	.st42{fill:#EF9E07;}
</style>
<g>
	<g>
		<g>
			<path class="st0" d="M170.44,34.33H23.19c-0.41,0-0.68-0.3-0.53-0.59l0.69-1.33l1.11-2.13l4.78-9.17l-4.78-9.17l-1.11-2.13
				l-0.69-1.33c-0.15-0.28,0.13-0.59,0.53-0.59h147.25c0.54,0,0.98,0.44,0.98,0.98v24.47C171.42,33.89,170.98,34.33,170.44,34.33z"
				/>
			<path class="st1" d="M22.61,8.33c0-0.23,0.24-0.43,0.57-0.43h140.52h1.71c-0.45,0.31-0.89,0.63-1.32,0.98H23.19
				c-0.11,0-0.21,0.02-0.3,0.06l-0.24-0.45c0,0,0-0.01,0-0.01C22.62,8.43,22.61,8.38,22.61,8.33C22.61,8.34,22.61,8.33,22.61,8.33z
				 M162.79,7.91h7.65c0.54,0,0.98,0.44,0.98,0.98v0.98V9.83c-0.02-0.52-0.45-0.94-0.98-0.94h-7.24
				C163.1,8.54,162.96,8.21,162.79,7.91z"/>
			<path class="st1" d="M22.61,33.9c0-0.05,0.01-0.11,0.04-0.16C22.63,33.8,22.61,33.85,22.61,33.9c0,0.15,0.11,0.29,0.28,0.37
				l0.46-0.88l0.51-0.98H151.3c0.76,0.69,1.57,1.34,2.42,1.92H30.08h-0.59h-6.3C22.86,34.33,22.61,34.13,22.61,33.9z"/>
			<path class="st1" d="M24.97,30.28l4.27-8.19l-0.25-0.49l0.25-0.49h136.51c0,0.8-0.39,1.6,0,2.3c0.95,1.7-2.22,4.36,0,6.86H24.97z
				"/>
			<path class="st2" d="M22.61,33.9c0-0.05,0.01-0.1,0.04-0.16l0.69-1.33h0.51l-0.51,0.98l-0.46,0.88
				C22.72,34.19,22.61,34.05,22.61,33.9z"/>
			<path class="st2" d="M24.46,30.28l4.53-8.68l0.25,0.49l-4.27,8.19H24.46z"/>
			<path class="st3" d="M171.42,11.95H24.46l-1.11-2.13h148.07V11.95z"/>
			<path class="st3" d="M171.42,32.41H23.35l1.11-2.13h146.96V32.41z"/>
			<path class="st4" d="M163.44,5.56c0,0,0-0.01,0-0.01c0,0,0,0,0,0c0,0,0,0,0-0.01c0,0,0,0,0,0c0,0,0,0,0-0.01c0,0,0,0,0,0
				c0,0,0,0,0-0.01c0,0,0,0,0,0c0,0,0,0,0-0.01c0,0,0,0,0-0.01c0,0,0-0.01,0-0.01c0,0,0,0,0-0.01s0,0,0-0.01c0,0,0,0,0-0.01
				c0,0,0,0,0,0c0,0,0,0,0-0.01c0,0,0,0,0,0c0,0,0-0.01,0-0.01v0c0.05-1.68,1.21-3.08,2.78-3.5c-0.18,0.21-0.33,0.43-0.46,0.67
				c-1.28,0.53-2.2,1.75-2.31,3.19C163.45,5.73,163.44,5.65,163.44,5.56"/>
			<path class="st5" d="M168.62,3.89c0-0.15,0.05-0.28,0.14-0.34c0.23-0.15,0.64,0.09,0.92,0.53c0.16,0.25,0.25,0.51,0.25,0.72
				c0,0.15-0.05,0.28-0.14,0.34c-0.23,0.15-0.64-0.09-0.92-0.53C168.71,4.36,168.62,4.09,168.62,3.89z"/>
			<path class="st6" d="M166.71,35.31v-0.98h3.22v0.98H166.71z M166.71,7.91V6.92h3.22v0.98H166.71z"/>
			<path class="st7" d="M164.44,36.44v-1.13h2.28v0.9C165.82,36.21,165.02,36.21,164.44,36.44z"/>
			<path class="st8" d="M164.44,34.33v0.98h2.27v-0.98H164.44z"/>
			<path class="st7" d="M164.44,6.92V5.8c0.58,0.22,1.38,0.23,2.28,0.22v0.9H164.44z"/>
			<path class="st8" d="M164.44,6.92v0.98h2.27V6.92H164.44z"/>
			<path class="st1" d="M148.16,34.33c0.32-0.58,0.53-1.23,0.58-1.92h22.68v-2.13h-8.04v-9.17h8.04v12.23
				c0,0.54-0.44,0.98-0.98,0.98h-3.73h-2.28h-1.45H148.16z"/>
			<path class="st3" d="M167.19,7.48c-2.07,0-3.74,0.15-3.74-1.92c0-2.07,1.67-3.74,3.74-3.74c2.07,0,3.74,1.67,3.74,3.74
				C170.93,7.63,169.25,7.48,167.19,7.48z"/>
			<path class="st5" d="M163.45,5.46C163.45,5.46,163.45,5.45,163.45,5.46C163.45,5.45,163.45,5.46,163.45,5.46z M163.45,5.45
				c0.06-2.01,1.71-3.63,3.74-3.63c2.07,0,3.74,1.67,3.74,3.74c0,0.09-0.01,0.17-0.01,0.25c-0.14-1.94-1.75-3.47-3.73-3.47
				c-0.5,0-0.98,0.1-1.42,0.28c0.13-0.24,0.29-0.47,0.46-0.67C164.66,2.37,163.5,3.77,163.45,5.45z"/>
			<path class="st9" d="M166.71,6.02c0.16,0,0.31,0,0.47,0C167.03,6.02,166.87,6.02,166.71,6.02z"/>
			<path class="st10" d="M163.44,5.56c0,0.09,0.01,0.17,0.01,0.25c0.1-1.45,1.02-2.67,2.31-3.19c-0.28,0.53-0.45,1.13-0.45,1.77
				c0,2.07,1.68,1.92,3.74,1.92c0.64,0,1.25,0.01,1.78-0.03c-0.33,1.16-1.55,1.21-3.07,1.2c-0.19,0-0.38,0-0.58,0
				c-0.16,0-0.32,0-0.47,0c-0.9,0-1.69,0-2.28-0.22C163.82,7.02,163.44,6.54,163.44,5.56z"/>
			<path class="st3" d="M167.19,34.75c-2.07,0-3.74-0.15-3.74,1.92c0,2.07,1.67,3.74,3.74,3.74c2.07,0,3.74-1.68,3.74-3.74
				C170.93,34.61,169.25,34.75,167.19,34.75z"/>
			<path class="st5" d="M163.45,36.79c0.05,1.68,1.21,3.08,2.78,3.5c-0.18-0.21-0.33-0.43-0.46-0.67c0.44,0.18,0.92,0.28,1.42,0.28
				c1.98,0,3.59-1.53,3.73-3.47c0.01,0.08,0.01,0.16,0.01,0.25c0,2.07-1.67,3.74-3.74,3.74C165.16,40.41,163.51,38.8,163.45,36.79z"
				/>
			<path class="st10" d="M163.44,36.67c0-0.98,0.38-1.46,0.99-1.7c0.58-0.22,1.38-0.23,2.28-0.22c0.08,0,0.16,0,0.25,0
				c0.08,0,0.15,0,0.23,0c0,0,0.01,0,0.01,0c0,0,0,0,0,0c1.78,0,3.27-0.1,3.64,1.2c-0.53-0.04-1.13-0.03-1.78-0.03
				c-2.07,0-3.74-0.15-3.74,1.92c0,0.64,0.16,1.24,0.45,1.77c-1.28-0.53-2.2-1.75-2.31-3.19C163.45,36.5,163.44,36.58,163.44,36.67z
				"/>
			<path class="st4" d="M163.44,36.67c0-0.09,0.01-0.17,0.01-0.25c0.1,1.45,1.02,2.67,2.31,3.19c0.13,0.24,0.28,0.46,0.46,0.67
				c-1.56-0.42-2.73-1.82-2.78-3.5c0,0,0,0,0,0c0,0,0-0.01,0-0.01c0,0,0,0,0,0c0,0,0,0,0-0.01c0,0,0,0,0,0s0,0,0-0.01
				c0,0,0,0,0-0.01c0,0,0,0,0,0c0,0,0-0.01,0-0.01c0,0,0,0,0-0.01c0,0,0,0,0-0.01c0,0,0,0,0,0c0,0,0,0,0-0.01c0,0,0,0,0,0
				c0,0,0,0,0-0.01c0,0,0,0,0,0c0,0,0,0,0-0.01c0,0,0,0,0,0C163.45,36.68,163.44,36.68,163.44,36.67z"/>
			<path class="st5" d="M168.62,38.35c0-0.2,0.08-0.47,0.24-0.72c0.28-0.44,0.7-0.67,0.92-0.53c0.1,0.06,0.14,0.19,0.14,0.34
				c0,0.2-0.08,0.47-0.25,0.72c-0.28,0.44-0.69,0.67-0.92,0.53C168.67,38.62,168.62,38.5,168.62,38.35z"/>
		</g>
		<path class="st11" d="M20.59,31.3c0.04-0.01,0.07-0.03,0.11-0.05C20.66,31.27,20.63,31.29,20.59,31.3L20.59,31.3z"/>
		<path class="st3" d="M15.15,19.28v6.14c0,0-2.86-0.88-5.69-2.13c-1.3-0.57-2.59-1.22-3.59-1.9c-2.18-1.47-2.92-3.43-3.17-4.54
			l-0.01-0.13c0.01-0.33,0.4-0.58,0.79-0.48l1.59,0.41l4.39,1.14L15.15,19.28z"/>
		<path class="st5" d="M9.46,23.29c-1.3-0.57-2.59-1.22-3.59-1.9c-2.18-1.47-2.92-3.43-3.17-4.54l-0.01-0.13
			c0.22,0.17,0.48,0.35,0.78,0.55c0.34,1.14,1.14,2.82,3.07,4.12c0.83,0.56,1.86,1.11,2.93,1.6V23.29z"/>
		<path class="st12" d="M9.46,19.78c-2.81-0.73-4.75-1.7-6-2.51c-0.04-0.15-0.08-0.29-0.11-0.42l-0.01-0.13
			c0.01-0.19,0.13-0.34,0.31-0.43l1.36,0.36l0.04,0.01c1.24,0.87,2.84,1.69,4.4,2.4V19.78z"/>
		<path class="st3" d="M15.15,14.04v7.25c0,0-2.77-0.91-5.69-2.24c-1.55-0.7-3.15-1.53-4.39-2.4l-0.18-0.13
			c-2.41-1.73-3.23-4.06-3.51-5.36c-0.02-0.1-0.01-0.2,0.02-0.29c0.09-0.32,0.47-0.55,0.85-0.44l1.85,0.52l5.36,1.49L15.15,14.04z"
			/>
		<path class="st13" d="M9.46,19.06c-1.56-0.71-3.16-1.53-4.4-2.4l0.01,0C6.31,17.53,7.9,18.35,9.46,19.06L9.46,19.06z"/>
		<path class="st5" d="M9.46,19.05c-1.55-0.7-3.15-1.53-4.39-2.4l-0.03-0.02l-0.15-0.1c-1.68-1.21-2.58-2.7-3.07-3.93
			c-0.21-0.54-0.35-1.03-0.44-1.43c-0.01-0.04-0.01-0.08-0.01-0.12c0-0.06,0.01-0.12,0.03-0.17c0.19,0.14,0.42,0.3,0.69,0.48
			c0.32,1.33,1.17,3.52,3.46,5.16c1.1,0.79,2.5,1.55,3.91,2.22V19.05z"/>
		<path class="st12" d="M9.46,14.9c-3.12-0.77-5.82-2.46-7.38-3.53c-0.02-0.07-0.03-0.13-0.05-0.2c-0.02-0.1-0.01-0.2,0.02-0.29
			c0.05-0.17,0.18-0.31,0.35-0.39l0.2,0.06l1.49,0.42c1.51,1.09,3.49,2.11,5.36,2.97V14.9z M2.24,10.44
			c-0.06-0.02-0.13-0.03-0.19-0.03C2.11,10.42,2.18,10.43,2.24,10.44z"/>
		<path class="st3" d="M15.15,7.96v8.26c0,0-2.7-0.92-5.69-2.29c-1.86-0.85-3.84-1.88-5.36-2.96c-0.08-0.06-0.16-0.11-0.23-0.17
			c-2.64-1.98-3.55-4.61-3.86-6.1c-0.11-0.53,0.42-0.98,0.96-0.82l8.48,2.45L15.15,7.96z"/>
		<path class="st13" d="M9.46,13.93c-1.87-0.85-3.84-1.88-5.36-2.97l0,0C5.61,12.05,7.6,13.08,9.46,13.93L9.46,13.93z"/>
		<path class="st5" d="M9.46,13.93c-1.86-0.85-3.84-1.88-5.36-2.96c0,0,0,0,0,0c-0.03-0.02-0.06-0.05-0.1-0.07
			c-0.04-0.03-0.09-0.07-0.13-0.1c-2.64-1.97-3.55-4.62-3.85-6.1C-0.08,4.23,0.3,3.84,0.75,3.84c0.07,0,0.15,0.01,0.22,0.03
			l0.31,0.09C1.04,4.11,0.89,4.38,0.96,4.69c0.31,1.49,1.21,4.13,3.85,6.1c1.29,0.97,2.98,1.89,4.65,2.7V13.93z"/>
		<path class="st14" d="M10.87,23.89c-0.44-0.18-0.9-0.37-1.35-0.57c-0.02-0.01-0.04-0.02-0.06-0.03
			C9.93,23.5,10.41,23.7,10.87,23.89z M10.82,23.59c-0.45-0.19-0.91-0.39-1.36-0.6v-3.21c0.4,0.1,0.81,0.2,1.25,0.29v1.86
			C10.71,22.5,10.75,23.05,10.82,23.59z"/>
		<path class="st15" d="M10.87,23.89c-0.46-0.19-0.94-0.39-1.41-0.59v-0.3c0.45,0.21,0.91,0.41,1.36,0.6
			C10.84,23.69,10.85,23.79,10.87,23.89z"/>
		<path class="st16" d="M10.71,20.08c-0.43-0.09-0.85-0.19-1.25-0.29v-0.73c0.42,0.19,0.84,0.37,1.25,0.55V20.08z"/>
		<path class="st14" d="M10.71,19.32c-0.41-0.18-0.83-0.37-1.25-0.57V14.9c0.41,0.1,0.82,0.18,1.25,0.25V19.32z"/>
		<path class="st17" d="M10.71,19.6c-0.41-0.17-0.83-0.36-1.25-0.55v0C9.88,19.24,10.3,19.43,10.71,19.6L10.71,19.6z"/>
		<path class="st15" d="M10.71,19.6c-0.41-0.17-0.83-0.36-1.25-0.55v-0.3c0.42,0.2,0.83,0.39,1.25,0.57V19.6z"/>
		<path class="st16" d="M10.71,15.15C10.28,15.08,9.87,15,9.46,14.9v-0.97c0.42,0.19,0.84,0.38,1.25,0.55V15.15z"/>
		<path class="st14" d="M10.71,14.07c-0.41-0.18-0.83-0.38-1.25-0.58V6.31l1.25,0.36V14.07z"/>
		<path class="st17" d="M10.71,14.48c-0.41-0.17-0.82-0.36-1.25-0.55v0C9.88,14.12,10.3,14.31,10.71,14.48z"/>
		<path class="st15" d="M10.71,14.48c-0.41-0.17-0.82-0.36-1.25-0.55v-0.44c0.42,0.2,0.84,0.39,1.25,0.58V14.48z"/>
		<path class="st3" d="M38.52,19.28v6.14c0,0,2.86-0.88,5.69-2.13c1.3-0.57,2.59-1.22,3.59-1.9c2.18-1.47,2.92-3.43,3.17-4.54
			l0.01-0.13c-0.01-0.33-0.4-0.58-0.79-0.48l-1.59,0.41l-4.39,1.14L38.52,19.28z"/>
		<path class="st5" d="M44.22,23.29v-0.3c1.07-0.5,2.1-1.04,2.93-1.6c1.93-1.3,2.73-2.98,3.07-4.12c0.3-0.19,0.55-0.38,0.78-0.55
			l-0.01,0.13c-0.11,0.48-0.31,1.11-0.67,1.8c-0.49,0.91-1.26,1.9-2.5,2.74C46.8,22.07,45.51,22.72,44.22,23.29z"/>
		<path class="st18" d="M48.62,16.65L48.62,16.65l0.04-0.01c0,0,0,0,0,0L48.62,16.65z"/>
		<path class="st19" d="M48.65,16.65C48.65,16.64,48.65,16.65,48.65,16.65l1.37-0.35L48.65,16.65z"/>
		<path class="st12" d="M44.22,19.78v-0.73c1.56-0.71,3.16-1.53,4.4-2.4l0.04-0.01l1.37-0.36c0.18,0.09,0.3,0.24,0.31,0.43
			l-0.01,0.13c-0.03,0.13-0.07,0.27-0.11,0.42C48.96,18.08,47.03,19.05,44.22,19.78z"/>
		<path class="st20" d="M50.21,17.27c0.04-0.15,0.08-0.29,0.11-0.42l0.01-0.13c-0.01-0.19-0.13-0.34-0.31-0.43l0.18-0.05
			c0,0,0.01,0,0.01,0c0.06-0.01,0.12-0.02,0.17-0.02c0,0,0,0,0,0c0.32,0,0.59,0.22,0.61,0.5C50.77,16.89,50.51,17.07,50.21,17.27z"
			/>
		<path class="st3" d="M38.52,14.04v7.25c0,0,2.77-0.91,5.69-2.24c1.55-0.7,3.15-1.53,4.39-2.4l0.18-0.13
			c2.41-1.73,3.23-4.06,3.51-5.36c0.02-0.1,0.02-0.2-0.02-0.29c-0.09-0.32-0.47-0.55-0.85-0.44l-1.85,0.52l-5.36,1.49L38.52,14.04z"
			/>
		<path class="st21" d="M48.61,16.66l0.03-0.02c0,0,0,0,0,0C48.63,16.64,48.63,16.65,48.61,16.66L48.61,16.66z"/>
		<path class="st22" d="M48.64,16.63C48.64,16.63,48.64,16.63,48.64,16.63l0.15-0.1C48.74,16.57,48.69,16.6,48.64,16.63z"/>
		<path class="st23" d="M48.61,16.66L48.61,16.66L48.61,16.66L48.61,16.66z"/>
		<path class="st13" d="M44.22,19.06L44.22,19.06c1.55-0.71,3.15-1.53,4.39-2.4l0.01,0C47.37,17.52,45.77,18.35,44.22,19.06z"/>
		<path class="st5" d="M44.22,19.05v-0.3c1.41-0.67,2.82-1.43,3.91-2.22c2.29-1.65,3.14-3.83,3.46-5.16
			c0.26-0.18,0.49-0.35,0.69-0.48c0.02,0.05,0.03,0.11,0.03,0.17c0,0.04,0,0.08-0.01,0.12c-0.09,0.4-0.22,0.89-0.44,1.43
			c-0.49,1.24-1.4,2.73-3.07,3.93l-0.15,0.1l-0.03,0.02h0C47.37,17.53,45.77,18.35,44.22,19.05z"/>
		<path class="st19" d="M49.57,10.96C49.57,10.96,49.58,10.96,49.57,10.96l1.49-0.42L49.57,10.96z"/>
		<path class="st12" d="M44.22,14.9v-0.97c1.86-0.85,3.84-1.88,5.36-2.97l1.49-0.42l0.2-0.06c0.17,0.08,0.3,0.22,0.35,0.39
			c0.03,0.09,0.04,0.19,0.02,0.29c-0.01,0.06-0.03,0.13-0.05,0.2C50.04,12.44,47.34,14.13,44.22,14.9z M51.44,10.44
			c0.06-0.02,0.13-0.03,0.19-0.03C51.56,10.42,51.5,10.43,51.44,10.44z"/>
		<path class="st3" d="M38.52,7.96v8.26c0,0,2.7-0.92,5.69-2.29c1.86-0.85,3.84-1.88,5.36-2.96c0.08-0.06,0.16-0.11,0.23-0.17
			c2.64-1.98,3.55-4.61,3.86-6.1c0.11-0.53-0.42-0.98-0.96-0.82l-8.48,2.45L38.52,7.96z"/>
		<path class="st22" d="M49.58,10.96c0.03-0.02,0.06-0.05,0.1-0.07C49.64,10.91,49.61,10.94,49.58,10.96"/>
		<path class="st24" d="M49.57,10.96C49.57,10.96,49.57,10.96,49.57,10.96C49.58,10.96,49.57,10.96,49.57,10.96L49.57,10.96z"/>
		<path class="st13" d="M44.22,13.93L44.22,13.93c1.86-0.85,3.84-1.88,5.36-2.97l0,0C48.06,12.05,46.08,13.08,44.22,13.93z"/>
		<path class="st5" d="M44.22,13.93v-0.44c1.67-0.8,3.35-1.73,4.65-2.7c2.64-1.97,3.55-4.62,3.85-6.1c0.06-0.31-0.09-0.58-0.33-0.73
			l0.31-0.09c0.07-0.02,0.15-0.03,0.22-0.03c0.45,0,0.83,0.4,0.74,0.85c-0.31,1.49-1.21,4.13-3.85,6.1
			c-0.04,0.03-0.09,0.07-0.13,0.1c-0.03,0.02-0.06,0.05-0.1,0.07c0,0,0,0,0,0C48.06,12.05,46.08,13.08,44.22,13.93z"/>
		<path class="st14" d="M42.8,23.89c0.46-0.19,0.94-0.39,1.41-0.59c-0.02,0.01-0.04,0.02-0.06,0.03
			C43.7,23.52,43.25,23.71,42.8,23.89z M42.85,23.6c0.08-0.54,0.12-1.1,0.12-1.66v-1.86c0.43-0.09,0.85-0.19,1.25-0.29v3.21
			C43.76,23.2,43.3,23.4,42.85,23.6z"/>
		<path class="st15" d="M42.8,23.89c0.02-0.1,0.03-0.19,0.04-0.29c0.45-0.19,0.91-0.39,1.37-0.6v0.3
			C43.74,23.5,43.27,23.7,42.8,23.89z"/>
		<path class="st16" d="M42.97,20.08V19.6c0.41-0.17,0.83-0.36,1.25-0.55v0.73C43.82,19.89,43.4,19.98,42.97,20.08z"/>
		<path class="st14" d="M42.97,19.32v-4.17c0.42-0.07,0.84-0.15,1.25-0.25v3.85C43.8,18.95,43.38,19.14,42.97,19.32z"/>
		<path class="st17" d="M42.97,19.6L42.97,19.6c0.41-0.18,0.83-0.36,1.25-0.55v0C43.79,19.25,43.37,19.43,42.97,19.6z"/>
		<path class="st15" d="M42.97,19.6v-0.28c0.41-0.18,0.83-0.37,1.25-0.57v0.3C43.79,19.25,43.38,19.43,42.97,19.6z"/>
		<path class="st16" d="M42.97,15.15v-0.67c0.41-0.17,0.82-0.36,1.25-0.55v0.97C43.81,15,43.39,15.08,42.97,15.15z"/>
		<path class="st14" d="M42.97,14.07v-7.4l1.25-0.36v7.18C43.8,13.69,43.38,13.88,42.97,14.07z"/>
		<path class="st17" d="M42.97,14.48L42.97,14.48c0.41-0.18,0.82-0.36,1.25-0.56v0C43.79,14.12,43.37,14.31,42.97,14.48z"/>
		<path class="st15" d="M42.97,14.48v-0.41c0.41-0.19,0.83-0.38,1.25-0.58v0.44C43.79,14.12,43.37,14.31,42.97,14.48z"/>
		<path class="st3" d="M42.97,5.15v16.78c0,8.68-9.63,14.99-13.77,17.3c-0.72,0.41-1.54,0.62-2.36,0.62c-0.82,0-1.64-0.21-2.36-0.62
			c-1.4-0.78-3.44-2.02-5.52-3.67c-4.05-3.19-8.26-7.89-8.26-13.63V5.15c0-2.8,2.22-5.08,4.94-5.08h22.38
			C40.75,0.07,42.97,2.35,42.97,5.15z"/>
		<path class="st10" d="M27,39.84c0.11-0.01,0.22-0.02,0.34-0.03c-0.65-0.07-1.28-0.26-1.86-0.58c-1.55-0.86-3.87-2.29-6.16-4.19
			c0.74-1.11,1.41-2.32,2.02-3.6c2.1,1.7,4.14,2.91,5.03,3.4c0.08,0.05,0.17,0.08,0.26,0.1c0,0,0,0,0,0
			c0.07,0.01,0.13,0.02,0.2,0.02c0.07,0,0.14-0.01,0.21-0.02c0.01,0,0.03-0.01,0.04-0.01c0.08,0.02,0.17,0.03,0.25,0.03
			c0.16,0,0.32-0.04,0.47-0.12c2.16-1.21,11.1-6.58,11.1-13.02V5.96c0-0.56-0.44-1.01-0.99-1.01H26.73c0.1-2.15,0.12-3.86,0.11-4.88
			h11.18c2.72,0,4.94,2.28,4.94,5.08v16.78c0,3.95-2,7.42-4.57,10.23c-0.69,0.76-1.43,1.47-2.18,2.14
			c-2.56,2.27-5.28,3.95-7.03,4.93C28.52,39.61,27.77,39.82,27,39.84z M32.72,4.06l2.29-1.84V1.14l1.1-1.07h-2.12h-0.64l-0.29,0.59
			l0.29,1.6L32.72,4.06z"/>
		<path class="st21" d="M13.31,29.69c-1.19-1.76-2.09-3.7-2.44-5.81c0,0,0,0,0,0C11.22,25.99,12.12,27.93,13.31,29.69L13.31,29.69z
			 M10.71,6.67L10.71,6.67l0-1.52c0-1.72,0.83-3.24,2.1-4.16c-1.27,0.92-2.1,2.44-2.1,4.16L10.71,6.67z"/>
		<path class="st25" d="M26.84,39.85c-0.82,0-1.64-0.21-2.36-0.62c-1.74-0.97-4.46-2.66-7.03-4.93V34.3
			c0.5,0.44,1.01,0.86,1.51,1.26c2.08,1.65,4.11,2.89,5.52,3.67C25.2,39.63,26.02,39.84,26.84,39.85L26.84,39.85z M15.28,32.17
			c-0.33-0.36-0.66-0.74-0.97-1.12v-0.01C14.62,31.42,14.94,31.8,15.28,32.17L15.28,32.17z"/>
		<path class="st26" d="M14.31,31.04c-0.35-0.44-0.69-0.89-1-1.35v-0.01C13.62,30.15,13.96,30.6,14.31,31.04L14.31,31.04z"/>
		<path class="st27" d="M26.84,39.85L26.84,39.85c0.06,0,0.11,0,0.17,0C26.95,39.84,26.89,39.85,26.84,39.85z"/>
		<path class="st28" d="M17.45,34.3c-0.75-0.66-1.48-1.38-2.18-2.14v-0.01C15.97,32.92,16.71,33.64,17.45,34.3L17.45,34.3z"/>
		<path class="st29" d="M10.87,23.89C10.87,23.89,10.87,23.89,10.87,23.89C10.87,23.89,10.87,23.89,10.87,23.89z M10.83,23.6
			C10.82,23.6,10.82,23.6,10.83,23.6c-0.08-0.55-0.12-1.1-0.12-1.66v-1.86c0,0,0,0,0,0v1.86C10.71,22.5,10.75,23.05,10.83,23.6z"/>
		<path class="st30" d="M10.87,23.89C10.87,23.89,10.87,23.89,10.87,23.89c-0.02-0.1-0.03-0.19-0.05-0.29c0,0,0,0,0,0
			C10.84,23.69,10.85,23.79,10.87,23.89z"/>
		<path class="st31" d="M10.71,20.08C10.71,20.08,10.71,20.08,10.71,20.08l0-0.47c0,0,0,0,0,0V20.08z"/>
		<path class="st29" d="M10.71,19.32C10.71,19.32,10.71,19.32,10.71,19.32l0-4.17c0,0,0,0,0,0V19.32z"/>
		<path class="st32" d="M10.71,19.6L10.71,19.6L10.71,19.6C10.71,19.6,10.71,19.6,10.71,19.6L10.71,19.6z"/>
		<path class="st30" d="M10.71,19.6C10.71,19.6,10.71,19.6,10.71,19.6l0-0.28c0,0,0,0,0,0V19.6z"/>
		<path class="st31" d="M10.71,15.15C10.71,15.15,10.71,15.15,10.71,15.15l0-0.67c0,0,0,0,0,0V15.15z"/>
		<path class="st29" d="M10.71,14.07C10.71,14.07,10.71,14.07,10.71,14.07l0-7.4h0V14.07z"/>
		<path class="st32" d="M10.71,14.48C10.71,14.48,10.71,14.48,10.71,14.48C10.71,14.48,10.71,14.48,10.71,14.48L10.71,14.48"/>
		<path class="st30" d="M10.71,14.48C10.71,14.48,10.71,14.48,10.71,14.48l0-0.41c0,0,0,0,0,0V14.48z"/>
		<path class="st5" d="M18.97,35.56c-0.5-0.4-1.01-0.82-1.51-1.26c-0.75-0.66-1.48-1.38-2.18-2.14c-0.33-0.36-0.66-0.74-0.97-1.12
			c-0.35-0.44-0.69-0.89-1-1.35c-1.19-1.76-2.09-3.7-2.44-5.8c-0.02-0.1-0.03-0.19-0.05-0.29c-0.08-0.54-0.12-1.1-0.12-1.66v-1.86
			V19.6v0v-0.28v-4.17v-0.67v0v-0.41v-7.4V5.15c0-1.72,0.83-3.24,2.1-4.16c0.8-0.58,1.78-0.92,2.84-0.92h1
			c-2.73,0-4.94,2.28-4.94,5.08v16.78c0,3.21,1.32,6.1,3.19,8.58l-0.03,0.06l0.05-0.04c1.29,1.71,2.84,3.22,4.41,4.51
			C19.2,35.22,19.09,35.39,18.97,35.56z"/>
		<path class="st33" d="M26.84,39.84c-0.82,0-1.64-0.21-2.36-0.62c-1.4-0.78-3.44-2.02-5.52-3.67c0.12-0.17,0.24-0.34,0.36-0.52
			c2.29,1.9,4.61,3.32,6.16,4.19c0.57,0.32,1.21,0.52,1.86,0.58c-0.11,0.01-0.22,0.02-0.34,0.03
			C26.95,39.84,26.89,39.84,26.84,39.84z"/>
		<path class="st34" d="M9.31,0C9.31,0,9.31,0,9.31,0C9.31,0,9.31,0,9.31,0z"/>
		<path class="st34" d="M44.29,0C44.29,0,44.3,0,44.29,0C44.29,0,44.29,0,44.29,0z M44.31,0C44.32,0,44.32,0,44.31,0
			C44.32,0,44.32,0,44.31,0z M44.38,0C44.38,0,44.38,0,44.38,0C44.38,0,44.38,0,44.38,0z"/>
		<path class="st35" d="M36.11,0.07l-1.1,1.07v1.09l-2.29,1.84l1.09-1.8l-0.2-1.63l0.39-0.57H36.11z"/>
		<path class="st35" d="M18.14,25.67l-1.68,1.95l-0.41,1.37l-1.19,1.58l2.11-1.65l0.4-0.96l0.85-0.77L18.14,25.67z"/>
		<path class="st5" d="M14.9,30.52C14.9,30.52,14.9,30.51,14.9,30.52l0.86-1.62l0.27-1.46l0.75-0.9c0.09,0.14,0.17,0.27,0.27,0.41
			l-0.59,0.68l-0.41,1.37L14.9,30.52z"/>
		<path class="st36" d="M14.87,30.57l0.03-0.06c0,0,0,0,0.01,0.01L14.87,30.57z"/>
		<path class="st37" d="M14.87,30.57l0.04-0.05l1.15-1.53L14.87,30.57z"/>
		<path class="st33" d="M32.72,4.06l0.64-1.81l-0.29-1.6l0.29-0.59h0.64L33.6,0.64l0.2,1.63L32.72,4.06z"/>
		<path class="st33" d="M27.34,34.96c-0.08,0-0.17-0.01-0.25-0.03c0.07-0.02,0.15-0.05,0.22-0.09c2.16-1.21,11.1-6.58,11.1-13.02
			V5.96c0-0.56-0.44-1.01-0.99-1.01H26.73h11.18c0.55,0,0.99,0.45,0.99,1.01v15.86c0,6.45-8.93,11.82-11.1,13.02
			C27.66,34.92,27.5,34.96,27.34,34.96z"/>
		<path class="st35" d="M38.4,5.96v15.86c0,6.45-8.93,11.82-11.1,13.02c-0.29,0.16-0.64,0.16-0.93,0c-0.89-0.5-2.94-1.71-5.03-3.4
			c-2.98-2.42-6.06-5.83-6.06-9.62V5.96c0-0.56,0.44-1.01,0.99-1.01h21.15C37.96,4.95,38.4,5.4,38.4,5.96z"/>
		<path class="st7" d="M26.64,34.94c-0.09-0.02-0.18-0.05-0.26-0.1c-0.89-0.5-2.94-1.71-5.03-3.4l0,0c2.09,1.7,4.14,2.91,5.03,3.4
			C26.45,34.89,26.54,34.92,26.64,34.94z"/>
		<path class="st7" d="M27.04,34.94c0.09-0.02,0.18-0.05,0.26-0.1c0.21-0.12,0.5-0.28,0.83-0.48c-1.46-0.87-3.92-2.48-6.07-4.57
			c0.82-1.99,1.5-4.11,2.07-6.28l2.41-1.27c0.09-0.05,0.19-0.07,0.3-0.07c0.1,0,0.2,0.02,0.3,0.07l3.77,1.98
			c0.1,0.05,0.2,0.07,0.3,0.07c0.37,0,0.7-0.33,0.63-0.75l-0.72-4.2c-0.04-0.21,0.03-0.42,0.18-0.56l3.05-2.97
			c0.38-0.37,0.17-1.01-0.35-1.09l-4.21-0.61h0c-0.21-0.03-0.39-0.16-0.48-0.35l-1.88-3.82c-0.12-0.24-0.34-0.36-0.57-0.36
			c-0.15,0-0.31,0.06-0.43,0.16c0.16-1.76,0.26-3.39,0.33-4.82h10.68c0.55,0,0.99,0.45,0.99,1.01v15.86
			c0,6.45-8.93,11.82-11.1,13.02c-0.07,0.04-0.14,0.07-0.22,0.09C27.07,34.94,27.06,34.94,27.04,34.94z"/>
		<path class="st38" d="M26.84,34.97c0.07,0,0.14-0.01,0.21-0.02C26.98,34.96,26.91,34.97,26.84,34.97z"/>
		<path class="st39" d="M15.48,5.35c0.18-0.24,0.46-0.4,0.78-0.4h2.59c-0.02,0-0.04,0-0.06,0h-2.03h-0.5
			C15.94,4.95,15.66,5.11,15.48,5.35z"/>
		<path class="st6" d="M21.34,31.44c-2.98-2.42-6.06-5.83-6.06-9.62V5.96c0-0.23,0.08-0.44,0.2-0.61c0.18-0.24,0.46-0.4,0.78-0.4
			h0.5h2.03c-0.51,0.03-0.92,0.47-0.92,1.01v15.86c0,2.99,1.92,5.75,4.2,7.97C21.84,30.35,21.59,30.9,21.34,31.44z"/>
		<path class="st40" d="M26.84,34.96c-0.07,0-0.13-0.01-0.2-0.02c-0.09-0.02-0.18-0.05-0.27-0.1c-0.89-0.5-2.94-1.7-5.03-3.4
			c0.25-0.54,0.5-1.09,0.73-1.65c2.14,2.09,4.6,3.7,6.07,4.57c-0.33,0.2-0.61,0.36-0.83,0.48c-0.08,0.05-0.17,0.08-0.26,0.1
			C26.98,34.96,26.91,34.96,26.84,34.96z"/>
		<path class="st3" d="M27.41,9.96l1.88,3.82c0.09,0.19,0.27,0.32,0.48,0.35l4.21,0.61c0.52,0.08,0.73,0.72,0.35,1.09l-3.05,2.97
			c-0.15,0.15-0.22,0.36-0.18,0.56l0.72,4.2c0.09,0.52-0.46,0.92-0.92,0.67l-3.77-1.98c-0.19-0.1-0.41-0.1-0.59,0l-3.77,1.98
			c-0.47,0.25-1.01-0.15-0.92-0.67l0.72-4.2c0.04-0.21-0.03-0.42-0.18-0.56l-3.05-2.97c-0.38-0.37-0.17-1.01,0.35-1.09l4.21-0.61
			c0.21-0.03,0.39-0.16,0.48-0.35l1.88-3.82C26.5,9.49,27.17,9.49,27.41,9.96z"/>
		<path class="st37" d="M22.48,24.3c0.07,0,0.14-0.01,0.21-0.04C22.61,24.29,22.55,24.3,22.48,24.3z"/>
		<path class="st5" d="M22.48,24.3c-0.37,0-0.7-0.33-0.63-0.75l0.72-4.2c0.01-0.04,0.01-0.07,0.01-0.11c0-0.17-0.07-0.34-0.19-0.46
			l-3.05-2.97c-0.24-0.23-0.24-0.58-0.08-0.82c0.09-0.14,0.24-0.24,0.43-0.27l4.21-0.61c0,0,0.01,0,0.01,0
			c0.13-0.02,0.26-0.09,0.35-0.18c0.05-0.05,0.09-0.1,0.12-0.17l1.88-3.82c0.12-0.24,0.34-0.35,0.57-0.35
			c0.11,0,0.22,0.03,0.32,0.08c-0.1,0.06-0.19,0.15-0.25,0.27l-1.88,3.82c-0.09,0.19-0.27,0.32-0.48,0.35l-4.21,0.61
			c-0.52,0.08-0.73,0.72-0.35,1.09l3.05,2.97c0.15,0.15,0.22,0.36,0.18,0.56l-0.72,4.2c-0.02,0.14,0,0.28,0.06,0.39l-0.24,0.33
			c0.06,0.02,0.12,0.03,0.18,0.03c0.07,0,0.13-0.01,0.2-0.03C22.62,24.29,22.54,24.3,22.48,24.3z"/>
		<path class="st41" d="M31.2,24.3L31.2,24.3c0.37,0,0.7-0.33,0.63-0.75l-0.72-4.2c-0.03-0.21,0.03-0.42,0.18-0.56l3.05-2.97
			c0.38-0.37,0.17-1.01-0.35-1.09l-4.21-0.61h0l4.21,0.61c0.52,0.08,0.73,0.72,0.35,1.09l-3.05,2.97c-0.15,0.15-0.22,0.36-0.18,0.56
			l0.72,4.2C31.9,23.97,31.57,24.3,31.2,24.3z"/>
		<path class="st9" d="M22.69,24.27c0.02-0.01,0.05-0.02,0.07-0.03c0,0,0,0,0,0c0,0,0.01,0,0.01-0.01l1.36-0.72l-1.36,0.72
			C22.74,24.24,22.72,24.26,22.69,24.27z"/>
		<path class="st41" d="M24.14,23.51l2.4-1.26c0.09-0.05,0.2-0.07,0.3-0.07c-0.1,0-0.2,0.02-0.3,0.07L24.14,23.51z"/>
		<path class="st10" d="M31.2,24.3c-0.1,0-0.2-0.02-0.3-0.07l-3.77-1.98c-0.09-0.05-0.19-0.07-0.3-0.07h0c-0.1,0-0.2,0.02-0.3,0.07
			l-2.41,1.26l-1.36,0.72l0.03-0.02c-0.11-0.06-0.2-0.15-0.26-0.27l7.23-9.82l4.21,0.61c0.52,0.08,0.73,0.72,0.35,1.09l-3.05,2.97
			c-0.15,0.15-0.22,0.36-0.18,0.56l0.72,4.2C31.9,23.97,31.57,24.3,31.2,24.3z"/>
		<path class="st42" d="M22.69,24.27c0.02-0.01,0.05-0.02,0.07-0.03C22.73,24.25,22.71,24.26,22.69,24.27
			C22.69,24.27,22.69,24.27,22.69,24.27z"/>
		<path class="st4" d="M22.49,24.3c-0.06,0-0.12-0.01-0.18-0.03l0.24-0.33c0.06,0.11,0.15,0.2,0.26,0.27l-0.03,0.02
			c0,0-0.01,0-0.01,0.01c0,0,0,0,0,0c-0.02,0.01-0.05,0.02-0.07,0.03C22.62,24.29,22.55,24.3,22.49,24.3z"/>
		<path class="st5" d="M23.8,16.1c-0.41,0-0.73-0.14-0.8-0.39c-0.1-0.35,0.35-0.78,0.99-0.95c0.19-0.05,0.37-0.07,0.53-0.07
			c0.41,0,0.73,0.14,0.8,0.39c0.09,0.35-0.35,0.78-0.99,0.95C24.15,16.08,23.97,16.1,23.8,16.1z"/>
	</g>
</g>
</svg>
