<?xml version="1.0" encoding="utf-8"?>
<!-- Generator: Adobe Illustrator 25.3.0, SVG Export Plug-In . SVG Version: 6.00 Build 0)  -->
<svg version="1.1" xmlns="http://www.w3.org/2000/svg" xmlns:xlink="http://www.w3.org/1999/xlink" x="0px" y="0px"
	 viewBox="0 0 566.6 171" style="enable-background:new 0 0 566.6 171;" xml:space="preserve">
<style type="text/css">
	.st0{display:none;}
	.st1{fill:url(#SVGID_1_);}
	.st2{fill:#FF923B;}
	.st3{fill:#CA7300;}
	.st4{fill:#B55300;}
	.st5{fill:#BD6000;}
	.st6{fill:#FF2421;}
	.st7{fill:#C1110C;}
	.st8{fill:#FFB612;}
	.st9{fill:#C9580A;}
	.st10{fill:#FFDA1E;}
	.st11{fill:#1B0F1A;}
	.st12{fill:#00550B;}
	.st13{fill:#FF8C04;}
	.st14{fill:#FFA808;}
	.st15{fill:#BA896C;}
	.st16{fill:#B2B734;}
	.st17{fill:#FFC511;}
	.st18{fill:#00620E;}
	.st19{fill:#B2A917;}
	.st20{fill:#FF8201;}
	.st21{fill:#FF9C02;}
	.st22{fill:#FF6400;}
	.st23{fill:#FF8D01;}
	.st24{fill:#BA8625;}
	.st25{fill:#FF9C09;}
	.st26{fill:#EF943F;}
	.st27{fill:#EFA25D;}
	.st28{fill:#E68C2E;}
	.st29{fill:#EFAB16;}
	.st30{fill:#FFC00E;}
	.st31{fill:#FFCE0F;}
	.st32{fill:#FFB10D;}
	.st33{fill:#FFC60E;}
	.st34{fill:#FFCE15;}
	.st35{fill:#CA6200;}
	.st36{fill:#005F16;}
	.st37{fill:#FFBB10;}
	.st38{fill:#FFEC29;}
	.st39{fill:#EFB90D;}
	.st40{fill:#E47104;}
	.st41{fill:#E48409;}
	.st42{fill:#BD5200;}
	.st43{fill:#EF9E07;}
	.st44{fill:#D31818;}
	.st45{fill:#002653;}
	.st46{fill:url(#SVGID_2_);}
	.st47{fill:#D87B00;}
	.st48{fill:#FFF7E9;stroke:#FFF7E9;stroke-width:0.1634;stroke-miterlimit:10;}
	.st49{fill:#EFE4D3;}
	.st50{fill:url(#SVGID_3_);}
	.st51{fill:none;stroke:#FF9C09;stroke-width:0.6206;stroke-miterlimit:10;}
	.st52{fill:none;stroke:#FF9C09;stroke-width:1.1104;stroke-miterlimit:10;}
	.st53{fill:none;stroke:#FF9C09;stroke-width:0.6392;stroke-miterlimit:10;}
	.st54{fill:url(#SVGID_4_);}
	.st55{fill:url(#SVGID_5_);}
	.st56{fill:url(#SVGID_6_);}
	.st57{fill:url(#SVGID_7_);}
	.st58{fill:url(#SVGID_8_);}
	.st59{opacity:5.000000e-02;}
	.st60{fill:#FFFFFF;}
	.st61{clip-path:url(#SVGID_10_);}
	.st62{fill:#D84905;}
	.st63{fill:url(#SVGID_11_);}
	.st64{fill:#F67205;}
	.st65{fill:url(#SVGID_12_);}
	.st66{fill:#F69D05;}
	.st67{fill:url(#SVGID_13_);}
	.st68{opacity:0.7;fill:url(#SVGID_14_);enable-background:new    ;}
	.st69{fill:url(#SVGID_15_);}
	.st70{opacity:0.7;fill:url(#SVGID_16_);enable-background:new    ;}
	.st71{fill:url(#SVGID_17_);}
	.st72{fill:#BA3E05;}
	.st73{opacity:0.5;fill:url(#SVGID_18_);enable-background:new    ;}
	.st74{opacity:0.4;fill:url(#SVGID_19_);enable-background:new    ;}
	.st75{opacity:0.4;fill:url(#SVGID_20_);enable-background:new    ;}
	.st76{fill:#F87D05;}
	.st77{fill:#FFB803;}
	.st78{fill:#F87E05;}
	.st79{fill:#FEB903;}
	.st80{fill:none;stroke:#BA3E05;stroke-width:0.327;stroke-miterlimit:10;}
	.st81{fill:#F87F05;}
	.st82{fill:none;stroke:#BA3E05;stroke-width:0.2725;stroke-miterlimit:10;}
	.st83{fill:none;stroke:#BA3E05;stroke-width:9.373269e-02;stroke-miterlimit:10;}
	.st84{fill:none;stroke:#F87D05;stroke-width:0.1287;stroke-miterlimit:10;}
	.st85{fill:#C16408;}
	.st86{fill:none;stroke:#BA3E05;stroke-width:0.2965;stroke-linecap:round;stroke-miterlimit:10;}
	.st87{fill:none;stroke:#BA3E05;stroke-width:0.2965;stroke-miterlimit:10;}
	.st88{fill:url(#SVGID_21_);}
	.st89{fill:none;stroke:#FF9C09;stroke-width:0.3769;stroke-miterlimit:10;}
	.st90{fill:none;stroke:#FF9C09;stroke-width:0.6743;stroke-miterlimit:10;}
	.st91{fill:none;stroke:#FF9C09;stroke-width:0.3881;stroke-miterlimit:10;}
	.st92{fill:url(#SVGID_22_);}
	.st93{fill:none;stroke:#EFE4D3;stroke-width:0.3769;stroke-miterlimit:10;}
	.st94{fill:none;stroke:#EFE4D3;stroke-width:0.3881;stroke-miterlimit:10;}
	.st95{fill:url(#SVGID_23_);}
	.st96{fill:url(#SVGID_24_);}
	.st97{fill:url(#SVGID_25_);}
	.st98{fill:url(#SVGID_26_);}
	.st99{fill:url(#SVGID_27_);}
	.st100{fill:url(#SVGID_28_);}
	.st101{fill:url(#SVGID_29_);}
	.st102{fill:url(#SVGID_30_);}
	.st103{fill:url(#SVGID_31_);}
	.st104{fill:url(#SVGID_32_);}
	.st105{fill:#FFF7E9;}
	.st106{fill:none;stroke:#EFE4D3;stroke-width:0.9859;stroke-miterlimit:10;}
	.st107{fill:none;stroke:#EFE4D3;stroke-width:1.0154;stroke-miterlimit:10;}
	.st108{fill:#002C58;}
	.st109{fill:url(#SVGID_35_);}
	.st110{fill:none;stroke:#FF9C09;stroke-width:0.1113;stroke-miterlimit:10;}
	.st111{fill:none;stroke:#FF9C09;stroke-width:0.1992;stroke-miterlimit:10;}
	.st112{fill:none;stroke:#FF9C09;stroke-width:0.1147;stroke-miterlimit:10;}
	.st113{fill:url(#SVGID_36_);}
	.st114{fill:url(#SVGID_37_);}
	.st115{fill:url(#SVGID_38_);}
	.st116{fill:url(#SVGID_39_);}
	.st117{fill:url(#SVGID_40_);}
	.st118{clip-path:url(#SVGID_42_);}
	.st119{fill:url(#SVGID_43_);}
	.st120{fill:url(#SVGID_44_);}
	.st121{fill:url(#SVGID_45_);}
	.st122{opacity:0.7;fill:url(#SVGID_46_);enable-background:new    ;}
	.st123{fill:url(#SVGID_47_);}
	.st124{opacity:0.7;fill:url(#SVGID_48_);enable-background:new    ;}
	.st125{fill:url(#SVGID_49_);}
	.st126{opacity:0.5;fill:url(#SVGID_50_);enable-background:new    ;}
	.st127{opacity:0.4;fill:url(#SVGID_51_);enable-background:new    ;}
	.st128{opacity:0.4;fill:url(#SVGID_52_);enable-background:new    ;}
	.st129{fill:none;stroke:#BA3E05;stroke-width:5.865910e-02;stroke-miterlimit:10;}
	.st130{fill:none;stroke:#BA3E05;stroke-width:4.888259e-02;stroke-miterlimit:10;}
	.st131{fill:none;stroke:#BA3E05;stroke-width:1.681561e-02;stroke-miterlimit:10;}
	.st132{fill:none;stroke:#F87D05;stroke-width:2.309179e-02;stroke-miterlimit:10;}
	.st133{fill:none;stroke:#BA3E05;stroke-width:5.318484e-02;stroke-linecap:round;stroke-miterlimit:10;}
	.st134{fill:none;stroke:#BA3E05;stroke-width:5.318484e-02;stroke-miterlimit:10;}
	.st135{fill:none;stroke:#EFE4D3;stroke-width:0.4263;stroke-miterlimit:10;}
	.st136{fill:none;stroke:#EFE4D3;stroke-width:0.4391;stroke-miterlimit:10;}
	.st137{fill:none;stroke:#EFE4D3;stroke-width:0.4258;stroke-miterlimit:10;}
	.st138{fill:url(#SVGID_53_);}
	.st139{fill:#C1110C;stroke:url(#SVGID_54_);stroke-width:0.3269;stroke-miterlimit:10;}
	.st140{fill:#C1110C;stroke:url(#SVGID_55_);stroke-width:0.3269;stroke-miterlimit:10;}
	.st141{fill:url(#SVGID_56_);}
	.st142{fill:url(#SVGID_57_);}
	.st143{fill:none;stroke:#EFE4D3;stroke-miterlimit:10;}
	.st144{fill:url(#SVGID_58_);}
	.st145{opacity:0.27;clip-path:url(#SVGID_60_);fill:#D3C7B8;}
	.st146{fill:none;stroke:#EFE4D3;stroke-width:1.0207;stroke-miterlimit:10;}
	.st147{fill:none;stroke:#EFE4D3;stroke-width:1.0512;stroke-miterlimit:10;}
	.st148{fill:#D3C7B8;}
	.st149{clip-path:url(#SVGID_64_);fill:#BFB2A3;}
	.st150{fill:none;stroke:#FFF7E9;stroke-width:0.3167;stroke-miterlimit:10;}
	.st151{fill:none;stroke:#FFF7E9;stroke-width:0.2936;stroke-miterlimit:10;}
	.st152{fill:url(#SVGID_65_);}
	.st153{fill:url(#SVGID_66_);}
	.st154{fill:url(#SVGID_67_);}
	.st155{fill:url(#SVGID_68_);}
	.st156{fill:url(#SVGID_69_);}
	.st157{fill:url(#SVGID_70_);}
	.st158{fill:url(#SVGID_71_);}
	.st159{fill:url(#SVGID_72_);}
	.st160{opacity:0.27;clip-path:url(#SVGID_74_);fill:#D3C7B8;}
	.st161{clip-path:url(#SVGID_76_);fill:#BFB2A3;}
	.st162{fill:url(#SVGID_77_);}
	.st163{fill:url(#SVGID_78_);}
	.st164{fill:url(#SVGID_79_);}
	.st165{fill:url(#SVGID_80_);}
	.st166{fill:url(#SVGID_81_);}
	.st167{fill:url(#SVGID_82_);}
	.st168{fill:url(#SVGID_83_);}
	.st169{fill:url(#SVGID_84_);}
	.st170{opacity:0.27;clip-path:url(#SVGID_86_);fill:#D3C7B8;}
	.st171{fill:none;stroke:#EFE4D3;stroke-width:0.3974;stroke-miterlimit:10;}
	.st172{fill:url(#SVGID_87_);}
	.st173{fill:url(#SVGID_88_);}
	.st174{fill:url(#SVGID_89_);}
	.st175{fill:#8C0E0E;}
	.st176{clip-path:url(#SVGID_91_);fill:#8C0E0E;}
	.st177{fill:url(#SVGID_92_);}
	.st178{fill:url(#SVGID_93_);}
	.st179{fill:#540B0B;}
	.st180{fill:url(#SVGID_94_);}
	.st181{fill:url(#SVGID_95_);}
	.st182{fill:url(#SVGID_96_);}
	.st183{clip-path:url(#SVGID_98_);fill:url(#SVGID_99_);}
	.st184{clip-path:url(#SVGID_101_);fill:url(#SVGID_102_);}
	.st185{fill:url(#SVGID_103_);}
	.st186{fill:url(#SVGID_104_);}
	.st187{clip-path:url(#SVGID_106_);fill:url(#SVGID_107_);}
	.st188{clip-path:url(#SVGID_109_);fill:url(#SVGID_110_);}
	.st189{clip-path:url(#SVGID_112_);fill:#8C0E0E;}
	.st190{fill:url(#SVGID_113_);}
	.st191{fill:url(#SVGID_114_);}
	.st192{fill:url(#SVGID_115_);}
	.st193{clip-path:url(#SVGID_117_);fill:url(#SVGID_118_);}
	.st194{clip-path:url(#SVGID_120_);fill:url(#SVGID_121_);}
	.st195{fill:url(#SVGID_122_);}
	.st196{fill:url(#SVGID_123_);}
	.st197{clip-path:url(#SVGID_125_);fill:url(#SVGID_126_);}
	.st198{clip-path:url(#SVGID_128_);fill:url(#SVGID_129_);}
	.st199{fill:none;stroke:#FFFFFF;stroke-width:4;stroke-miterlimit:10;}
	.st200{fill:#FDFDFD;}
	.st201{fill:#FEFEFE;}
	.st202{fill:#FBFBFB;}
	.st203{fill:#FAFAFA;}
	.st204{fill:#F3F3F3;}
	.st205{fill:#F9F9F9;}
	.st206{fill:#F5F5F5;}
	.st207{fill:none;stroke:#FFFFFF;stroke-width:3;stroke-miterlimit:10;}
	.st208{fill:#FFFFFF;stroke:#FFFFFF;stroke-width:3;stroke-miterlimit:10;}
</style>
<g id="Capa_1" class="st0">
	
		<image style="display:inline;overflow:visible;" width="419" height="775" xlink:href="../image.png"  transform="matrix(2.3335 0 0 2.3335 -964.3 -503.623)">
	</image>
</g>
<g id="Capa_3" class="st0">
</g>
<g id="Capa_2">
	<g>
		<path class="st199" d="M283.4,2c85.5,0,170.9,0,256.4,0c3.1,0,6.4,0.1,9.4,0.8c8.9,2.1,15.3,10.3,15.4,19.7
			c0.1,42,0.1,83.9,0,125.9c0,10.5-7.4,18.7-17.8,20.2c-2.3,0.3-4.6,0.4-7,0.4c-170.9,0-341.8,0-512.8,0c-3.5,0-7-0.1-10.4-1.1
			c-9-2.8-14.6-10.8-14.6-21.5C2,105.8,2,65.2,2.1,24.6C2.1,10.2,10.9,2,26.1,2C111.9,2,197.6,2,283.4,2z"/>
		<path class="st200" d="M214,98c2.3,0,4.7,0,7,0c6.3,0,6.4,0.2,6,6.3c-0.9,13.5-9.3,22.6-22.3,24c-14.1,1.5-27.2-7.4-30.7-20.8
			c-3.3-12.6,3.3-26.5,15.4-31.8c9.5-4.1,18.8-3.7,27.5,2.3c1.1,0.8,4.3,1.6,2,3.8c-1.6,1.6-2.4,5.3-6.6,2.7
			c-9.9-6.4-21-4.1-27.2,4.9c-5.8,8.4-4.2,20.2,3.6,26.6c7.8,6.4,19.2,6.1,25.9-0.7c0.9-0.9,1.8-2,2.5-3.1c2.9-5,2.2-6.2-3.5-6.2
			c-2.5,0-5-0.3-7.5,0.1c-4.3,0.6-5.5-1.2-5.1-5.3c0.2-2.2,0.9-2.9,3-2.8C207.3,98.1,210.6,98,214,98z"/>
		<path class="st200" d="M490.8,93.9c8.5-0.6,8.5-0.6,11.5,6.5c2.1,5,4.1,10,6.4,15.8c2.2-5.7,4.1-10.5,5.9-15.3
			c3-7.6,3-7.6,11.8-7.1c-2.7,6.3-5.4,12.5-8.1,18.7c-4,9.1-7.9,18.2-11.9,27.3c-1.2,2.6-5.8,4.2-8.3,3c-0.8-0.4-1-0.8-0.7-1.5
			c0.3-0.8,0.5-1.6,1-2.3c6.8-9.5,5.6-18.7-0.1-28.4C495.3,105.7,493.5,100,490.8,93.9z"/>
		<path class="st201" d="M455.7,101.5c0,7.3-0.2,14.6,0.1,21.9c0.1,3.5-1.3,4-4.3,4c-2.8,0-4.1-0.4-4-3.7c0.2-15.1,0.2-30.2,0-45.3
			c-0.1-3.7,1.8-3.3,4.3-3.5c2.8-0.1,4.2,0.3,4.1,3.7C455.5,86.3,455.7,93.9,455.7,101.5z"/>
		<path class="st202" d="M346.3,101.5c0-7.6,0.2-15.3-0.1-22.9c-0.1-3.4,1.3-3.7,4.1-3.7c2.8,0,4.1,0.4,4.1,3.7
			c-0.2,15.1-0.2,30.2,0,45.3c0.1,3.8-2,3.3-4.4,3.4c-2.6,0.2-3.9-0.4-3.8-3.4C346.5,116.5,346.3,109,346.3,101.5z"/>
		<path class="st203" d="M292.6,47.6c0-4.5,0-9,0-13.5c0-1.5-0.3-3.1,2.1-3.1c2.5-0.1,2,1.7,2,3.1c0,6.3,0.1,12.6,0,19
			c0,1.2,1,3.2-1.4,3.6c-1.9,0.3-3-0.6-4-2.2c-3.2-5.3-6.6-10.5-10.7-17c0,6.3,0.1,11,0,15.8c0,1.4,1.1,3.6-1.9,3.5
			c-2.9-0.1-1.8-2.3-1.9-3.7c-0.1-6.2-0.1-12.3,0-18.5c0-1.3-0.8-3.2,1.6-3.5c1.8-0.2,3.2,0.2,4.2,1.8c2.7,4.4,5.4,8.8,8.2,13.1
			C291,46.6,291,48,292.6,47.6z"/>
		<path class="st203" d="M401.5,37.5c0,6.6,0,11.6,0,16.7c0,1.4,0.2,2.6-1.9,2.6c-2-0.1-2-1.2-2-2.6c0-6.5,0-13,0-19.5
			c0-1.3-0.8-3.2,1.5-3.6c1.8-0.3,3.2,0.1,4.2,1.8c3.1,5,6.3,10,10.2,16.3c0-5.9,0-10.4,0-15c0-1.5-0.4-3.1,2-3.2
			c2.5-0.1,2,1.6,2.1,3c0,6.3,0.1,12.6,0,19c0,1.2,1,3.2-1.3,3.6c-1.9,0.4-3-0.5-4-2.1C409,49.3,405.6,44,401.5,37.5z"/>
		<path class="st204" d="M377.6,44c0-0.5,0-1,0-1.5c0-12.5,0-12.4,12.6-11.6c1.5,0.1,3.2-0.1,3.1,2.2c-0.1,2.3-1.9,1.9-3.3,1.9
			c-1.5,0-3,0.1-4.5,0c-2.7-0.3-4.1,0.2-4.1,3.6c0,3.8,2.1,3.1,4.3,3.4c2.1,0.3,6-1.9,6.1,1.8c0.1,3.8-3.9,1.5-5.9,1.8
			c-2.7,0.3-4.5,0-4.5,3.8c-0.1,4.2,2.2,3.6,4.7,3.6c1.8,0,3.7,0,5.5,0c1.2,0,1.7,0.7,1.8,1.9c0.1,1.3-0.7,1.7-1.8,1.7
			c-4,0-8,0-12,0c-2,0-1.9-1.4-1.9-2.7C377.6,50.7,377.6,47.4,377.6,44z"/>
		<path class="st204" d="M349.6,43.4c0-0.3,0-0.7,0-1c0-12.3,1-13.2,13.3-11.4c1.2,0.2,2.3,0.3,2.4,1.9c0.1,1.8-0.9,2.3-2.5,2.3
			c-1.7,0-3.3,0-5,0c-2.3,0-4.4-0.6-4.4,3.2c-0.1,4,2,3.5,4.5,3.8c2.1,0.3,6-2,5.9,1.9c-0.1,3.5-4,1.5-6.1,1.6c-3,0.1-4.3,0.5-4.3,4
			c0,3.7,2,3.1,4.3,3.5c2.5,0.5,7.3-2.3,7.2,2c0,3.4-4.7,1.4-7.1,1.5c-8.2,0.3-8.2,0.1-8.2-8.3C349.6,46.7,349.6,45,349.6,43.4z"/>
		<path class="st205" d="M215.8,57.6c-3.8-0.2-6.9-1.4-8.7-4.5c-0.7-1.1-1.8-2.5,0.4-3.7c1.8-0.9,2.2,0.1,3,1.2
			c0.7,1.1,1.7,2.1,2.9,2.6c2.4,1,4.8,0.4,6-2c1.1-2.3-0.1-4.1-2.5-5.1c-2.3-0.9-4.7-1.6-6.8-2.9c-2.5-1.6-4-4-3-7.2
			c1.2-3.6,3.7-5.3,7.5-5.4c3.4-0.1,6.2,0.9,8,4c0.4,0.7,0.6,1.5-0.4,2.1c-1,0.6-2,1.3-3.1,0.1c-0.7-0.9-1.4-1.9-2.6-2.1
			c-1.9-0.3-3.8-0.3-4.7,1.8c-0.9,2.2,0.2,3.4,2.2,4.2c1.8,0.7,3.7,1.4,5.5,2.3c3.9,1.9,5.2,5.2,4.1,9.1
			C222.4,55.9,219.2,57.1,215.8,57.6z"/>
		<path class="st206" d="M331.6,43.7c0-3.2,0-6.3,0-9.5c0-1.4-0.4-3.1,2-3.2c2.5-0.1,1.9,1.7,1.9,3.1c0,5,0.2,10-0.1,14.9
			c-0.2,3.3,0.9,4,4.1,4.1c2.3,0.1,6.7-2.2,6.6,2c-0.1,3.4-4.3,1.4-6.6,1.5c-8,0.3-8,0.1-8-7.9C331.6,47,331.6,45.4,331.6,43.7z"/>
		<path class="st207" d="M45.7,137.1c2.4,3.1,5.4,2.3,8.1,0.8c10.7-6,21.7-11.7,32-18.4c0,0,0,0,0,0c10.2-5.1,19.9-10.9,29.7-16.7
			c0,0,0,0,0,0c6.7-3.7,13.4-7.3,19.9-11.2c6.4-3.8,6.4-8.7,0.1-12.5c-6.5-3.9-13.2-7.5-19.9-11.2v0C98.7,58.5,81.8,49,65,39.4
			c-3.6-2.7-7.6-4.9-11.7-6.9c-3.1-1.5-6-1.5-8.2,1.7c0,0,0,0,0,0c0,0,0,0,0,0c0,0,0,0,0,0c0,0,0,0,0,0c-1,1.6-1.4,3.3-1.4,5.1
			c0,8,0.1,16.1,0.2,24.1c-0.1,22.6-0.1,45.1-0.1,67.7C43.6,133.4,43.8,135.6,45.7,137.1"/>
		<path class="st206" d="M305.5,43.6c0,3.7,0,7.3,0,11c0,1.3-0.2,2.2-1.9,2.1c-1.5,0-2.1-0.5-2.1-2c0-7.2,0-14.3,0-21.5
			c0-1.4,0.5-2.1,2-2.2c2.1-0.1,1.9,1.3,1.9,2.6C305.5,37,305.5,40.3,305.5,43.6z"/>
		<path class="st206" d="M202.5,44.5c0,3.3,0,6.7,0,10c0,1.2,0.1,2.3-1.7,2.3c-1.8,0-2.3-0.8-2.2-2.4c0.1-7,0.1-14,0-21
			c0-1.8,0.7-2.4,2.4-2.3c1.9,0,1.6,1.4,1.6,2.5C202.6,37.2,202.5,40.8,202.5,44.5z"/>
		<path class="st200" d="M341.4,97c0-2.6-0.9-4.2-3.3-3.3c-4.4,1.6-8.3,0.3-12.4-1c-1.5-0.4-3.3,0-4.9,0.3
			c-7.1,1.7-11.7,6.3-13.2,13.4c-1.7,7.5,0.5,13.9,6.8,18.5c6.1,4.5,12.6,4.6,19,0c0.6,4.9-0.3,9.1-4.9,11.1
			c-4.6,2-8.9,0.8-11.8-3.5c-2.5-3.7-4.8-0.4-6.7,0.4c-2.9,1.3-0.1,3.1,0.6,4.2c4.3,6.1,11.9,8.4,19.5,6.2c7-2.1,11-7.8,11.2-17
			C341.5,116.6,341.3,106.8,341.4,97z M324.7,121.1c-5.4-0.1-9.7-4.9-9.7-10.6c0.1-5.9,4.3-10.4,9.8-10.5c5.4,0,9.3,4.6,9.2,10.8
			C333.9,116.6,329.8,121.2,324.7,121.1z"/>
		<path class="st200" d="M426.9,75.1c-5.3-0.2-10.7,0.1-16-0.1c-3-0.1-3.6,1-3.5,3.7c0.2,7.5,0.1,15,0.1,22.5c0,7.7,0,15.3,0,23
			c0,1.1-0.7,2.6,1.3,3.2c4.4,1.3,6.8-0.3,6.8-4.8c0-1.5,0-3,0-4.5c0-10.4,0-10.4,10.6-10.5c9.8-0.1,17-6.7,17.2-15.6
			C443.7,82.5,436.9,75.4,426.9,75.1z M427.5,99.9c-11.5,1.5-11.8,1.2-11.8-10.2c0-0.7,0.1-1.3,0-2c-0.9-4.6,1.2-5.9,5.4-5.2
			c0.6,0.1,1.3,0,2,0c1.3,0,2.7-0.1,4,0c4.9,0.4,8.5,4.1,8.5,8.7C435.5,95.7,432.2,99.3,427.5,99.9z"/>
		<path class="st200" d="M490.4,123.4c0.1-5.6,0.1-11.3,0-17c-0.1-6.6-3.8-11.2-10.2-13.1c-7.1-2-14.8-0.1-18.1,4.7
			c-0.6,0.8-2.1,2.4-0.6,2.8c2.4,0.8,4.3,4.1,7.8,1c4.8-4.2,11.4-1.9,13.2,4.5c-5.3-2-10.4-2.2-15.5,0c-4.7,2.1-7.5,5.5-7.3,10.8
			c0.1,4.9,3.4,8.8,8.6,10.4c4.2,1.3,8.2,0.9,11.9-1.5c0.9-0.6,1.6-2.8,2.8,0.3c0.9,2.3,4.2,1,6.3,0.8
			C491.4,126.9,490.4,124.7,490.4,123.4z M473.4,121c-2.6-0.2-5.9-0.7-5.6-4.4c0.4-4.4,4.2-5.1,7.9-5.1c2.6,0,5.7-0.4,6.6,2.6
			C483.1,116.8,477.7,121,473.4,121z"/>
		<path class="st200" d="M286.1,92.7c-10.1,0-17.6,7.5-17.7,17.5c-0.1,10.4,7.3,18,17.6,18.1c10.2,0.1,18.1-7.6,18.1-17.7
			C304.1,100.4,296.3,92.6,286.1,92.7z M285.7,121.1c-5.3-0.3-9.4-5.1-9.3-10.9c0.1-5.9,4.4-10.3,9.9-10.2c5.5,0.1,9.7,4.8,9.7,10.6
			C295.9,116.5,291.1,121.4,285.7,121.1z"/>
		<path class="st200" d="M247.7,92.7c-10.3-0.2-18.2,7.4-18.4,17.5c-0.2,10.2,7.5,18,17.7,18.1c10.2,0.1,18.2-7.7,18.2-17.8
			C265.4,100.8,257.6,92.8,247.7,92.7z M247.2,121.1c-5.3,0-9.7-4.7-9.7-10.5c0-6,4.1-10.5,9.6-10.6c5.4-0.1,9.9,4.4,10.1,10.2
			C257.4,116,252.8,121.1,247.2,121.1z"/>
		<path class="st200" d="M389.1,119.5c-1.7-1.4-3.4-4.7-6.9-1.3c-4.8,4.8-10.7,3.6-14.6-2.2c0.2-0.2,0.4-0.4,0.7-0.6
			c5.1-2.1,10.1-4.1,15.2-6.2c8.1-3.3,8.5-6,1.9-12.4c-1.7-1.6-3.7-2.8-5.9-3.5c-7.6-2.4-15.8,1-19.5,8.1c-4.1,7.8-2.1,18,4.4,23.1
			c6.7,5.2,16.8,5,22.9-0.7C388.4,122.9,391.9,121.8,389.1,119.5z M372.8,100.2c3.5-1.2,6,0.2,8.8,3c-5.3,2.2-10.2,4.3-15.8,6.7
			C366.4,104.6,368.6,101.6,372.8,100.2z"/>
		<path class="st203" d="M259.9,30.6c-7.9-0.1-13.3,5.3-13.3,13.3c0,8,5.3,13.5,13.1,13.6c7.6,0,13.4-5.9,13.3-13.6
			C273,36.4,267.3,30.7,259.9,30.6z M259.7,53.6c-5.1,0-9.3-4.4-9.2-9.7c0.1-5.2,4-9.3,9-9.4c5.4-0.1,9.3,3.8,9.3,9.4
			C268.8,49.5,264.9,53.6,259.7,53.6z"/>
		<path class="st202" d="M327.2,45.4c-0.6-0.9-2.3-1.3-0.9-3.2c2.2-3,2-6.2-0.6-9c-1.8-1.9-11.7-3.5-13.9-2
			c-2.4,1.7-0.8,4.6-1.1,6.9c-0.2,1.8,0,3.7,0,5.5c0,1,0,2,0,3c0,11.5,0,11.5,11.5,10C327.6,55.9,330.3,50.1,327.2,45.4z M318.2,35
			c2.5,0.1,5.1,0.1,5.2,3.2c0.1,3.5-2.6,3.7-5.3,3.4c-2.7,0.7-3.7-0.2-3.8-3.2C314.3,35.2,315.7,34.9,318.2,35z M317.8,53.1
			c-3.8,0.4-3.1-2-3.4-4.3c-0.5-3.7,1.8-3.5,4.1-3.3c3.1-0.4,5.8,0.6,5.7,3.9C324.1,53.2,320.7,52.9,317.8,53.1z"/>
		<path class="st203" d="M194.4,40.4c-1.2-6.8-8.2-10.7-18-9.2c-6.3,1-1.3,6.5-2.8,9.7c-0.4,0.8-0.1,2-0.1,3c0,3.2,0.1,6.3,0,9.5
			c-0.1,2.5,0.4,3.8,3.2,3.4c1.5-0.2,3-0.2,4.5,0C189.6,57.6,196.4,51.6,194.4,40.4z M189.7,48.6c-1.8,3.3-7.1,5.4-10.8,4.4
			c-1.4-0.4-1.4-1.2-1.4-2.2c0-2.3,0-4.6,0-6.9c0-1-0.2-2,0-3c0.4-1.9-1.4-4.9,1.1-5.6c2.9-0.8,6.2-0.6,8.9,1.5
			C190.9,39.5,191.8,44.8,189.7,48.6z"/>
		<path class="st205" d="M232.1,30.9c-6.3-0.3-4.3,3.8-4.5,6.8c-0.1,2,0,4,0,6c0,3.7,0,7.3,0,11c0,1.4,0.5,2.1,2,2.1
			c1.6,0,2-0.7,1.9-2.1c-0.1-0.8,0.1-1.7,0-2.5c-0.5-3.9,0.2-6.1,5.1-5.7c5.2,0.4,8.2-3,8.1-7.8C244.6,33.1,241,31.3,232.1,30.9z
			 M234.6,42.8c-2.5,0.7-3.4-0.6-3.2-3.4c0.2-2.2-0.7-4.8,3.2-4.4c2.7,0.3,5.7,0,5.8,3.8C240.7,42.5,237.9,42.8,234.6,42.8z"/>
		<line class="st207" x1="47" y1="137.6" x2="114.6" y2="66.6"/>
		<line class="st208" x1="45.1" y1="33.6" x2="114.6" y2="104.1"/>
	</g>
</g>
</svg>
