<svg version="1.2" xmlns="http://www.w3.org/2000/svg" viewBox="0 0 96 86" width="96" height="86"><defs><linearGradient id="P" gradientUnits="userSpaceOnUse"/><linearGradient id="g1" x2="1" href="#P" gradientTransform="matrix(-11.35,4.291,-13.941,-36.873,68.957,18.326)"><stop stop-color="#d13f05"/><stop offset=".29" stop-color="#f67205"/><stop offset=".37" stop-color="#f67705"/><stop offset=".45" stop-color="#f68505"/><stop offset=".54" stop-color="#f69c05"/><stop offset=".56" stop-color="#f6a205"/><stop offset=".6" stop-color="#f69005"/><stop offset=".64" stop-color="#f67f05"/><stop offset=".69" stop-color="#f67505"/><stop offset=".76" stop-color="#f67205"/><stop offset="1" stop-color="#d13f05"/></linearGradient><linearGradient id="g2" x2="1" href="#P" gradientTransform="matrix(-11.349,4.293,-6.858,-18.131,68.747,17.772)"><stop stop-color="#d13f05"/><stop offset=".29" stop-color="#f67205"/><stop offset=".37" stop-color="#f67705"/><stop offset=".45" stop-color="#f68505"/><stop offset=".54" stop-color="#f69c05"/><stop offset=".56" stop-color="#f6a205"/><stop offset=".6" stop-color="#f69005"/><stop offset=".64" stop-color="#f67f05"/><stop offset=".69" stop-color="#f67505"/><stop offset=".76" stop-color="#f67205"/><stop offset="1" stop-color="#d13f05"/></linearGradient><linearGradient id="g3" x2="1" href="#P" gradientTransform="matrix(-11.35,4.291,-2.104,-5.565,68.087,16.026)"><stop stop-color="#d13f05"/><stop offset=".29" stop-color="#f67205"/><stop offset=".37" stop-color="#f67705"/><stop offset=".45" stop-color="#f68505"/><stop offset=".54" stop-color="#f69c05"/><stop offset=".56" stop-color="#f6a205"/><stop offset=".6" stop-color="#f69005"/><stop offset=".64" stop-color="#f67f05"/><stop offset=".69" stop-color="#f67505"/><stop offset=".76" stop-color="#f67205"/><stop offset="1" stop-color="#d13f05"/></linearGradient><linearGradient id="g4" x2="1" href="#P" gradientTransform="matrix(-12.34,4.224,-3.586,-10.475,69.987,20.616)"><stop stop-color="#fff" stop-opacity="0"/><stop offset=".26" stop-color="#fff" stop-opacity="1"/><stop offset=".76" stop-color="#fff" stop-opacity="1"/><stop offset="1" stop-color="#fff" stop-opacity="0"/></linearGradient><linearGradient id="g5" x2="1" href="#P" gradientTransform="matrix(8.203,7.471,-8.145,8.943,60.76,19.94)"><stop stop-color="#ffaf02"/><stop offset="1" stop-color="#f56d05"/></linearGradient><linearGradient id="g6" x2="1" href="#P" gradientTransform="matrix(-3.744,-7.351,8.592,-4.376,66.272,27.357)"><stop stop-color="#fff" stop-opacity="0"/><stop offset=".26" stop-color="#fff" stop-opacity="1"/><stop offset=".76" stop-color="#fff" stop-opacity="1"/><stop offset="1" stop-color="#fff" stop-opacity="0"/></linearGradient><linearGradient id="g7" x2="1" href="#P" gradientTransform="matrix(-7.637,-2.745,2.652,-7.379,67.702,24.165)"><stop stop-color="#ffaf02"/><stop offset="1" stop-color="#f56d05"/></linearGradient><radialGradient id="g8" cx="0" cy="0" r="1" href="#P" gradientTransform="matrix(-0.127,-0.275,.275,-0.127,60.022,14.371)"><stop stop-color="#fff" stop-opacity="1"/><stop offset=".09" stop-color="#fff" stop-opacity=".96"/><stop offset=".24" stop-color="#fff" stop-opacity=".85"/><stop offset=".43" stop-color="#fff" stop-opacity=".66"/><stop offset=".66" stop-color="#fff" stop-opacity=".41"/><stop offset=".93" stop-color="#fff" stop-opacity=".09"/><stop offset="1" stop-color="#fff" stop-opacity="0"/></radialGradient><linearGradient id="g9" x2="1" href="#P" gradientTransform="matrix(-2.054,-5.31,18.903,-7.312,64.636,24.727)"><stop stop-color="#fff" stop-opacity="1"/><stop offset="1" stop-color="#fff" stop-opacity="0"/></linearGradient><linearGradient id="g10" x2="1" href="#P" gradientTransform="matrix(-1.201,-2.541,10.85,-5.127,65.966,27.335)"><stop stop-color="#fff" stop-opacity="1"/><stop offset="1" stop-color="#fff" stop-opacity="0"/></linearGradient><linearGradient id="g11" x2="1" href="#P" gradientTransform="matrix(-2.808,-9.511,30.865,-9.112,80.445,24.804)"><stop stop-color="#d13f05"/><stop offset=".29" stop-color="#f67205"/><stop offset=".37" stop-color="#f67705"/><stop offset=".45" stop-color="#f68505"/><stop offset=".54" stop-color="#f69c05"/><stop offset=".56" stop-color="#f6a205"/><stop offset=".6" stop-color="#f69005"/><stop offset=".64" stop-color="#f67f05"/><stop offset=".69" stop-color="#f67505"/><stop offset=".76" stop-color="#f67205"/><stop offset="1" stop-color="#d13f05"/></linearGradient><linearGradient id="g12" x2="1" href="#P" gradientTransform="matrix(-2.809,-9.51,15.239,-4.502,80.91,24.666)"><stop stop-color="#d13f05"/><stop offset=".29" stop-color="#f67205"/><stop offset=".37" stop-color="#f67705"/><stop offset=".45" stop-color="#f68505"/><stop offset=".54" stop-color="#f69c05"/><stop offset=".56" stop-color="#f6a205"/><stop offset=".6" stop-color="#f69005"/><stop offset=".64" stop-color="#f67f05"/><stop offset=".69" stop-color="#f67505"/><stop offset=".76" stop-color="#f67205"/><stop offset="1" stop-color="#d13f05"/></linearGradient><linearGradient id="g13" x2="1" href="#P" gradientTransform="matrix(-2.808,-9.511,4.659,-1.375,82.373,24.235)"><stop stop-color="#d13f05"/><stop offset=".29" stop-color="#f67205"/><stop offset=".37" stop-color="#f67705"/><stop offset=".45" stop-color="#f68505"/><stop offset=".54" stop-color="#f69c05"/><stop offset=".56" stop-color="#f6a205"/><stop offset=".6" stop-color="#f69005"/><stop offset=".64" stop-color="#f67f05"/><stop offset=".69" stop-color="#f67505"/><stop offset=".76" stop-color="#f67205"/><stop offset="1" stop-color="#d13f05"/></linearGradient><linearGradient id="g14" x2="1" href="#P" gradientTransform="matrix(-2.693,-10.313,8.775,-2.291,78.516,25.504)"><stop stop-color="#fff" stop-opacity="0"/><stop offset=".26" stop-color="#fff" stop-opacity="1"/><stop offset=".76" stop-color="#fff" stop-opacity="1"/><stop offset="1" stop-color="#fff" stop-opacity="0"/></linearGradient><linearGradient id="g15" x2="1" href="#P" gradientTransform="matrix(-6.587,6.231,-6.788,-7.175,79.628,18.025)"><stop stop-color="#ffaf02"/><stop offset="1" stop-color="#f56d05"/></linearGradient><linearGradient id="g16" x2="1" href="#P" gradientTransform="matrix(6.218,-2.605,3.044,7.267,73.248,22.066)"><stop stop-color="#fff" stop-opacity="0"/><stop offset=".26" stop-color="#fff" stop-opacity="1"/><stop offset=".76" stop-color="#fff" stop-opacity="1"/><stop offset="1" stop-color="#fff" stop-opacity="0"/></linearGradient><linearGradient id="g17" x2="1" href="#P" gradientTransform="matrix(2.701,-6.057,5.858,2.612,75.763,23.426)"><stop stop-color="#ffaf02"/><stop offset="1" stop-color="#f56d05"/></linearGradient><radialGradient id="g18" cx="0" cy="0" r="1" href="#P" gradientTransform="matrix(.232,-0.087,.087,.232,84.215,17.812)"><stop stop-color="#fff" stop-opacity="1"/><stop offset=".09" stop-color="#fff" stop-opacity=".96"/><stop offset=".24" stop-color="#fff" stop-opacity=".85"/><stop offset=".43" stop-color="#fff" stop-opacity=".66"/><stop offset=".66" stop-color="#fff" stop-opacity=".41"/><stop offset=".93" stop-color="#fff" stop-opacity=".09"/><stop offset="1" stop-color="#fff" stop-opacity="0"/></radialGradient><linearGradient id="g19" x2="1" href="#P" gradientTransform="matrix(4.453,-1.351,4.829,15.908,75.491,20.893)"><stop stop-color="#fff" stop-opacity="1"/><stop offset="1" stop-color="#fff" stop-opacity="0"/></linearGradient><linearGradient id="g20" x2="1" href="#P" gradientTransform="matrix(2.144,-0.824,3.514,9.139,73.285,21.819)"><stop stop-color="#fff" stop-opacity="1"/><stop offset="1" stop-color="#fff" stop-opacity="0"/></linearGradient><linearGradient id="g21" x2="1" href="#P" gradientTransform="matrix(15.953,-4.274,13.86,51.729,59.535,79.978)"><stop stop-color="#d13f05"/><stop offset=".29" stop-color="#f67205"/><stop offset=".37" stop-color="#f67705"/><stop offset=".45" stop-color="#f68505"/><stop offset=".54" stop-color="#f69c05"/><stop offset=".56" stop-color="#f6a205"/><stop offset=".6" stop-color="#f69005"/><stop offset=".64" stop-color="#f67f05"/><stop offset=".69" stop-color="#f67505"/><stop offset=".76" stop-color="#f67205"/><stop offset="1" stop-color="#d13f05"/></linearGradient><linearGradient id="g22" x2="1" href="#P" gradientTransform="matrix(15.952,-4.277,6.826,25.459,59.745,80.757)"><stop stop-color="#d13f05"/><stop offset=".29" stop-color="#f67205"/><stop offset=".37" stop-color="#f67705"/><stop offset=".45" stop-color="#f68505"/><stop offset=".54" stop-color="#f69c05"/><stop offset=".56" stop-color="#f6a205"/><stop offset=".6" stop-color="#f69005"/><stop offset=".64" stop-color="#f67f05"/><stop offset=".69" stop-color="#f67505"/><stop offset=".76" stop-color="#f67205"/><stop offset="1" stop-color="#d13f05"/></linearGradient><linearGradient id="g23" x2="1" href="#P" gradientTransform="matrix(15.953,-4.275,2.094,7.816,60.402,83.211)"><stop stop-color="#d13f05"/><stop offset=".29" stop-color="#f67205"/><stop offset=".37" stop-color="#f67705"/><stop offset=".45" stop-color="#f68505"/><stop offset=".54" stop-color="#f69c05"/><stop offset=".56" stop-color="#f6a205"/><stop offset=".6" stop-color="#f69005"/><stop offset=".64" stop-color="#f67f05"/><stop offset=".69" stop-color="#f67505"/><stop offset=".76" stop-color="#f67205"/><stop offset="1" stop-color="#d13f05"/></linearGradient><linearGradient id="g24" x2="1" href="#P" gradientTransform="matrix(17.284,-4.049,3.438,14.675,58.45,76.737)"><stop stop-color="#fff" stop-opacity="0"/><stop offset=".26" stop-color="#fff" stop-opacity="1"/><stop offset=".76" stop-color="#fff" stop-opacity="1"/><stop offset="1" stop-color="#fff" stop-opacity="0"/></linearGradient><linearGradient id="g25" x2="1" href="#P" gradientTransform="matrix(-10.097,-11.229,12.24,-11.006,70.856,78.903)"><stop stop-color="#ffaf02"/><stop offset="1" stop-color="#f56d05"/></linearGradient><linearGradient id="g26" x2="1" href="#P" gradientTransform="matrix(4.075,10.463,-12.228,4.763,64.396,68.11)"><stop stop-color="#fff" stop-opacity="0"/><stop offset=".26" stop-color="#fff" stop-opacity="1"/><stop offset=".76" stop-color="#fff" stop-opacity="1"/><stop offset="1" stop-color="#fff" stop-opacity="0"/></linearGradient><linearGradient id="g27" x2="1" href="#P" gradientTransform="matrix(9.972,4.752,-4.59,9.633,62.026,72.24)"><stop stop-color="#ffaf02"/><stop offset="1" stop-color="#f56d05"/></linearGradient><radialGradient id="g28" cx="0" cy="0" r="1" href="#P" gradientTransform="matrix(.135,.39,-0.39,.135,71.065,86.447)"><stop stop-color="#fff" stop-opacity="1"/><stop offset=".09" stop-color="#fff" stop-opacity=".96"/><stop offset=".24" stop-color="#fff" stop-opacity=".85"/><stop offset=".43" stop-color="#fff" stop-opacity=".66"/><stop offset=".66" stop-color="#fff" stop-opacity=".41"/><stop offset=".93" stop-color="#fff" stop-opacity=".09"/><stop offset="1" stop-color="#fff" stop-opacity="0"/></radialGradient><linearGradient id="g29" x2="1" href="#P" gradientTransform="matrix(2.063,7.47,-26.741,7.384,66.254,71.894)"><stop stop-color="#fff" stop-opacity="1"/><stop offset="1" stop-color="#fff" stop-opacity="0"/></linearGradient><linearGradient id="g30" x2="1" href="#P" gradientTransform="matrix(1.282,3.604,-15.394,5.476,64.807,68.182)"><stop stop-color="#fff" stop-opacity="1"/><stop offset="1" stop-color="#fff" stop-opacity="0"/></linearGradient><linearGradient id="g31" x2="1" href="#P" gradientTransform="matrix(-6.001,10.546,-34.024,-19.359,74.629,30.131)"><stop stop-color="#d13f05"/><stop offset=".29" stop-color="#f67205"/><stop offset=".37" stop-color="#f67705"/><stop offset=".45" stop-color="#f68505"/><stop offset=".54" stop-color="#f69c05"/><stop offset=".56" stop-color="#f6a205"/><stop offset=".6" stop-color="#f69005"/><stop offset=".64" stop-color="#f67f05"/><stop offset=".69" stop-color="#f67505"/><stop offset=".76" stop-color="#f67205"/><stop offset="1" stop-color="#d13f05"/></linearGradient><linearGradient id="g32" x2="1" href="#P" gradientTransform="matrix(-5.999,10.547,-16.835,-9.575,74.114,29.839)"><stop stop-color="#d13f05"/><stop offset=".29" stop-color="#f67205"/><stop offset=".37" stop-color="#f67705"/><stop offset=".45" stop-color="#f68505"/><stop offset=".54" stop-color="#f69c05"/><stop offset=".56" stop-color="#f6a205"/><stop offset=".6" stop-color="#f69005"/><stop offset=".64" stop-color="#f67f05"/><stop offset=".69" stop-color="#f67505"/><stop offset=".76" stop-color="#f67205"/><stop offset="1" stop-color="#d13f05"/></linearGradient><linearGradient id="g33" x2="1" href="#P" gradientTransform="matrix(-6.001,10.546,-5.152,-2.931,72.492,28.916)"><stop stop-color="#d13f05"/><stop offset=".29" stop-color="#f67205"/><stop offset=".37" stop-color="#f67705"/><stop offset=".45" stop-color="#f68505"/><stop offset=".54" stop-color="#f69c05"/><stop offset=".56" stop-color="#f6a205"/><stop offset=".6" stop-color="#f69005"/><stop offset=".64" stop-color="#f67f05"/><stop offset=".69" stop-color="#f67505"/><stop offset=".76" stop-color="#f67205"/><stop offset="1" stop-color="#d13f05"/></linearGradient><linearGradient id="g34" x2="1" href="#P" gradientTransform="matrix(-6.806,11.126,-9.448,-5.779,76.884,31.238)"><stop stop-color="#fff" stop-opacity="0"/><stop offset=".26" stop-color="#fff" stop-opacity="1"/><stop offset=".76" stop-color="#fff" stop-opacity="1"/><stop offset="1" stop-color="#fff" stop-opacity="0"/></linearGradient><linearGradient id="g35" x2="1" href="#P" gradientTransform="matrix(11.083,.518,-0.565,12.078,69.348,36.605)"><stop stop-color="#ffaf02"/><stop offset="1" stop-color="#f56d05"/></linearGradient><linearGradient id="g36" x2="1" href="#P" gradientTransform="matrix(-7.574,-3.271,3.828,-8.863,78.324,38.799)"><stop stop-color="#fff" stop-opacity="0"/><stop offset=".26" stop-color="#fff" stop-opacity="1"/><stop offset=".76" stop-color="#fff" stop-opacity="1"/><stop offset="1" stop-color="#fff" stop-opacity="0"/></linearGradient><linearGradient id="g37" x2="1" href="#P" gradientTransform="matrix(-7.632,2.76,-2.668,-7.377,77.389,35.428)"><stop stop-color="#ffaf02"/><stop offset="1" stop-color="#f56d05"/></linearGradient><radialGradient id="g38" cx="0" cy="0" r="1" href="#P" gradientTransform="matrix(-0.273,-0.131,.131,-0.273,65.182,32.762)"><stop stop-color="#fff" stop-opacity="1"/><stop offset=".09" stop-color="#fff" stop-opacity=".96"/><stop offset=".24" stop-color="#fff" stop-opacity=".85"/><stop offset=".43" stop-color="#fff" stop-opacity=".66"/><stop offset=".66" stop-color="#fff" stop-opacity=".41"/><stop offset=".93" stop-color="#fff" stop-opacity=".09"/><stop offset="1" stop-color="#fff" stop-opacity="0"/></radialGradient><linearGradient id="g39" x2="1" href="#P" gradientTransform="matrix(-4.97,-2.778,9.899,-17.71,75.387,37.817)"><stop stop-color="#fff" stop-opacity="1"/><stop offset="1" stop-color="#fff" stop-opacity="0"/></linearGradient><linearGradient id="g40" x2="1" href="#P" gradientTransform="matrix(-2.546,-1.19,5.066,-10.838,78.075,38.977)"><stop stop-color="#fff" stop-opacity="1"/><stop offset="1" stop-color="#fff" stop-opacity="0"/></linearGradient><linearGradient id="g41" x2="1" href="#P" gradientTransform="matrix(19.483,0,0,9.294,51.005,47.166)"><stop offset=".08" stop-color="#f29d7b"/><stop offset=".1" stop-color="#e9948d"/><stop offset=".15" stop-color="#d57eb8"/><stop offset=".2" stop-color="#c66ed7"/><stop offset=".23" stop-color="#bd64e9"/><stop offset=".26" stop-color="#ba61f0"/><stop offset="1" stop-color="#1dc1b4"/></linearGradient><linearGradient id="g42" x2="1" href="#P" gradientTransform="matrix(7.346,0,0,14.205,57.378,35.136)"><stop offset=".08" stop-color="#f29d7b"/><stop offset=".1" stop-color="#e9948d"/><stop offset=".15" stop-color="#d57eb8"/><stop offset=".2" stop-color="#c66ed7"/><stop offset=".23" stop-color="#bd64e9"/><stop offset=".26" stop-color="#ba61f0"/><stop offset="1" stop-color="#1dc1b4"/></linearGradient><linearGradient id="g43" x2="1" href="#P" gradientTransform="matrix(6.015,-5.133,16.644,19.503,56.056,82.019)"><stop stop-color="#d13f05"/><stop offset=".29" stop-color="#f67205"/><stop offset=".37" stop-color="#f67705"/><stop offset=".45" stop-color="#f68505"/><stop offset=".54" stop-color="#f69c05"/><stop offset=".56" stop-color="#f6a205"/><stop offset=".6" stop-color="#f69005"/><stop offset=".64" stop-color="#f67f05"/><stop offset=".69" stop-color="#f67505"/><stop offset=".76" stop-color="#f67205"/><stop offset="1" stop-color="#d13f05"/></linearGradient><linearGradient id="g44" x2="1" href="#P" gradientTransform="matrix(6.014,-5.134,8.239,9.651,56.308,82.313)"><stop stop-color="#d13f05"/><stop offset=".29" stop-color="#f67205"/><stop offset=".37" stop-color="#f67705"/><stop offset=".45" stop-color="#f68505"/><stop offset=".54" stop-color="#f69c05"/><stop offset=".56" stop-color="#f6a205"/><stop offset=".6" stop-color="#f69005"/><stop offset=".64" stop-color="#f67f05"/><stop offset=".69" stop-color="#f67505"/><stop offset=".76" stop-color="#f67205"/><stop offset="1" stop-color="#d13f05"/></linearGradient><linearGradient id="g45" x2="1" href="#P" gradientTransform="matrix(6.015,-5.133,2.524,2.958,57.097,83.238)"><stop stop-color="#d13f05"/><stop offset=".29" stop-color="#f67205"/><stop offset=".37" stop-color="#f67705"/><stop offset=".45" stop-color="#f68505"/><stop offset=".54" stop-color="#f69c05"/><stop offset=".56" stop-color="#f6a205"/><stop offset=".6" stop-color="#f69005"/><stop offset=".64" stop-color="#f67f05"/><stop offset=".69" stop-color="#f67505"/><stop offset=".76" stop-color="#f67205"/><stop offset="1" stop-color="#d13f05"/></linearGradient><linearGradient id="g46" x2="1" href="#P" gradientTransform="matrix(6.637,-5.31,4.509,5.635,54.92,80.842)"><stop stop-color="#fff" stop-opacity="0"/><stop offset=".26" stop-color="#fff" stop-opacity="1"/><stop offset=".76" stop-color="#fff" stop-opacity="1"/><stop offset="1" stop-color="#fff" stop-opacity="0"/></linearGradient><linearGradient id="g47" x2="1" href="#P" gradientTransform="matrix(-6.677,-2.774,3.031,-7.296,60.728,79.223)"><stop stop-color="#ffaf02"/><stop offset="1" stop-color="#f56d05"/></linearGradient><linearGradient id="g48" x2="1" href="#P" gradientTransform="matrix(3.916,3.683,-4.302,4.575,55.713,75.889)"><stop stop-color="#fff" stop-opacity="0"/><stop offset=".26" stop-color="#fff" stop-opacity="1"/><stop offset=".76" stop-color="#fff" stop-opacity="1"/><stop offset="1" stop-color="#fff" stop-opacity="0"/></linearGradient><linearGradient id="g49" x2="1" href="#P" gradientTransform="matrix(5.289,0,0,5.104,55.539,78.162)"><stop stop-color="#ffaf02"/><stop offset="1" stop-color="#f56d05"/></linearGradient><radialGradient id="g50" cx="0" cy="0" r="1" href="#P" gradientTransform="matrix(.138,.141,-0.141,.138,62.397,82.465)"><stop stop-color="#fff" stop-opacity="1"/><stop offset=".09" stop-color="#fff" stop-opacity=".96"/><stop offset=".24" stop-color="#fff" stop-opacity=".85"/><stop offset=".43" stop-color="#fff" stop-opacity=".66"/><stop offset=".66" stop-color="#fff" stop-opacity=".41"/><stop offset=".93" stop-color="#fff" stop-opacity=".09"/><stop offset="1" stop-color="#fff" stop-opacity="0"/></radialGradient><linearGradient id="g51" x2="1" href="#P" gradientTransform="matrix(2.43,2.804,-9.978,8.647,57.296,77.141)"><stop stop-color="#fff" stop-opacity="1"/><stop offset="1" stop-color="#fff" stop-opacity="0"/></linearGradient><linearGradient id="g52" x2="1" href="#P" gradientTransform="matrix(1.296,1.294,-5.515,5.526,55.906,75.835)"><stop stop-color="#fff" stop-opacity="1"/><stop offset="1" stop-color="#fff" stop-opacity="0"/></linearGradient></defs><style>.a{opacity:.1}.b{fill:#d84905}.c{fill:url(#g1)}.d{fill:#f67205}.e{fill:url(#g2)}.f{fill:#f69d05}.g{fill:url(#g3)}.h{opacity:.7;fill:url(#g4)}.i{fill:url(#g5)}.j{opacity:.7;fill:url(#g6)}.k{fill:url(#g7)}.l{fill:#ba3e05}.m{opacity:.5;fill:url(#g8)}.n{opacity:.4;fill:url(#g9)}.o{opacity:.4;fill:url(#g10)}.p{fill:#f87d05}.q{fill:#ffb803}.r{fill:#f87e05}.s{fill:#feb903}.t{fill:none;stroke:#ba3e05;stroke-miterlimit:10;stroke-width:.4}.u{fill:#f87f05}.v{fill:#c16408}.w{fill:none;stroke:#ba3e05;stroke-linecap:round;stroke-miterlimit:10;stroke-width:.4}.x{fill:url(#g11)}.y{fill:url(#g12)}.z{fill:url(#g13)}.A{opacity:.7;fill:url(#g14)}.B{fill:url(#g15)}.C{opacity:.7;fill:url(#g16)}.D{fill:url(#g17)}.E{opacity:.5;fill:url(#g18)}.F{opacity:.4;fill:url(#g19)}.G{opacity:.4;fill:url(#g20)}.H{fill:#ff923b}.I{fill:#521a93}.J{fill:#743cc6}.K{fill:#30115b}.L{fill:#ffb612}.M{fill:#ff9c09}.N{fill:#3f1975}.O{fill:#d8720c}.P{fill:#d86206}.Q{fill:#d38f07}.R{fill:#c16f03}.S{fill:#e98e09}.T{fill:#ff7b8e}.U{fill:#ff997a}.V{fill:#ffcf71}.W{fill:#ffbe6b}.X{fill:url(#g21)}.Y{fill:url(#g22)}.Z{fill:url(#g23)}.a0{opacity:.7;fill:url(#g24)}.a1{fill:url(#g25)}.a2{opacity:.7;fill:url(#g26)}.a3{fill:url(#g27)}.a4{opacity:.5;fill:url(#g28)}.a5{opacity:.4;fill:url(#g29)}.a6{opacity:.4;fill:url(#g30)}.a7{fill:url(#g31)}.a8{fill:url(#g32)}.a9{fill:url(#g33)}.aa{opacity:.7;fill:url(#g34)}.ab{fill:url(#g35)}.ac{opacity:.7;fill:url(#g36)}.ad{fill:url(#g37)}.ae{opacity:.5;fill:url(#g38)}.af{opacity:.4;fill:url(#g39)}.ag{opacity:.4;fill:url(#g40)}.ah{fill:none;stroke:url(#g41);stroke-linecap:round;stroke-linejoin:round;stroke-width:2.2}.ai{fill:none;stroke:url(#g42);stroke-linecap:round;stroke-linejoin:round;stroke-width:2.2}.aj{fill:url(#g43)}.ak{fill:url(#g44)}.al{fill:url(#g45)}.am{opacity:.7;fill:url(#g46)}.an{fill:url(#g47)}.ao{opacity:.7;fill:url(#g48)}.ap{fill:url(#g49)}.aq{opacity:.5;fill:url(#g50)}.ar{opacity:.4;fill:url(#g51)}.as{opacity:.4;fill:url(#g52)}</style><path fill-rule="evenodd" class="a" d="m48.1 84.8c-17.5 0-31.7-1.6-31.7-3.4 0-1.9 14.2-3.4 31.7-3.4 17.6 0 31.7 1.5 31.7 3.4 0 1.8-14.1 3.4-31.7 3.4z"/><path class="b" d="m69.3 21.2l-0.4-1.3 0.4 0.2 0.3 1.3z"/><path class="c" d="m58.2 24.4l-0.3-1.3c-0.3-0.9-0.3-1.9 0.1-2.8l0.4 1.3c-0.4 0.9-0.4 1.9-0.2 2.8z"/><path class="d" d="m58.4 21.6l-0.4-1.3 0.5-0.1 0.4 1.3z"/><path class="b" d="m64.1 17.8l-0.4-1.3 0.3-0.2 0.3 1.3z"/><path class="e" d="m64.3 17.6l-0.3-1.3c1.2-0.1 2.4 0.3 3.5 1 0.7 0.5 1.2 1.2 1.6 2l0.3 1.4c-0.3-0.8-0.8-1.5-1.6-2.1-1-0.7-2.2-1-3.5-1z"/><path class="f" d="m63.8 17.6l-0.4-1.3 0.3 0.2 0.4 1.3z"/><path class="g" d="m58.5 21.3l-0.4-1.4q0.4-0.9 1.1-1.6c1.2-1.1 2.7-1.9 4.3-2l0.3 1.3c-1.5 0.2-3 0.9-4.2 2q-0.7 0.8-1.1 1.6z"/><path class="h" d="m58.5 21.2q0.4-0.9 1.1-1.6c1.1-1.2 2.6-1.9 4.2-2l0.3 0.1 0.2-0.2c1.3 0 2.5 0.3 3.5 1.1 0.7 0.5 1.3 1.2 1.6 2l-0.2 0.5 0.4 0.2c0.3 1.5-0.2 3.1-1.5 4.4q-0.5 0.6-1.2 1-0.3 0-0.6 0.1l-0.2 0.3c-1.7 0.8-3.7 0.9-5.4 0.1l-0.2-0.4-1-0.4c-1.4-1.3-1.8-3.1-1.2-4.8l0.5-0.2z"/><path class="i" d="m58.5 21.3q0.4-0.9 1.1-1.6c1.2-1.2 2.7-1.9 4.2-2.1l0.3 0.2 0.3-0.2c1.2 0 2.4 0.3 3.4 1 0.8 0.5 1.3 1.3 1.6 2.1l-0.1 0.5 0.3 0.2c0.3 1.5-0.2 3.1-1.4 4.4q-0.6 0.6-1.3 1-0.2 0-0.5 0.1l-0.2 0.3c-1.8 0.8-3.8 0.9-5.4 0.1l-0.3-0.4-1-0.5c-1.4-1.2-1.7-3-1.1-4.8l0.5-0.1z"/><path class="j" d="m61.1 25.8c-1.7-1.3-1.8-3.6-0.2-5.3 1.6-1.6 4.2-1.9 5.9-0.7 1.8 1.2 1.9 3.6 0.3 5.2-1.6 1.7-4.3 2-6 0.8z"/><path class="k" d="m61 25.7c-1.7-1.2-1.8-3.6-0.2-5.2 1.6-1.6 4.2-2 6-0.7 1.7 1.2 1.8 3.5 0.2 5.2-1.6 1.6-4.3 1.9-6 0.7z"/><path class="l" d="m66.5 19.6c1.7 1.2 1.8 3.5 0.2 5.2-1.4 1.5-3.8 1.9-5.6 1 1.7 1.1 4.3 0.8 5.9-0.8 1.6-1.7 1.5-4-0.2-5.3q-0.2-0.1-0.4-0.2z"/><path class="m" d="m61.6 17.9c1-0.5 2-0.8 2-0.6 0.1 0.2-0.7 0.7-1.7 1.2-1.1 0.5-2 0.8-2.1 0.6-0.1-0.2 0.7-0.7 1.8-1.2z"/><path class="n" d="m58.4 25l10.9-4.1 0.1-0.2c-0.3-0.8-0.8-1.5-1.6-2.1q-0.2-0.1-0.5-0.3l-8.5 3.2-0.5 0.1c-0.3 1.1-0.3 2.3 0.1 3.4z"/><path class="o" d="m60.5 26.9l0.3 0.4q0.7 0.3 1.5 0.5l6.2-2.3c0.5-0.6 0.9-1.4 1.1-2.2l-9.3 3.5z"/><path class="p" d="m60.9 22.1c0 0.5 0.1 0.9 0.7 1.1 0 0-0.5-0.5-0.2-1 0 0 0-0.7-0.5-0.1z"/><path class="p" d="m61.4 22.2c-0.3 0.6 0.2 1 0.2 1-0.6-0.2-0.7-0.6-0.7-1.1 0 0 0-0.4-0.4 0.1q-0.1 0.1-0.1 0.2c-0.1 1 0.9 1.2 1.1 1.1 0.3-0.1 0.3-0.6 0.3-0.6-0.1-0.1-0.2-0.3-0.1-0.5 0 0 0-0.5-0.3-0.2z"/><path class="l" d="m61.4 22.2q0-0.1 0.1-0.2c0.1-0.2 0.2-0.6 0.6-1 0 0-0.5 0-1.2 1.1q0 0 0 0c0.5-0.5 0.5 0.1 0.5 0.1z"/><path class="l" d="m62.1 21.6q0 0 0 0-0.4 0.2-0.6 0.3-0.1 0.2-0.1 0.3c0.3-0.3 0.3 0.2 0.3 0.2 0-0.3 0.3-0.7 0.4-0.8z"/><path class="l" d="m60.9 22.1q0 0 0 0c0.1-0.5 0.2-0.9 0.3-1q0-0.1-0.1-0.1c-0.1 0.1-0.5 0.5-0.7 1.2 0.5-0.5 0.5-0.1 0.5-0.1z"/><path class="l" d="m60.5 22.2q0 0.2 0 0.4c0 0.5 0.3 0.8 0.8 0.9q0.1 0 0.2 0 0-0.1 0.1-0.1 0-0.1 0.1-0.2 0.1-0.1 0.1-0.3c-0.5-0.3 0-1 0.3-1.3q0 0 0 0-0.1 0-0.1 0-0.3 0.2-0.5 0.4c0.1-0.3 0.2-0.6 0.4-0.8q0.1-0.1 0.2-0.2-0.3 0.1-0.5 0.3l-0.1 0.1q0 0-0.1 0.1c0 0-0.1 0.1-0.1 0.1-0.1 0.1-0.2 0.2-0.2 0.3q-0.1 0.1-0.2 0.2 0.1-0.6 0.2-1.1 0 0.1 0.1 0.1-0.2 0.1-0.4 0.3-0.2 0.4-0.3 0.8zm-0.1 0q0.1-0.3 0.2-0.6 0.2-0.3 0.5-0.6 0.1 0 0.1 0 0 0.1 0 0.1-0.2 0.5-0.3 1 0.1-0.3 0.3-0.6c0.2-0.2 0.4-0.4 0.7-0.5q0.1 0 0.2 0-0.2 0.2-0.4 0.4-0.1 0.3-0.1 0.6 0-0.2 0.2-0.2 0.1-0.2 0.3-0.3c0 0 0.1 0.1 0 0.1q0 0.1 0 0.1c-0.2 0.3-0.6 0.9-0.2 1.2-0.1 0.2-0.2 0.6-0.4 0.7q0 0-0.1 0c-0.3 0-0.6-0.1-0.8-0.4-0.3-0.3-0.2-0.7-0.2-1z"/><path class="l" d="m61.6 23.2c-0.5-0.2-0.8-0.7-0.7-1.2 0 0 0 0.1 0 0.1 0.1 0 0.1-0.1 0.1-0.1 0 0.1 0 0.3 0 0.4 0 0.4 0.3 0.6 0.6 0.8z"/><path class="l" d="m61.4 22.9c-0.1-0.3-0.2-0.7 0.1-0.9v0.1q0 0 0 0c-0.1 0.2-0.1 0.4-0.1 0.6q0 0.1 0 0.2z"/><path class="q" d="m62.2 21.5c-0.6 0.6-0.6 1.2-0.5 1.6q0.1-0.1 0.1-0.1c0.1 0.3 0.9 0.7 2.1 0.7q0.5-0.1 1 0.1c0 0 0.4-0.5 0.5-0.9 0.1-0.1 0.1-0.1 0.1-0.1 0.1 0.1 0.2 0.3 0.2 0.5q0 0.1 0 0.1 0 0.1 0 0.1 0 0.1 0 0.1c0 0.3 0.2 0.5 0.4 0.5 0.1 0.1 0.4 0 0.5-0.3 0.3-1-0.2-1.2-0.2-1.2 0 0 0.1-1-0.4-1.8-0.7-1.2-2.1-1.6-2.8-0.9-0.6 0.6-0.2 0.8-1 1.6z"/><path class="p" d="m61.2 24.3c0.5 0.6 2.4 1.7 3.5 1.3q0.3-0.1 0.6-0.3c0 0 0.2-0.2-0.1-0.4-0.4-0.2-0.5-0.2-0.5-0.2 0 0 0-0.2-0.3-0.2 0 0 0-0.1-0.2-0.2 0 0-0.3-0.4-0.2-0.7q-0.1 0-0.1 0.1c-1.2 0-2-0.4-2.1-0.7q0 0-0.1 0.1c-0.3 0.2-0.9 0.7-0.5 1.2z"/><path class="l" d="m64.2 24.3q0.1 0 0.2 0.1 0 0 0 0-0.4 0.1-0.7 0.3 0.2 0 0.3-0.1 0.3 0 0.6 0 0 0 0 0 0.1 0 0.1 0.1 0 0 0 0-0.7 0.1-1.4 0.3 0.3 0 0.5-0.1 0.5-0.1 1-0.2 0 0 0 0 0.2 0.1 0.4 0.2c0.2 0.1 0.2 0.2 0.2 0.3q0 0.1 0 0.1c0.4-0.3 0.6-0.5 0.7-0.7q0 0 0 0c-0.1 0-0.2-0.1-0.4-0.1 0 0 0 0 0 0q0.1-0.1 0.2-0.2 0 0 0 0c-0.1-0.1-0.3-0.2-0.6-0.4q-0.2-0.1-0.4-0.1-0.4-0.2-0.9-0.2 0 0 0 0.1c-0.1 0.2 0.2 0.5 0.2 0.6q0 0 0 0z"/><path class="l" d="m61.8 23c-0.3 0.2-0.8 0.7-0.7 1.1 0.1 0.1 0.2 0.2 0.3 0.3q0.3 0.3 0.7 0.5c0.7 0.4 1.7 0.9 2.5 0.7 0.6-0.2 1.1-0.5 1.5-1v0.1q-0.1-0.1-0.2-0.1c-0.2-0.1-0.5 0-0.7 0 0.2-0.1 0.6-0.1 0.8-0.1q0.1 0.1 0.1 0.1h0.1q-0.1 0.1-0.1 0.1-0.2 0.4-0.6 0.6c-0.3 0.2-0.7 0.4-1.1 0.5-0.8 0-1.7-0.4-2.3-0.8-0.3-0.2-0.6-0.4-0.9-0.7q-0.1-0.1-0.1-0.2c-0.1-0.3 0.1-0.6 0.4-0.8q0.1-0.2 0.3-0.3z"/><path class="r" d="m64.7 19.7c0 0 2 2 0.9 2.9-0.6 0.5-0.8 1.1-0.7 1.2 0.1 0.1 0.1-0.4 0.4-0.3 0.4 0 0.4-0.2 0.4-0.2 0 0 0.2-0.7 0.7-0.7 0-0.7-0.1-2.2-1.7-2.9z"/><path class="l" d="m61.1 23.7c0 0.3 0.3 0.6 0.6 0.7q0.3 0.1 0.6 0.1 0.2 0 0.4-0.1 0.6-0.1 1.2-0.1c0.5-0.1 0.9-0.1 1.3-0.1q0.3 0 0.5 0.1 0.1 0 0.2 0-0.1 0-0.2 0-0.2 0-0.5 0-0.6 0-1.3 0.1c-0.3 0-0.7 0.1-1.1 0.1-0.4 0.1-0.8 0.1-1.2 0-0.2-0.1-0.4-0.3-0.4-0.5q-0.1-0.2-0.1-0.3z"/><path class="s" d="m63.5 24.1c-0.2 0.1-0.4 0.1-0.4 0.1 0 0.1 0.2 0.1 0.4 0.1 0.3 0 0.5 0 0.5-0.1 0 0-0.2-0.1-0.5-0.1z"/><path class="s" d="m63.9 25.1c0 0.1 0.1 0.1 0.3 0q0 0 0 0.1 0 0 0 0c0 0.1 0.1 0.1 0.3 0.1 0.1-0.1 0.2-0.1 0.2-0.2q0 0 0-0.1-0.1 0 0 0 0.1-0.1 0.1-0.1c0-0.1-0.2-0.1-0.5 0-0.2 0.1-0.4 0.2-0.4 0.2z"/><path class="s" d="m63.3 24.5q0.1 0.1 0.2 0.1c0.1 0 0.1 0 0 0q0 0.1 0 0.1c0 0 0.2 0.1 0.5 0.1 0.2 0 0.4-0.1 0.4-0.1q0-0.1-0.2-0.1 0 0 0-0.1 0.1 0 0.1 0c0-0.1-0.2-0.1-0.5-0.1-0.3 0-0.5 0.1-0.5 0.1z"/><path class="p" d="m65.5 23.7c-0.2-0.3-0.3-0.2-0.4-0.1-0.1 0.1-0.2 0.2-0.2 0.2q0.2 0.1 0.4 0.1c0.3 0.2 0.5 0.4 0.6 0.4q0.2-0.1 0.2-0.2-0.1 0.1-0.1 0v0.1c0 0-0.2 0-0.5-0.5z"/><path class="l" d="m65.7 23.6q0-0.1 0-0.1 0 0 0-0.1 0-0.1 0-0.1c0-0.2-0.1-0.4-0.2-0.5 0 0 0 0 0 0.1-0.1 0.2-0.3 0.5-0.4 0.7 0.1-0.1 0.3-0.2 0.4 0.1 0.3 0.5 0.5 0.5 0.5 0.5v-0.1c-0.1 0-0.3-0.2-0.3-0.6z"/><path class="t" d="m64.8 22.8l-0.9-0.6c0 0 0.3-0.5 0.8-0.3 0.5 0.4 0.1 0.9 0.1 0.9z"/><path class="u" d="m64.6 22.7l0.2 0.1c0 0 0.3-0.5-0.2-0.8q0-0.1-0.1-0.1c0.4 0.3 0.1 0.7 0.1 0.8z"/><path class="t" d="m64.8 22.8l-0.9-0.6c0 0 0.3-0.5 0.8-0.3 0.5 0.4 0.1 0.9 0.1 0.9z"/><path class="l" d="m64.4 22.1c-0.1-0.1-0.2 0-0.2 0.1-0.1 0-0.1 0.1 0 0.2 0 0 0.1 0 0.2-0.1q0.1-0.1 0-0.2z"/><path class="t" d="m62.4 21.2l0.8 0.5c0 0 0.3-0.4-0.1-0.7-0.4-0.2-0.7 0.2-0.7 0.2z"/><path class="u" d="m63 21.6l0.2 0.1c0 0 0.3-0.5-0.1-0.7q-0.1 0-0.1 0c0.2 0.2 0.1 0.5 0 0.6z"/><path class="t" d="m62.4 21.2l0.8 0.5c0 0 0.3-0.4-0.1-0.7-0.4-0.2-0.7 0.2-0.7 0.2z"/><path class="l" d="m63.2 21.2c-0.1 0-0.2 0.1-0.2 0.1-0.1 0.1-0.1 0.2 0 0.3 0 0 0.1-0.1 0.2-0.1 0-0.1 0-0.2 0-0.3z"/><path class="t" d="m63.1 21.4q0 0-0.1 0 0 0.1 0 0.1 0.1 0 0.1 0 0-0.1 0-0.1z"/><path class="l" d="m64.8 23.2c0 0-0.3 0.4-0.8 0.1-0.4-0.2-0.9-0.4-0.4-0.8 0.1-0.1 0.7 0.5 1.2 0.7z"/><path class="t" d="m64.8 23.2c0 0-0.3 0.4-0.8 0.1-0.4-0.2-0.9-0.4-0.4-0.8 0.1-0.1 0.7 0.5 1.2 0.7z"/><path class="l" d="m62.1 21.9q0.1 0 0.1 0.1h0.1c0.2 0.2 0.4 0.4 0.6 0.3q0.1 0 0.1-0.2c0-0.1-0.2-0.2-0.4-0.3q-0.1-0.2-0.3-0.3-0.1 0.1-0.3 0.2 0 0.1 0.1 0.2z"/><path class="l" d="m65.5 24.6q0.2-0.1 0.3-0.2 0.1-0.1 0.1-0.1v0.1c-0.4-0.4-0.9-0.6-1.5-0.7q-0.3 0-0.6 0-0.1 0-0.2 0c-0.5 0-1.2-0.1-1.6-0.4q-0.1-0.1-0.2-0.2 0.1 0.1 0.2 0.2c0.5 0.2 1.1 0.3 1.6 0.3q0.1 0 0.1 0 0.4 0 0.7 0c0.6 0.1 1.2 0.3 1.6 0.7q-0.1 0.1-0.1 0.1-0.1 0.1-0.2 0.1-0.1 0-0.2 0.1z"/><path class="l" d="m65.9 24.3q0.1-0.1 0.1-0.2l0.1 0.1c-0.2-0.1-0.4-0.3-0.4-0.5q0-0.1 0-0.1 0-0.1 0-0.2v-0.1q0-0.2-0.1-0.3 0-0.1-0.1-0.2c0 0 0 0 0 0q-0.1 0.1-0.1 0.2-0.2 0.4-0.5 0.8c0.2-0.3 0.4-0.5 0.5-0.8q0-0.1 0-0.2c0.1 0 0.1 0 0.2 0q0.1 0.1 0.1 0.3 0.1 0.1 0.1 0.3 0 0.1 0 0.2-0.1 0.1 0 0.3c0.1 0.1 0.2 0.2 0.3 0.2q-0.1 0.1-0.2 0.2z"/><path class="p" d="m65.9 23.3q0 0 0 0c0 0.1 0.2 0.3 0.3 0 0.2-0.1 0.1-0.3 0-0.4q0 0 0 0c0.1 0 0.2 0.1 0.3 0.1q0 0 0 0c0.1 0.1 0.2 0.4-0.2 0.8-0.2 0.2-0.5-0.1-0.4-0.5z"/><path class="l" d="m66.1 24.1q0 0 0 0 0 0 0 0z"/><path class="l" d="m61.7 22.3q-0.1 0.3-0.1 0.6l0.1 0.2q0-0.2 0-0.4 0-0.1 0-0.2 0 0 0-0.1 0 0 0-0.1c0.1-0.3 0.3-0.5 0.5-0.7q0 0-0.1-0.1c-0.2 0.3-0.4 0.5-0.4 0.8z"/><path class="l" d="m62.4 21.3q0 0 0.1 0 0.1-0.2 0.2-0.4c0.1-0.2 0.1-0.3 0.2-0.5q0.2-0.4 0.6-0.6c1-0.6 2.2 0.3 2.6 1.2 0.2 0.5 0.3 1.1 0.3 1.6 0.2 0.2 0.3 0.4 0.3 0.7 0 0.3-0.3 0.9-0.6 0.8q-0.1 0-0.1 0-0.1-0.1-0.2-0.1c-0.1-0.3-0.1-0.6 0-0.8q-0.1 0.1-0.1 0.2c-0.1 0.3 0 0.6 0.2 0.7h0.1q0 0.1 0 0.1 0 0 0 0 0.1 0 0.2 0c0.3-0.1 0.4-0.4 0.5-0.7q0-0.1 0-0.2c0-0.3-0.1-0.5-0.3-0.6q0-0.1 0-0.1 0 0 0 0 0-0.1 0-0.2 0-0.6-0.1-1.2-0.2-0.4-0.5-0.8c-0.5-0.6-1.2-1-1.9-0.9-0.5 0.1-0.9 0.4-1.1 0.9-0.1 0.1-0.1 0.3-0.2 0.5q0 0.1-0.1 0.2-0.1 0.1-0.1 0.2 0 0 0 0z"/><path class="l" d="m66.4 22.6z"/><path class="l" d="m62.4 21.3q0 0-0.1 0-0.1 0.1-0.1 0.2 0 0 0 0.1 0.1-0.2 0.2-0.3z"/><path class="l" d="m62.1 21.5q0 0 0 0 0.1 0.1 0.1 0.1 0 0 0 0 0 0-0.1-0.1z"/><path class="l" d="m62.4 21.3q0 0 0 0 0 0 0 0 0 0 0 0 0 0 0 0z"/><path class="l" d="m62.4 21.3q0 0 0 0 0 0-0.1 0 0 0 0 0 0.1 0 0.1 0z"/><path class="l" d="m62.2 21.5q0 0-0.1 0 0.1 0.1 0.1 0.1 0 0 0 0 0-0.1 0-0.1z"/><path class="p" d="m62.9 23.5q-0.4 0.2-0.8 0.2-0.1 0-0.2 0-0.1 0-0.2-0.1 0 0-0.1 0c0.1 0.1 0.2 0.2 0.4 0.3q0.1 0.1 0.3 0.1 0.2 0.1 0.4 0.1c0.3 0 0.7-0.1 1.1-0.3 0.1-0.1 0.2-0.2 0-0.3q-0.4 0-0.9 0 0 0 0 0z"/><path class="p" d="m61.7 23q0 0 0 0 0 0 0 0 0 0 0 0 0 0 0 0z"/><path class="p" d="m61.7 23z"/><path class="p" d="m61.5 23.3q0 0.1 0.1 0.2 0 0 0 0.1 0.1 0 0.2 0 0.2 0.1 0.3 0.1 0.3-0.1 0.7-0.3 0 0 0.1 0 0 0 0 0c0.1-0.1 0.1-0.1 0-0.2-0.1 0-1 0.1-1.2-0.2q0 0 0 0 0 0 0 0c-0.1 0.1-0.2 0.2-0.2 0.3zm0.3-0.2q0 0.1 0 0 0 0.1 0 0z"/><path class="p" d="m61.8 23.1q0 0.1 0 0 0 0 0 0z"/><path class="l" d="m62.9 23.3c0.1 0 0.1 0 0.1 0.1 0.3-0.2 0.6-0.4 0.8-0.6-0.4 0.2-0.8 0.3-1.2 0.4q-0.3 0-0.6-0.1-0.2 0-0.3-0.1c0.2 0.3 1.1 0.2 1.2 0.3z"/><path class="l" d="m63.8 23.8q0.5-0.2 0.9-0.4-0.5 0.1-0.9 0.1c0.2 0.1 0.1 0.2 0 0.3z"/><path class="p" d="m61.7 23q0 0 0 0 0 0 0 0z"/><path class="l" d="m61.7 23c-0.1 0.1-0.2 0.1-0.2 0.2-0.1 0.2-0.1 0.3 0.1 0.4q0 0.1 0.1 0.2 0.1 0.1 0.2 0.2 0.2 0.1 0.4 0.1c0.5 0.2 1 0.1 1.5-0.1q0.4-0.2 0.7-0.4 0.2-0.1 0.4-0.2c0.1-0.1 0-0.2 0-0.1q-0.9 0.2-1.7 0.1-0.1 0-0.2 0 0 0 0 0c0.3-0.2 0.7-0.4 0.9-0.6q0.1 0 0.1 0c0-0.1 0-0.1-0.1-0.1-0.4 0.2-0.9 0.4-1.4 0.4-0.2 0-0.6 0-0.8-0.1q0 0 0 0 0 0 0 0zm2.1 0.5q0.4 0 0.9-0.1-0.4 0.2-0.9 0.4c-0.4 0.2-0.8 0.3-1.1 0.3q-0.2 0-0.4-0.1-0.2 0-0.3-0.1c-0.1-0.1-0.3-0.2-0.4-0.3q0.1 0 0.1 0 0.1 0.1 0.2 0.1 0.1 0 0.2 0 0.4 0 0.8-0.2h0.1q0.4 0 0.8 0zm-2.1-0.5q0 0 0 0 0 0 0 0 0 0 0 0 0 0 0 0 0.1 0.1 0.3 0.1 0.2 0.1 0.6 0.1c0.4 0 0.8-0.2 1.2-0.3-0.2 0.1-0.5 0.3-0.9 0.5q0 0 0 0-0.1 0.1-0.1 0.1-0.4 0.2-0.7 0.2-0.1 0-0.3 0-0.1-0.1-0.2-0.1 0 0 0 0-0.1-0.1-0.1-0.2c0-0.2 0.1-0.3 0.2-0.4z"/><path class="s" d="m62.4 23.8q0.1 0.1 0.3 0 0 0 0 0.1 0 0 0 0c0 0 0.1 0.1 0.3 0 0.1 0 0.2-0.1 0.2-0.1q0-0.1-0.1-0.1 0 0 0 0 0.1-0.1 0.1-0.1c0-0.1-0.2 0-0.4 0-0.2 0.1-0.4 0.2-0.4 0.2z"/><path class="l" d="m63.9 20.5q0-0.2 0.1-0.3c0-0.2 0.1-0.2 0.2-0.4-0.1 0-0.4 0.1-0.5 0.1-0.2 0.2-0.2 0.2-0.4 0.4 0.2 0 0.4 0.1 0.6 0.2z"/><path class="v" d="m63.9 20.5c0.4 0.1 0.7 0.3 1 0.6q0.1 0.2 0.2 0.5 0.1-0.1 0.2-0.3 0.1-0.1 0.1-0.2c-0.1 0-0.3-0.1-0.6-0.2-0.3-0.1-0.5-0.4-0.8-0.7q-0.1 0.1-0.1 0.3z"/><path class="u" d="m63.5 20.8c0.1 0 0.3 0 0.5 0.2 0.3 0.2 0.5 0.5 0.6 0.6 0.1 0.1 0.3 0.2 0.5 0q-0.1-0.3-0.2-0.4c0.1 0.2-0.1 0.3-0.2 0.2q-0.5-0.4-0.8-0.6c-0.3-0.2-0.6-0.3-0.7-0.2 0.1 0.1 0.2 0.2 0.3 0.2z"/><path class="r" d="m64 20.2c0.3 0.4 0.5 0.6 0.8 0.7 0.3 0.1 0.5 0.2 0.6 0.2q0.1-0.3-0.1-0.5c-0.2-0.4-0.6-0.6-0.9-0.7-0.1-0.1-0.1-0.1-0.2-0.1-0.1 0.2-0.2 0.3-0.2 0.4z"/><path fill-rule="evenodd" class="w" d="m64.5 20.8c0 0 0-0.3 0.3-0.6"/><path class="q" d="m63.2 20.6c0.1-0.1 0.3 0 0.7 0.2q0.3 0.2 0.8 0.6c0.1 0.1 0.3-0.1 0.2-0.3-0.3-0.3-0.7-0.5-1-0.6q-0.4-0.2-0.6-0.2 0 0 0 0-0.1 0.2-0.1 0.3z"/><path class="t" d="m63.7 19.9c-0.2 0.1-0.4 0.4-0.4 0.4q0 0 0 0-0.1 0.2-0.1 0.3c0.1 0.1 0.2 0.2 0.3 0.2 0.1 0 0.3 0 0.5 0.2 0.3 0.2 0.5 0.5 0.6 0.6 0.1 0.1 0.3 0.2 0.5 0q0.1-0.1 0.2-0.3 0.1-0.1 0.1-0.2 0.1-0.3 0-0.5c-0.1 0-0.8-1.1-1.7-0.7z"/><path class="b" d="m78 24.9l1.2-0.2-0.2 0.3-1.1 0.2z"/><path class="x" d="m76.1 15.7l1.1-0.2c0.8-0.1 1.6 0 2.3 0.3l-1.1 0.2c-0.7-0.3-1.5-0.4-2.3-0.3z"/><path class="d" d="m78.4 16l1.1-0.2 0.1 0.4-1.2 0.2z"/><path class="b" d="m81.1 20.9l1.1-0.2 0.2 0.2-1.1 0.2z"/><path class="y" d="m81.3 21.1l1.1-0.2c-0.1 1-0.4 2-1.1 2.8-0.4 0.5-1 0.9-1.7 1.2l-1.1 0.2c0.7-0.2 1.3-0.6 1.7-1.2 0.7-0.8 1-1.8 1.1-2.8z"/><path class="f" d="m81.3 20.7l1.1-0.2-0.2 0.2-1.1 0.2z"/><path class="z" d="m78.7 16.2l1.1-0.3q0.7 0.4 1.2 1c0.9 1 1.4 2.3 1.4 3.6l-1.1 0.2c0-1.3-0.5-2.6-1.4-3.6q-0.5-0.5-1.2-0.9z"/><path class="A" d="m78.7 16.1q0.7 0.4 1.3 1c0.8 1 1.3 2.3 1.3 3.6l-0.1 0.2 0.1 0.2c0 1-0.4 2-1 2.8-0.5 0.5-1.1 1-1.8 1.2l-0.4-0.2-0.2 0.3c-1.2 0.1-2.5-0.4-3.5-1.5q-0.4-0.5-0.7-1 0-0.3 0-0.5l-0.3-0.2c-0.6-1.5-0.5-3.1 0.3-4.4l0.3-0.2 0.4-0.8c1.1-1 2.7-1.2 4-0.6l0.1 0.4z"/><path class="B" d="m78.7 16.2q0.7 0.4 1.2 0.9c0.9 1 1.4 2.3 1.4 3.6l-0.2 0.2 0.2 0.2c-0.1 1-0.4 2-1.1 2.8-0.4 0.6-1 1-1.7 1.2l-0.5-0.2-0.2 0.3c-1.2 0.1-2.5-0.3-3.4-1.4q-0.5-0.5-0.8-1.1 0-0.3 0-0.5l-0.3-0.2c-0.5-1.4-0.4-3.1 0.3-4.4l0.4-0.2 0.4-0.8c1.1-1 2.6-1.2 3.9-0.6l0.1 0.4z"/><path class="C" d="m74.8 18c1.1-1.3 3-1.3 4.3 0.1 1.2 1.4 1.3 3.6 0.2 4.9-1.1 1.4-3 1.3-4.2-0.1-1.3-1.4-1.4-3.6-0.3-4.9z"/><path class="D" d="m74.9 17.9c1.1-1.3 3-1.2 4.2 0.2 1.3 1.3 1.4 3.6 0.3 4.9-1.1 1.3-3 1.2-4.3-0.2-1.2-1.3-1.3-3.5-0.2-4.9z"/><path class="l" d="m79.5 22.8c-1.1 1.3-3 1.2-4.2-0.2-1.2-1.3-1.4-3.2-0.5-4.6-1 1.4-0.9 3.5 0.3 4.9 1.3 1.3 3.2 1.4 4.3 0.1q0.1-0.2 0.2-0.3z"/><path class="E" d="m81.2 18.9c0.3 0.9 0.5 1.6 0.4 1.7-0.2 0-0.5-0.7-0.9-1.5-0.3-0.9-0.5-1.7-0.4-1.7 0.2-0.1 0.6 0.6 0.9 1.5z"/><path class="F" d="m75.7 15.9l2.6 9.1 0.2 0.1c0.7-0.2 1.3-0.6 1.7-1.2q0.2-0.2 0.3-0.4l-2-7.1h-0.1v-0.4c-0.9-0.4-1.9-0.4-2.7-0.1z"/><path class="G" d="m74 17.4l-0.4 0.2q-0.3 0.6-0.5 1.2l1.5 5.2q0.7 0.7 1.7 1l-2.3-7.7z"/><path class="p" d="m77.8 18.1c-0.4-0.1-0.7 0-0.9 0.4 0 0 0.4-0.3 0.8-0.1 0 0 0.6 0.1 0.1-0.3z"/><path class="p" d="m77.7 18.4c-0.4-0.2-0.8 0.1-0.8 0.1 0.2-0.4 0.6-0.5 0.9-0.4 0 0 0.4 0 0-0.4q-0.1 0-0.2-0.1c-0.8-0.1-1 0.7-1 0.8 0.2 0.3 0.5 0.4 0.5 0.4 0.1-0.2 0.3-0.2 0.4-0.1 0 0 0.5 0 0.2-0.3z"/><path class="l" d="m77.7 18.4q0.1 0.1 0.2 0.2c0.2 0 0.4 0.1 0.8 0.5 0 0 0-0.5-0.8-1q-0.1 0-0.1 0c0.4 0.4-0.1 0.3-0.1 0.3z"/><path class="l" d="m78.2 19.1q0 0 0 0-0.1-0.4-0.3-0.5-0.1-0.1-0.2-0.2c0.3 0.3-0.2 0.3-0.2 0.3 0.3 0 0.6 0.3 0.7 0.4z"/><path class="l" d="m77.8 18.1q0 0 0.1 0c0.3 0 0.7 0.2 0.8 0.2q0 0 0 0c-0.1-0.1-0.3-0.5-0.9-0.6 0.4 0.4 0 0.4 0 0.4z"/><path class="l" d="m77.8 17.6q0.2 0.1 0.5 0.2 0.2 0.2 0.4 0.5 0 0 0 0 0 0 0 0h-0.1q-0.3-0.2-0.7-0.2 0.2 0.1 0.4 0.3c0.1 0.1 0.3 0.3 0.3 0.5q0.1 0.1 0.1 0.2h-0.1q-0.1-0.2-0.3-0.3-0.2-0.2-0.4-0.2 0.1 0.1 0.1 0.2 0.1 0.1 0.2 0.2c0 0.1 0 0.1-0.1 0.1q0 0 0-0.1c-0.3-0.2-0.7-0.5-1-0.2-0.2 0-0.4-0.1-0.5-0.3q-0.1-0.1 0-0.1c0-0.3 0.1-0.6 0.3-0.7 0.3-0.2 0.6-0.1 0.9-0.1zm0 0.1q-0.2 0-0.3 0c-0.4-0.1-0.7 0.2-0.8 0.6q0 0 0 0.1 0 0.1 0 0.1 0.1 0.1 0.1 0.1 0.2 0.1 0.3 0.2c0.3-0.4 0.8 0 1.1 0.2q0 0 0 0.1-0.1-0.1-0.1-0.1-0.1-0.2-0.2-0.4c0.2 0 0.4 0.2 0.6 0.3q0.1 0.1 0.2 0.2h-0.1q0-0.3-0.2-0.5-0.1-0.1-0.1-0.1c0 0-0.1-0.1-0.1-0.1-0.1-0.1-0.2-0.2-0.2-0.2q-0.1-0.1-0.2-0.1 0.5 0 0.9 0.2 0 0 0 0-0.1-0.2-0.3-0.3c-0.2-0.1-0.4-0.2-0.6-0.3z"/><path class="l" d="m76.9 18.5c0.2-0.3 0.6-0.5 1-0.4 0 0 0 0 0 0 0 0 0 0.1 0 0.1-0.1-0.1-0.2-0.1-0.3-0.1-0.3 0-0.5 0.2-0.7 0.4z"/><path class="l" d="m77.1 18.4c0.3-0.1 0.6-0.1 0.8 0.1l-0.1 0.1q0-0.1 0-0.1c-0.1-0.1-0.3-0.1-0.5-0.1q-0.1 0-0.1 0z"/><path class="q" d="m78.2 19.1c-0.4-0.5-0.9-0.5-1.2-0.5q0 0.1 0 0.1c-0.3 0.1-0.6 0.8-0.6 1.7q0 0.4-0.2 0.8c0 0 0.4 0.4 0.8 0.5 0 0 0 0.1 0 0.1-0.1 0-0.2 0.1-0.4 0.1q-0.1 0-0.1 0-0.1 0-0.1 0 0 0 0 0c-0.3 0-0.5 0.1-0.5 0.2-0.1 0.2 0 0.4 0.3 0.5 0.7 0.3 0.9-0.1 0.9-0.1 0 0 0.8 0.2 1.5-0.2 1-0.5 1.4-1.6 0.9-2.2-0.4-0.5-0.6-0.3-1.3-1z"/><path class="p" d="m76 18.2c-0.5 0.3-1.5 1.8-1.3 2.7q0.1 0.3 0.2 0.5c0 0 0.2 0.2 0.4 0 0.2-0.3 0.1-0.4 0.1-0.4 0 0 0.2 0 0.2-0.2 0 0 0.2 0 0.2-0.2 0 0 0.4-0.2 0.6-0.1q0-0.1 0-0.1c0-1 0.3-1.6 0.6-1.7q0 0 0-0.1c-0.2-0.2-0.5-0.7-1-0.4z"/><path class="l" d="m75.8 20.6q0 0.1 0 0.1-0.1 0.1-0.1 0 0-0.3-0.1-0.5 0 0.1 0 0.2 0 0.3 0 0.5 0 0 0 0 0 0.1-0.1 0.1 0 0 0 0-0.1-0.6-0.2-1.1 0 0.2 0 0.4 0.1 0.4 0.1 0.8 0 0 0 0 0 0.1-0.1 0.3c-0.1 0.1-0.2 0.1-0.3 0.1 0 0 0 0 0 0 0.2 0.4 0.4 0.6 0.5 0.6q0 0 0 0 0 0 0.1-0.2c0-0.1 0-0.1 0-0.1q0.1 0.1 0.1 0.2 0 0 0 0c0.1-0.1 0.2-0.2 0.4-0.5q0.1-0.1 0.1-0.3 0.2-0.3 0.2-0.7 0 0 0 0c-0.2-0.1-0.5 0.1-0.6 0.1q0.1 0 0 0z"/><path class="l" d="m77 18.7c-0.1-0.2-0.5-0.7-0.8-0.6-0.1 0-0.2 0.1-0.3 0.2q-0.2 0.3-0.4 0.6c-0.4 0.5-0.9 1.3-0.7 2 0.1 0.4 0.3 0.9 0.7 1.2q0-0.1 0-0.1c0.1-0.2 0.1-0.5 0-0.6 0.1 0.2 0.1 0.4 0.1 0.7q-0.1 0-0.1 0.1 0 0-0.1-0.1-0.3-0.2-0.4-0.5-0.3-0.4-0.3-0.9c-0.1-0.7 0.3-1.4 0.7-1.9q0.3-0.4 0.6-0.7 0.1 0 0.2 0c0.3-0.1 0.5 0.1 0.7 0.3q0.1 0.2 0.2 0.3z"/><path class="r" d="m79.6 21.3c0 0-1.8 1.5-2.5 0.6-0.3-0.6-0.8-0.8-0.9-0.7-0.1 0.1 0.3 0.1 0.2 0.4 0 0.3 0.2 0.3 0.2 0.3 0 0 0.5 0.2 0.5 0.6 0.6 0.1 1.8 0 2.5-1.2z"/><path class="l" d="m76.5 18.1c-0.3 0-0.5 0.2-0.6 0.4q-0.1 0.3-0.1 0.5 0 0.2 0 0.4 0.1 0.5 0.1 1c0 0.3 0 0.7 0 1.1q-0.1 0.2-0.1 0.4 0 0-0.1 0.1 0-0.1 0-0.2 0.1-0.2 0.1-0.4 0-0.5 0-1-0.1-0.5-0.1-1c0-0.3 0-0.6 0.2-0.9 0-0.2 0.2-0.3 0.4-0.4q0.1 0 0.2 0z"/><path class="s" d="m76 20.1c0-0.2 0-0.4 0-0.4-0.1 0-0.1 0.2-0.1 0.4 0 0.2 0 0.3 0 0.3 0.1 0 0.1-0.1 0.1-0.3z"/><path class="s" d="m75.2 20.3q-0.1 0 0 0.2 0 0.1-0.1 0 0 0 0 0c-0.1 0-0.1 0.1-0.1 0.3 0 0.1 0.1 0.2 0.2 0.2q0 0 0-0.1 0 0 0 0 0.1 0.1 0.1 0.1c0.1 0 0.1-0.2 0-0.4 0-0.2-0.1-0.3-0.1-0.3z"/><path class="s" d="m75.7 19.9q0 0-0.1 0.1c0 0.1 0 0.1 0 0.1q0-0.1 0-0.1c-0.1 0-0.1 0.2-0.1 0.4 0 0.2 0 0.4 0 0.4q0.1 0 0.1-0.2 0 0 0 0 0.1 0 0.1 0c0 0 0-0.1 0-0.3 0.1-0.2 0-0.4 0-0.4z"/><path class="p" d="m76.2 21.7c0.3-0.1 0.3-0.3 0.2-0.4q-0.2-0.1-0.2-0.1-0.1 0.2-0.1 0.3c-0.2 0.3-0.3 0.4-0.4 0.5q0.1 0.1 0.2 0.1-0.1 0 0 0h-0.1c0 0 0-0.2 0.4-0.4z"/><path class="l" d="m76.3 21.9q0.1 0 0.1 0 0 0 0.1 0 0 0 0 0c0.2 0 0.4-0.1 0.5-0.1 0 0 0-0.1-0.1-0.1-0.2-0.1-0.4-0.2-0.5-0.4 0.1 0.1 0.1 0.3-0.2 0.4-0.4 0.2-0.4 0.4-0.4 0.4 0.1-0.1 0.3-0.2 0.5-0.2z"/><path class="t" d="m77 21.2l0.5-0.8c0 0.1 0.5 0.3 0.2 0.7-0.3 0.4-0.7 0.1-0.7 0.1z"/><path class="u" d="m77.1 21l-0.1 0.2c0 0 0.4 0.3 0.7-0.1q0.1 0 0.1-0.1c-0.3 0.3-0.6 0.1-0.7 0z"/><path class="t" d="m77 21.2l0.5-0.8c0 0.1 0.5 0.3 0.2 0.7-0.3 0.4-0.7 0.1-0.7 0.1z"/><path class="l" d="m77.6 20.9q0.1-0.1 0-0.2-0.1-0.1-0.2 0 0 0.1 0.1 0.2 0.1 0 0.1 0z"/><path class="t" d="m78.4 19.4l-0.4 0.5c0 0 0.3 0.3 0.6 0 0.2-0.3-0.2-0.5-0.2-0.5z"/><path class="u" d="m78.1 19.8l-0.1 0.1c0 0 0.4 0.3 0.6 0q0-0.1 0-0.1c-0.2 0.2-0.4 0-0.5 0z"/><path class="t" d="m78.4 19.4l-0.4 0.5c0 0 0.3 0.3 0.6 0 0.2-0.3-0.2-0.5-0.2-0.5z"/><path class="l" d="m78.4 19.9q0 0-0.1-0.1-0.1-0.1-0.1 0-0.1 0 0 0.1 0.2 0.1 0.2 0.1z"/><path class="t" d="m78.3 19.9q0 0 0-0.1-0.1 0-0.1 0 0 0.1 0 0.1 0.1 0 0.1 0z"/><path class="l" d="m76.7 21.2c0 0-0.3-0.3 0-0.7 0.2-0.3 0.4-0.7 0.6-0.3 0.1 0.1-0.4 0.6-0.6 1z"/><path class="t" d="m76.7 21.2c0 0-0.3-0.3 0-0.7 0.2-0.3 0.4-0.7 0.6-0.3 0.1 0.1-0.4 0.6-0.6 1z"/><path class="l" d="m77.9 19.1q0 0 0 0l-0.1 0.1c-0.1 0.1-0.3 0.3-0.3 0.4q0.1 0.1 0.2 0.2c0.1 0 0.2-0.2 0.3-0.3q0.1-0.2 0.2-0.3 0-0.1-0.1-0.2-0.1 0-0.2 0.1z"/><path class="l" d="m75.5 21.7q0.1 0.1 0.2 0.2 0 0.1 0 0.1 0.4-0.5 0.6-1.2 0-0.2 0-0.5 0-0.1 0-0.1c0.1-0.5 0.2-1 0.5-1.3q0.1-0.1 0.2-0.2v0.1q-0.1 0-0.2 0.1c-0.2 0.3-0.4 0.9-0.4 1.3q0 0 0 0.1 0 0.3 0 0.6-0.2 0.7-0.7 1.2-0.1-0.1-0.1-0.1 0-0.1 0-0.1 0-0.1-0.1-0.2z"/><path class="l" d="m75.7 22q0.1 0.1 0.1 0.1c0.1-0.1 0.3-0.2 0.4-0.2q0.1 0 0.1 0 0.1 0 0.2 0 0.2 0 0.3-0.1 0.1 0 0.1 0 0.1-0.1 0-0.1 0 0-0.1 0-0.3-0.2-0.6-0.5 0.3 0.3 0.6 0.5 0.1 0 0.1 0c0.1 0 0.1 0.1 0.1 0.1q-0.1 0.1-0.2 0.1-0.2 0.1-0.3 0-0.1 0-0.1 0-0.2 0-0.3 0c-0.1 0.1-0.2 0.1-0.2 0.2q-0.1 0-0.2-0.1z"/><path class="p" d="m76.5 22q0.1 0 0 0c0 0.1-0.2 0.2 0 0.3 0.1 0.2 0.3 0.1 0.3 0q0.1 0 0.1 0.1c-0.1 0-0.2 0.1-0.1 0.2q0 0-0.1 0c0 0-0.3 0.1-0.6-0.3-0.2-0.1 0.1-0.4 0.4-0.3z"/><path class="l" d="m75.9 22.1z"/><path class="l" d="m77.6 18.7q-0.2-0.1-0.5-0.1h-0.1v0.1q0.2-0.1 0.3 0 0.1 0 0.1 0 0.1 0 0.2 0 0 0 0 0 0.3 0.2 0.6 0.4 0 0 0 0c-0.2-0.2-0.3-0.4-0.6-0.4z"/><path class="l" d="m78.4 19.3q0 0.1 0 0.1 0.1 0.1 0.3 0.2c0.1 0.1 0.3 0.1 0.4 0.2q0.3 0.2 0.4 0.5c0.5 0.8-0.3 1.7-1.1 2-0.4 0.2-0.9 0.2-1.3 0.2-0.2 0.2-0.4 0.2-0.6 0.2-0.2 0-0.7-0.3-0.6-0.6q0 0 0 0 0-0.1 0.1-0.1c0.2-0.2 0.5-0.1 0.7 0q-0.1-0.1-0.2-0.1c-0.2-0.1-0.5-0.1-0.6 0.1v0.1q-0.1 0-0.1 0 0 0.1 0 0.1c0 0.3 0.3 0.4 0.5 0.5q0.1 0 0.3 0c0.2 0 0.3 0 0.5-0.2q0 0 0 0 0.1 0 0.2 0 0.5 0.1 0.9 0 0.4-0.1 0.8-0.4c0.4-0.3 0.8-0.8 0.8-1.4-0.1-0.4-0.3-0.8-0.6-1-0.2-0.1-0.3-0.1-0.4-0.2q-0.1 0-0.2-0.1-0.1-0.1-0.1-0.1-0.1 0-0.1 0z"/><path class="l" d="m77.1 22.5q0 0 0 0 0 0 0 0z"/><path class="l" d="m78.4 19.3q0 0 0 0-0.1-0.1-0.2-0.2 0 0 0 0 0.1 0.1 0.2 0.2z"/><path class="l" d="m78.2 19.1q0 0 0 0 0 0 0 0z"/><path class="l" d="m78.4 19.3q0 0 0 0 0 0 0 0 0 0 0 0z"/><path class="l" d="m78.4 19.3q0 0 0 0 0 0 0 0z"/><path class="l" d="m78.2 19.1q0 0 0 0 0 0 0 0z"/><path class="p" d="m76.6 19.6q-0.2-0.3-0.2-0.7 0-0.1 0.1-0.1 0-0.1 0-0.2 0 0 0.1-0.1c-0.2 0.1-0.3 0.2-0.3 0.3q-0.1 0.1-0.1 0.3-0.1 0.1-0.1 0.3 0 0.4 0.1 0.9c0.1 0.1 0.2 0.2 0.3 0q0-0.3 0.1-0.7 0 0 0 0z"/><path class="p" d="m77.1 18.6z"/><path class="p" d="m77.1 18.6q0 0 0 0z"/><path class="p" d="m76.8 18.4q-0.1 0-0.2 0.1 0 0 0 0 0 0.1-0.1 0.2 0 0.1 0 0.3 0 0.2 0.1 0.5 0 0.1 0 0.1 0.1 0 0.1 0c0 0.1 0 0.1 0.1 0 0-0.1 0-0.8 0.3-0.9q-0.1-0.1-0.1-0.1c0 0-0.1-0.1-0.2-0.2zm0.1 0.3q0 0.1 0 0 0 0.1 0 0z"/><path class="p" d="m76.9 18.7q0 0.1 0 0 0 0.1 0 0z"/><path class="l" d="m76.8 19.6c-0.1 0.1-0.1 0.1-0.1 0 0.1 0.3 0.2 0.6 0.4 0.8-0.2-0.4-0.2-0.7-0.2-1.1q0-0.2 0.1-0.4 0-0.2 0-0.3c-0.2 0.2-0.2 0.9-0.2 1z"/><path class="l" d="m76.2 20.3q0.2 0.4 0.3 0.7 0-0.3 0-0.7c-0.1 0.2-0.2 0.1-0.3 0z"/><path class="p" d="m77.1 18.6q0 0 0 0 0 0 0 0 0 0 0 0z"/><path class="l" d="m77.1 18.6q-0.1-0.1-0.2-0.2c-0.1 0-0.2 0-0.3 0.1q-0.1 0-0.2 0.1-0.1 0.1-0.2 0.2-0.1 0.1-0.1 0.2c-0.2 0.4-0.1 0.9 0 1.3q0.1 0.3 0.3 0.6 0 0.1 0.1 0.3c0.1 0.1 0.1 0 0.1 0q-0.1-0.7 0-1.4 0 0 0-0.1 0.2 0.4 0.4 0.8 0.1 0 0.1 0 0 0 0 0c-0.1-0.4-0.2-0.8-0.2-1.2 0-0.2 0-0.5 0.2-0.7zm-0.6 1.7q0 0.4 0 0.7-0.1-0.3-0.2-0.7-0.2-0.5-0.2-0.9 0-0.2 0.1-0.3 0-0.2 0.1-0.3c0.1-0.1 0.2-0.2 0.3-0.3q-0.1 0.1-0.1 0.1 0 0.1 0 0.1-0.1 0.1-0.1 0.2 0.1 0.4 0.2 0.7-0.1 0.4-0.1 0.7zm0.5-1.7q0 0 0.1 0.1 0 0 0-0.1 0 0 0 0.1 0-0.1 0 0-0.1 0-0.1 0.2-0.1 0.2-0.1 0.4c0 0.4 0 0.8 0.2 1.1-0.2-0.2-0.3-0.5-0.4-0.7q-0.1-0.1-0.1-0.1 0 0 0-0.1-0.1-0.3-0.1-0.5 0-0.2 0-0.3 0.1-0.1 0.1-0.2 0 0 0 0 0.1-0.1 0.2-0.1c0.1 0.1 0.2 0.1 0.2 0.2z"/><path class="s" d="m76.3 19.2q0 0 0 0.2 0 0 0 0 0 0 0 0c-0.1 0-0.1 0.1-0.1 0.2 0 0.1 0.1 0.2 0.1 0.2q0.1 0 0.1-0.1 0 0 0 0 0.1 0.1 0.1 0.1c0 0 0-0.1 0-0.3 0-0.2-0.1-0.3-0.2-0.3z"/><path class="l" d="m79 20.6q0.1 0 0.2 0.1c0.1 0 0.2 0.1 0.3 0.2 0-0.1 0-0.3-0.1-0.5 0-0.1-0.1-0.1-0.2-0.3q-0.1 0.2-0.2 0.5z"/><path class="v" d="m79 20.6c-0.2 0.3-0.4 0.5-0.6 0.7q-0.2 0.2-0.4 0.2 0.1 0.1 0.2 0.2 0.1 0.1 0.2 0.1c0-0.1 0.1-0.3 0.2-0.5 0.1-0.2 0.3-0.4 0.6-0.6q-0.1-0.1-0.2-0.1z"/><path class="u" d="m78.8 20.3c-0.1 0-0.1 0.2-0.2 0.4-0.2 0.2-0.5 0.3-0.6 0.4 0 0.1-0.2 0.2 0 0.4q0.2 0 0.4-0.1c-0.2 0-0.3-0.1-0.3-0.2q0.4-0.4 0.6-0.6c0.2-0.3 0.2-0.5 0.2-0.6-0.1 0-0.1 0.2-0.1 0.2z"/><path class="r" d="m79.2 20.7c-0.3 0.2-0.5 0.4-0.6 0.6-0.1 0.2-0.2 0.4-0.2 0.5q0.2 0.1 0.4 0c0.3-0.2 0.5-0.6 0.6-0.8 0.1 0 0.1-0.1 0.1-0.1-0.1-0.1-0.2-0.2-0.3-0.2z"/><path fill-rule="evenodd" class="w" d="m78.6 21.1c0 0 0.3 0 0.6 0.3"/><path class="q" d="m79 20c0 0.1-0.1 0.3-0.3 0.6q-0.2 0.2-0.6 0.6c0 0.1 0.1 0.2 0.3 0.1 0.3-0.2 0.4-0.4 0.6-0.7q0.1-0.3 0.2-0.5 0 0-0.1 0-0.1-0.1-0.1-0.1z"/><path class="t" d="m79.4 20.4c0-0.1-0.2-0.3-0.2-0.3q0 0-0.1 0-0.1-0.1-0.2-0.1c-0.1 0.1-0.1 0.2-0.1 0.3-0.1 0-0.1 0.2-0.2 0.4-0.2 0.2-0.5 0.3-0.6 0.4-0.1 0.1-0.2 0.2 0 0.4q0.1 0.1 0.2 0.2 0.1 0.1 0.2 0.1 0.2 0.1 0.4 0c0 0 0.9-0.6 0.6-1.3z"/><path class="H" d="m42.1 62q0-0.1 0.1-0.1-0.1 0-0.1 0.1z"/><path class="I" d="m66.7 55.9v21.1c0 1.4-1.4 2.5-3 2.5h-32.7c-1.7 0-3-1.1-3-2.5v-21.1c0-1.4 1.3-2.5 3-2.5h32.7c1.6 0 3 1.1 3 2.5z"/><path class="J" d="m29.3 79c-0.8-0.5-1.3-1.3-1.3-2.3q0 0 0-0.1 0 0 0 0 0 0 0 0 0 0 0 0v-23.2 1.1q0.3 0 0.7 0v22.7c0 0.7 0.2 1.3 0.6 1.8z"/><path class="K" d="m49.4 73.8v-18.5q0.4 0 0.9 0.1v17q-0.4 0.7-0.9 1.4z"/><path class="K" d="m50.3 79.5h-0.9v-5.7q0.5-0.7 0.9-1.4z"/><path class="L" d="m45.3 79.5h4.1v-26.1h-4.1z"/><path class="M" d="m49.4 79.5h-1.3v-24.3q0.6 0.1 1.3 0.1v18.5c0 0 0 5.7 0 5.7z"/><path class="N" d="m56.6 55.8q-3.2-0.3-6.3-0.5v-1.9h6.5q-0.1 1.2-0.2 2.4z"/><path class="N" d="m66.7 56.9c-3.2-0.5-6.7-0.8-10.1-1.1q0.1-1.2 0.2-2.4h9.9q0 0 0 0v3.5z"/><path class="K" d="m50.3 55.4q-0.5-0.1-0.9-0.1v-1.9h0.9z"/><path class="N" d="m45.3 55c-6.9-0.3-13-0.5-16.6-0.5v-1.1h16.6z"/><path class="K" d="m28.7 54.5q-0.4 0-0.7 0v-1.1h0.7z"/><path class="O" d="m48.1 55.2q-1.4-0.1-2.8-0.1v-1.7h2.8z"/><path class="P" d="m49.4 55.3q-0.7 0-1.3-0.1v-1.8h1.3z"/><path class="Q" d="m31.2 45.6l-2.8 2c-7.9 5-13.7 2.4-14.9-0.6l-0.1-0.1c-1.1-3.1 1.2-3.7 1.2-3.7 0 0 0.1 2.1 4.5 3.6 1.9 0.7 4.5 0.5 6.7 0.1 3-0.4 5.4-1.3 5.4-1.3z"/><path class="R" d="m25.8 46.9c-3.8 2-6.6 1.1-9.3 0-1.6-0.6-2.5-0.4-2.9 0q-0.1 0-0.1 0.1l-0.1-0.1c0.3-0.7 0.8-1.3 1.5-1.9q0.3-0.1 0.5-0.3c0.7 0.7 1.7 1.5 3.7 2.1 1.9 0.7 4.5 0.5 6.7 0.1zm-12.7-1.6q0-0.2 0-0.4 0 0.2 0 0.4z"/><path class="L" d="m36.5 41.6c0.1 0.4-0.1 0.9-0.4 1.3-0.8 1-1.8 1.9-2.9 2.6l-2.2-0.5c0 0-2.7 0.7-8.6-0.6-6-1.3-8.1 0.6-9 2.5-0.2-0.7-0.4-1.5-0.2-2.2 0.1-0.7 0.5-1.3 0.9-1.8 1.4-1.5 3.3-2.2 5.3-2.4 1.5-0.2 3-0.1 4.5 0.1 2.1 0.4 4.1 1.3 6.2 1.5 2 0.2 4-0.1 6-0.4q0.2-0.1 0.4-0.1z"/><path class="S" d="m31.4 44.1l-0.8 0.5c-3.9-0.2-8.6-2.7-11.2-4.1q1.6-0.2 3.2 0 0.6 0.4 1.2 0.7c2.1 1.3 4.5 2.1 6.8 2.7q0.4 0.1 0.8 0.2z"/><path class="L" d="m35.3 43.2c-0.5 0.7-1.3 1-2.1 1q-0.3 0.1-0.6 0c-0.6 0-1.3-0.1-2-0.3-2.3-0.6-4.7-1.4-6.8-2.7-1.2-0.7-2.3-1.6-3.6-2.3q2.1 0 4.1-0.3-1-1.5-1.5-3.1 3.8 2.9 8.1 5.2 0.5 0.2 1.1 0.5 0.2 0.1 0.4 0.1c0.8 0.3 1.7 0.3 2.5 0.5 0.8 0.1 0.9 0.8 0.4 1.4z"/><path class="S" d="m32.7 43.1l-0.4 0.3c-0.2-0.6-0.2-1.2-0.3-1.7q0-0.3-0.1-0.5 0.3 0.1 0.5 0.1 0.5 0.2 0.9 0.3-0.2 0.7-0.6 1.5z"/><path class="Q" d="m37.1 41.2l2.8-2c7-6.1 6.3-12.4 3.7-14.5-2.6-2-3.9 0-3.9 0 0 0 2 0.7 2.1 5.3 0.1 2.1-0.8 4.5-1.8 6.5-1.4 2.7-2.9 4.7-2.9 4.7z"/><path class="R" d="m40 36.5c1-2 1.9-4.4 1.8-6.4 0-2.1-0.5-3.4-0.9-4.1q0.2-0.3 0.5-0.4c0.7-0.6 1.5-0.8 2.2-0.9q-0.1-0.1-0.1-0.1 0 0.1 0.1 0.1 0 0.1-0.1 0.1c-0.5 0.4-0.9 1.1-0.8 2.9 0.2 2.8 0.2 5.8-2.7 8.8zm2.3-12.6q-0.3-0.1-0.7-0.1 0.3 0 0.7 0.1z"/><path class="L" d="m43.6 24.7c-2.1 0.3-4.6 1.7-5.1 7.8-0.2 2-0.4 3.6-0.7 4.9-0.6 2.5-1.2 3.5-1.2 3.5l-0.2 2.3q-1.4 1-3 1.8-0.2 0-0.4 0.1c-0.4 0.2-0.9 0.3-1.3 0q0.1-0.2 0.2-0.3 0.3-0.5 0.5-1.1c0.7-1.4 1.3-2.9 1.6-4.5q0.2-0.7 0.2-1.5c0.2-1.6 0.1-3.3 0.3-4.9 0.2-1.5 0.6-3 1.2-4.3 0.8-1.9 2-3.5 3.9-4.3 0.6-0.3 1.2-0.5 1.9-0.4 0.8 0 1.5 0.4 2.1 0.9z"/><path class="S" d="m37.1 39.9l-4.4 3.2c0.6-1.3 1-2.6 1.3-3.9q0.2-0.7 0.2-1.5c0.7-0.1 1.4-0.1 2-0.1q0.8-0.1 1.6-0.2c-0.3 1.1-0.5 1.9-0.7 2.5z"/><path class="I" d="m51.3 31.4l4.5 6.1c0.6 0.8 0.4 1.8-0.3 2.3l-31.1 22.9c-0.7 0.6-1.8 0.4-2.3-0.3l-4.5-6.1c-0.6-0.8-0.4-1.8 0.3-2.3l31.1-22.9c0.7-0.6 1.8-0.4 2.3 0.3z"/><path class="N" d="m51.2 31.3l4.7 6.3c0.5 0.7 0.3 1.6-0.4 2.2l-8.8 6.5-6.5-8.8 8.8-6.5c0.7-0.5 1.7-0.4 2.2 0.3z"/><path class="K" d="m41.6 50l0.7-0.5-6.1-8.3-0.7 0.6z"/><path class="L" d="m38.3 52.5l3.3-2.5-6.5-8.7-3.3 2.4z"/><path class="M" d="m40.5 50.8l1.1-0.8-6.1-8.2-1.1 0.7z"/><path class="J" d="m22.9 63q-0.5-0.2-0.8-0.6 0 0 0 0l-4.5-6.1c-0.5-0.7-0.4-1.8 0.3-2.3l13.9-10.2 0.4 0.4-13.8 10.1c-0.7 0.5-0.8 1.5-0.3 2.3l4.6 6.1q0 0.1 0.2 0.3z"/><path class="J" d="m40.7 37.9l-4.5 3.3-0.3-0.5 13.1-9.7-8.8 6.5q0.2 0.2 0.4 0.4 0 0 0.1 0z"/><path class="T" d="m35.5 41.8l0.7-0.6-0.3-0.5-0.8 0.6z"/><path class="U" d="m49.1 31z"/><path class="V" d="m32.1 44.2l2.3-1.7-0.3-0.4-2.3 1.6z"/><path class="W" d="m34.4 42.5l1.1-0.8-0.4-0.4-1 0.8z"/><path class="K" d="m51 31.1c-0.5-0.4-1.3-0.5-1.9-0.1q0 0 0 0 0 0 0 0 0 0 0 0 0 0 0 0 0 0 0 0 0 0 0 0l-8.9 6.5c0 0 0.4 0.4 0.4 0.4l9-6.6c0.4-0.3 1-0.3 1.4-0.2z"/><path class="L" d="m48.1 42.1q-4.8-0.7-9.4-2.1c-0.5-0.2-1-0.4-1.5-0.6h-0.1c-0.2-0.1-2.2-1-3.3-0.4q-0.5 0.2-0.7 0.7c-0.7 1.7-0.5 3.4-0.5 3.4l2.4-1.7c0.5 0.4 1.1 0.7 1.6 1.1 2.1 1.2 4.3 2.3 6.7 2.9 1.4 0.4 2.8 0.5 4.2 0.9q-1.5-1.4-2.7-3.1 1.7-0.4 3.3-1.1z"/><path class="b" d="m59.5 75.9l0.4 1.9-0.5-0.3-0.4-1.9z"/><path class="X" d="m74.9 73.1l0.3 1.9c0.2 1.2 0 2.5-0.6 3.7l-0.3-1.8c0.6-1.2 0.8-2.5 0.6-3.8z"/><path class="d" d="m74.3 76.8l0.3 1.9-0.6 0.1-0.4-1.8z"/><path class="b" d="m66 81.2l0.4 1.9-0.4 0.2-0.3-1.8z"/><path class="Y" d="m65.7 81.5l0.3 1.8c-1.7-0.1-3.3-0.7-4.6-1.8-0.9-0.8-1.6-1.8-1.9-3l-0.3-1.9c0.3 1.2 1 2.2 1.9 3 1.3 1.1 2.9 1.8 4.6 1.9z"/><path class="f" d="m66.4 81.5l0.3 1.9-0.3-0.3-0.4-1.9z"/><path class="Z" d="m74 77.4l0.4 1.8q-0.7 1.2-1.7 2c-1.7 1.4-3.8 2.2-6 2.2l-0.3-1.9c2.1 0 4.3-0.7 6-2.1q1-0.9 1.6-2z"/><path class="a0" d="m74.1 77.5q-0.7 1.1-1.7 2c-1.7 1.4-3.8 2.1-6 2.1l-0.3-0.3-0.4 0.3c-1.7-0.1-3.3-0.8-4.6-1.9-0.9-0.7-1.6-1.8-1.9-2.9l0.3-0.7-0.5-0.4c-0.1-2 0.7-4.1 2.6-5.7q0.9-0.7 1.8-1.2 0.4 0 0.8 0l0.3-0.4c2.5-0.9 5.3-0.7 7.4 0.6l0.3 0.6 1.3 0.7c1.6 1.9 1.9 4.4 0.8 6.7l-0.6 0.1z"/><path class="a1" d="m74 77.4q-0.6 1.1-1.7 2c-1.6 1.4-3.8 2.1-5.9 2.1l-0.4-0.3-0.3 0.3c-1.7-0.1-3.3-0.8-4.6-1.9-0.9-0.7-1.6-1.8-1.9-3l0.3-0.7-0.5-0.3c-0.1-2 0.7-4.1 2.6-5.7q0.8-0.7 1.8-1.2 0.4 0 0.8 0l0.3-0.4c2.5-0.9 5.2-0.7 7.3 0.6l0.3 0.6 1.3 0.7c1.7 1.9 2 4.4 0.9 6.7l-0.7 0.1z"/><path class="a2" d="m71.2 70.9c2.1 1.9 1.9 5.1-0.4 7.1-2.4 2-6.1 2.1-8.2 0.2-2.2-1.9-2-5.1 0.4-7.1 2.3-2 6-2.1 8.2-0.2z"/><path class="a3" d="m71.3 71c2.1 1.9 2 5.1-0.4 7.1-2.4 2-6.1 2.1-8.2 0.2-2.2-1.9-2-5.1 0.4-7.1 2.3-2 6-2.1 8.2-0.2z"/><path class="l" d="m63 78.5c-2.1-1.9-2-5 0.4-7.1 2.2-1.8 5.5-2 7.7-0.5-2.2-1.8-5.7-1.7-8 0.3-2.4 2-2.6 5.2-0.4 7.1q0.2 0.2 0.5 0.4z"/><path class="a4" d="m69.4 81.5c-1.5 0.5-2.7 0.7-2.8 0.5-0.1-0.2 1-0.8 2.5-1.4 1.5-0.5 2.8-0.7 2.9-0.5 0.1 0.2-1.1 0.8-2.6 1.4z"/><path class="a5" d="m74.7 72.3l-15.4 4-0.1 0.3c0.3 1.2 1 2.2 1.9 3q0.3 0.3 0.7 0.5l11.9-3.1h-0.1l0.7-0.1c0.7-1.4 0.8-3.1 0.4-4.6z"/><path class="a6" d="m72.2 69.5l-0.3-0.6q-1-0.6-2-0.9l-8.7 2.3c-0.8 0.8-1.4 1.7-1.8 2.7l13-3.4z"/><path class="p" d="m70.9 75.9c0.1-0.6 0-1.3-0.7-1.6 0 0 0.5 0.7 0.1 1.4 0 0-0.1 0.9 0.6 0.2z"/><path class="p" d="m70.3 75.7c0.4-0.7-0.1-1.4-0.1-1.4 0.7 0.3 0.8 1 0.7 1.6 0 0 0 0.6 0.7-0.1q0-0.1 0-0.3c0.3-1.3-1-1.7-1.3-1.6-0.4 0.2-0.5 0.8-0.5 0.8 0.2 0.2 0.2 0.4 0.1 0.7 0 0-0.1 0.7 0.4 0.3z"/><path class="l" d="m70.3 75.7q-0.1 0.1-0.3 0.3c0 0.3-0.2 0.7-0.8 1.2 0 0 0.7 0.1 1.7-1.3q0 0 0 0c-0.7 0.7-0.6-0.2-0.6-0.2z"/><path class="l" d="m69.2 76.4q0 0 0 0 0.6-0.2 0.8-0.4 0.2-0.2 0.3-0.3c-0.5 0.4-0.4-0.3-0.4-0.3-0.1 0.4-0.5 0.8-0.7 1z"/><path class="l" d="m70.9 75.9q0 0 0 0c-0.1 0.6-0.4 1.2-0.5 1.4q0 0 0.1 0c0.1-0.1 0.8-0.5 1.1-1.5-0.7 0.7-0.7 0.1-0.7 0.1z"/><path class="l" d="m71.6 75.8q-0.1 0.4-0.4 0.8-0.3 0.4-0.7 0.7-0.1 0-0.1 0 0 0 0 0v-0.1q0.3-0.6 0.5-1.3-0.2 0.4-0.5 0.7c-0.3 0.3-0.6 0.5-0.9 0.6q-0.2 0-0.3 0 0.3-0.2 0.5-0.5 0.2-0.3 0.3-0.7h0.1q-0.2 0.1-0.3 0.2-0.3 0.2-0.5 0.3c-0.1 0-0.2-0.1-0.1-0.1q0-0.1 0.1-0.1c0.3-0.4 0.9-1.1 0.4-1.6 0.1-0.4 0.3-0.7 0.6-0.9q0.1 0 0.1 0c0.5 0 0.9 0.2 1.1 0.6 0.3 0.5 0.3 1 0.1 1.4zm-0.1 0q0.1-0.3 0.1-0.5c0.1-0.7-0.3-1.2-0.9-1.4q-0.2 0-0.3 0-0.1 0.1-0.2 0.2-0.1 0-0.2 0.1-0.1 0.2-0.2 0.5c0.6 0.4-0.1 1.3-0.5 1.7q0 0-0.1 0 0.1 0 0.2-0.1 0.4-0.1 0.7-0.3c-0.1 0.3-0.4 0.7-0.6 1q-0.2 0.1-0.3 0.2c0.3 0 0.5-0.2 0.7-0.3l0.1-0.1q0.1-0.1 0.2-0.1c0-0.1 0.1-0.2 0.1-0.2 0.1-0.1 0.3-0.3 0.4-0.4q0.1-0.1 0.2-0.2-0.1 0.7-0.4 1.4 0 0 0 0 0.2-0.2 0.4-0.4c0.3-0.3 0.5-0.7 0.6-1.1z"/><path class="l" d="m70.2 74.3c0.6 0.3 0.9 1 0.7 1.7 0 0 0-0.1 0-0.1-0.1 0-0.1 0.1-0.1 0.1 0-0.1 0.1-0.4 0.1-0.5 0-0.5-0.3-0.9-0.7-1.2z"/><path class="l" d="m70.3 74.7c0.2 0.4 0.2 0.9-0.1 1.3l-0.1-0.1q0-0.1 0.1-0.1c0.1-0.2 0.2-0.5 0.2-0.8q-0.1-0.1-0.1-0.3z"/><path class="q" d="m69.1 76.5c0.9-0.7 1-1.6 0.9-2.1q-0.1 0.1-0.1 0.1c-0.2-0.5-1.2-1.1-2.8-1.1-0.5 0-0.9-0.2-1.3-0.3 0 0-0.7 0.5-0.9 1.1 0 0.1-0.1 0.1-0.2 0.1-0.1-0.2-0.2-0.4-0.2-0.7q0-0.1 0-0.1 0.1-0.1 0.1-0.2 0 0 0 0c0.1-0.5-0.1-0.8-0.4-0.9-0.2-0.1-0.5 0.1-0.8 0.5-0.6 1.2 0.2 1.5 0.2 1.5 0 0-0.3 1.4 0.2 2.6 0.8 1.7 2.7 2.4 3.7 1.5 0.9-0.6 0.4-1 1.6-2z"/><path class="p" d="m70.8 72.9c-0.6-0.9-2.9-2.7-4.5-2.3q-0.5 0.1-0.9 0.3c0 0-0.3 0.2 0.1 0.6 0.5 0.3 0.7 0.3 0.7 0.3 0 0-0.1 0.2 0.3 0.3 0 0 0 0.2 0.2 0.4 0 0 0.5 0.6 0.3 0.9q0.1 0 0.1 0c1.6 0 2.6 0.7 2.8 1.1q0 0 0.1-0.1c0.4-0.2 1.3-0.8 0.8-1.5z"/><path class="l" d="m66.7 72.5q-0.1-0.1-0.2-0.2 0 0 0.1-0.1 0.4 0 0.9-0.2-0.2 0-0.4 0-0.4 0-0.8 0.1 0 0 0 0-0.1-0.1-0.1-0.2 0 0 0-0.1 0.9 0 1.8-0.2-0.3 0-0.6 0-0.7 0.1-1.4 0.2 0 0 0-0.1-0.2 0-0.4-0.2c-0.3-0.2-0.3-0.4-0.3-0.5 0.1 0 0 0 0 0-0.6 0.3-0.9 0.6-1 0.7q0 0.1 0 0.1c0.1 0 0.2 0.1 0.4 0.1 0.1 0 0.1 0.1 0 0.1q-0.1 0.1-0.2 0.1 0 0.1 0 0.1c0.1 0.1 0.3 0.3 0.7 0.6q0.3 0.1 0.6 0.2 0.5 0.3 1.2 0.3 0 0 0 0c0.1-0.3-0.2-0.8-0.3-0.8q0 0 0 0z"/><path class="l" d="m69.9 74.5c0.4-0.2 1.1-0.8 1-1.3 0-0.2-0.2-0.4-0.3-0.5q-0.4-0.4-0.9-0.8c-0.9-0.7-2.2-1.4-3.3-1.2-0.8 0.1-1.6 0.5-2.1 1.1v-0.1q0.1 0.1 0.2 0.1c0.3 0.1 0.7 0.1 1 0.1-0.4 0.1-0.8 0.1-1.2 0q0 0-0.1-0.1 0-0.1 0.1-0.1 0.3-0.5 0.9-0.8c0.4-0.2 1-0.4 1.5-0.4 1.1-0.1 2.2 0.6 3.1 1.3 0.4 0.3 0.8 0.6 1.1 1q0.1 0.2 0.1 0.3c0.1 0.5-0.3 0.9-0.6 1.1q-0.2 0.2-0.5 0.3z"/><path class="r" d="m65.4 78.6c0 0-2.4-3-0.8-4 1-0.6 1.3-1.4 1.2-1.5-0.1-0.2-0.2 0.4-0.7 0.3-0.5-0.1-0.6 0.2-0.6 0.2 0 0-0.3 0.9-0.9 0.8-0.2 1-0.2 3.1 1.8 4.2z"/><path class="l" d="m70.8 73.7c0.1-0.5-0.2-0.9-0.6-1-0.3-0.2-0.6-0.2-0.8-0.2q-0.3 0-0.6 0-0.8 0-1.7 0c-0.6 0-1.2 0.1-1.8 0q-0.3-0.1-0.6-0.2-0.1 0-0.2-0.1 0.1 0 0.2 0 0.3 0.1 0.7 0.1 0.8 0.1 1.7 0.1c0.5 0 1.1-0.1 1.6-0.1 0.5 0 1.1 0 1.5 0.3 0.3 0.1 0.5 0.4 0.6 0.7q0.1 0.2 0 0.4z"/><path class="s" d="m67.6 72.8c0.4 0 0.6-0.1 0.6-0.1 0-0.1-0.2-0.1-0.5-0.2-0.3 0-0.6 0-0.6 0.1 0 0.1 0.2 0.1 0.5 0.2z"/><path class="s" d="m67.3 71.4c0-0.1-0.2-0.1-0.4-0.1q0 0 0-0.1 0 0 0 0c0-0.1-0.2-0.1-0.4-0.1-0.2 0-0.3 0.1-0.3 0.2q0 0.1 0.1 0.1c0 0 0 0 0 0.1q-0.2 0-0.2 0.1c0 0.1 0.3 0.1 0.6 0 0.4 0 0.6-0.1 0.6-0.2z"/><path class="s" d="m68 72.3q0-0.1-0.3-0.1c0-0.1 0-0.1 0-0.1q0.1 0 0.1-0.1c0 0-0.3-0.1-0.7-0.2-0.3 0-0.6 0.1-0.6 0.1q0 0.1 0.3 0.1c0 0.1 0 0.1 0 0.1q-0.1 0-0.1 0.1c0 0 0.3 0.1 0.6 0.1 0.4 0 0.7 0 0.7 0z"/><path class="p" d="m64.9 73.1c0.2 0.5 0.4 0.4 0.6 0.2 0.2-0.1 0.3-0.2 0.3-0.2q-0.3-0.2-0.6-0.3c-0.4-0.3-0.6-0.5-0.7-0.6-0.2 0.1-0.3 0.2-0.3 0.2q0.1 0 0.1 0c0 0 0.3-0.1 0.6 0.7z"/><path class="l" d="m64.6 73.3q0 0 0 0 0 0.1 0 0.2-0.1 0-0.1 0.1c0 0.3 0.2 0.6 0.3 0.7 0 0 0.1 0 0.1 0 0.1-0.4 0.4-0.7 0.6-1-0.1 0.2-0.4 0.3-0.6-0.2-0.3-0.7-0.6-0.7-0.6-0.7 0.2 0.1 0.4 0.4 0.3 0.9z"/><path class="t" d="m65.8 74.4l1.2 0.9c0 0-0.5 0.7-1.1 0.3-0.7-0.5-0.1-1.2-0.1-1.2z"/><path class="u" d="m66 74.6l-0.2-0.2c0 0-0.6 0.7 0.1 1.2q0 0 0.1 0.1c-0.4-0.5 0-1 0-1.1z"/><path class="t" d="m65.8 74.4l1.2 0.9c0 0-0.5 0.7-1.1 0.3-0.7-0.5-0.1-1.2-0.1-1.2z"/><path class="l" d="m66.2 75.4c0.1 0.1 0.2 0.1 0.3 0 0.1-0.1 0.1-0.3 0.1-0.3-0.1-0.1-0.2-0.1-0.3 0-0.1 0.1-0.1 0.3-0.1 0.3z"/><path class="t" d="m68.8 76.8l-1-0.7c0 0-0.5 0.5 0 0.9 0.5 0.5 1-0.2 1-0.2z"/><path class="u" d="m68 76.3l-0.2-0.2c0 0-0.5 0.6 0.1 1q0 0 0.1 0.1c-0.3-0.4-0.1-0.9 0-0.9z"/><path class="t" d="m68.8 76.8l-1-0.7c0 0-0.5 0.5 0 0.9 0.5 0.5 1-0.2 1-0.2z"/><path class="l" d="m67.8 76.8c0 0 0.1 0 0.2-0.1 0.1-0.2 0.1-0.3 0.1-0.3-0.1-0.1-0.2 0-0.3 0.1-0.1 0.1-0.1 0.2 0 0.3z"/><path class="t" d="m67.8 76.6q0.1 0 0.2-0.1 0-0.1 0-0.1-0.1-0.1-0.1 0-0.1 0.1-0.1 0.2z"/><path class="l" d="m65.8 73.8c0 0 0.5-0.4 1.1 0 0.5 0.4 1.2 0.8 0.5 1.2-0.1 0.1-1-0.8-1.6-1.2z"/><path class="t" d="m65.8 73.8c0 0 0.5-0.4 1.1 0 0.5 0.4 1.2 0.8 0.5 1.2-0.1 0.1-1-0.8-1.6-1.2z"/><path class="l" d="m69.2 76q0-0.1-0.1-0.1v-0.1c-0.3-0.2-0.6-0.5-0.8-0.5q-0.1 0-0.2 0.3c-0.1 0.1 0.2 0.3 0.4 0.5q0.3 0.2 0.5 0.4 0.2-0.1 0.4-0.2-0.1-0.2-0.2-0.3z"/><path class="l" d="m65 71.9q-0.2 0.1-0.4 0.2-0.1 0.1-0.1 0.1v-0.1c0.5 0.5 1.2 0.9 1.9 1.1q0.4 0.1 0.8 0.1 0.2 0 0.3 0c0.7 0.1 1.5 0.3 2.1 0.8q0.1 0.1 0.2 0.3-0.1-0.1-0.2-0.3c-0.6-0.4-1.4-0.6-2.1-0.6q-0.1 0-0.2 0-0.5 0-1-0.2c-0.7-0.2-1.4-0.6-2-1.1l0.1-0.1q0 0 0.1-0.1 0.1 0 0.2 0 0.1-0.1 0.3-0.1z"/><path class="l" d="m64.5 72.2q-0.1 0.1-0.3 0.2c0.3 0.1 0.4 0.4 0.4 0.6q0 0.1 0 0.3 0 0.1 0 0.2-0.1 0.3 0 0.6 0.1 0.1 0.2 0.2c0 0 0 0 0.1-0.1q0-0.1 0.1-0.2 0.3-0.5 0.7-1v0.1h0.1q-0.5 0.4-0.8 0.9-0.1 0.1-0.1 0.2c0 0.1-0.1 0.1-0.2 0.1q-0.1-0.2-0.1-0.4-0.1-0.2-0.1-0.4 0.1-0.2 0.1-0.3 0-0.2-0.1-0.4c0-0.2-0.1-0.3-0.3-0.4q0.1-0.1 0.2-0.2z"/><path class="p" d="m64.4 73.6q0 0 0 0c-0.1-0.1-0.3-0.4-0.5-0.1-0.2 0.2-0.1 0.5-0.1 0.6q0 0 0 0c-0.1-0.1-0.3-0.2-0.3-0.2q0 0-0.1 0c0-0.1-0.1-0.6 0.4-1.1 0.4-0.3 0.7 0.2 0.6 0.8z"/><path class="l" d="m64.2 72.5q0 0 0 0z"/><path class="l" d="m69.9 75.5q0.2-0.4 0.1-0.9v-0.2q0 0.3 0 0.6-0.1 0.1-0.1 0.2 0 0.1 0 0.2 0 0 0 0.1h-0.1c-0.1 0.4-0.4 0.6-0.7 0.9q0.1 0 0.1 0.1c0.3-0.3 0.6-0.6 0.7-1z"/><path class="l" d="m68.8 76.8q-0.1 0-0.1 0-0.2 0.2-0.4 0.5c-0.1 0.2-0.2 0.4-0.3 0.6q-0.3 0.5-0.8 0.8c-1.5 0.6-3-0.7-3.4-2-0.3-0.8-0.3-1.5-0.2-2.3-0.3-0.2-0.3-0.6-0.3-0.9 0-0.4 0.4-1.2 0.9-1q0 0 0.1 0 0.1 0.1 0.2 0.2c0.2 0.3 0 0.7-0.1 1.1q0.2-0.2 0.2-0.4c0.1-0.3 0.1-0.7-0.2-0.9l-0.1-0.1q0 0 0 0 0 0 0 0-0.1-0.1-0.2-0.1c-0.4 0.1-0.7 0.5-0.8 0.9q-0.1 0.2-0.1 0.3c0 0.4 0 0.7 0.3 0.9q0.1 0 0.1 0 0 0 0 0 0 0 0 0-0.1 0.2-0.1 0.4-0.1 0.7 0 1.5 0.2 0.7 0.6 1.2c0.5 0.8 1.4 1.5 2.4 1.5 0.6-0.1 1.2-0.5 1.6-1 0.1-0.2 0.2-0.5 0.3-0.7q0.1-0.1 0.3-0.3 0-0.1 0.1-0.2 0 0 0 0z"/><path class="l" d="m63.6 74.4q0 0 0 0 0 0 0 0z"/><path class="l" d="m68.8 76.7q0 0.1 0.1 0.1 0.1-0.1 0.2-0.3 0 0 0-0.1-0.1 0.2-0.3 0.3z"/><path class="l" d="m69.2 76.5q0 0 0 0 0-0.1-0.1-0.1 0 0 0 0 0.1 0.1 0.1 0.1z"/><path class="l" d="m68.9 76.8q-0.1 0-0.1 0 0 0 0 0 0 0 0 0 0 0 0.1 0z"/><path class="l" d="m68.8 76.7q0 0 0 0 0 0.1 0.1 0.1 0 0 0 0-0.1 0-0.1-0.1z"/><path class="l" d="m69.2 76.5q0 0 0 0 0 0-0.1-0.1 0 0 0 0 0 0.1 0.1 0.1z"/><path class="p" d="m68.4 73.8q0.5-0.3 1.1-0.3 0.2 0 0.3 0.1 0.1 0 0.3 0.1 0 0 0 0c0-0.2-0.2-0.3-0.4-0.4q-0.2-0.1-0.4-0.2-0.3-0.1-0.6-0.1c-0.4-0.1-0.9 0-1.5 0.2-0.1 0.1-0.3 0.3 0 0.4q0.6 0 1.1 0.2 0.1 0 0.1 0z"/><path class="p" d="m70 74.6q0 0 0 0 0 0 0 0 0 0 0 0 0 0 0 0z"/><path class="p" d="m70 74.6q0 0 0 0z"/><path class="p" d="m70.3 74.1q0.1-0.1-0.1-0.2 0-0.1 0-0.1-0.2-0.1-0.3-0.1-0.2-0.1-0.4-0.1-0.5 0-1 0.2 0 0-0.1 0 0 0-0.1 0.1c0 0-0.1 0.1 0.1 0.1 0.2 0.1 1.4 0.2 1.6 0.6q0 0 0 0 0-0.1 0-0.1c0.2-0.1 0.3-0.2 0.3-0.4zm-0.5 0.2q0 0 0 0 0 0 0 0z"/><path class="p" d="m69.8 74.3q0 0 0 0 0 0 0 0z"/><path class="l" d="m68.3 74c-0.1 0 0-0.1 0-0.2-0.4 0.2-0.9 0.5-1.2 0.7 0.5-0.2 1.1-0.3 1.7-0.3q0.5 0 0.8 0.2 0.2 0 0.4 0.1c-0.2-0.3-1.4-0.4-1.7-0.5z"/><path class="l" d="m67.3 73.2c-0.5 0.1-0.9 0.2-1.3 0.4q0.6 0 1.2 0c-0.3-0.1-0.1-0.3 0.1-0.4z"/><path class="p" d="m70 74.6q0 0 0 0 0 0 0 0z"/><path class="l" d="m70 74.6c0.1-0.1 0.2-0.2 0.3-0.3 0.1-0.2 0.1-0.4-0.1-0.5q0-0.2-0.1-0.3-0.1-0.2-0.3-0.3-0.2-0.2-0.4-0.3c-0.7-0.2-1.4-0.1-2.1 0.1q-0.5 0.1-1 0.3-0.3 0.2-0.6 0.3c-0.1 0.1-0.1 0.2 0 0.2 0.8-0.1 1.5-0.2 2.3 0q0.1 0 0.2 0 0 0 0 0c-0.4 0.2-0.9 0.5-1.3 0.7q0 0-0.1 0.1c0 0 0 0.1 0.1 0 0.6-0.2 1.3-0.3 1.9-0.3 0.4 0 0.8 0.1 1.2 0.3q0 0 0 0zm-2.8-1q-0.6-0.1-1.2 0c0.4-0.2 0.8-0.3 1.3-0.5 0.5-0.1 1-0.2 1.5-0.2q0.2 0.1 0.5 0.2 0.2 0.1 0.4 0.2c0.2 0.1 0.4 0.2 0.5 0.4q-0.1 0-0.1 0-0.1-0.1-0.3-0.1-0.1-0.1-0.3-0.1-0.5 0-1.1 0.2 0 0 0 0-0.6-0.1-1.2-0.1zm2.8 0.9q0 0 0 0.1 0 0 0 0-0.2-0.2-0.4-0.2-0.3-0.2-0.8-0.2c-0.6 0-1.2 0.1-1.7 0.3 0.3-0.2 0.8-0.5 1.2-0.6q0.1-0.1 0.1-0.1 0.1 0 0.1 0 0.5-0.2 1-0.2 0.2 0 0.4 0.1 0.1 0 0.3 0.1 0 0 0 0.1 0.1 0.1 0.1 0.2c0 0.2-0.1 0.3-0.3 0.4z"/><path class="s" d="m69.1 73.4c0-0.1-0.2-0.1-0.3-0.1q-0.1 0-0.1-0.1 0 0 0 0c0-0.1-0.1-0.1-0.3-0.1-0.2 0.1-0.3 0.1-0.3 0.2q0 0.1 0 0.1c0.1 0 0.1 0 0 0q-0.1 0.1-0.1 0.1c0 0.1 0.3 0.1 0.6 0.1 0.3-0.1 0.5-0.2 0.5-0.2z"/><path class="l" d="m66.6 77.7q0 0.2-0.1 0.3c-0.1 0.2-0.2 0.3-0.3 0.5 0.1 0.1 0.5 0 0.7-0.1 0.2-0.1 0.3-0.2 0.5-0.4-0.2 0-0.5-0.2-0.8-0.3z"/><path class="v" d="m66.6 77.7c-0.4-0.3-0.9-0.6-1.2-1.1q-0.2-0.3-0.2-0.6-0.2 0.1-0.4 0.4-0.1 0.1-0.1 0.2c0.2 0.1 0.5 0.2 0.8 0.4 0.3 0.2 0.7 0.5 1 1q0.1-0.1 0.1-0.3z"/><path class="u" d="m67.2 77.3c-0.1 0-0.4-0.1-0.7-0.3-0.3-0.3-0.5-0.8-0.6-0.9-0.1-0.2-0.4-0.4-0.8-0.1q0.1 0.4 0.3 0.6c-0.1-0.3 0.1-0.4 0.3-0.3q0.6 0.6 1 0.9c0.4 0.4 0.7 0.5 0.9 0.4 0-0.1-0.3-0.2-0.4-0.3z"/><path class="r" d="m66.5 78c-0.3-0.5-0.7-0.8-1-1-0.3-0.2-0.6-0.3-0.8-0.3q-0.1 0.3 0 0.6c0.2 0.6 0.9 1 1.2 1.2 0.1 0 0.2 0 0.3 0 0.2-0.2 0.2-0.3 0.3-0.5z"/><path fill-rule="evenodd" class="w" d="m65.8 77.1c0 0 0 0.4-0.4 0.8"/><path class="q" d="m67.6 77.7c-0.2 0-0.5-0.1-0.9-0.5-0.3-0.2-0.6-0.5-1-0.9-0.1-0.1-0.4 0-0.3 0.3 0.3 0.5 0.8 0.8 1.2 1.1 0.3 0.2 0.6 0.3 0.8 0.3q0 0 0.1 0 0.1-0.2 0.1-0.3z"/><path class="t" d="m66.9 78.4c0.2-0.1 0.5-0.4 0.5-0.4q0 0 0 0 0.2-0.2 0.2-0.3c0-0.2-0.3-0.3-0.4-0.4-0.1 0-0.4-0.1-0.7-0.3-0.3-0.3-0.5-0.8-0.6-0.9-0.1-0.2-0.4-0.4-0.8-0.1q-0.1 0.1-0.3 0.4-0.1 0.1-0.1 0.2-0.1 0.4 0 0.7c0 0 0.9 1.6 2.2 1.1z"/><path class="b" d="m76.7 32.2l-1.1-0.8 0.4-0.1 1.1 0.8z"/><path class="a7" d="m70.3 41.7l-1.1-0.8c-0.8-0.5-1.4-1.3-1.7-2.2l1.1 0.8c0.3 0.9 0.9 1.7 1.7 2.2z"/><path class="d" d="m68.6 39.5l-1.1-0.8 0.3-0.4 1.1 0.7z"/><path class="b" d="m70.6 32.9l-1.2-0.8 0.1-0.3 1.2 0.8z"/><path class="a8" d="m70.7 32.6l-1.2-0.8c0.9-0.9 2.1-1.4 3.4-1.5 0.8 0 1.7 0.2 2.5 0.6l1.1 0.8c-0.7-0.5-1.6-0.7-2.5-0.6-1.3 0.1-2.4 0.6-3.3 1.5z"/><path class="f" d="m70.3 32.9l-1.2-0.8h0.3l1.2 0.8z"/><path class="a9" d="m68.5 39.1l-1.2-0.8q-0.2-1-0.1-1.9c0.1-1.7 0.8-3.2 1.9-4.3l1.2 0.8c-1.1 1.1-1.8 2.6-2 4.2q-0.1 1 0.2 2z"/><path class="aa" d="m68.4 39q-0.2-0.9-0.2-1.9c0.2-1.6 0.9-3.1 2-4.2l0.3-0.1 0.1-0.3c0.9-0.8 2.1-1.3 3.3-1.4 0.9-0.1 1.8 0.1 2.6 0.5l0.2 0.6 0.4-0.1c1.1 0.9 1.8 2.5 1.7 4.3q-0.1 0.8-0.4 1.5-0.2 0.2-0.3 0.5v0.4c-0.8 1.7-2.4 3-4.1 3.5l-0.5-0.2-1 0.3c-1.9-0.1-3.3-1.3-3.9-3l0.2-0.4z"/><path class="ab" d="m68.5 39.1q-0.3-1-0.2-2c0.2-1.6 0.8-3.1 2-4.2h0.3l0.1-0.3c0.9-0.9 2.1-1.4 3.3-1.5 0.9-0.1 1.8 0.1 2.5 0.6l0.2 0.5 0.5-0.1c1.1 1 1.8 2.5 1.6 4.3q0 0.8-0.3 1.6-0.2 0.2-0.4 0.4l0.1 0.4c-0.8 1.7-2.4 3.1-4.1 3.5l-0.5-0.2-1.1 0.3c-1.8-0.1-3.3-1.2-3.9-2.9l0.3-0.5z"/><path class="ac" d="m73.4 40.9c-2.2 0.1-3.7-1.6-3.6-3.9 0.2-2.2 2.1-4.2 4.2-4.3 2.1-0.2 3.7 1.5 3.5 3.8-0.2 2.3-2 4.3-4.1 4.4z"/><path class="ad" d="m73.3 40.9c-2.2 0.2-3.7-1.6-3.6-3.8 0.2-2.3 2.1-4.3 4.2-4.4 2.1-0.2 3.6 1.6 3.5 3.8-0.2 2.3-2 4.3-4.1 4.4z"/><path class="l" d="m73.5 32.7c2.2-0.1 3.7 1.6 3.6 3.9-0.2 2.1-1.8 3.9-3.7 4.3 2.1-0.2 3.8-2.2 4-4.4 0.2-2.3-1.4-4-3.5-3.8q-0.3 0-0.5 0z"/><path class="ae" d="m68.7 34.5c0.5-1 1-1.8 1.2-1.7 0.2 0.1-0.1 1-0.6 2-0.5 1.1-1 1.9-1.2 1.8-0.2-0.1 0.1-1 0.6-2.1z"/><path class="af" d="m70.8 42l5.8-10.1-0.1-0.2c-0.7-0.4-1.6-0.6-2.5-0.6q-0.3 0.1-0.6 0.1l-4.6 7.9h0.1l-0.3 0.4c0.4 1.1 1.2 2 2.2 2.5z"/><path class="ag" d="m73.6 42.1l0.4 0.2q0.8-0.2 1.5-0.6l3.3-5.7c0-0.8-0.1-1.6-0.5-2.3l-4.9 8.5z"/><path class="p" d="m70.9 38.2c0.3 0.4 0.7 0.6 1.2 0.4 0 0-0.7 0-0.8-0.6 0 0-0.4-0.5-0.4 0.2z"/><path class="p" d="m71.3 38c0.1 0.6 0.8 0.6 0.8 0.6-0.5 0.2-0.9 0-1.2-0.4 0 0-0.3-0.3-0.3 0.4q0 0 0.1 0.1c0.6 0.9 1.4 0.4 1.5 0.2 0.1-0.3-0.1-0.7-0.1-0.7-0.2 0-0.4-0.1-0.4-0.3-0.1 0-0.4-0.4-0.4 0.1z"/><path class="l" d="m71.3 38q-0.1-0.1 0-0.3c-0.2-0.2-0.3-0.5-0.2-1.1 0 0-0.4 0.4-0.2 1.6q0 0 0 0c0-0.7 0.4-0.2 0.4-0.2z"/><path class="l" d="m71.5 37q0 0-0.1 0-0.1 0.4-0.1 0.7-0.1 0.2 0 0.3c0-0.5 0.3-0.1 0.3-0.1-0.1-0.3-0.1-0.7-0.1-0.9z"/><path class="l" d="m70.9 38.2q0 0 0 0c-0.3-0.4-0.5-0.8-0.5-1q0 0 0 0c-0.1 0.2-0.2 0.7 0.2 1.4 0-0.7 0.3-0.4 0.3-0.4z"/><path class="l" d="m70.6 38.6q0.1 0.1 0.2 0.3c0.3 0.3 0.8 0.4 1.2 0.2q0.1-0.1 0.2-0.2 0 0 0-0.1 0-0.1 0-0.2 0-0.2-0.1-0.4c-0.6 0.1-0.7-0.7-0.7-1.2q0 0.1 0.1 0-0.1 0.1-0.1 0.2-0.1 0.2-0.1 0.5c-0.2-0.2-0.2-0.5-0.2-0.8q-0.1-0.2 0-0.3c-0.1 0.2-0.2 0.4-0.2 0.6v0.1q0 0 0 0.1c0 0 0 0.1 0 0.2 0 0.1 0 0.2 0 0.4q0 0.1 0 0.2-0.4-0.4-0.5-1 0 0.1 0 0-0.1 0.3-0.1 0.5c0.1 0.3 0.2 0.6 0.3 0.9zm0 0q-0.2-0.3-0.3-0.6-0.1-0.4 0-0.8 0.1 0 0.1 0 0 0 0 0v0.1q0.2 0.5 0.5 0.9-0.1-0.3-0.1-0.6c0-0.3 0-0.6 0.1-0.8q0.1-0.1 0.2-0.2 0 0.3 0 0.6 0 0.3 0.2 0.5 0-0.1 0-0.3 0-0.2 0.1-0.4c0.1 0 0.1 0 0.1 0.1q0 0 0 0.1c0 0.3 0.1 1 0.6 1 0.2 0.2 0.3 0.5 0.2 0.8q0 0-0.1 0.1c-0.2 0.2-0.6 0.3-0.9 0.2-0.3-0.1-0.6-0.4-0.7-0.7z"/><path class="l" d="m72.1 38.6c-0.5 0.2-1 0-1.3-0.5 0 0 0.1 0.1 0.1 0.1 0-0.1 0-0.2 0-0.2 0 0.1 0.1 0.3 0.2 0.4 0.3 0.2 0.6 0.3 1 0.2z"/><path class="l" d="m71.8 38.5c-0.3-0.1-0.6-0.4-0.6-0.7h0.1q0 0 0 0.1c0 0.2 0.2 0.3 0.3 0.5q0.1 0 0.2 0.1z"/><path class="q" d="m71.5 37c-0.1 0.8 0.3 1.3 0.6 1.5q0-0.1 0-0.1c0.3 0.1 1.2-0.1 2-0.9q0.5-0.4 0.9-0.5c0 0 0-0.7-0.2-1.1 0 0 0-0.1 0.1-0.1 0.1 0 0.3 0.1 0.5 0.3q0 0 0 0 0 0.1 0.1 0.1 0 0 0 0.1c0.2 0.2 0.4 0.3 0.6 0.2 0.2-0.1 0.3-0.3 0.2-0.6-0.4-1-0.9-0.8-0.9-0.8 0 0-0.6-0.8-1.5-1.2-1.3-0.4-2.6 0.2-2.7 1.2-0.1 0.7 0.4 0.7 0.3 1.9z"/><path class="p" d="m72.5 39.7c0.8 0.1 2.9-0.2 3.5-1.2q0.2-0.3 0.3-0.6c0 0 0.1-0.3-0.4-0.2-0.4 0-0.4 0.1-0.4 0.1 0 0-0.1-0.1-0.4 0 0 0-0.1-0.1-0.3 0 0 0-0.5-0.1-0.6-0.4q0 0.1-0.1 0.1c-0.8 0.8-1.7 1-2 0.9q0 0 0 0.1c-0.1 0.3-0.2 1.1 0.4 1.2z"/><path class="l" d="m74.8 37.8q0.1-0.1 0.2 0 0 0 0 0-0.2 0.3-0.4 0.6h0.1q0.1-0.1 0.2-0.2 0.2-0.2 0.4-0.4 0-0.1 0 0 0.1-0.1 0.1 0 0 0 0 0-0.4 0.5-0.8 1.1 0.2-0.2 0.3-0.4 0.3-0.3 0.7-0.7 0 0 0 0 0.1-0.1 0.4-0.1c0.2-0.1 0.3 0 0.3 0.1q0 0 0.1 0c0.1-0.4 0.1-0.8 0.1-0.9q0-0.1-0.1-0.1c0 0.1-0.1 0.1-0.2 0.2-0.1 0-0.1 0-0.1 0q0.1-0.1 0.1-0.2 0-0.1-0.1-0.1c0 0-0.3 0-0.6 0.1q-0.2 0.1-0.5 0.2-0.4 0.1-0.7 0.4-0.1 0.1-0.1 0.1c0.1 0.2 0.6 0.3 0.6 0.3q0 0 0 0z"/><path class="l" d="m72.1 38.4c0 0.3-0.2 1 0.2 1.2 0.1 0.1 0.3 0.1 0.4 0.1q0.5 0 0.9-0.1c0.8-0.1 1.9-0.4 2.4-1.1 0.3-0.5 0.5-1.1 0.4-1.7l0.1 0.1q-0.1 0-0.2 0c-0.2 0.2-0.4 0.4-0.6 0.5 0.2-0.2 0.4-0.5 0.7-0.6q0 0 0.1 0 0 0 0 0.1 0.1 0.4-0.1 0.8-0.1 0.6-0.5 1.1c-0.6 0.6-1.5 0.8-2.3 0.9q-0.5 0.1-1.1 0-0.1 0-0.2-0.1c-0.3-0.1-0.3-0.5-0.3-0.8q0-0.2 0.1-0.5z"/><path class="r" d="m72.3 33.9c0 0 2.8 0.3 2.5 1.7-0.2 0.8 0.1 1.3 0.2 1.4 0.1 0-0.2-0.3 0.2-0.6 0.3-0.2 0.2-0.3 0.2-0.3 0 0-0.3-0.7 0-1-0.4-0.6-1.5-1.6-3.1-1.2z"/><path class="l" d="m72 39.3c0.3 0.2 0.6 0.3 0.9 0.2q0.3-0.1 0.6-0.3 0.1-0.2 0.2-0.3 0.4-0.5 0.9-0.9c0.3-0.4 0.6-0.7 0.9-1q0.2-0.1 0.5-0.2 0-0.1 0.1-0.1v0.1q-0.1 0-0.1 0-0.2 0.2-0.4 0.3-0.5 0.5-0.9 0.9c-0.3 0.3-0.6 0.6-0.8 0.9-0.3 0.2-0.6 0.5-1 0.6-0.2 0.1-0.4 0.1-0.6 0q-0.2-0.1-0.3-0.2z"/><path class="s" d="m74.2 38.1c-0.2 0.2-0.3 0.3-0.3 0.4 0.1 0 0.2-0.1 0.4-0.3 0.2-0.1 0.3-0.3 0.3-0.3-0.1 0-0.2 0.1-0.4 0.2z"/><path class="s" d="m75.1 38.6q0 0.1 0.2-0.1 0-0.1 0.1 0 0 0 0 0c0 0.1 0.2 0 0.2-0.1 0.1-0.1 0.1-0.3 0.1-0.3q0 0-0.1 0 0 0 0 0 0-0.2 0-0.2c0 0-0.2 0.1-0.3 0.3-0.2 0.2-0.3 0.4-0.2 0.4z"/><path class="s" d="m74.3 38.5q0 0.1 0.2 0c0-0.1 0 0 0 0q0 0 0 0c0 0.1 0.2 0 0.4-0.2 0.2-0.2 0.3-0.3 0.3-0.3q0-0.1-0.2 0c0 0 0 0 0 0q0-0.1 0-0.1c-0.1 0-0.2 0.1-0.4 0.3-0.2 0.1-0.3 0.3-0.3 0.3z"/><path class="p" d="m75.4 36.5c-0.3-0.1-0.4 0-0.4 0.2 0 0.1 0 0.3 0 0.3q0.2-0.1 0.4-0.2c0.3 0 0.6-0.1 0.7-0.1q0-0.2 0-0.2 0 0 0 0c0 0-0.1 0.2-0.7 0z"/><path class="l" d="m75.5 36.3q0-0.1 0-0.1-0.1 0-0.1-0.1 0 0 0 0c-0.2-0.2-0.4-0.3-0.5-0.3 0 0-0.1 0-0.1 0.1 0.2 0.2 0.2 0.6 0.2 0.8 0-0.2 0.1-0.4 0.5-0.2 0.5 0.2 0.7 0 0.7 0h-0.1c-0.2 0.1-0.4 0-0.6-0.2z"/><path class="t" d="m74.3 36.3l-1.1 0.1c0 0-0.1-0.6 0.4-0.7 0.6-0.1 0.7 0.6 0.7 0.6z"/><path class="u" d="m74.1 36.3h0.2c0 0-0.1-0.7-0.7-0.6q0 0-0.1 0.1c0.5 0 0.6 0.4 0.6 0.5z"/><path class="t" d="m74.3 36.3l-1.1 0.1c0 0-0.1-0.6 0.4-0.7 0.6-0.1 0.7 0.6 0.7 0.6z"/><path class="l" d="m73.5 36c0 0-0.1 0.1-0.1 0.2q0 0.1 0.1 0.1c0.1 0 0.2 0 0.2-0.1q-0.1-0.2-0.2-0.2z"/><path class="t" d="m71.5 36.6l0.9-0.1c0 0-0.1-0.6-0.5-0.5-0.5 0-0.4 0.6-0.4 0.6z"/><path class="u" d="m72.2 36.5l0.2-0.1c0 0-0.1-0.5-0.6-0.4q-0.1 0-0.1 0c0.4 0 0.5 0.4 0.5 0.5z"/><path class="t" d="m71.5 36.6l0.9-0.1c0 0-0.1-0.6-0.5-0.5-0.5 0-0.4 0.6-0.4 0.6z"/><path class="l" d="m72 36.1c0 0-0.1 0.1 0 0.2 0 0.1 0 0.2 0.1 0.2 0.1 0 0.1-0.1 0.1-0.2 0-0.1-0.1-0.2-0.2-0.2z"/><path class="t" d="m72.1 36.2q0 0.1 0 0.1 0 0.1 0 0.1 0.1 0 0.1-0.1-0.1-0.1-0.1-0.1z"/><path class="l" d="m74.6 36.5c0 0 0 0.5-0.6 0.7-0.4 0.1-1 0.2-0.8-0.4 0-0.1 0.9-0.1 1.4-0.3z"/><path class="t" d="m74.6 36.5c0 0 0 0.5-0.6 0.7-0.4 0.1-1 0.2-0.8-0.4 0-0.1 0.9-0.1 1.4-0.3z"/><path class="l" d="m71.7 37.3q0 0 0.1 0h0.1c0.2 0 0.5 0 0.6-0.2q0.1-0.1 0-0.3c0 0-0.3 0-0.5 0q-0.2 0.1-0.5 0.1 0 0.1 0 0.3 0 0 0.2 0.1z"/><path class="l" d="m76 37.1q0.1-0.1 0.1-0.3 0 0 0-0.1l0.1 0.1q-0.9 0-1.6 0.4-0.3 0.2-0.5 0.4 0 0.1-0.1 0.1c-0.4 0.4-1 0.7-1.5 0.7q-0.2 0-0.3 0 0.1 0 0.3 0c0.5-0.1 1-0.4 1.4-0.7q0.1-0.1 0.1-0.1 0.2-0.3 0.5-0.5c0.5-0.3 1.1-0.4 1.7-0.4q0 0.1 0 0.1-0.1 0.1-0.1 0.2 0 0.1-0.1 0.2z"/><path class="l" d="m76.1 36.7q0-0.1 0-0.2c-0.2 0.1-0.4 0-0.5-0.1q-0.1-0.1-0.1-0.1-0.1-0.1-0.1-0.2-0.2-0.2-0.4-0.2 0 0-0.1-0.1-0.1 0-0.1 0.1 0.1 0.1 0.1 0.2 0.1 0.4 0.1 0.9c0-0.3 0-0.6-0.1-0.9q-0.1-0.1-0.1-0.2c0 0 0-0.1 0.1-0.1q0.1 0 0.3 0.1 0.1 0.1 0.2 0.2 0.1 0.1 0.1 0.2 0.1 0.1 0.3 0.2c0.1 0 0.2 0.1 0.3 0q0.1 0.1 0 0.2z"/><path class="p" d="m75.4 36q0 0 0 0c0.1 0 0.4 0 0.4-0.3 0-0.2-0.2-0.2-0.3-0.3q0 0 0 0c0.1 0 0.2 0 0.2-0.1q0.1 0 0.1 0c0 0.1 0.3 0.2 0.3 0.8 0 0.3-0.4 0.2-0.7-0.1z"/><path class="l" d="m76.1 36.5q0 0 0 0z"/><path class="l" d="m71.6 37.9q0.1 0.3 0.4 0.5l0.1 0.1q-0.2-0.2-0.3-0.3 0-0.1-0.1-0.1 0-0.1-0.1-0.2 0 0 0 0v-0.1c-0.1-0.2-0.1-0.5-0.1-0.8q0 0-0.1 0c0 0.3 0.1 0.6 0.2 0.9z"/><path class="l" d="m71.5 36.6q0 0 0 0 0-0.2 0-0.4c-0.1-0.2-0.1-0.4-0.2-0.6q-0.1-0.4 0.1-0.8c0.3-1.1 1.9-1.2 2.8-0.7 0.5 0.2 0.9 0.6 1.2 1 0.3 0 0.5 0.2 0.7 0.4 0.2 0.2 0.3 0.8 0 1q0 0 0 0-0.1 0-0.2 0c-0.3-0.1-0.5-0.4-0.6-0.6q0.1 0.2 0.1 0.3c0.1 0.2 0.3 0.4 0.6 0.4l0.1-0.1q0 0 0 0 0 0 0 0 0.1 0 0.2-0.1c0.2-0.2 0.1-0.6-0.1-0.8q0-0.1-0.1-0.2c-0.2-0.2-0.4-0.3-0.6-0.3q-0.1 0-0.1 0 0 0 0 0-0.1-0.1-0.1-0.2-0.4-0.5-0.9-0.8-0.4-0.2-0.9-0.3c-0.7-0.2-1.5-0.1-2 0.5-0.3 0.3-0.4 0.9-0.3 1.3 0.1 0.2 0.2 0.4 0.2 0.6q0 0.1 0.1 0.2 0 0.1 0 0.2 0 0 0 0z"/><path class="l" d="m75.4 35.1q0 0 0 0z"/><path class="l" d="m71.5 36.7q0 0 0 0 0 0.1 0 0.3 0 0 0 0 0-0.2 0-0.3z"/><path class="l" d="m71.5 37q0 0 0 0 0 0 0 0 0 0 0 0 0 0 0 0z"/><path class="l" d="m71.5 36.6q0 0 0 0 0 0 0 0 0 0 0 0 0 0 0 0z"/><path class="l" d="m71.5 36.7q0-0.1 0-0.1 0 0 0 0.1 0 0 0 0 0 0 0 0z"/><path class="l" d="m71.5 37q0 0 0 0 0 0 0 0 0 0 0 0 0 0 0 0z"/><path class="p" d="m73.3 38q-0.2 0.4-0.5 0.7 0 0.1-0.1 0.1-0.1 0.1-0.2 0.1-0.1 0-0.1 0c0.1 0.1 0.3 0.1 0.4 0q0.2 0 0.4-0.1 0.2-0.1 0.3-0.2 0.4-0.4 0.7-0.9c0-0.1 0-0.3-0.2-0.2q-0.3 0.2-0.7 0.5 0 0 0 0z"/><path class="p" d="m72 38.4q0 0 0 0 0 0 0 0z"/><path class="p" d="m72 38.4z"/><path class="p" d="m72.1 38.8q0 0.1 0.2 0.1 0 0 0 0 0.2-0.1 0.2-0.1 0.2-0.1 0.3-0.2 0.2-0.2 0.4-0.6 0 0 0 0 0.1-0.1 0.1-0.1c0-0.1-0.1-0.1-0.1-0.1-0.2 0.1-0.8 0.7-1.2 0.6q0 0 0 0 0 0 0 0c0 0.2 0 0.3 0.1 0.4zm0.2-0.4q0 0 0 0z"/><path class="p" d="m72.3 38.4q0 0 0 0z"/><path class="l" d="m73.2 37.8c0 0 0.1 0 0.1 0.1 0.1-0.3 0.2-0.7 0.3-1q-0.3 0.6-0.8 1.1-0.2 0.2-0.5 0.3-0.1 0.1-0.3 0.1c0.4 0.1 1-0.5 1.2-0.6z"/><path class="l" d="m74.2 37.7q0.2-0.4 0.4-0.9-0.3 0.4-0.6 0.7c0.2-0.1 0.2 0 0.2 0.2z"/><path class="p" d="m72 38.4q0 0 0 0 0 0 0 0 0 0 0 0z"/><path class="l" d="m72 38.4c0 0.1 0 0.2 0 0.3 0 0.2 0.2 0.2 0.3 0.2q0.1 0.1 0.2 0.1 0.2 0 0.4 0 0.1 0 0.3-0.1c0.5-0.2 0.8-0.6 1.1-1.1q0.2-0.3 0.3-0.7 0.1-0.2 0.2-0.4c0-0.1-0.1-0.2-0.1-0.1q-0.5 0.7-1.2 1.2-0.1 0.1-0.2 0.1c0.2-0.4 0.3-0.7 0.4-1 0-0.1 0-0.1 0-0.1 0-0.1-0.1-0.1-0.1-0.1-0.2 0.5-0.5 0.9-0.8 1.3-0.2 0.1-0.5 0.3-0.8 0.4q0 0 0 0 0 0 0 0zm2-0.9q0.3-0.3 0.6-0.7-0.2 0.5-0.4 0.9c-0.2 0.4-0.4 0.7-0.7 0.9q-0.1 0.1-0.3 0.2-0.2 0.1-0.4 0.1c-0.1 0.1-0.3 0.1-0.4 0q0 0 0 0 0.2 0 0.2-0.1 0.1 0 0.2-0.1 0.3-0.3 0.5-0.7 0 0 0 0 0.4-0.3 0.7-0.5zm-2 0.9q0 0 0 0 0 0 0 0 0 0 0 0 0.2 0 0.3-0.1 0.3-0.1 0.5-0.3 0.5-0.5 0.8-1.1c-0.1 0.3-0.2 0.7-0.3 1q-0.1 0-0.1 0.1 0 0 0 0-0.2 0.4-0.4 0.7-0.1 0.1-0.3 0.1 0 0.1-0.2 0.1 0 0 0 0-0.2 0-0.2-0.1c-0.1-0.1-0.1-0.2-0.1-0.4z"/><path class="s" d="m73.1 38.5q0.1 0.1 0.2-0.1 0.1 0 0.1 0 0 0 0 0c0 0.1 0.1 0 0.2-0.1 0.1-0.1 0.1-0.2 0.1-0.3q-0.1 0-0.1 0c0 0.1-0.1 0 0 0q0-0.1 0-0.1c-0.1-0.1-0.2 0.1-0.3 0.3-0.1 0.2-0.2 0.3-0.2 0.3z"/><path class="l" d="m72.2 35q-0.1-0.1-0.2-0.2c0-0.2 0-0.2 0-0.4-0.2 0-0.3 0.2-0.4 0.4 0 0.2 0 0.3 0 0.4 0.1 0 0.3-0.1 0.6-0.2z"/><path class="v" d="m72.2 35c0.3-0.1 0.7-0.1 1.1 0q0.2 0 0.5 0.1 0-0.1 0-0.3-0.1-0.2-0.1-0.2-0.2 0.1-0.6 0.2c-0.3 0.1-0.7 0.1-1.1 0q0.1 0.1 0.2 0.2z"/><path class="u" d="m72 35.5c0.1 0 0.3-0.1 0.6-0.1 0.3-0.1 0.6 0 0.7 0.1 0.2 0 0.4 0 0.5-0.4q-0.3-0.1-0.5-0.1c0.2 0 0.2 0.3 0.1 0.3q-0.7-0.1-1.1 0c-0.4 0-0.6 0.2-0.6 0.3 0.1 0 0.2 0 0.3-0.1z"/><path class="r" d="m72 34.8c0.5 0.1 0.8 0.1 1.1 0q0.4-0.1 0.6-0.2-0.1-0.3-0.4-0.4c-0.4-0.1-0.9 0-1.2 0.1 0 0-0.1 0-0.2 0.1 0 0.2 0.1 0.2 0.1 0.4z"/><path fill-rule="evenodd" class="w" d="m72.8 34.9c0 0-0.2-0.2-0.2-0.6"/><path class="q" d="m71.7 35.5c0 0 0.2-0.2 0.6-0.2q0.4-0.1 1.1 0c0.1-0.1 0.1-0.3-0.1-0.4-0.4 0-0.8 0-1.1 0.1-0.3 0.1-0.5 0.2-0.6 0.2q0 0.1 0 0.1 0 0.2 0.1 0.2z"/><path class="t" d="m71.6 34.8c0 0.2 0 0.5 0 0.5q0 0 0 0 0 0.2 0.1 0.3c0.1 0 0.3 0 0.3-0.1 0.1 0 0.3-0.1 0.6-0.1 0.3-0.1 0.6 0 0.8 0.1 0.1 0 0.3 0 0.4-0.4q0-0.1 0-0.3-0.1-0.2-0.1-0.2-0.1-0.3-0.4-0.4c0 0-1.3-0.4-1.7 0.6z"/><path fill-rule="evenodd" class="ah" d="m52.2 51.3c-0.5-2.1 1-4.4 2.9-5.4 2-1 4.3-1 6.5-0.7 1.5 0.2 2.9 0.6 4.4 0.4 1.5-0.2 3-1.1 3.4-2.5"/><path fill-rule="evenodd" class="ai" d="m58.5 40.1c1.5-0.3 2.7-1.6 2.8-3.1 0-1.3-0.6-2.5-0.5-3.8 0-1.5 1.3-2.8 2.8-3"/><path class="b" d="m55.2 80.3l0.6 0.7h-0.3l-0.6-0.8z"/><path class="aj" d="m61.3 75.9l0.5 0.7c0.4 0.5 0.6 1.1 0.5 1.7l-0.5-0.7c0-0.6-0.2-1.2-0.5-1.7z"/><path class="d" d="m61.8 77.6l0.5 0.8-0.2 0.2-0.6-0.8z"/><path class="b" d="m59.1 81.2l0.6 0.7-0.1 0.2-0.6-0.7z"/><path class="ak" d="m59 81.4l0.6 0.7c-0.8 0.3-1.6 0.4-2.4 0.2-0.6-0.2-1.1-0.5-1.4-0.9l-0.6-0.8c0.4 0.5 0.9 0.8 1.5 0.9 0.8 0.2 1.6 0.2 2.3-0.1z"/><path class="f" d="m59.3 81.3l0.6 0.7h-0.2l-0.6-0.8z"/><path class="al" d="m61.8 77.9l0.5 0.7q0 0.7-0.3 1.2c-0.4 1-1.2 1.8-2.1 2.2l-0.6-0.7c1-0.5 1.7-1.2 2.2-2.2q0.3-0.6 0.3-1.2z"/><path class="am" d="m61.8 77.9q0 0.7-0.3 1.3c-0.4 0.9-1.2 1.7-2.1 2.1h-0.2l-0.1 0.1c-0.8 0.3-1.6 0.4-2.4 0.2-0.5-0.2-1-0.5-1.4-0.9v-0.4h-0.3c-0.5-0.9-0.6-2-0.1-3q0.2-0.5 0.6-0.9 0.1-0.1 0.3-0.2l0.1-0.3c0.9-0.8 2.1-1.3 3.3-1.2l0.2 0.2 0.7 0.1c1.1 0.4 1.8 1.5 1.8 2.6l-0.3 0.2z"/><path class="an" d="m61.8 77.9q-0.1 0.6-0.3 1.2c-0.5 1-1.2 1.7-2.2 2.2l-0.1-0.1-0.2 0.2c-0.7 0.3-1.5 0.3-2.3 0.1-0.6-0.1-1.1-0.4-1.5-0.9v-0.3l-0.2-0.1c-0.5-0.8-0.6-1.9-0.1-3q0.2-0.5 0.5-0.9 0.2-0.1 0.4-0.2v-0.2c0.9-0.9 2.1-1.4 3.3-1.2l0.3 0.2h0.7c1.1 0.5 1.7 1.5 1.7 2.7l-0.3 0.2z"/><path class="ao" d="m59.2 75.7c1.3 0.4 1.9 1.8 1.3 3.1-0.6 1.4-2.2 2.2-3.5 1.8-1.3-0.4-1.9-1.8-1.3-3.1 0.6-1.4 2.2-2.2 3.5-1.8z"/><path class="ap" d="m59.3 75.7c1.3 0.4 1.9 1.8 1.3 3.2-0.6 1.3-2.2 2.1-3.5 1.7-1.3-0.4-1.9-1.8-1.3-3.1 0.6-1.4 2.2-2.2 3.5-1.8z"/><path class="l" d="m57.3 80.7c-1.3-0.4-1.9-1.8-1.3-3.2 0.6-1.3 1.9-2 3.2-1.8-1.3-0.4-2.8 0.4-3.4 1.8-0.6 1.3 0 2.7 1.3 3.1q0.1 0.1 0.3 0.1z"/><path class="aq" d="m60.6 80.6c-0.5 0.6-1 0.9-1.1 0.8 0-0.1 0.3-0.6 0.9-1.1 0.5-0.5 1-0.9 1.1-0.8 0.1 0.1-0.3 0.6-0.9 1.1z"/><path class="ar" d="m61 75.6l-5.8 4.9v0.1c0.4 0.5 0.9 0.8 1.5 1q0.2 0 0.4 0l4.5-3.8h-0.1l0.3-0.2c0-0.7-0.3-1.5-0.8-2z"/><path class="as" d="m59.4 74.9l-0.3-0.2q-0.5-0.1-1 0l-3.3 2.8q-0.3 0.7-0.2 1.5l4.9-4.1z"/><path class="p" d="m60.1 77.9c-0.1-0.3-0.2-0.5-0.6-0.5 0 0 0.4 0.1 0.3 0.5 0 0 0.2 0.4 0.3 0z"/><path class="p" d="m59.9 77.9c0-0.4-0.4-0.5-0.4-0.5 0.4 0 0.5 0.2 0.6 0.5 0 0 0.2 0.3 0.3-0.2q0 0 0-0.1c-0.2-0.7-0.8-0.6-0.9-0.5-0.2 0.2-0.1 0.5-0.1 0.5q0.2 0.1 0.2 0.3c0 0 0.1 0.3 0.3 0z"/><path class="l" d="m59.9 77.9q-0.1 0.1-0.1 0.2c0 0.1 0 0.4-0.1 0.7 0 0 0.3-0.1 0.4-0.9q0 0 0 0c-0.1 0.4-0.2 0-0.2 0z"/><path class="l" d="m59.5 78.5q0 0 0 0 0.2-0.2 0.3-0.4 0-0.1 0.1-0.2c-0.2 0.3-0.3 0-0.3 0 0 0.2 0 0.5-0.1 0.6z"/><path class="l" d="m60.1 77.9q0 0 0 0c0.1 0.3 0.1 0.6 0.1 0.7q0 0 0 0c0.1-0.1 0.3-0.4 0.2-0.9-0.1 0.5-0.3 0.2-0.3 0.2z"/><path class="l" d="m60.4 77.7q0-0.1-0.1-0.2c-0.1-0.3-0.4-0.4-0.7-0.4q0 0-0.1 0.1 0 0 0 0.1-0.1 0-0.1 0.1 0 0.1 0 0.2c0.4 0.1 0.2 0.6 0.2 0.9q-0.1 0-0.1 0 0.1-0.1 0.1-0.1 0.1-0.1 0.2-0.3c0 0.2 0 0.4-0.1 0.6q0 0.1 0 0.1 0.1-0.1 0.2-0.3 0.1-0.1 0.1-0.1c0 0 0-0.1 0-0.1q0-0.1 0.1-0.3 0 0 0-0.1 0.1 0.3 0.1 0.7 0 0 0 0 0.1-0.1 0.1-0.3 0.1-0.3 0.1-0.6zm0 0q0.1 0.2 0 0.4 0 0.3-0.1 0.5-0.1 0-0.1 0 0-0.4-0.1-0.7 0 0.2 0 0.4-0.1 0.3-0.3 0.5-0.1 0-0.1 0 0-0.2 0.1-0.3 0-0.2 0-0.4 0 0.1-0.1 0.2-0.1 0.1-0.1 0.2c-0.1 0-0.1 0-0.1 0q0-0.1 0-0.1c0.1-0.3 0.2-0.7-0.1-0.8-0.1-0.2-0.1-0.4 0-0.5q0.1 0 0.1 0c0.2-0.1 0.4-0.1 0.6 0 0.2 0.2 0.3 0.4 0.3 0.6z"/><path class="l" d="m59.5 77.4c0.3 0 0.6 0.2 0.7 0.6 0 0 0-0.1-0.1-0.1 0 0 0 0.1 0 0.1 0-0.1 0-0.2-0.1-0.3-0.1-0.2-0.3-0.3-0.5-0.3z"/><path class="l" d="m59.7 77.5c0.1 0.2 0.2 0.4 0.1 0.6v-0.1q0 0 0 0c0-0.1 0-0.3-0.1-0.4q0 0 0-0.1z"/><path class="q" d="m59.5 78.5c0.2-0.5 0.1-0.9 0-1q-0.1 0-0.1 0c-0.1-0.1-0.7-0.2-1.4 0.1q-0.4 0.1-0.7 0.1c0 0-0.1 0.4-0.1 0.7q0 0.1-0.1 0.1c0 0-0.1-0.1-0.2-0.3q0 0 0 0 0-0.1 0-0.1 0 0 0 0c-0.1-0.2-0.2-0.3-0.4-0.3-0.1 0-0.2 0.1-0.2 0.3 0 0.7 0.4 0.7 0.4 0.7 0 0 0.1 0.6 0.6 1.1 0.7 0.5 1.7 0.4 1.9-0.2 0.3-0.4 0-0.5 0.3-1.2z"/><path class="p" d="m59.5 76.6c-0.4-0.2-1.8-0.5-2.4 0q-0.2 0.1-0.4 0.3c0 0-0.1 0.2 0.2 0.2 0.3 0.1 0.4 0 0.4 0 0 0 0 0.1 0.2 0.1 0 0 0 0.1 0.1 0.1 0 0 0.3 0.2 0.3 0.3q0.1 0 0.1 0c0.7-0.3 1.3-0.2 1.4-0.1q0 0 0.1 0c0.1-0.2 0.3-0.7 0-0.9z"/><path class="l" d="m57.6 77.3q0 0-0.1 0 0-0.1 0-0.1 0.2-0.1 0.4-0.3-0.1 0.1-0.2 0.1-0.2 0.1-0.3 0.2-0.1 0-0.1 0 0-0.1 0-0.1 0.4-0.2 0.7-0.5-0.1 0.1-0.3 0.2-0.3 0.1-0.5 0.3 0 0 0 0-0.1 0-0.3 0c-0.1 0-0.2-0.1-0.2-0.2q0 0 0 0c-0.2 0.3-0.3 0.5-0.3 0.6q0 0 0 0 0.1 0 0.2 0c0.1 0 0.1 0 0.1 0q-0.1 0.1-0.1 0.1 0 0 0 0c0 0.1 0.2 0.1 0.4 0.1q0.2 0.1 0.3 0.1 0.3-0.1 0.6-0.2 0 0 0 0c0-0.1-0.2-0.3-0.3-0.3z"/><path class="l" d="m59.4 77.5c0.1-0.2 0.3-0.6 0.2-0.8q-0.1-0.1-0.3-0.1-0.2-0.1-0.5-0.2c-0.5-0.1-1.3-0.1-1.7 0.2-0.3 0.2-0.6 0.5-0.7 0.9q0.1 0 0.1 0 0.3-0.1 0.5-0.2c-0.1 0.1-0.3 0.2-0.5 0.2q-0.1 0-0.1 0 0 0 0-0.1 0.1-0.2 0.2-0.5 0.3-0.3 0.6-0.5c0.5-0.2 1.1-0.2 1.6-0.1q0.4 0.1 0.7 0.3 0.1 0 0.1 0.1c0.1 0.2 0.1 0.4 0 0.6q-0.1 0.1-0.2 0.2z"/><path class="r" d="m58.3 80.2c0 0-1.6-0.8-1.1-1.6 0.2-0.4 0.2-0.8 0.2-0.9-0.1 0 0 0.3-0.3 0.3-0.2 0.1-0.2 0.2-0.2 0.2 0 0 0.1 0.5-0.2 0.6 0.1 0.4 0.5 1.3 1.6 1.4z"/><path class="l" d="m59.7 77c-0.1-0.2-0.3-0.4-0.5-0.3q-0.2 0-0.4 0-0.1 0.1-0.3 0.2-0.3 0.1-0.7 0.3c-0.2 0.1-0.5 0.3-0.8 0.4q-0.1 0-0.3 0 0 0-0.1 0 0.1 0 0.1 0 0.2-0.1 0.3-0.1 0.4-0.2 0.8-0.4 0.3-0.1 0.7-0.3c0.2-0.1 0.4-0.2 0.7-0.2q0.2 0 0.4 0.2 0 0.1 0.1 0.2z"/><path class="s" d="m58.1 77.2c0.1 0 0.2-0.1 0.2-0.1 0-0.1-0.1-0.1-0.3 0-0.1 0.1-0.2 0.1-0.2 0.2 0 0 0.1 0 0.3-0.1z"/><path class="s" d="m57.7 76.7q-0.1 0-0.2 0-0.1 0.1-0.1 0 0.1 0 0 0c0 0-0.1 0-0.1 0q-0.2 0.1-0.1 0.2 0 0 0 0 0 0 0 0 0 0.1 0 0.1c0 0.1 0.1 0 0.3-0.1 0.1-0.1 0.2-0.2 0.2-0.2z"/><path class="s" d="m58.1 76.9q0 0-0.1 0 0 0 0 0 0 0 0 0c0-0.1-0.2 0-0.3 0-0.2 0.1-0.3 0.1-0.3 0.2q0 0 0.2 0 0 0 0 0 0 0 0 0c0 0.1 0.1 0 0.3 0 0.1-0.1 0.2-0.1 0.2-0.2z"/><path class="p" d="m57 77.9c0.1 0.2 0.2 0.1 0.3 0q0-0.2 0-0.2-0.1 0-0.3 0c-0.2 0-0.3 0-0.4-0.1q-0.1 0.2-0.1 0.2v-0.1c0 0 0.2 0 0.5 0.2z"/><path class="l" d="m56.9 78.1q0 0 0 0.1 0 0 0 0c0.1 0.2 0.2 0.2 0.2 0.3q0.1 0 0.1-0.1c0-0.1 0-0.3 0.1-0.5-0.1 0.1-0.2 0.2-0.3 0-0.3-0.2-0.4-0.1-0.4-0.1 0.1 0 0.2 0.1 0.3 0.3z"/><path class="t" d="m57.6 78.3l0.7 0.2c0 0-0.1 0.4-0.4 0.3-0.4-0.1-0.3-0.5-0.3-0.5z"/><path class="u" d="m57.8 78.3h-0.2c0 0-0.1 0.4 0.3 0.5q0 0 0.1 0c-0.3-0.1-0.2-0.4-0.2-0.5z"/><path class="t" d="m57.6 78.3l0.7 0.2c0 0-0.1 0.4-0.4 0.3-0.4-0.1-0.3-0.5-0.3-0.5z"/><path class="l" d="m58 78.7q0.1 0 0.1-0.1 0.1-0.1 0-0.2-0.1 0-0.1 0.1 0 0.1 0 0.2z"/><path class="t" d="m59.4 78.8l-0.6-0.2c0 0-0.1 0.4 0.2 0.4 0.3 0.1 0.4-0.2 0.4-0.2z"/><path class="u" d="m59 78.7l-0.2-0.1c0 0 0 0.4 0.3 0.4q0 0 0 0c-0.2 0-0.1-0.3-0.1-0.3z"/><path class="t" d="m59.4 78.8l-0.6-0.2c0 0-0.1 0.4 0.2 0.4 0.3 0.1 0.4-0.2 0.4-0.2z"/><path class="l" d="m59 78.9q0 0 0.1-0.1 0-0.1-0.1-0.1 0 0-0.1 0.1 0 0.1 0.1 0.1z"/><path class="t" d="m59 78.8q0 0 0 0 0-0.1 0-0.1 0 0-0.1 0.1 0 0 0.1 0z"/><path class="l" d="m57.5 78.1c0 0 0.1-0.3 0.5-0.3 0.3 0.1 0.6 0.1 0.4 0.4 0 0.1-0.5-0.1-0.9-0.1z"/><path class="t" d="m57.5 78.1c0 0 0.1-0.3 0.5-0.3 0.3 0.1 0.6 0.1 0.4 0.4 0 0.1-0.5-0.1-0.9-0.1z"/><path class="l" d="m59.4 78.3q0 0 0 0h-0.1c-0.1-0.1-0.3-0.2-0.4-0.1q-0.1 0 0 0.2c0 0 0.1 0 0.3 0.1q0.1 0 0.3 0.1 0-0.1 0.1-0.2-0.1-0.1-0.2-0.1z"/><path class="l" d="m56.8 77.4q-0.1 0.1-0.2 0.2 0 0 0 0 0.5 0.1 1 0.1 0.2-0.1 0.4-0.2 0.1 0 0.1 0c0.3-0.1 0.8-0.2 1.1-0.1q0.1 0 0.2 0.1h-0.1q0-0.1-0.1-0.1c-0.3 0-0.8 0-1 0.2q-0.1 0-0.1 0-0.2 0.1-0.5 0.1-0.5 0.2-1.1 0v-0.1q0 0 0.1 0 0-0.1 0-0.1 0.1-0.1 0.2-0.1z"/><path class="l" d="m56.6 77.6q0 0.1-0.1 0.2c0.2-0.1 0.3 0 0.3 0.1q0.1 0.1 0.1 0.1 0 0.1 0 0.1v0.1q0.1 0.1 0.2 0.2 0 0 0.1 0 0 0.1 0 0 0 0 0-0.1 0-0.3 0.1-0.6h0.1q-0.2 0.3-0.2 0.6 0 0.1 0 0.1 0 0.1 0 0.1-0.1-0.1-0.2-0.2-0.1-0.1-0.1-0.2 0 0 0-0.1-0.1-0.1-0.1-0.2-0.1-0.1-0.3-0.1 0.1 0 0.1-0.1z"/><path class="p" d="m56.9 78.3q-0.1 0 0 0c-0.1-0.1-0.2-0.2-0.3 0 0 0.1 0.1 0.2 0.1 0.3q0 0 0 0c-0.1 0-0.2 0-0.2 0 0-0.1-0.2-0.2 0-0.6 0-0.2 0.3 0 0.4 0.3z"/><path class="l" d="m56.5 77.8q0 0 0 0z"/><path class="l" d="m59.6 77.9q0-0.2-0.1-0.4v-0.1l-0.1 0.1q0.1 0.1 0.2 0.2 0 0 0 0.1 0 0 0 0.1 0 0 0 0v0.1q0 0.2-0.1 0.5 0 0 0 0c0.1-0.2 0.2-0.4 0.1-0.6z"/><path class="l" d="m59.4 78.7q0 0 0 0-0.1 0.2-0.1 0.3c0 0.1 0 0.2 0 0.4q0 0.2-0.2 0.4c-0.5 0.6-1.4 0.4-1.9-0.1q-0.4-0.4-0.5-0.9c-0.2-0.1-0.3-0.2-0.4-0.4 0-0.2 0-0.6 0.2-0.6q0.1 0 0.1 0 0 0 0.1 0c0.2 0.1 0.2 0.3 0.2 0.5q0-0.1 0-0.2c0-0.1-0.1-0.3-0.3-0.3v-0.1q0 0 0 0-0.1 0-0.1 0.1c-0.2 0.1-0.2 0.3-0.2 0.5q0 0.1 0 0.2c0.1 0.1 0.2 0.2 0.3 0.3q0.1 0 0.1 0 0 0.1 0 0.2 0.1 0.3 0.4 0.6 0.2 0.3 0.4 0.4c0.4 0.3 0.9 0.4 1.4 0.2 0.2-0.2 0.4-0.5 0.5-0.8q0-0.2 0-0.4 0-0.1 0-0.1 0-0.1 0-0.2 0 0 0 0z"/><path class="l" d="m56.7 78.8z"/><path class="l" d="m59.4 78.7q0 0 0 0 0.1-0.1 0.1-0.2 0 0 0 0-0.1 0.1-0.1 0.2z"/><path class="l" d="m59.5 78.5q0 0 0 0 0 0 0 0 0 0 0 0 0 0 0 0z"/><path class="l" d="m59.5 78.7q-0.1 0-0.1 0 0 0 0.1 0-0.1 0 0 0z"/><path class="l" d="m59.4 78.7q0 0 0 0 0 0 0 0z"/><path class="l" d="m59.5 78.5q0 0 0 0 0 0 0 0 0 0 0 0z"/><path class="p" d="m58.6 77.5q0.2-0.2 0.4-0.3 0.1-0.1 0.2-0.1 0 0 0.1 0 0 0 0.1 0c-0.1-0.1-0.2-0.1-0.3-0.1q-0.1 0-0.2 0-0.2 0-0.3 0.1c-0.2 0-0.4 0.2-0.6 0.4-0.1 0.1-0.1 0.2 0.1 0.2q0.2-0.1 0.5-0.2z"/><path class="p" d="m59.5 77.5q0 0 0 0z"/><path class="p" d="m59.5 77.5z"/><path class="p" d="m59.5 77.3q0-0.1-0.1-0.1 0 0 0 0-0.1-0.1-0.1-0.1-0.2 0-0.2 0.1-0.2 0.1-0.4 0.3 0 0-0.1 0 0 0 0 0.1c0 0 0 0 0 0 0.2 0 0.7-0.2 0.9-0.1q0 0 0 0 0-0.1 0-0.2zm-0.1 0.2q-0.1 0 0 0z"/><path class="p" d="m59.4 77.5q-0.1 0 0 0z"/><path class="l" d="m58.7 77.6c-0.1 0-0.1 0-0.1 0-0.1 0.1-0.3 0.3-0.4 0.5q0.3-0.3 0.7-0.5 0.2-0.1 0.4-0.1 0.1 0 0.2 0c-0.2-0.1-0.7 0.1-0.8 0.1z"/><path class="l" d="m58 77.5q-0.2 0.2-0.4 0.4 0.2-0.1 0.5-0.2c-0.2 0-0.1-0.1-0.1-0.2z"/><path class="p" d="m59.5 77.5z"/><path class="l" d="m59.5 77.5q0-0.1 0-0.2 0.1-0.1-0.1-0.2 0 0-0.1-0.1-0.1 0-0.2-0.1-0.1 0-0.2 0c-0.4 0-0.7 0.2-0.9 0.4q-0.2 0.2-0.4 0.4-0.1 0.1-0.2 0.3c0 0 0 0 0.1 0q0.4-0.3 0.9-0.4 0.1-0.1 0.2-0.1 0 0-0.1 0-0.2 0.3-0.4 0.6 0 0 0 0.1c0 0 0 0 0 0 0.3-0.2 0.5-0.5 0.8-0.6 0.2-0.1 0.4-0.1 0.6-0.1q0 0 0 0 0 0 0 0zm-1.4 0.2q-0.3 0.1-0.5 0.2 0.2-0.2 0.4-0.4 0.3-0.3 0.6-0.4 0.1-0.1 0.3-0.1 0.1 0 0.2 0c0.1 0 0.2 0 0.3 0.1q0 0-0.1 0 0 0-0.1 0-0.1 0-0.2 0.1-0.2 0.1-0.4 0.3-0.3 0.1-0.5 0.2zm1.4-0.2q0 0 0 0-0.1 0-0.2 0-0.2 0-0.4 0.1-0.4 0.2-0.7 0.5 0.2-0.3 0.4-0.5 0-0.1 0.1-0.1 0 0 0 0 0.2-0.2 0.4-0.3 0.1 0 0.2-0.1 0 0 0.1 0.1 0 0 0.1 0 0 0 0.1 0.1-0.1 0.1-0.1 0.2z"/><path class="s" d="m58.8 77.2q0 0-0.1 0 0 0 0 0 0 0 0 0-0.1-0.1-0.2 0-0.1 0.1-0.1 0.2 0 0 0 0 0.1 0 0.1 0-0.1 0.1-0.1 0.1c0 0 0.1 0 0.3-0.1 0.1-0.1 0.2-0.2 0.1-0.2z"/><path class="l" d="m58.7 79.5q0 0.1 0 0.2c0 0.1 0 0.2-0.1 0.3 0.1 0 0.3-0.1 0.3-0.2 0.1-0.1 0.1-0.1 0.2-0.3q-0.2 0.1-0.4 0z"/><path class="v" d="m58.7 79.5c-0.3 0-0.5 0-0.8-0.2q-0.1 0-0.2-0.2-0.1 0.1-0.1 0.2 0 0.1 0 0.2 0.1 0 0.4 0 0.3 0 0.7 0.2 0-0.1 0-0.2z"/><path class="u" d="m58.9 79.3c-0.1 0-0.3 0-0.4 0-0.2-0.1-0.4-0.2-0.5-0.3-0.1 0-0.2-0.1-0.3 0.2q0.1 0.1 0.2 0.2c-0.1-0.1 0-0.3 0.1-0.3q0.4 0.2 0.6 0.3c0.3 0 0.4 0 0.5 0-0.1-0.1-0.2-0.1-0.2-0.1z"/><path class="r" d="m58.7 79.7c-0.3-0.1-0.5-0.2-0.7-0.2q-0.2 0-0.4 0 0 0.2 0.2 0.3c0.2 0.2 0.5 0.2 0.7 0.2q0.1 0 0.2 0c0-0.1 0-0.2 0-0.3z"/><path fill-rule="evenodd" class="w" d="m58.2 79.5c0 0 0.1 0.1 0 0.4"/><path class="q" d="m59.1 79.3c-0.1 0.1-0.2 0.1-0.5 0.1q-0.2-0.1-0.6-0.3c-0.1 0-0.2 0.2-0.1 0.2 0.3 0.2 0.5 0.2 0.8 0.3q0.2 0 0.4 0 0-0.1 0-0.1 0-0.1 0-0.2z"/><path class="t" d="m58.9 79.8c0.1-0.1 0.2-0.2 0.2-0.2q0-0.1 0-0.1 0-0.1 0-0.1c-0.1-0.1-0.2-0.1-0.2-0.1-0.1 0-0.3 0-0.4 0-0.2-0.1-0.4-0.2-0.5-0.3-0.1 0-0.2 0-0.3 0.2q-0.1 0-0.1 0.2 0 0 0 0.1 0 0.2 0.2 0.3c0 0 0.7 0.5 1.1 0z"/></svg>