<svg width="284" height="227" viewBox="0 0 284 227" fill="none" xmlns="http://www.w3.org/2000/svg">
<path d="M58.0461 31.4156C58.0824 29.5774 58.1333 27.7527 58.1908 25.9417L58.2014 26.1486C58.1398 27.8888 58.0854 29.6455 58.0461 31.4156Z" fill="#13114C"/>
<path d="M58.2962 26.2576C58.2643 26.2223 58.2322 26.1867 58.2014 26.1487L58.1908 25.9418L58.2962 26.2576Z" fill="#008641"/>
<path d="M3.45095 95.9136C2.55196 94.3149 1.6723 92.719 0.805176 91.1313L0.919004 91.3028C1.74664 92.8306 2.58927 94.3721 3.45095 95.9136Z" fill="#13114E"/>
<path d="M1.053 91.3492C1.00833 91.3329 0.963675 91.3192 0.919004 91.3028L0.805176 91.1313L1.053 91.3492Z" fill="#00A451"/>
<path d="M164.174 142.854C164.305 142.805 164.436 142.75 164.564 142.688C164.436 142.751 164.308 142.805 164.177 142.851L164.174 142.854Z" fill="#FF923B"/>
<path d="M126.187 26.0294H247.333V5.67371H126.187V26.0294Z" fill="#CA7300"/>
<path d="M239.293 17.6082H235.663V5.67395H239.293V17.6082ZM137.856 17.6082H134.224V5.67395H137.856V17.6082Z" fill="#B55300"/>
<path d="M243.464 26.0296H239.293V17.6083H242.636C242.62 20.9216 242.636 23.8736 243.464 26.0296Z" fill="#BD6000"/>
<path d="M235.663 26.0295H239.293V17.6088H235.663V26.0295Z" fill="#AA4500"/>
<path d="M134.224 26.0296H130.054C130.882 23.8736 130.896 20.9216 130.882 17.6083H134.224V26.0296Z" fill="#BD6000"/>
<path d="M134.224 26.0295H137.856V17.6088H134.224V26.0295Z" fill="#AA4500"/>
<path d="M235.663 3.81164V223.919C235.663 225.42 234.541 226.433 233.492 225.89L228.551 223.322L220.682 219.216L186.759 201.522L152.836 219.216L144.966 223.322L140.027 225.89C138.978 226.433 137.856 225.42 137.856 223.919V3.81164C137.856 1.82308 139.485 0.192871 141.475 0.192871H232.044C234.032 0.192871 235.663 1.82308 235.663 3.81164Z" fill="#FF5766"/>
<path d="M139.442 226.039C138.601 226.039 137.856 225.141 137.856 223.919V137.036V146.937C138.993 148.615 140.206 150.245 141.477 151.825V223.919C141.477 224.33 141.567 224.7 141.711 225.015L140.027 225.89C140.018 225.897 140.007 225.901 139.997 225.908C139.813 225.996 139.628 226.04 139.447 226.04C139.445 226.04 139.444 226.039 139.442 226.039ZM137.855 32.1307V3.81207C137.855 1.8235 139.484 0.193298 141.474 0.193298H145.095H144.965C143.034 0.263794 141.476 1.86463 141.476 3.81207V30.6209C140.206 30.9881 138.994 31.4962 137.855 32.1307Z" fill="#FF90A3"/>
<path d="M234.076 226.039C233.885 226.039 233.686 225.992 233.492 225.89C233.686 225.992 233.883 226.039 234.073 226.039C234.632 226.039 235.143 225.64 235.428 225.015L232.173 223.322L228.551 221.434V155.894C231.116 153.083 233.521 150.093 235.663 146.937V198.414V200.588V223.919C235.663 225.141 234.919 226.039 234.076 226.039Z" fill="#D83743"/>
<path d="M220.682 217.327L190.378 201.522L188.569 202.465L186.759 201.522V183.646C189.726 183.646 192.675 182.887 195.28 181.439C201.581 177.912 211.415 171.825 220.682 163.616V217.327Z" fill="#D83743"/>
<path d="M235.663 32.1302C233.515 30.9377 231.107 30.1857 228.551 29.9889V0.192871H220.682V29.9361H186.759V0.192871H232.044C234.032 0.192871 235.663 1.82308 235.663 3.81164V17.6082V26.0294V31.3959V32.1302Z" fill="#D83743"/>
<path d="M234.073 226.039C233.883 226.039 233.686 225.992 233.492 225.89L228.551 223.322V221.434L232.173 223.322L235.428 225.015C235.143 225.64 234.632 226.039 234.073 226.039Z" fill="#D85A6B"/>
<path d="M220.682 219.216L188.569 202.465L190.378 201.522L220.682 217.327V219.216Z" fill="#D85A6B"/>
<path d="M152.836 0.192871V219.216L144.966 223.322V0.192871H152.836Z" fill="#FFB612"/>
<path d="M228.551 0.192871V223.322L220.682 219.216V0.192871H228.551Z" fill="#FFB612"/>
<path d="M186.759 183.646C183.793 183.646 180.844 182.887 178.238 181.422C171.938 177.905 162.104 171.825 152.836 163.616V153.706C162.104 161.912 171.932 167.996 178.238 171.511C180.846 172.968 183.793 173.738 186.759 173.738V183.646ZM144.966 155.894C143.765 154.574 142.598 153.221 141.477 151.825V141.917C142.598 143.31 143.765 144.668 144.966 145.983V155.894Z" fill="#C92A35"/>
<path d="M141.477 151.825C140.206 150.245 138.993 148.615 137.856 146.937V137.036C138.994 138.711 140.206 140.338 141.477 141.918V151.825Z" fill="#C94555"/>
<path d="M186.759 183.646V173.738C186.959 173.738 187.159 173.731 187.356 173.722C190.12 173.626 192.851 172.873 195.28 171.504C201.584 167.992 211.415 161.909 220.682 153.699V163.615C211.415 171.825 201.581 177.911 195.28 181.438C192.675 182.887 189.726 183.646 186.759 183.646Z" fill="#AB1A23"/>
<path d="M152.836 163.616C150.13 161.219 147.473 158.641 144.966 155.894V145.983C147.473 148.73 150.13 151.309 152.836 153.706V163.616Z" fill="#C9580A"/>
<path d="M228.551 155.894V145.975C231.116 143.164 233.521 140.176 235.663 137.025V146.937C233.521 150.093 231.116 153.083 228.551 155.894Z" fill="#AB1A23"/>
<path d="M220.682 163.616V153.7C223.388 151.3 226.043 148.724 228.551 145.975V155.894C226.046 158.643 223.388 161.219 220.682 163.616Z" fill="#C9580A"/>
<path d="M144.518 99.3886V121.592C144.518 121.592 134.171 118.414 123.934 113.893C119.242 111.828 114.579 109.472 110.949 107.014C103.076 101.715 100.385 94.6184 99.4738 90.609L99.4463 90.139C99.5 88.9406 100.887 88.033 102.315 88.4119L108.053 89.904L123.934 94.0309L144.518 99.3886Z" fill="#FFB612"/>
<path d="M123.934 113.893C119.244 111.822 114.58 109.469 110.949 107.014C103.076 101.715 100.385 94.6185 99.4738 90.609L99.4463 90.1391C100.249 90.753 101.183 91.4197 102.256 92.1188C103.468 96.2399 106.379 102.329 113.338 107.014C116.352 109.052 120.074 111.017 123.934 112.812L123.934 113.893Z" fill="#FFDA1E"/>
<path d="M107.896 89.8659C107.896 89.8681 107.898 89.8637 107.896 89.8659V89.8659Z" fill="#1B0F1A"/>
<path d="M107.897 89.866L102.964 88.5823L107.897 89.863C107.897 89.8652 107.898 89.8637 107.897 89.866Z" fill="#00550B"/>
<path d="M123.934 101.207C113.76 98.5721 106.771 95.0591 102.256 92.1188C102.098 91.5784 101.968 91.0732 101.862 90.609L101.835 90.1391C101.866 89.4665 102.323 88.8937 102.964 88.5823L107.897 89.866L108.031 89.8983C112.527 93.0383 118.306 96.0226 123.934 98.581L123.934 101.207Z" fill="#FF8C04"/>
<path d="M102.256 92.1189C101.183 91.4198 100.249 90.7531 99.4463 90.1392C99.4921 89.1317 100.477 88.3298 101.635 88.3239C101.64 88.3239 101.644 88.3239 101.649 88.3239C101.65 88.3239 101.651 88.3239 101.653 88.3239C101.859 88.3239 102.07 88.3504 102.282 88.4032C102.293 88.4054 102.304 88.4098 102.314 88.4121L102.963 88.5823C102.322 88.8937 101.865 89.4665 101.835 90.1391L101.862 90.609C101.968 91.0732 102.098 91.5784 102.256 92.1189Z" fill="#FFA808"/>
<path d="M144.518 80.4519V106.676C144.518 106.676 134.498 103.383 123.934 98.5692C118.317 96.0226 112.539 93.0529 108.053 89.9041L107.4 89.4518C98.6992 83.1865 95.7342 74.7858 94.7141 70.0744C94.6339 69.7072 94.6604 69.3577 94.7831 69.0346C95.1226 67.8626 96.4823 67.0578 97.8696 67.4543L104.571 69.3283L123.934 74.7124L144.518 80.4519Z" fill="#FFB612"/>
<path d="M108.052 89.904L108.032 89.8974C107.997 89.8739 107.964 89.8506 107.931 89.827C107.932 89.827 107.933 89.8248 107.936 89.8248L108.052 89.904Z" fill="#BA896C"/>
<path d="M107.93 89.8278C107.751 89.7045 107.574 89.5782 107.4 89.4519L107.934 89.8249C107.933 89.8249 107.93 89.8278 107.93 89.8278Z" fill="#B2B734"/>
<path d="M123.934 98.5811C118.306 96.0227 112.527 93.0384 108.031 89.8984L108.053 89.905C112.539 93.0538 118.317 96.0234 123.934 98.5701V98.5811Z" fill="#FFC511"/>
<path d="M123.934 98.5693C118.317 96.0227 112.539 93.053 108.053 89.9042L107.934 89.825L107.4 89.4519C101.342 85.09 98.0648 79.6942 96.2886 75.2265C95.514 73.2762 95.0241 71.505 94.7142 70.0745C94.6834 69.9307 94.6673 69.7895 94.6684 69.6515C94.6696 69.4371 94.7087 69.2315 94.7832 69.0347C95.484 69.5369 96.3162 70.1303 97.2661 70.7853C98.4249 75.5966 101.509 83.4921 109.789 89.4519C113.751 92.3099 118.821 95.0505 123.934 97.4737L123.934 98.5693Z" fill="#FFDA1E"/>
<path d="M99.1695 67.8185L98.4308 67.6099L99.1695 67.8155V67.8185Z" fill="#00620E"/>
<path d="M104.568 69.3255L99.1696 67.8186L104.554 69.3174C104.559 69.3196 104.564 69.3233 104.568 69.3255Z" fill="#00550B"/>
<path d="M123.934 83.5537C112.64 80.7838 102.886 74.6684 97.2662 70.7853C97.2078 70.5415 97.1536 70.3035 97.1032 70.0744C97.0219 69.7073 97.0494 69.3577 97.1721 69.0346C97.3521 68.4119 97.8236 67.9008 98.4307 67.61L99.1695 67.8186L104.568 69.3255C110.035 73.2556 117.192 76.9654 123.934 80.0466L123.934 83.5537ZM97.8339 67.4456C97.6045 67.3811 97.3763 67.3546 97.1524 67.3515C97.3763 67.3515 97.6045 67.3809 97.8339 67.4456Z" fill="#FF8C04"/>
<path d="M97.2661 70.7854C96.3162 70.1304 95.484 69.537 94.7832 69.0348C94.7898 69.0112 94.7986 68.9848 94.8061 68.9614C95.1113 68.0391 96.051 67.3635 97.1216 67.3518C97.1304 67.3518 97.1392 67.3518 97.148 67.3518C97.1489 67.3518 97.1502 67.3518 97.1524 67.3518C97.3763 67.354 97.6045 67.3811 97.8339 67.4459C97.8449 67.4481 97.857 67.4525 97.8698 67.4547L98.4308 67.6104C97.8237 67.9012 97.3522 68.4123 97.1722 69.035C97.0495 69.3581 97.0217 69.7076 97.1032 70.0748C97.1537 70.3039 97.2077 70.5416 97.2661 70.7854Z" fill="#FFA808"/>
<path d="M144.518 58.4544V88.3239C144.518 88.3239 134.756 85.0018 123.934 80.0406C117.203 76.9682 110.038 73.2496 104.571 69.3283C104.286 69.1227 104.001 68.917 103.729 68.7114C94.1705 61.5709 90.9083 52.0275 89.793 46.6435C89.3985 44.7401 91.3019 43.1157 93.2605 43.6709L123.934 52.5122L144.518 58.4544Z" fill="#FFB612"/>
<path d="M104.558 69.3166H104.553C104.438 69.2345 104.322 69.1492 104.208 69.067C104.324 69.1491 104.442 69.2344 104.558 69.3166Z" fill="#B2B734"/>
<path d="M104.571 69.3282L104.567 69.326C104.563 69.3239 104.558 69.3195 104.554 69.3173H104.558C104.563 69.3239 104.567 69.326 104.571 69.3282Z" fill="#B2A917"/>
<path d="M123.934 80.0465C117.192 76.9653 110.036 73.2555 104.568 69.3254L104.573 69.3276C110.039 73.2489 117.204 76.9675 123.935 80.04L123.934 80.0465Z" fill="#FFC511"/>
<path d="M123.934 80.0407C117.203 76.9682 110.038 73.2496 104.572 69.3283C104.567 69.3261 104.563 69.3218 104.558 69.3174C104.443 69.2352 104.325 69.1499 104.21 69.0677C104.049 68.9502 103.892 68.8327 103.734 68.7152C94.1767 61.5775 90.9113 52.0254 89.8008 46.6472C89.46 44.9964 90.8288 43.5659 92.4637 43.5659C92.7242 43.5659 92.9904 43.6012 93.2577 43.6777L94.3879 44.0037C93.5147 44.55 92.9651 45.5428 93.1936 46.6473C94.3042 52.0255 97.5685 61.5776 107.127 68.7152C111.808 72.2136 117.896 75.5562 123.934 78.4583L123.934 80.0407Z" fill="#FFDA1E"/>
<path d="M129.029 116.04C127.431 115.397 125.792 114.71 124.153 113.99C124.08 113.958 124.006 113.926 123.933 113.893C125.645 114.648 127.36 115.368 129.029 116.04ZM128.866 114.989C127.228 114.299 125.567 113.57 123.933 112.812V101.207C125.371 101.58 126.872 101.933 128.44 102.267V108.979C128.44 111.018 128.587 113.024 128.866 114.989Z" fill="#FF8201"/>
<path d="M129.029 116.04C127.36 115.368 125.646 114.648 123.934 113.893V112.812C125.567 113.57 127.228 114.298 128.866 114.989C128.917 115.341 128.971 115.688 129.029 116.04Z" fill="#FF9C02"/>
<path d="M128.441 102.267C126.872 101.932 125.371 101.58 123.934 101.207V98.581C125.456 99.2713 126.969 99.9322 128.441 100.558V102.267Z" fill="#FF6400"/>
<path d="M128.441 99.5267C126.952 98.8717 125.441 98.1873 123.934 97.4735V83.5536C125.411 83.9149 126.914 84.2203 128.441 84.4553V99.5267Z" fill="#FF8201"/>
<path d="M128.441 100.558C126.969 99.9322 125.456 99.2713 123.934 98.581V98.57C125.456 99.2632 126.969 99.9271 128.441 100.553V100.558Z" fill="#FF8D01"/>
<path d="M128.441 100.552C126.969 99.9263 125.456 99.2624 123.934 98.5692V97.4736C125.441 98.1874 126.952 98.8718 128.441 99.5268V100.552Z" fill="#FF9C02"/>
<path d="M128.441 84.4555C126.914 84.2206 125.411 83.9151 123.934 83.5538V80.0466C125.466 80.7487 126.975 81.4154 128.441 82.044V84.4555Z" fill="#FF6400"/>
<path d="M128.441 80.5519C126.956 79.8851 125.446 79.186 123.934 78.4576V52.5123L128.441 53.8136V80.5519Z" fill="#FF8201"/>
<path d="M128.441 82.0439C126.975 81.4153 125.466 80.7485 123.934 80.0465V80.0399C125.466 80.7419 126.975 81.4124 128.441 82.0439Z" fill="#FF8D01"/>
<path d="M128.441 82.044C126.975 81.4125 125.466 80.7428 123.934 80.0408V78.4576C125.446 79.186 126.956 79.8851 128.441 80.5519V82.044Z" fill="#FF9C02"/>
<path d="M229.001 99.3886V121.592C229.001 121.592 239.346 118.414 249.585 113.893C254.276 111.828 258.941 109.472 262.568 107.014C270.44 101.715 273.134 94.6184 274.044 90.609L274.071 90.139C274.018 88.9406 272.631 88.033 271.204 88.4119L265.464 89.904L249.585 94.0309L229.001 99.3886Z" fill="#FFB612"/>
<path d="M249.586 113.893V112.812C253.445 111.017 257.167 109.052 260.18 107.014C267.139 102.329 270.05 96.2399 271.263 92.1188C272.335 91.4197 273.269 90.753 274.071 90.1391L274.044 90.609C273.651 92.3362 272.928 94.639 271.604 97.121C269.85 100.402 267.048 104 262.568 107.014C258.938 109.469 254.274 111.822 249.586 113.893Z" fill="#FFDA1E"/>
<path d="M265.485 89.8981H265.487L265.619 89.8629C265.619 89.8607 265.619 89.8651 265.619 89.8629L265.485 89.8981Z" fill="#1B0F1A"/>
<path d="M265.62 89.866C265.62 89.8638 265.62 89.866 265.62 89.8638L270.555 88.5831L265.62 89.866Z" fill="#00550B"/>
<path d="M249.585 101.207V98.581C255.213 96.0226 260.991 93.0384 265.485 89.8984L265.62 89.866L270.555 88.5823C271.195 88.8937 271.653 89.4665 271.683 90.1392L271.656 90.6091C271.55 91.0732 271.421 91.5784 271.263 92.1189C266.748 95.0591 259.757 98.5722 249.585 101.207Z" fill="#FF8C04"/>
<path d="M271.263 92.1188C271.421 91.5784 271.551 91.0732 271.656 90.609L271.683 90.1391C271.653 89.4665 271.195 88.8937 270.555 88.5823L271.204 88.4121C271.213 88.4098 271.224 88.4054 271.236 88.4032C271.448 88.3504 271.659 88.3239 271.865 88.3239C271.872 88.3239 271.876 88.3239 271.883 88.3239C273.043 88.3305 274.027 89.1317 274.071 90.1392C273.269 90.7531 272.335 91.4198 271.263 92.1188Z" fill="#FFA808"/>
<path d="M229.001 80.4519V106.676C229.001 106.676 239.02 103.383 249.585 98.5692C255.202 96.0226 260.979 93.0529 265.465 89.9041L266.117 89.4518C274.82 83.1865 277.784 74.7858 278.803 70.0744C278.885 69.7072 278.859 69.3577 278.735 69.0346C278.394 67.8626 277.034 67.0578 275.648 67.4543L268.945 69.3283L249.585 74.7124L229.001 80.4519Z" fill="#FFB612"/>
<path d="M265.467 89.9042L265.582 89.8221C265.584 89.8243 265.589 89.8287 265.589 89.8287C265.556 89.8523 265.521 89.8756 265.489 89.8992L265.467 89.9042Z" fill="#BA896C"/>
<path d="M265.588 89.8278C265.588 89.8278 265.586 89.8256 265.581 89.8212L266.116 89.4511C265.943 89.5773 265.767 89.7015 265.588 89.8278Z" fill="#B2B734"/>
<path d="M265.464 89.9042H265.467L265.486 89.8976L265.464 89.9042Z" fill="#BA8625"/>
<path d="M249.586 98.5811V98.5701C255.202 96.0234 260.979 93.0539 265.465 89.9051L265.484 89.8984C260.99 93.0384 255.213 96.0227 249.586 98.5811Z" fill="#FFC511"/>
<path d="M249.586 98.5693V97.4737C254.696 95.0505 259.769 92.3099 263.729 89.4519C272.009 83.4921 275.093 75.5966 276.25 70.7853C277.202 70.1303 278.033 69.5369 278.735 69.0347C278.809 69.2314 278.85 69.4371 278.85 69.6515C278.85 69.7896 278.835 69.9306 278.803 70.0745C278.495 71.505 278.004 73.2762 277.229 75.2265C275.454 79.6942 272.176 85.09 266.117 89.4519L265.582 89.822L265.468 89.9042H265.465C260.98 93.0529 255.202 96.0227 249.586 98.5693Z" fill="#FFDA1E"/>
<path d="M268.951 69.3254C268.953 69.3232 268.96 69.3188 268.962 69.3166L274.349 67.8157L268.951 69.3254Z" fill="#00550B"/>
<path d="M249.586 83.5536V80.0464C256.327 76.9652 263.482 73.2554 268.951 69.3253L274.35 67.8184L275.087 67.6098C275.695 67.9006 276.165 68.4117 276.347 69.0344C276.468 69.3575 276.497 69.7071 276.415 70.0743C276.365 70.3034 276.312 70.5413 276.25 70.7851C270.631 74.6682 260.88 80.7837 249.586 83.5536ZM275.684 67.4454C275.916 67.3808 276.142 67.3513 276.365 67.3513C276.142 67.3513 275.913 67.3806 275.684 67.4454Z" fill="#FF8C04"/>
<path d="M276.25 70.7851C276.312 70.5414 276.365 70.3034 276.415 70.0743C276.497 69.7072 276.468 69.3576 276.347 69.0345C276.165 68.4118 275.695 67.9007 275.087 67.6099L275.648 67.4542C275.659 67.452 275.672 67.4476 275.683 67.4454C275.913 67.3808 276.142 67.3513 276.365 67.3513C276.367 67.3513 276.367 67.3513 276.372 67.3513C276.38 67.3513 276.389 67.3513 276.398 67.3513C277.467 67.3623 278.407 68.0386 278.713 68.9609C278.721 68.9845 278.73 69.0109 278.736 69.0343C278.034 69.5366 277.202 70.1301 276.25 70.7851Z" fill="#FFA808"/>
<path d="M229.001 58.4544V88.3239C229.001 88.3239 238.761 85.0018 249.585 80.0406C256.315 76.9682 263.482 73.2496 268.945 69.3283C269.233 69.1227 269.518 68.917 269.788 68.7114C279.346 61.5709 282.61 52.0275 283.726 46.6435C284.119 44.7401 282.216 43.1157 280.257 43.6709L249.585 52.5122L229.001 58.4544Z" fill="#FFB612"/>
<path d="M268.96 69.3166C269.077 69.2345 269.192 69.1492 269.309 69.067C269.195 69.1491 269.08 69.2344 268.963 69.3166" fill="#B2B734"/>
<path d="M268.945 69.3282C268.952 69.326 268.954 69.3217 268.961 69.3173C268.958 69.3195 268.954 69.3239 268.952 69.326L268.945 69.3282Z" fill="#B2A917"/>
<path d="M249.586 80.0466V80.04C256.315 76.9675 263.482 73.2489 268.945 69.3276L268.952 69.3254C263.483 73.2555 256.327 76.9653 249.586 80.0466Z" fill="#FFC511"/>
<path d="M249.586 80.0407V78.4575C255.625 75.5554 261.711 72.2128 266.393 68.7144C275.951 61.5768 279.214 52.0247 280.325 46.6465C280.554 45.542 280.004 44.5492 279.132 44.0029L280.26 43.6769C280.527 43.6004 280.794 43.5651 281.056 43.5651C282.692 43.5651 284.061 44.9956 283.717 46.6464C282.607 52.0246 279.343 61.5767 269.785 68.7144C269.627 68.8318 269.468 68.9494 269.31 69.0669C269.192 69.149 269.078 69.2343 268.96 69.3166C268.953 69.3232 268.951 69.3254 268.945 69.3276C263.481 73.2489 256.315 76.9683 249.586 80.0407Z" fill="#FFDA1E"/>
<path d="M244.48 116.043C246.152 115.371 247.87 114.651 249.586 113.893C249.512 113.926 249.439 113.958 249.365 113.99C247.723 114.713 246.081 115.4 244.48 116.043ZM244.642 114.995C244.921 113.027 245.068 111.024 245.068 108.982V102.267C246.639 101.935 248.143 101.58 249.585 101.207V112.812C247.946 113.573 246.284 114.302 244.642 114.995Z" fill="#FF8201"/>
<path d="M244.481 116.043C244.539 115.694 244.592 115.344 244.642 114.995C246.284 114.301 247.946 113.573 249.586 112.812V113.893C247.87 114.651 246.152 115.371 244.481 116.043Z" fill="#FF9C02"/>
<path d="M245.068 102.267V100.561C246.542 99.9351 248.058 99.2742 249.585 98.581V101.207C248.143 101.58 246.639 101.935 245.068 102.267Z" fill="#FF6400"/>
<path d="M245.068 99.5296V84.4553C246.598 84.2203 248.105 83.9149 249.585 83.5536V97.4735C248.076 98.1873 246.56 98.8746 245.068 99.5296Z" fill="#FF8201"/>
<path d="M245.068 100.561V100.554C246.545 99.9284 248.058 99.2645 249.585 98.5684V98.5794C248.058 99.2726 246.542 99.935 245.068 100.561Z" fill="#FF8D01"/>
<path d="M245.068 100.555V99.5296C246.56 98.8746 248.076 98.1874 249.585 97.4736V98.5692C248.058 99.2653 246.545 99.9291 245.068 100.555Z" fill="#FF9C02"/>
<path d="M245.068 84.4555V82.0499C246.536 81.4184 248.049 80.7487 249.585 80.0466V83.5538C248.105 83.9151 246.598 84.2206 245.068 84.4555Z" fill="#FF6400"/>
<path d="M245.068 80.5578V53.8136L249.585 52.5123V78.4576C248.067 79.186 246.557 79.8881 245.068 80.5578Z" fill="#FF8201"/>
<path d="M245.068 82.0499V82.0477C246.536 81.4162 248.049 80.7465 249.585 80.0415V80.0482C248.049 80.7502 246.536 81.4184 245.068 82.0499Z" fill="#FF8D01"/>
<path d="M245.068 82.047V80.5578C246.557 79.8881 248.067 79.186 249.585 78.4576V80.0408C248.049 80.7457 246.536 81.4155 245.068 82.047Z" fill="#FF9C02"/>
<path d="M245.068 48.3178V108.982C245.068 140.352 210.243 163.166 195.281 171.505C192.675 172.971 189.726 173.732 186.759 173.732C183.793 173.732 180.844 172.971 178.238 171.505C173.171 168.682 165.808 164.197 158.3 158.246C143.664 146.703 128.449 129.714 128.449 108.982V48.3178C128.449 38.187 136.463 29.9361 146.305 29.9361H227.212C237.055 29.9361 245.068 38.187 245.068 48.3178Z" fill="#FFB612"/>
<path d="M187.356 173.723C187.761 173.703 188.166 173.664 188.569 173.62C186.228 173.373 183.934 172.672 181.86 171.511C176.258 168.389 167.878 163.243 159.583 156.381C162.271 152.358 164.697 147.984 166.88 143.36C174.461 149.491 181.857 153.868 185.076 155.659C185.379 155.826 185.699 155.943 186.028 156.014C186.028 156.014 186.028 156.014 186.03 156.014C186.271 156.067 186.515 156.093 186.759 156.093C187.008 156.093 187.255 156.067 187.502 156.011C187.555 156 187.61 155.988 187.663 155.973C187.96 156.052 188.265 156.093 188.568 156.093C189.147 156.093 189.725 155.947 190.251 155.659C198.067 151.297 230.36 131.884 230.36 108.583V51.2493C230.36 49.2225 228.768 47.5953 226.797 47.5953H186.38C186.738 39.8202 186.803 33.6548 186.794 29.9362H227.212C237.055 29.9362 245.068 38.1871 245.068 48.3179V108.982C245.068 123.275 237.839 135.794 228.551 145.975C226.043 148.724 223.388 151.3 220.682 153.7C211.415 161.91 201.584 167.993 195.28 171.505C192.851 172.874 190.12 173.627 187.356 173.723ZM208.017 44.373L216.303 37.7348V33.8076L220.265 29.9362H212.613H210.314L209.262 32.0804L210.314 37.8464L208.017 44.373Z" fill="#FF9C09"/>
<path d="M137.856 137.036C133.54 130.68 130.301 123.651 129.029 116.04C129.031 116.04 129.036 116.042 129.038 116.042C130.309 123.644 133.545 130.667 137.856 137.015L137.856 137.036ZM128.448 53.812H128.439V48.3104C128.439 42.1068 131.447 36.6111 136.041 33.2831C131.453 36.614 128.447 42.1127 128.447 48.3163L128.448 53.812Z" fill="#BA896C"/>
<path d="M186.759 173.738C183.793 173.738 180.846 172.968 178.238 171.511C171.932 167.995 162.104 161.912 152.836 153.706V153.686C154.647 155.287 156.478 156.808 158.3 158.247C165.807 164.198 173.171 168.683 178.238 171.506C180.844 172.972 183.793 173.733 186.759 173.733V173.738ZM144.966 145.984C143.765 144.67 142.598 143.312 141.477 141.919V141.899C142.598 143.295 143.765 144.65 144.966 145.966V145.984Z" fill="#EF943F"/>
<path d="M141.477 141.918C140.206 140.338 138.994 138.711 137.856 137.036V137.016C138.994 138.691 140.206 140.321 141.477 141.898V141.918Z" fill="#EFA25D"/>
<path d="M186.759 173.738V173.731C186.959 173.731 187.159 173.727 187.356 173.723C187.159 173.731 186.959 173.738 186.759 173.738Z" fill="#E68C2E"/>
<path d="M152.836 153.706C150.13 151.309 147.473 148.73 144.966 145.983V145.963C147.473 148.708 150.132 151.288 152.836 153.685V153.706Z" fill="#EFAB16"/>
<path d="M129.038 116.043C129.034 116.043 129.032 116.041 129.03 116.041C129.032 116.041 129.036 116.041 129.038 116.043ZM128.875 114.995C128.873 114.992 128.869 114.992 128.867 114.988C128.588 113.023 128.441 111.017 128.441 108.978V102.267C128.443 102.267 128.445 102.267 128.45 102.267V108.981C128.45 111.023 128.597 113.027 128.875 114.995Z" fill="#FFC00E"/>
<path d="M129.038 116.043C129.036 116.041 129.032 116.041 129.029 116.041C128.971 115.689 128.917 115.342 128.866 114.99C128.871 114.992 128.873 114.992 128.875 114.996C128.926 115.346 128.98 115.694 129.038 116.043Z" fill="#FFCE0F"/>
<path d="M128.449 102.267C128.444 102.267 128.442 102.267 128.44 102.267V100.558C128.442 100.558 128.446 100.56 128.449 100.56V102.267Z" fill="#FFB10D"/>
<path d="M128.449 99.5295C128.446 99.5295 128.442 99.5274 128.44 99.5274V84.4561C128.442 84.4561 128.446 84.4561 128.449 84.4561V99.5295Z" fill="#FFC00E"/>
<path d="M128.448 100.561L128.44 100.558V100.552C128.44 100.552 128.444 100.554 128.448 100.554V100.561Z" fill="#FFC60E"/>
<path d="M128.449 100.555C128.444 100.555 128.442 100.553 128.44 100.553V99.5276C128.442 99.5276 128.446 99.5299 128.449 99.5299V100.555Z" fill="#FFCE0F"/>
<path d="M128.449 84.4554C128.446 84.4554 128.442 84.4554 128.44 84.4554V82.0439C128.442 82.0461 128.444 82.0461 128.449 82.0505V84.4554Z" fill="#FFB10D"/>
<path d="M128.449 80.5578C128.444 80.5556 128.442 80.5555 128.44 80.5511V53.8128H128.449V80.5578Z" fill="#FFC00E"/>
<path d="M128.448 82.0499C128.444 82.0477 128.442 82.0477 128.44 82.0433C128.44 82.0433 128.444 82.0455 128.448 82.0455V82.0477" fill="#FFC60E"/>
<path d="M128.449 82.0468C128.444 82.0468 128.442 82.0468 128.44 82.0446V80.5524C128.442 80.5546 128.444 80.5547 128.449 80.5591V82.0468Z" fill="#FFCE0F"/>
<path d="M158.3 158.246C156.478 156.807 154.647 155.286 152.836 153.685C150.132 151.288 147.474 148.709 144.966 145.963C143.765 144.647 142.598 143.292 141.477 141.897C140.206 140.32 138.994 138.69 137.856 137.016C133.545 130.668 130.31 123.645 129.038 116.043C128.98 115.694 128.926 115.344 128.875 114.995C128.597 113.027 128.449 111.024 128.449 108.982V102.267V100.561V100.554V99.529V84.4548V82.0491V82.0469V80.5577V53.8135V48.3178C128.449 42.1142 131.454 36.6156 136.042 33.2847C138.949 31.1816 142.493 29.942 146.311 29.942H149.932C140.077 29.942 132.061 38.1841 132.061 48.312V108.979C132.061 120.587 136.828 131.024 143.592 139.988L143.479 140.197L143.65 140.065C148.319 146.233 153.932 151.705 159.583 156.381C159.16 157.01 158.735 157.632 158.3 158.246Z" fill="#FFDA1E"/>
<path d="M186.76 173.732C183.793 173.732 180.844 172.971 178.238 171.505C173.172 168.682 165.808 164.197 158.3 158.246C158.735 157.632 159.161 157.01 159.584 156.381C167.878 163.243 176.259 168.389 181.86 171.511C183.934 172.672 186.228 173.373 188.569 173.62C188.166 173.664 187.761 173.702 187.356 173.723C187.159 173.73 186.959 173.732 186.76 173.732Z" fill="#FFCE15"/>
<path d="M130.875 15.8517C130.875 23.5005 131.417 29.6982 123.768 29.6982C116.121 29.6982 109.922 23.5005 109.922 15.8517C109.922 8.20298 116.121 2.00525 123.768 2.00525C131.417 2.00525 130.875 8.20298 130.875 15.8517Z" fill="#FFB612"/>
<path d="M123.387 29.6938C123.378 29.6938 123.367 29.6938 123.358 29.6938C123.367 29.6938 123.376 29.6938 123.387 29.6938ZM123.352 29.6938C115.897 29.4735 109.922 23.3609 109.922 15.8532C109.922 8.20445 116.121 2.00671 123.769 2.00671C124.103 2.00671 124.402 2.03316 124.705 2.05673C117.521 2.56487 111.846 8.53937 111.846 15.8533C111.846 17.7185 112.216 19.4955 112.884 21.1169C111.993 20.6352 111.16 20.0624 110.4 19.4074C111.936 25.1998 117.12 29.5087 123.352 29.6938Z" fill="#FFDA1E"/>
<path d="M130.882 17.6082C130.88 17.0325 130.874 16.4451 130.874 15.8517C130.874 16.4451 130.878 17.0325 130.882 17.6082Z" fill="#CA6200"/>
<path d="M123.399 29.696C123.394 29.6938 123.39 29.6938 123.386 29.6938C123.388 29.6938 123.394 29.6938 123.399 29.696Z" fill="#005F16"/>
<path d="M123.768 29.6982C124.102 29.6982 124.402 29.6718 124.705 29.6482C119.352 29.2693 114.837 25.8562 112.883 21.1153C114.83 22.164 117.056 22.7631 119.424 22.7631C127.072 22.7631 126.531 16.5625 126.531 8.91666C126.531 6.53451 126.583 4.29627 126.424 2.3371C130.735 3.55607 130.899 8.06485 130.883 13.7015C130.881 14.4035 130.874 15.1203 130.874 15.8517C130.874 16.445 130.877 17.0324 130.881 17.6082C130.894 20.9215 130.882 23.8735 130.054 26.0294C129.178 28.3058 127.392 29.6982 123.768 29.6982Z" fill="#FF9C09"/>
<path d="M123.768 29.6982C123.755 29.6982 123.741 29.6982 123.729 29.6982C123.722 29.6982 123.718 29.6982 123.713 29.6982C123.704 29.6982 123.695 29.6982 123.686 29.6982C123.679 29.6982 123.675 29.6982 123.668 29.6982C123.659 29.6982 123.653 29.6982 123.643 29.6982C123.638 29.6982 123.632 29.6982 123.627 29.6982C123.618 29.6982 123.61 29.6982 123.6 29.6982C123.595 29.6982 123.589 29.6982 123.584 29.6982C123.575 29.6982 123.567 29.6982 123.558 29.6982C123.551 29.6982 123.545 29.6982 123.538 29.6982C123.527 29.696 123.515 29.696 123.504 29.696C123.497 29.696 123.491 29.696 123.484 29.696C123.477 29.696 123.471 29.696 123.462 29.696C123.455 29.696 123.447 29.696 123.439 29.696C123.435 29.696 123.428 29.696 123.424 29.696C123.415 29.696 123.406 29.696 123.397 29.696C123.393 29.6938 123.389 29.6937 123.384 29.6937C123.373 29.6937 123.364 29.6937 123.355 29.6937H123.349C117.116 29.5087 111.932 25.1997 110.396 19.4073C111.157 20.0624 111.99 20.6351 112.88 21.1169C114.834 25.8577 119.349 29.2708 124.702 29.6497C124.399 29.6733 124.099 29.6997 123.765 29.6997" fill="#FFBB10"/>
<path d="M117.575 10.5264C117.003 10.5264 116.548 10.353 116.315 9.99177C115.773 9.15171 116.645 7.62431 118.263 6.58155C119.187 5.98529 120.154 5.67395 120.915 5.67395C121.486 5.67395 121.941 5.8502 122.173 6.20856C122.715 7.04862 121.843 8.57601 120.225 9.62167C119.303 10.218 118.335 10.5264 117.575 10.5264Z" fill="#FFDA1E"/>
<path d="M242.642 15.8517C242.642 23.5005 242.101 29.6982 249.75 29.6982C257.396 29.6982 263.596 23.5005 263.596 15.8517C263.596 8.20298 257.396 2.00525 249.75 2.00525C242.101 2.00525 242.642 8.20298 242.642 15.8517Z" fill="#FFB612"/>
<path d="M250.167 29.6922C256.4 29.5072 261.581 25.1982 263.121 19.4058C262.357 20.0608 261.526 20.6336 260.636 21.1153C261.302 19.494 261.673 17.7169 261.673 15.8517C261.673 8.53778 255.998 2.56329 248.813 2.05515C249.116 2.03157 249.415 2.00513 249.75 2.00513C257.396 2.00513 263.596 8.20286 263.596 15.8516C263.596 23.3594 257.622 29.4719 250.167 29.6922Z" fill="#FFDA1E"/>
<path d="M249.75 29.6981C246.125 29.6981 244.339 28.3058 243.464 26.0294C242.636 23.8735 242.621 20.9215 242.636 17.6082C242.638 17.3056 242.638 17.0031 242.642 16.6976C242.642 16.4156 242.642 16.1366 242.642 15.8517C242.642 15.8362 242.642 15.8223 242.642 15.8105C242.642 15.8082 242.642 15.8016 242.642 15.7994C242.64 9.20518 242.26 3.70655 247.095 2.33777C246.937 4.29695 246.987 6.53518 246.987 8.91733C246.987 16.5631 246.446 22.7638 254.095 22.7638C256.462 22.7638 258.689 22.1646 260.636 21.116C258.68 25.8568 254.165 29.2699 248.814 29.6489C249.116 29.6724 249.415 29.6981 249.75 29.6981Z" fill="#FF9C09"/>
<path d="M249.85 29.6982C249.859 29.6982 249.868 29.6982 249.874 29.6982C249.865 29.6982 249.858 29.6982 249.85 29.6982ZM249.932 29.6982C249.941 29.6982 249.95 29.6982 249.959 29.6982C249.952 29.6982 249.941 29.6982 249.932 29.6982ZM250.161 29.6938C250.161 29.6938 250.164 29.6938 250.168 29.6938C250.166 29.6938 250.161 29.6938 250.161 29.6938Z" fill="#005F16"/>
<path d="M249.75 29.6981C249.415 29.6981 249.116 29.6717 248.813 29.6481C254.165 29.2692 258.679 25.8561 260.636 21.1153C261.526 20.6336 262.357 20.0608 263.121 19.4058C261.581 25.1981 256.4 29.5072 250.167 29.6922C250.165 29.6922 250.16 29.6922 250.16 29.6922C250.149 29.6922 250.141 29.6922 250.131 29.6922C250.129 29.6922 250.122 29.6922 250.12 29.6944C250.111 29.6944 250.103 29.6944 250.094 29.6944C250.087 29.6944 250.083 29.6944 250.076 29.6944C250.069 29.6944 250.061 29.6944 250.056 29.6944C250.047 29.6944 250.041 29.6944 250.033 29.6944C250.026 29.6944 250.022 29.6944 250.015 29.6944C250.004 29.6944 249.992 29.6944 249.98 29.6966C249.973 29.6966 249.969 29.6966 249.96 29.6966C249.951 29.6966 249.942 29.6966 249.934 29.6966C249.931 29.6966 249.925 29.6966 249.918 29.6966C249.909 29.6966 249.901 29.6966 249.892 29.6966C249.885 29.6966 249.881 29.6966 249.874 29.6966C249.867 29.6966 249.859 29.6966 249.851 29.6966C249.844 29.6966 249.84 29.6966 249.833 29.6966C249.824 29.6966 249.815 29.6966 249.806 29.6966C249.8 29.6966 249.798 29.6966 249.791 29.6966C249.776 29.6966 249.762 29.6981 249.75 29.6981Z" fill="#FFBB10"/>
<path d="M255.942 10.5264C255.184 10.5264 254.215 10.218 253.292 9.62167C251.674 8.57601 250.802 7.04862 251.345 6.20856C251.577 5.8502 252.032 5.67395 252.605 5.67395C253.363 5.67395 254.332 5.98529 255.255 6.58155C256.873 7.62431 257.745 9.15171 257.202 9.99177C256.97 10.3531 256.515 10.5264 255.942 10.5264Z" fill="#FFDA1E"/>
<path d="M220.265 29.9361L216.303 33.8074V37.7347L208.017 44.3729L211.944 37.8785L211.218 31.9981L212.614 29.9361H220.265Z" fill="#CA7300"/>
<path d="M155.335 122.482L149.259 129.543L147.787 134.484L143.479 140.197L151.101 134.243L152.56 130.777L155.643 127.978L155.335 122.482Z" fill="#CA7300"/>
<path d="M143.615 140.018C143.606 140.007 143.599 139.998 143.592 139.988L146.73 134.149L147.711 128.874L150.414 125.61C150.725 126.107 151.045 126.597 151.375 127.085L149.259 129.543L147.787 134.484L143.615 140.018Z" fill="#FFDA1E"/>
<path d="M143.479 140.197L143.592 139.988C143.601 139.997 143.607 140.006 143.615 140.017L143.479 140.197Z" fill="#FFEC29"/>
<path d="M143.479 140.197L143.615 140.018L147.787 134.484L143.479 140.197Z" fill="#EFB90D"/>
<path d="M208.017 44.3729L210.314 37.8463L209.262 32.0803L210.314 29.9361H212.614L211.218 31.9981L211.944 37.8785L208.017 44.3729Z" fill="#FFCE15"/>
<path d="M188.569 156.093C188.266 156.093 187.961 156.052 187.664 155.973C187.932 155.9 188.193 155.796 188.443 155.659C196.259 151.297 228.552 131.884 228.552 108.582V51.2492C228.552 49.2224 226.96 47.5952 224.989 47.5952H186.381H226.798C228.769 47.5952 230.361 49.2224 230.361 51.2492V108.582C230.361 131.884 198.068 151.297 190.252 155.659C189.726 155.947 189.148 156.093 188.569 156.093Z" fill="#FFCE15"/>
<path d="M228.551 51.2492V108.583C228.551 131.884 196.258 151.297 188.442 155.659C187.391 156.237 186.125 156.237 185.076 155.659C181.857 153.868 174.458 149.488 166.877 143.354C156.093 134.598 144.966 122.262 144.966 108.583V51.2492C144.966 49.2224 146.559 47.5952 148.531 47.5952H224.988C226.959 47.5952 228.551 49.2224 228.551 51.2492Z" fill="#CA7300"/>
<path d="M186.028 156.014C185.699 155.943 185.379 155.826 185.076 155.659C181.857 153.867 174.458 149.488 166.877 143.354L166.879 143.347C174.451 149.489 181.844 153.852 185.07 155.652C185.375 155.819 185.696 155.943 186.028 156.014Z" fill="#BD6000"/>
<path d="M187.503 156.011C187.829 155.941 188.146 155.82 188.449 155.653C189.221 155.221 190.243 154.634 191.442 153.92C186.152 150.759 177.266 144.937 169.515 137.383C172.487 130.183 174.949 122.511 176.99 114.689L185.69 110.116C186.025 109.94 186.392 109.851 186.76 109.851C187.127 109.851 187.494 109.94 187.829 110.116L201.452 117.277C201.804 117.462 202.169 117.547 202.524 117.547C203.866 117.547 205.049 116.337 204.794 114.851L202.194 99.6824C202.065 98.9334 202.312 98.1727 202.855 97.644L213.876 86.9022C215.242 85.5686 214.487 83.2482 212.598 82.9721L197.371 80.7603H197.365C196.616 80.6517 195.967 80.1817 195.632 79.5002L188.82 65.7007C188.397 64.8459 187.578 64.4171 186.755 64.4171C186.197 64.4171 185.636 64.617 185.204 65.0134C185.768 58.6571 186.138 52.7707 186.379 47.5952H224.987C226.958 47.5952 228.55 49.2224 228.55 51.2492V108.583C228.55 131.884 196.257 151.297 188.441 155.659C188.192 155.796 187.93 155.899 187.663 155.973C187.61 155.988 187.556 155.999 187.503 156.011Z" fill="#BD6000"/>
<path d="M186.759 156.094C187.009 156.094 187.256 156.064 187.503 156.011C187.256 156.067 187.009 156.094 186.759 156.094Z" fill="#E47104"/>
<path d="M145.7 49.0226C146.35 48.1502 147.374 47.5862 148.526 47.5862H157.895C157.818 47.5862 157.742 47.5884 157.665 47.595H150.341H148.531C147.376 47.595 146.351 48.1532 145.7 49.0226Z" fill="#E48409"/>
<path d="M166.88 143.348C156.105 134.607 144.97 122.267 144.97 108.588V51.2433C144.97 50.4091 145.242 49.6395 145.7 49.0227C146.351 48.1533 147.376 47.5952 148.531 47.5952H150.341H157.665C155.808 47.7157 154.337 49.3017 154.337 51.2433V108.588C154.337 119.395 161.284 129.364 169.515 137.383C168.677 139.412 167.799 141.401 166.88 143.348Z" fill="#B55300"/>
<path d="M186.759 156.093C186.516 156.093 186.272 156.067 186.031 156.014C185.699 155.943 185.377 155.82 185.071 155.653C181.846 153.852 174.453 149.49 166.88 143.348C167.8 141.401 168.678 139.412 169.515 137.383C177.267 144.937 186.152 150.759 191.442 153.92C190.244 154.634 189.222 155.221 188.449 155.653C188.147 155.82 187.829 155.941 187.503 156.011C187.257 156.063 187.009 156.093 186.759 156.093Z" fill="#A94500"/>
<path d="M188.821 65.7006L195.633 79.5001C195.968 80.1815 196.617 80.6515 197.366 80.7602L212.596 82.9719C214.485 83.2481 215.239 85.5685 213.874 86.9021L202.853 97.6439C202.309 98.1726 202.063 98.9333 202.189 99.6823L204.791 114.851C205.115 116.73 203.141 118.167 201.452 117.277L187.829 110.116C187.159 109.763 186.357 109.763 185.684 110.116L172.064 117.277C170.375 118.167 168.401 116.73 168.721 114.851L171.324 99.6823C171.453 98.9333 171.203 98.1726 170.663 97.6439L159.642 86.9021C158.276 85.5685 159.028 83.2481 160.917 82.9719L176.147 80.7602C176.899 80.6516 177.545 80.1815 177.88 79.5001L184.691 65.7006C185.537 63.9881 187.978 63.9881 188.821 65.7006Z" fill="#FFB612"/>
<path d="M170.992 117.547C171.242 117.547 171.497 117.506 171.75 117.415C171.494 117.506 171.242 117.547 170.992 117.547Z" fill="#EFB90D"/>
<path d="M170.992 117.547C169.649 117.547 168.469 116.337 168.721 114.851L171.324 99.6826C171.347 99.5533 171.356 99.4242 171.356 99.2979C171.358 98.6811 171.112 98.0818 170.663 97.6442L159.642 86.9024C158.773 86.0564 158.761 84.811 159.351 83.9445C159.689 83.4481 160.227 83.0751 160.917 82.9722L176.147 80.7605C176.158 80.7583 176.173 80.7583 176.185 80.7539C176.67 80.6746 177.107 80.4455 177.445 80.1077C177.621 79.9343 177.768 79.7287 177.88 79.4996L184.691 65.7002C185.114 64.8454 185.934 64.4195 186.753 64.4195C187.153 64.4195 187.555 64.5224 187.911 64.725C187.538 64.9393 187.217 65.2625 187 65.7002L180.188 79.4996C179.854 80.1782 179.205 80.651 178.455 80.7597L163.226 82.9715C161.337 83.2476 160.582 85.5681 161.948 86.9016L172.969 97.6434C173.512 98.1721 173.759 98.9329 173.632 99.6819L171.03 114.85C170.942 115.37 171.03 115.852 171.239 116.257L170.372 117.438C170.584 117.5 170.807 117.535 171.033 117.535C171.268 117.535 171.512 117.497 171.75 117.414C171.497 117.505 171.241 117.547 170.992 117.547Z" fill="#FFDA1E"/>
<path d="M202.527 117.547H202.525C203.867 117.545 205.048 116.337 204.792 114.851L202.19 99.6824C202.064 98.9334 202.31 98.1727 202.854 97.644L213.874 86.9022C215.24 85.5687 214.485 83.2482 212.597 82.9721L197.37 80.7603H197.372L212.597 82.9721C214.485 83.2482 215.24 85.5687 213.874 86.9022L202.856 97.644C202.313 98.1727 202.066 98.9334 202.195 99.6824L204.795 114.851C205.05 116.337 203.869 117.547 202.527 117.547Z" fill="#BD5200"/>
<path d="M171.753 117.415C171.838 117.383 171.926 117.347 172.011 117.303C172.013 117.303 172.018 117.301 172.02 117.301C172.035 117.292 172.049 117.286 172.064 117.277L176.99 114.687L172.067 117.277C171.964 117.332 171.858 117.377 171.753 117.415Z" fill="#CA6200"/>
<path d="M176.99 114.689L185.684 110.117C186.022 109.94 186.389 109.852 186.756 109.852C186.389 109.852 186.024 109.94 185.689 110.117L176.99 114.689Z" fill="#BD5200"/>
<path d="M202.524 117.547C202.172 117.547 201.807 117.462 201.455 117.277L187.832 110.116C187.497 109.939 187.13 109.851 186.762 109.851H186.758C186.391 109.851 186.024 109.939 185.686 110.116L176.991 114.686L172.066 117.277L172.171 117.221C171.778 116.998 171.449 116.663 171.24 116.258L197.373 80.7603L212.597 82.9721C214.486 83.2482 215.241 85.5687 213.875 86.9022L202.854 97.644C202.311 98.1727 202.064 98.9335 202.191 99.6825L204.793 114.851C205.049 116.337 203.866 117.544 202.524 117.547Z" fill="#FF9C09"/>
<path d="M171.75 117.415C171.838 117.383 171.923 117.347 172.011 117.303C171.926 117.347 171.838 117.383 171.753 117.415C171.751 117.415 171.75 117.415 171.75 117.415Z" fill="#EF9E07"/>
<path d="M171.033 117.535C170.807 117.535 170.584 117.5 170.372 117.438L171.239 116.258C171.447 116.663 171.776 116.998 172.17 117.221L172.064 117.277C172.049 117.286 172.035 117.292 172.02 117.301C172.018 117.301 172.013 117.303 172.011 117.303C171.923 117.347 171.838 117.382 171.75 117.414C171.512 117.497 171.268 117.535 171.033 117.535Z" fill="#FFBB10"/>
<path d="M175.771 87.9069C174.291 87.9069 173.13 87.387 172.887 86.4882C172.543 85.2222 174.138 83.686 176.455 83.0574C177.125 82.8752 177.78 82.7872 178.382 82.7872C179.866 82.7872 181.023 83.31 181.27 84.2088C181.613 85.4748 180.016 87.011 177.701 87.6396C177.031 87.8218 176.376 87.9069 175.771 87.9069Z" fill="#FFDA1E"/>
</svg>
